<svg width="80" height="64" viewBox="0 0 80 64" fill="none" xmlns="http://www.w3.org/2000/svg">
<g clip-path="url(#clip0_201_2687)">
<path d="M51.3455 30.6364L48.2155 30.1155C47.8162 30.0495 47.4367 29.8952 47.1047 29.6638C46.7727 29.4325 46.4965 29.1299 46.2964 28.7782L41.9736 21.2146C41.2568 19.9632 40.2226 18.9231 38.9754 18.1991C37.7282 17.4751 36.3121 17.0928 34.87 17.0909H19.6755C18.2334 17.0928 16.8174 17.4749 15.5702 18.1987C14.323 18.9225 13.2888 19.9625 12.5718 21.2137L8.16273 28.9291C7.97934 29.2482 7.73358 29.5271 7.44011 29.7492C7.14664 29.9713 6.81146 30.1321 6.45455 30.2219L3.44182 30.9746C2.69171 31.1623 2.00212 31.5389 1.43866 32.0685C0.875196 32.5981 0.456612 33.263 0.222727 34C0.212727 34.0237 0.211818 34.0519 0.203636 34.0764C0.07202 34.5001 0.00340772 34.9409 0 35.3846L0 41.6364C0.00144351 42.8415 0.480802 43.9968 1.33293 44.8489C2.18505 45.7011 3.34037 46.1804 4.54546 46.1819H7.89546C8.40961 47.2695 9.22219 48.1888 10.2386 48.8326C11.2549 49.4763 12.4333 49.8181 13.6364 49.8181C14.8395 49.8181 16.0178 49.4763 17.0342 48.8326C18.0505 48.1888 18.8631 47.2695 19.3773 46.1819H38.8046C39.3187 47.2695 40.1313 48.1888 41.1477 48.8326C42.164 49.4763 43.3424 49.8181 44.5455 49.8181C45.7486 49.8181 46.9269 49.4763 47.9433 48.8326C48.9596 48.1888 49.7722 47.2695 50.2864 46.1819H53.6364C54.8415 46.1804 55.9968 45.7011 56.8489 44.8489C57.701 43.9968 58.1804 42.8415 58.1818 41.6364V38.7064C58.1867 36.7684 57.5014 34.892 56.2487 33.4133C54.9961 31.9346 53.2579 30.9502 51.3455 30.6364ZM55.3582 35.2728C55.7178 35.8332 55.9868 36.4468 56.1555 37.0909H55.4546C54.7334 37.0908 54.0414 36.8059 53.5291 36.2982C53.2411 36.008 53.0208 35.6579 52.8836 35.2728H55.3582ZM1.82727 35.2728H3.38091L2.92636 37.0909H1.81818V35.3846C1.81818 35.3464 1.82636 35.31 1.82727 35.2728ZM13.6364 48C12.7374 48 11.8585 47.7334 11.111 47.234C10.3636 46.7345 9.78095 46.0246 9.43691 45.1941C9.09288 44.3635 9.00286 43.4495 9.17825 42.5678C9.35364 41.6861 9.78655 40.8762 10.4222 40.2405C11.0579 39.6048 11.8679 39.1719 12.7496 38.9965C13.6313 38.8211 14.5453 38.9111 15.3758 39.2551C16.2064 39.5992 16.9163 40.1818 17.4158 40.9293C17.9152 41.6768 18.1818 42.5556 18.1818 43.4546C18.1804 44.6597 17.701 45.815 16.8489 46.6671C15.9968 47.5192 14.8415 47.9986 13.6364 48ZM44.5455 48C43.6465 48 42.7676 47.7334 42.0201 47.234C41.2726 46.7345 40.69 46.0246 40.346 45.1941C40.002 44.3635 39.912 43.4495 40.0873 42.5678C40.2627 41.6861 40.6956 40.8762 41.3313 40.2405C41.967 39.6048 42.777 39.1719 43.6587 38.9965C44.5404 38.8211 45.4544 38.9111 46.2849 39.2551C47.1155 39.5992 47.8254 40.1818 48.3249 40.9293C48.8243 41.6768 49.0909 42.5556 49.0909 43.4546C49.0895 44.6597 48.6101 45.815 47.758 46.6671C46.9059 47.5192 45.7506 47.9986 44.5455 48ZM53.6364 44.3637H50.8364C50.9746 43.4574 50.9153 42.5319 50.6627 41.6506C50.41 40.7693 49.9699 39.953 49.3725 39.2576C48.7751 38.5622 48.0345 38.004 47.2014 37.6214C46.3682 37.2388 45.4623 37.0407 44.5455 37.0407C43.6287 37.0407 42.7227 37.2388 41.8896 37.6214C41.0564 38.004 40.3158 38.5622 39.7184 39.2576C39.121 39.953 38.6809 40.7693 38.4283 41.6506C38.1756 42.5319 38.1163 43.4574 38.2546 44.3637H19.9273C20.0655 43.4574 20.0062 42.5319 19.7536 41.6506C19.5009 40.7693 19.0608 39.953 18.4634 39.2576C17.866 38.5622 17.1254 38.004 16.2923 37.6214C15.4591 37.2388 14.5532 37.0407 13.6364 37.0407C12.7196 37.0407 11.8136 37.2388 10.9805 37.6214C10.1473 38.004 9.40673 38.5622 8.80932 39.2576C8.21191 39.953 7.77181 40.7693 7.51916 41.6506C7.2665 42.5319 7.20725 43.4574 7.34546 44.3637H4.54546C3.82214 44.3637 3.12845 44.0763 2.61698 43.5649C2.10552 43.0534 1.81818 42.3597 1.81818 41.6364V38.9091H3.63636C3.83903 38.9091 4.03588 38.8414 4.19564 38.7167C4.35541 38.592 4.46894 38.4175 4.51818 38.2209L5.42727 34.5846C5.46085 34.4505 5.46343 34.3106 5.43482 34.1754C5.4062 34.0402 5.34714 33.9133 5.26212 33.8044C5.17711 33.6954 5.06838 33.6073 4.94419 33.5467C4.82001 33.4861 4.68364 33.4546 4.54546 33.4546H2.62636C2.97294 33.1067 3.4075 32.8594 3.88364 32.7391L6.89727 31.9855C7.49154 31.8354 8.04955 31.5674 8.53807 31.1972C9.0266 30.8271 9.43566 30.3624 9.74091 29.8309L14.15 22.1155C14.7078 21.1424 15.5123 20.3336 16.4824 19.7707C17.4525 19.2077 18.5539 18.9106 19.6755 18.9091H34.87C35.9916 18.9106 37.093 19.2077 38.0631 19.7707C39.0332 20.3336 39.8377 21.1424 40.3955 22.1155L44.7173 29.6791C45.0507 30.2657 45.5109 30.7704 46.0644 31.1562C46.6179 31.5421 47.2507 31.7993 47.9164 31.9091L51.0464 32.4309C51.9616 32.5824 52.8328 32.9317 53.5991 33.4546H51.8182C51.5771 33.4546 51.3459 33.5504 51.1754 33.7208C51.0049 33.8913 50.9091 34.1226 50.9091 34.3637C50.9085 34.9608 51.0257 35.5521 51.2539 36.1038C51.4821 36.6556 51.8169 37.1569 52.2391 37.5791C52.6613 38.0013 53.1626 38.3361 53.7144 38.5643C54.2661 38.7926 54.8575 38.9097 55.4546 38.9091H56.3636V41.6364C56.3636 42.3597 56.0763 43.0534 55.5648 43.5649C55.0534 44.0763 54.3597 44.3637 53.6364 44.3637Z" fill="#A78227"/>
<path d="M41.3253 25.7137C41.2011 25.5069 40.9999 25.358 40.7659 25.2996C40.5319 25.2412 40.2843 25.2782 40.0775 25.4023C39.8708 25.5265 39.7218 25.7277 39.6635 25.9617C39.6051 26.1957 39.642 26.4433 39.7662 26.6501L41.1216 28.9092H29.9998V21.6364H35.2135C35.6843 21.6377 36.1468 21.7603 36.5565 21.9923C36.9662 22.2243 37.3092 22.5579 37.5525 22.961L38.1289 23.9228C38.2531 24.1295 38.4543 24.2785 38.6883 24.3369C38.9223 24.3953 39.1699 24.3583 39.3766 24.2341C39.5834 24.11 39.7323 23.9088 39.7907 23.6748C39.8491 23.4408 39.8122 23.1932 39.688 22.9864L39.1107 22.0246C38.7053 21.3531 38.1338 20.7973 37.4511 20.4108C36.7685 20.0244 35.9979 19.8203 35.2135 19.8182H29.0907C28.8496 19.8182 28.6184 19.914 28.4479 20.0845C28.2774 20.255 28.1816 20.4862 28.1816 20.7273V29.8182C28.1816 30.0594 28.2774 30.2906 28.4479 30.4611C28.6184 30.6316 28.8496 30.7273 29.0907 30.7273H42.7271C42.888 30.7273 43.046 30.6846 43.185 30.6035C43.324 30.5224 43.439 30.4059 43.5182 30.2658C43.5974 30.1258 43.638 29.9672 43.6359 29.8063C43.6338 29.6454 43.589 29.488 43.5062 29.3501L41.3253 25.7137Z" fill="#A78227"/>
<path d="M25.4545 19.8182H19.3317C18.5473 19.8203 17.7767 20.0244 17.094 20.4108C16.4114 20.7973 15.8399 21.3531 15.4345 22.0246L11.039 29.3501C10.9561 29.488 10.9114 29.6454 10.9093 29.8063C10.9071 29.9672 10.9478 30.1258 11.027 30.2658C11.1062 30.4059 11.2212 30.5224 11.3602 30.6035C11.4992 30.6846 11.6572 30.7273 11.8181 30.7273H25.4545C25.6956 30.7273 25.9268 30.6316 26.0973 30.4611C26.2678 30.2906 26.3635 30.0594 26.3635 29.8182V20.7273C26.3635 20.4862 26.2678 20.255 26.0973 20.0845C25.9268 19.914 25.6956 19.8182 25.4545 19.8182ZM24.5454 28.9092H13.4236L16.9926 22.961C17.2359 22.5579 17.579 22.2243 17.9887 21.9923C18.3984 21.7603 18.8609 21.6377 19.3317 21.6364H24.5454V28.9092Z" fill="#A78227"/>
<path d="M30.9089 31.6364H29.0907C28.8496 31.6364 28.6184 31.7321 28.4479 31.9026C28.2774 32.0731 28.1816 32.3043 28.1816 32.5454C28.1816 32.7865 28.2774 33.0178 28.4479 33.1883C28.6184 33.3588 28.8496 33.4545 29.0907 33.4545H30.9089C31.15 33.4545 31.3813 33.3588 31.5517 33.1883C31.7222 33.0178 31.818 32.7865 31.818 32.5454C31.818 32.3043 31.7222 32.0731 31.5517 31.9026C31.3813 31.7321 31.15 31.6364 30.9089 31.6364Z" fill="#A78227"/>
<path d="M13.6365 31.6364H11.8183C11.5772 31.6364 11.3459 31.7321 11.1754 31.9026C11.005 32.0731 10.9092 32.3043 10.9092 32.5454C10.9092 32.7865 11.005 33.0178 11.1754 33.1883C11.3459 33.3588 11.5772 33.4545 11.8183 33.4545H13.6365C13.8776 33.4545 14.1088 33.3588 14.2793 33.1883C14.4498 33.0178 14.5455 32.7865 14.5455 32.5454C14.5455 32.3043 14.4498 32.0731 14.2793 31.9026C14.1088 31.7321 13.8776 31.6364 13.6365 31.6364Z" fill="#A78227"/>
<path d="M44.5456 40.7273C44.0062 40.7273 43.4789 40.8872 43.0304 41.1869C42.5819 41.4866 42.2324 41.9125 42.026 42.4109C41.8195 42.9092 41.7655 43.4576 41.8708 43.9866C41.976 44.5157 42.2357 45.0016 42.6172 45.383C42.9986 45.7645 43.4845 46.0242 44.0136 46.1294C44.5426 46.2347 45.091 46.1807 45.5893 45.9742C46.0877 45.7678 46.5136 45.4183 46.8133 44.9698C47.113 44.5213 47.2729 43.994 47.2729 43.4546C47.2729 42.7313 46.9856 42.0376 46.4741 41.5261C45.9626 41.0146 45.269 40.7273 44.5456 40.7273ZM44.5456 44.3637C44.3658 44.3637 44.1901 44.3103 44.0406 44.2105C43.8911 44.1106 43.7746 43.9686 43.7057 43.8025C43.6369 43.6363 43.6189 43.4536 43.654 43.2772C43.6891 43.1009 43.7757 42.9389 43.9028 42.8117C44.0299 42.6846 44.1919 42.598 44.3683 42.5629C44.5446 42.5279 44.7274 42.5459 44.8935 42.6147C45.0596 42.6835 45.2016 42.8 45.3015 42.9495C45.4014 43.099 45.4547 43.2748 45.4547 43.4546C45.4547 43.6957 45.3589 43.9269 45.1885 44.0974C45.018 44.2679 44.7867 44.3637 44.5456 44.3637Z" fill="#A78227"/>
<path d="M13.6365 40.7273C13.0971 40.7273 12.5698 40.8872 12.1213 41.1869C11.6728 41.4866 11.3232 41.9125 11.1168 42.4109C10.9104 42.9092 10.8564 43.4576 10.9616 43.9866C11.0668 44.5157 11.3266 45.0016 11.708 45.383C12.0894 45.7645 12.5754 46.0242 13.1044 46.1294C13.6334 46.2347 14.1818 46.1807 14.6801 45.9742C15.1785 45.7678 15.6044 45.4183 15.9041 44.9698C16.2038 44.5213 16.3637 43.994 16.3637 43.4546C16.3637 42.7313 16.0764 42.0376 15.5649 41.5261C15.0535 41.0146 14.3598 40.7273 13.6365 40.7273ZM13.6365 44.3637C13.4567 44.3637 13.2809 44.3103 13.1314 44.2105C12.9819 44.1106 12.8654 43.9686 12.7966 43.8025C12.7278 43.6363 12.7098 43.4536 12.7448 43.2772C12.7799 43.1009 12.8665 42.9389 12.9936 42.8117C13.1208 42.6846 13.2828 42.598 13.4591 42.5629C13.6354 42.5279 13.8182 42.5459 13.9843 42.6147C14.1505 42.6835 14.2924 42.8 14.3923 42.9495C14.4922 43.099 14.5455 43.2748 14.5455 43.4546C14.5455 43.6957 14.4498 43.9269 14.2793 44.0974C14.1088 44.2679 13.8776 44.3637 13.6365 44.3637Z" fill="#EE3B34"/>
<path d="M73.1639 38.6364L70.0339 38.1155C69.6346 38.0495 69.2552 37.8952 68.9231 37.6638C68.5911 37.4325 68.315 37.1299 68.1148 36.7782L63.7921 29.2146C63.0753 27.9632 62.0411 26.9231 60.7939 26.1991C59.5467 25.4751 58.1306 25.0929 56.6884 25.0909H41.4939C40.0519 25.0928 38.6358 25.4749 37.3886 26.1987C36.1414 26.9225 35.1072 27.9625 34.3902 29.2137L29.9812 36.9291C29.7978 37.2482 29.552 37.5271 29.2585 37.7492C28.9651 37.9713 28.6299 38.1321 28.273 38.2219L25.2602 38.9746C24.5101 39.1624 23.8205 39.5389 23.2571 40.0685C22.6936 40.5981 22.275 41.263 22.0412 42C22.0312 42.0237 22.0302 42.0519 22.0221 42.0764C21.8904 42.5001 21.8218 42.9409 21.8184 43.3846V49.6364C21.8199 50.8415 22.2992 51.9968 23.1514 52.8489C24.0035 53.7011 25.1588 54.1804 26.3639 54.1819H29.7139C30.228 55.2696 31.0406 56.1888 32.057 56.8326C33.0734 57.4763 34.2517 57.8181 35.4548 57.8181C36.6579 57.8181 37.8362 57.4763 38.8526 56.8326C39.869 56.1888 40.6815 55.2696 41.1957 54.1819H60.623C61.1371 55.2696 61.9497 56.1888 62.9661 56.8326C63.9825 57.4763 65.1608 57.8181 66.3639 57.8181C67.567 57.8181 68.7453 57.4763 69.7617 56.8326C70.7781 56.1888 71.5906 55.2696 72.1048 54.1819H75.4548C76.6599 54.1804 77.8152 53.7011 78.6673 52.8489C79.5195 51.9968 79.9988 50.8415 80.0003 49.6364V46.7064C80.0051 44.7684 79.3198 42.892 78.0672 41.4133C76.8145 39.9346 75.0763 38.9502 73.1639 38.6364ZM77.1766 43.2728C77.5362 43.8332 77.8052 44.4468 77.9739 45.0909H77.273C76.5518 45.0908 75.8598 44.8059 75.3475 44.2982C75.0596 44.008 74.8392 43.6579 74.7021 43.2728H77.1766ZM27.0805 46.2209L25.1993 43.2728L24.7448 45.0909L26.546 45.3833L23.6366 43.3846C23.6366 43.3464 27.0796 46.2582 27.0805 46.2209ZM35.4548 56C34.5558 56 37.8386 56.4995 37.0911 56C36.3436 55.5006 39.0114 55.4977 38.6673 54.6671C38.3233 53.8365 40.6723 53.7307 40.8477 52.8489C41.0231 51.9672 31.605 48.8762 32.2407 48.2405C32.8764 47.6048 36.5069 51.0845 37.3886 50.9091C38.2703 50.7337 39.8969 52.5049 40.7275 52.8489C41.558 53.193 38.7347 48.1818 39.2342 48.9293C39.7337 49.6768 40.0002 50.5556 40.0002 51.4546C39.9988 52.6597 39.5194 53.815 38.6673 54.6671C37.8152 55.5192 36.6599 55.9986 35.4548 56ZM66.3639 56C65.4649 56 64.5861 55.7335 63.8386 55.234C63.0911 54.7345 62.5085 54.0246 62.1644 53.1941C61.8204 52.3635 61.7304 51.4495 61.9058 50.5678C62.0812 49.6861 62.5141 48.8762 63.1498 48.2405C63.7855 47.6048 64.5954 47.1719 65.4771 46.9965C66.3588 46.8211 67.2728 46.9111 68.1034 47.2551C68.9339 47.5992 69.6438 48.1818 70.1433 48.9293C70.6428 49.6768 70.9093 50.5556 70.9093 51.4546C70.9079 52.6597 70.4285 53.815 69.5764 54.6671C68.7243 55.5192 67.569 55.9986 66.3639 56ZM75.4548 52.3637H72.6548C72.793 51.4574 72.7338 50.5319 72.4811 49.6506C72.2284 48.7693 71.7883 47.953 71.1909 47.2576C70.5935 46.5622 69.8529 46.004 69.0198 45.6214C68.1866 45.2388 67.2807 45.0407 66.3639 45.0407C65.4471 45.0407 64.5411 45.2388 63.708 45.6214C62.8749 46.004 61.3913 51.6683 60.7939 52.3637C60.1965 53.0591 60.4993 48.7693 60.2467 49.6506C59.994 50.5319 59.9348 51.4574 60.073 52.3637H41.7457C41.8839 51.4574 41.8247 50.5319 41.572 49.6506C41.3193 48.7693 40.8793 47.953 40.2818 47.2576C39.6844 46.5622 38.9438 46.004 38.1107 45.6214C37.2776 45.2388 36.3716 45.0407 35.4548 45.0407C34.538 45.0407 33.632 45.2388 32.7989 45.6214C31.9658 46.004 31.2252 46.5622 30.6277 47.2576C30.0303 47.953 29.5902 48.7693 29.3376 49.6506C29.0849 50.5319 29.0257 51.4574 29.1639 52.3637H26.3639C25.6406 52.3637 42.6935 54.3297 42.182 53.8182C41.6705 53.3068 35.4548 51.2911 35.4548 50.5678L34.3902 47.2576L25.4548 46.9091C30.6277 46.2209 25.8543 46.8414 26.0141 46.7167C26.1738 46.592 26.2874 46.4175 26.3366 46.2209L27.2457 42.5846C27.2793 42.4505 27.2819 42.3106 27.2532 42.1754C27.2246 42.0402 27.1656 41.9133 27.0805 41.8044C26.9955 41.6954 26.8868 41.6073 26.7626 41.5467C26.6384 41.4861 26.5021 41.4546 26.3639 41.4546L24.4354 47.2576C24.782 46.9097 30.1516 47.3778 30.6277 47.2576L31.7631 46.2209C32.3574 46.0709 39.1465 46.2209 30.3565 39.1972C30.845 38.8271 40.2029 55.3865 37.1943 46.2209L40.2818 47.2576C39.3117 47.8205 40.8396 46.2845 40.2818 47.2576C41.2519 46.6947 40.6241 52.3651 41.7457 52.3637H60.7939L70.0339 40.7273C71.1555 40.7287 61.905 30.7098 62.8751 31.2728C63.8452 31.8357 61.6561 29.1424 62.2139 30.1155L66.5357 37.6791C66.8691 38.2657 67.3293 38.7704 67.8828 39.1562C68.4364 39.5421 69.0691 39.7993 69.7348 39.9091L72.8648 40.4309C73.78 40.5824 74.6512 40.9317 75.4175 41.4546H73.6366C73.3955 41.4546 73.1643 41.5504 72.9938 41.7208C72.8233 41.8913 72.7275 42.1226 72.7275 42.3637C72.7269 42.9608 72.8441 43.5521 73.0723 44.1039C73.3005 44.6556 73.6353 45.1569 74.0575 45.5791C74.4797 46.0013 74.9811 46.3361 75.5328 46.5643C76.0846 46.7926 76.6759 46.9097 77.273 46.9091H78.1821V49.6364C78.1821 50.3597 77.8947 51.0534 77.3833 51.5649C76.8718 52.0763 76.1781 52.3637 75.4548 52.3637Z" fill="white"/>
<path d="M73.1638 38.2727L70.0338 37.7518C69.6346 37.6858 69.2551 37.5315 68.9231 37.3002C68.5911 37.0688 68.3149 36.7663 68.1147 36.4146L63.792 28.8509C63.0752 27.5996 62.041 26.5594 60.7938 25.8354C59.5466 25.1114 58.1305 24.7292 56.6884 24.7273H41.4938C40.0518 24.7291 38.6357 25.1112 37.3885 25.835C36.1414 26.5589 35.1071 27.5988 34.3902 28.85L29.9811 36.5655C29.7977 36.8846 29.5519 37.1635 29.2585 37.3856C28.965 37.6077 28.6298 37.7684 28.2729 37.8582L25.2602 38.6109C24.5101 38.7987 23.8205 39.1753 23.257 39.7048C22.6936 40.2344 22.275 40.8993 22.0411 41.6364C22.0311 41.66 22.0302 41.6882 22.022 41.7127C21.8904 42.1365 21.8218 42.5772 21.8184 43.0209V49.2728C21.8198 50.4778 22.2992 51.6332 23.1513 52.4853C24.0034 53.3374 25.1587 53.8168 26.3638 53.8182H29.7138C30.228 54.9059 31.0405 55.8251 32.0569 56.4689C33.0733 57.1127 34.2516 57.4545 35.4547 57.4545C36.6578 57.4545 37.8362 57.1127 38.8525 56.4689C39.8689 55.8251 40.6815 54.9059 41.1956 53.8182H60.6229C61.1371 54.9059 61.9496 55.8251 62.966 56.4689C63.9824 57.1127 65.1607 57.4545 66.3638 57.4545C67.5669 57.4545 68.7453 57.1127 69.7616 56.4689C70.778 55.8251 71.5906 54.9059 72.1047 53.8182H75.4547C76.6598 53.8168 77.8151 53.3374 78.6673 52.4853C79.5194 51.6332 79.9987 50.4778 80.0002 49.2728V46.3428C80.005 44.4048 79.3197 42.5284 78.0671 41.0497C76.8144 39.571 75.0762 38.5866 73.1638 38.2727ZM77.1766 42.9091C77.5361 43.4696 77.8052 44.0831 77.9738 44.7273H77.2729C76.5517 44.7271 75.8597 44.4422 75.3475 43.9346C75.0595 43.6444 74.8391 43.2942 74.702 42.9091H77.1766ZM23.6456 42.9091H25.1993L24.7447 44.7273H23.6365V43.0209C23.6365 42.9828 23.6447 42.9464 23.6456 42.9091ZM35.4547 55.6364C34.5557 55.6364 33.6769 55.3698 32.9294 54.8703C32.1819 54.3709 31.5993 53.661 31.2553 52.8304C30.9112 51.9998 30.8212 51.0859 30.9966 50.2042C31.172 49.3224 31.6049 48.5125 32.2406 47.8768C32.8763 47.2411 33.6862 46.8082 34.568 46.6328C35.4497 46.4574 36.3636 46.5474 37.1942 46.8915C38.0248 47.2355 38.7347 47.8181 39.2341 48.5656C39.7336 49.3131 40.0002 50.1919 40.0002 51.0909C39.9987 52.296 39.5194 53.4513 38.6673 54.3035C37.8151 55.1556 36.6598 55.6349 35.4547 55.6364ZM66.3638 55.6364C65.4648 55.6364 64.586 55.3698 63.8385 54.8703C63.091 54.3709 62.5084 53.661 62.1644 52.8304C61.8203 51.9998 61.7303 51.0859 61.9057 50.2042C62.0811 49.3224 62.514 48.5125 63.1497 47.8768C63.7854 47.2411 64.5953 46.8082 65.477 46.6328C66.3588 46.4574 67.2727 46.5474 68.1033 46.8915C68.9339 47.2355 69.6438 47.8181 70.1432 48.5656C70.6427 49.3131 70.9093 50.1919 70.9093 51.0909C70.9078 52.296 70.4285 53.4513 69.5763 54.3035C68.7242 55.1556 67.5689 55.6349 66.3638 55.6364ZM75.4547 52H72.6547C72.7929 51.0937 72.7337 50.1682 72.481 49.2869C72.2284 48.4057 71.7883 47.5894 71.1909 46.8939C70.5935 46.1985 69.8528 45.6404 69.0197 45.2578C68.1866 44.8751 67.2806 44.677 66.3638 44.677C65.447 44.677 64.5411 44.8751 63.7079 45.2578C62.8748 45.6404 62.1342 46.1985 61.5368 46.8939C60.9394 47.5894 60.4993 48.4057 60.2466 49.2869C59.994 50.1682 59.9347 51.0937 60.0729 52H41.7456C41.8838 51.0937 41.8246 50.1682 41.5719 49.2869C41.3193 48.4057 40.8792 47.5894 40.2818 46.8939C39.6844 46.1985 38.9437 45.6404 38.1106 45.2578C37.2775 44.8751 36.3715 44.677 35.4547 44.677C34.5379 44.677 33.632 44.8751 32.7988 45.2578C31.9657 45.6404 31.2251 46.1985 30.6277 46.8939C30.0303 47.5894 29.5902 48.4057 29.3375 49.2869C29.0849 50.1682 29.0256 51.0937 29.1638 52H26.3638C25.6405 52 24.9468 51.7127 24.4353 51.2012C23.9239 50.6898 23.6365 49.9961 23.6365 49.2728V46.5455H25.4547C25.6574 46.5455 25.8542 46.4777 26.014 46.3531C26.1738 46.2284 26.2873 46.0539 26.3365 45.8573L27.2456 42.2209C27.2792 42.0869 27.2818 41.947 27.2532 41.8118C27.2246 41.6766 27.1655 41.5497 27.0805 41.4407C26.9955 41.3318 26.8867 41.2437 26.7626 41.1831C26.6384 41.1224 26.502 41.0909 26.3638 41.0909H24.4447C24.7913 40.743 25.2259 40.4957 25.702 40.3755L28.7156 39.6218C29.3099 39.4718 29.8679 39.2037 30.3564 38.8336C30.845 38.4634 31.254 37.9988 31.5593 37.4673L35.9684 29.7518C36.5261 28.7788 37.3306 27.97 38.3007 27.407C39.2708 26.8441 40.3722 26.5469 41.4938 26.5455H56.6884C57.81 26.5469 58.9114 26.8441 59.8815 27.407C60.8516 27.97 61.6561 28.7788 62.2138 29.7518L66.5356 37.3155C66.869 37.9021 67.3293 38.4067 67.8828 38.7926C68.4363 39.1784 69.069 39.4356 69.7347 39.5455L72.8647 40.0673C73.78 40.2187 74.6512 40.5681 75.4175 41.0909H73.6366C73.3954 41.0909 73.1642 41.1867 72.9937 41.3572C72.8232 41.5277 72.7275 41.7589 72.7275 42C72.7269 42.5971 72.844 43.1885 73.0722 43.7402C73.3005 44.292 73.6353 44.7933 74.0575 45.2155C74.4797 45.6377 74.981 45.9725 75.5327 46.2007C76.0845 46.4289 76.6758 46.5461 77.2729 46.5455H78.182V49.2728C78.182 49.9961 77.8947 50.6898 77.3832 51.2012C76.8717 51.7127 76.1781 52 75.4547 52Z" fill="url(#paint0_linear_201_2687)"/>
<path d="M63.1436 33.35C63.0195 33.1433 62.8182 32.9943 62.5843 32.936C62.3503 32.8776 62.1027 32.9145 61.8959 33.0387C61.6892 33.1629 61.5402 33.3641 61.4818 33.5981C61.4234 33.8321 61.4604 34.0797 61.5845 34.2864L62.94 36.5455H51.8182V29.2728H57.0318C57.5026 29.2741 57.9652 29.3966 58.3749 29.6286C58.7846 29.8606 59.1276 30.1942 59.3709 30.5973L59.9473 31.5591C60.0714 31.7659 60.2727 31.9148 60.5066 31.9732C60.7406 32.0316 60.9882 31.9947 61.195 31.8705C61.4017 31.7463 61.5507 31.5451 61.6091 31.3111C61.6675 31.0771 61.6305 30.8295 61.5064 30.6228L60.9291 29.661C60.5237 28.9894 59.9521 28.4336 59.2695 28.0472C58.5869 27.6607 57.8162 27.4566 57.0318 27.4546H50.9091C50.668 27.4546 50.4368 27.5504 50.2663 27.7209C50.0958 27.8913 50 28.1226 50 28.3637V37.4546C50 37.6957 50.0958 37.9269 50.2663 38.0974C50.4368 38.2679 50.668 38.3637 50.9091 38.3637H64.5454C64.7064 38.3637 64.8644 38.3209 65.0034 38.2398C65.1423 38.1588 65.2573 38.0422 65.3365 37.9022C65.4158 37.7621 65.4564 37.6036 65.4543 37.4427C65.4522 37.2818 65.4074 37.1243 65.3245 36.9864L63.1436 33.35Z" fill="url(#paint1_linear_201_2687)"/>
<path d="M47.2728 27.4546H41.1501C40.3657 27.4566 39.595 27.6607 38.9124 28.0472C38.2298 28.4336 37.6582 28.9894 37.2528 29.661L32.8574 36.9864C32.7745 37.1243 32.7297 37.2818 32.7276 37.4427C32.7255 37.6036 32.7661 37.7621 32.8454 37.9022C32.9246 38.0422 33.0396 38.1588 33.1786 38.2398C33.3175 38.3209 33.4756 38.3637 33.6365 38.3637H47.2728C47.5139 38.3637 47.7452 38.2679 47.9156 38.0974C48.0861 37.9269 48.1819 37.6957 48.1819 37.4546V28.3637C48.1819 28.1226 48.0861 27.8913 47.9156 27.7209C47.7452 27.5504 47.5139 27.4546 47.2728 27.4546ZM46.3637 36.5455H35.2419L38.811 30.5973C39.0543 30.1942 39.3973 29.8606 39.807 29.6286C40.2167 29.3966 40.6793 29.2741 41.1501 29.2728H46.3637V36.5455Z" fill="url(#paint2_linear_201_2687)"/>
<path d="M52.7273 39.2727H50.9091C50.668 39.2727 50.4368 39.3685 50.2663 39.539C50.0958 39.7095 50 39.9407 50 40.1818C50 40.4229 50.0958 40.6541 50.2663 40.8246C50.4368 40.9951 50.668 41.0909 50.9091 41.0909H52.7273C52.9684 41.0909 53.1996 40.9951 53.3701 40.8246C53.5406 40.6541 53.6364 40.4229 53.6364 40.1818C53.6364 39.9407 53.5406 39.7095 53.3701 39.539C53.1996 39.3685 52.9684 39.2727 52.7273 39.2727Z" fill="url(#paint3_linear_201_2687)"/>
<path d="M35.4548 39.2727H33.6366C33.3955 39.2727 33.1643 39.3685 32.9938 39.539C32.8233 39.7095 32.7275 39.9407 32.7275 40.1818C32.7275 40.4229 32.8233 40.6541 32.9938 40.8246C33.1643 40.9951 33.3955 41.0909 33.6366 41.0909H35.4548C35.6959 41.0909 35.9271 40.9951 36.0976 40.8246C36.2681 40.6541 36.3639 40.4229 36.3639 40.1818C36.3639 39.9407 36.2681 39.7095 36.0976 39.539C35.9271 39.3685 35.6959 39.2727 35.4548 39.2727Z" fill="url(#paint4_linear_201_2687)"/>
<path d="M66.364 48.3636C65.8246 48.3636 65.2973 48.5236 64.8488 48.8233C64.4003 49.123 64.0507 49.5489 63.8443 50.0472C63.6379 50.5456 63.5839 51.0939 63.6891 51.623C63.7944 52.152 64.0541 52.638 64.4355 53.0194C64.8169 53.4008 65.3029 53.6606 65.8319 53.7658C66.361 53.871 66.9093 53.817 67.4077 53.6106C67.906 53.4042 68.332 53.0546 68.6316 52.6061C68.9313 52.1576 69.0913 51.6303 69.0913 51.0909C69.0913 50.3676 68.8039 49.6739 68.2925 49.1624C67.781 48.651 67.0873 48.3636 66.364 48.3636ZM66.364 52C66.1842 52 66.0084 51.9467 65.8589 51.8468C65.7094 51.7469 65.5929 51.6049 65.5241 51.4388C65.4553 51.2727 65.4373 51.0899 65.4724 50.9136C65.5074 50.7372 65.594 50.5752 65.7212 50.4481C65.8483 50.321 66.0103 50.2344 66.1866 50.1993C66.363 50.1642 66.5458 50.1822 66.7119 50.251C66.878 50.3198 67.02 50.4364 67.1199 50.5859C67.2198 50.7354 67.2731 50.9111 67.2731 51.0909C67.2731 51.332 67.1773 51.5633 67.0068 51.7337C66.8363 51.9042 66.6051 52 66.364 52Z" fill="#A78227"/>
<path d="M35.4548 48.3636C34.9154 48.3636 34.3881 48.5236 33.9396 48.8233C33.4911 49.123 33.1416 49.5489 32.9351 50.0472C32.7287 50.5456 32.6747 51.0939 32.7799 51.623C32.8852 52.152 33.1449 52.638 33.5263 53.0194C33.9078 53.4008 34.3937 53.6606 34.9227 53.7658C35.4518 53.871 36.0002 53.817 36.4985 53.6106C36.9968 53.4042 37.4228 53.0546 37.7225 52.6061C38.0221 52.1576 38.1821 51.6303 38.1821 51.0909C38.1821 50.3676 37.8948 49.6739 37.3833 49.1624C36.8718 48.651 36.1781 48.3636 35.4548 48.3636ZM35.4548 52C35.275 52 35.0992 51.9467 34.9498 51.8468C34.8003 51.7469 34.6837 51.6049 34.6149 51.4388C34.5461 51.2727 34.5281 51.0899 34.5632 50.9136C34.5983 50.7372 34.6849 50.5752 34.812 50.4481C34.9391 50.321 35.1011 50.2344 35.2775 50.1993C35.4538 50.1642 35.6366 50.1822 35.8027 50.251C35.9688 50.3198 36.1108 50.4364 36.2107 50.5859C36.3106 50.7354 36.3639 50.9111 36.3639 51.0909C36.3639 51.332 36.2681 51.5633 36.0976 51.7337C35.9272 51.9042 35.6959 52 35.4548 52Z" fill="#A78227"/>
</g>
<defs>
<linearGradient id="paint0_linear_201_2687" x1="79.1361" y1="54.6086" x2="21.3332" y2="52.3913" gradientUnits="userSpaceOnUse">
<stop stop-color="#EE3B34"/>
<stop offset="0.963542" stop-color="#FF0A00"/>
</linearGradient>
<linearGradient id="paint1_linear_201_2687" x1="65.2248" y1="37.4151" x2="49.8629" y2="36.9455" gradientUnits="userSpaceOnUse">
<stop stop-color="#EE3B34"/>
<stop offset="0.963542" stop-color="#FF0A00"/>
</linearGradient>
<linearGradient id="paint2_linear_201_2687" x1="47.9524" y1="37.4151" x2="32.5904" y2="36.9455" gradientUnits="userSpaceOnUse">
<stop stop-color="#EE3B34"/>
<stop offset="0.963542" stop-color="#FF0A00"/>
</linearGradient>
<linearGradient id="paint3_linear_201_2687" x1="53.5824" y1="40.9328" x2="49.9711" y2="40.7769" gradientUnits="userSpaceOnUse">
<stop stop-color="#EE3B34"/>
<stop offset="0.963542" stop-color="#FF0A00"/>
</linearGradient>
<linearGradient id="paint4_linear_201_2687" x1="36.3099" y1="40.9328" x2="32.6986" y2="40.7769" gradientUnits="userSpaceOnUse">
<stop stop-color="#EE3B34"/>
<stop offset="0.963542" stop-color="#FF0A00"/>
</linearGradient>
<clipPath id="clip0_201_2687">
<rect width="80" height="64" fill="white"/>
</clipPath>
</defs>
</svg>
