<svg width="74" height="74" viewBox="0 0 74 74" fill="none" xmlns="http://www.w3.org/2000/svg">
<circle cx="37" cy="37" r="37" fill="#EE3B34"/>
<g clip-path="url(#clip0_201_3241)">
<path d="M58.0218 16.8188C56.525 16.8188 55.0617 17.2627 53.8171 18.0943C52.5726 18.9259 51.6025 20.1079 51.0297 21.4908C50.4569 22.8737 50.307 24.3954 50.599 25.8635C50.8911 27.3316 51.6119 28.6801 52.6703 29.7385C53.7287 30.797 55.0772 31.5178 56.5453 31.8098C58.0134 32.1018 59.5351 31.9519 60.918 31.3791C62.3009 30.8063 63.4829 29.8363 64.3145 28.5917C65.1461 27.3471 65.59 25.8839 65.59 24.387C65.5878 22.3805 64.7897 20.4568 63.3709 19.0379C61.9521 17.6191 60.0283 16.821 58.0218 16.8188V16.8188ZM58.0218 30.6938C56.7744 30.6938 55.5551 30.324 54.5179 29.631C53.4808 28.938 52.6724 27.953 52.1951 26.8005C51.7177 25.6481 51.5928 24.38 51.8362 23.1566C52.0795 21.9332 52.6802 20.8095 53.5622 19.9274C54.4442 19.0454 55.568 18.4447 56.7914 18.2014C58.0148 17.958 59.2829 18.0829 60.4353 18.5603C61.5877 19.0376 62.5727 19.846 63.2657 20.8831C63.9587 21.9203 64.3286 23.1397 64.3286 24.387C64.3268 26.0591 63.6617 27.6622 62.4794 28.8446C61.297 30.027 59.6939 30.692 58.0218 30.6938Z" fill="white"/>
<path d="M58.0218 19.9724C57.8545 19.9724 57.6941 20.0388 57.5758 20.1571C57.4576 20.2753 57.3911 20.4358 57.3911 20.603V25.6485C57.3911 25.8158 57.4576 25.9762 57.5758 26.0944C57.6941 26.2127 57.8545 26.2792 58.0218 26.2792C58.1891 26.2792 58.3495 26.2127 58.4678 26.0944C58.586 25.9762 58.6525 25.8158 58.6525 25.6485V20.603C58.6525 20.4358 58.586 20.2753 58.4678 20.1571C58.3495 20.0388 58.1891 19.9724 58.0218 19.9724Z" fill="white"/>
<path d="M58.6525 28.1712C58.6525 27.8229 58.3701 27.5405 58.0218 27.5405C57.6735 27.5405 57.3911 27.8229 57.3911 28.1712C57.3911 28.5195 57.6735 28.8019 58.0218 28.8019C58.3701 28.8019 58.6525 28.5195 58.6525 28.1712Z" fill="white"/>
</g>
<g clip-path="url(#clip1_201_3241)">
<path d="M51.6481 33.0382L49.1147 32.6166C48.7916 32.5632 48.4844 32.4383 48.2157 32.2511C47.947 32.0638 47.7235 31.8189 47.5615 31.5343L44.0627 25.4125C43.4826 24.3996 42.6455 23.5578 41.6361 22.9718C40.6266 22.3858 39.4804 22.0764 38.3132 22.0749H26.0152C24.848 22.0764 23.7019 22.3856 22.6925 22.9715C21.683 23.5573 20.8459 24.3991 20.2656 25.4117L16.697 31.6564C16.5486 31.9147 16.3497 32.1404 16.1122 32.3202C15.8746 32.4999 15.6034 32.63 15.3145 32.7027L12.8761 33.312C12.2689 33.4639 11.7108 33.7687 11.2547 34.1974C10.7987 34.626 10.4599 35.1641 10.2706 35.7607C10.2625 35.7798 10.2618 35.8026 10.2552 35.8225C10.1486 36.1654 10.0931 36.5222 10.0903 36.8813V41.9414C10.0915 42.9167 10.4795 43.8518 11.1692 44.5415C11.8589 45.2312 12.7939 45.6192 13.7693 45.6204H16.4807C16.8969 46.5007 17.5545 47.2447 18.3772 47.7658C19.1998 48.2868 20.1535 48.5634 21.1273 48.5634C22.101 48.5634 23.0547 48.2868 23.8774 47.7658C24.7 47.2447 25.3577 46.5007 25.7738 45.6204H41.4978C41.9139 46.5007 42.5716 47.2447 43.3942 47.7658C44.2168 48.2868 45.1706 48.5634 46.1443 48.5634C47.1181 48.5634 48.0718 48.2868 48.8944 47.7658C49.717 47.2447 50.3747 46.5007 50.7909 45.6204H53.5023C54.4776 45.6192 55.4127 45.2312 56.1024 44.5415C56.7921 43.8518 57.1801 42.9167 57.1812 41.9414V39.5699C57.1852 38.0014 56.6305 36.4827 55.6166 35.2858C54.6028 34.089 53.1959 33.2922 51.6481 33.0382ZM54.8959 36.7908C55.1869 37.2444 55.4046 37.741 55.5412 38.2624H54.9739C54.3901 38.2623 53.8301 38.0317 53.4154 37.6208C53.1824 37.3859 53.004 37.1025 52.893 36.7908H54.8959ZM11.5693 36.7908H12.8268L12.4589 38.2624H11.5619V36.8813C11.5619 36.8504 11.5685 36.821 11.5693 36.7908ZM21.1273 47.0919C20.3996 47.0919 19.6883 46.8762 19.0833 46.4719C18.4783 46.0677 18.0068 45.4931 17.7283 44.8209C17.4499 44.1486 17.377 43.4089 17.519 42.6952C17.6609 41.9816 18.0113 41.326 18.5258 40.8115C19.0403 40.297 19.6959 39.9466 20.4095 39.8047C21.1232 39.6627 21.8629 39.7356 22.5351 40.014C23.2074 40.2925 23.782 40.764 24.1862 41.369C24.5905 41.974 24.8062 42.6853 24.8062 43.413C24.8051 44.3883 24.4171 45.3234 23.7274 46.0131C23.0377 46.7028 22.1026 47.0908 21.1273 47.0919ZM46.1443 47.0919C45.4167 47.0919 44.7054 46.8762 44.1004 46.4719C43.4954 46.0677 43.0238 45.4931 42.7454 44.8209C42.4669 44.1486 42.3941 43.4089 42.536 42.6952C42.678 41.9816 43.0284 41.326 43.5429 40.8115C44.0574 40.297 44.7129 39.9466 45.4266 39.8047C46.1402 39.6627 46.88 39.7356 47.5522 40.014C48.2244 40.2925 48.799 40.764 49.2033 41.369C49.6075 41.974 49.8233 42.6853 49.8233 43.413C49.8221 44.3883 49.4341 45.3234 48.7444 46.0131C48.0548 46.7028 47.1197 47.0908 46.1443 47.0919ZM53.5023 44.1488H51.236C51.3479 43.4152 51.2999 42.6662 51.0954 41.9529C50.8909 41.2396 50.5347 40.5789 50.0512 40.016C49.5677 39.4532 48.9682 39.0014 48.2939 38.6917C47.6196 38.3821 46.8863 38.2217 46.1443 38.2217C45.4023 38.2217 44.669 38.3821 43.9947 38.6917C43.3204 39.0014 42.721 39.4532 42.2374 40.016C41.7539 40.5789 41.3977 41.2396 41.1932 41.9529C40.9887 42.6662 40.9407 43.4152 41.0526 44.1488H26.219C26.3308 43.4152 26.2829 42.6662 26.0784 41.9529C25.8739 41.2396 25.5177 40.5789 25.0342 40.016C24.5506 39.4532 23.9512 39.0014 23.2769 38.6917C22.6026 38.3821 21.8693 38.2217 21.1273 38.2217C20.3852 38.2217 19.652 38.3821 18.9777 38.6917C18.3033 39.0014 17.7039 39.4532 17.2204 40.016C16.7368 40.5789 16.3806 41.2396 16.1761 41.9529C15.9717 42.6662 15.9237 43.4152 16.0356 44.1488H13.7693C13.1839 44.1488 12.6224 43.9162 12.2085 43.5022C11.7945 43.0883 11.5619 42.5268 11.5619 41.9414V39.734H13.0335C13.1975 39.734 13.3569 39.6792 13.4862 39.5783C13.6155 39.4773 13.7074 39.3361 13.7472 39.177L14.483 36.2338C14.5102 36.1253 14.5123 36.0121 14.4891 35.9026C14.466 35.7932 14.4182 35.6905 14.3494 35.6023C14.2806 35.5142 14.1925 35.4428 14.092 35.3938C13.9915 35.3447 13.8812 35.3192 13.7693 35.3192H12.216C12.4966 35.0376 12.8483 34.8375 13.2337 34.7401L15.6728 34.1302C16.1538 34.0087 16.6054 33.7918 17.0008 33.4922C17.3962 33.1926 17.7273 32.8165 17.9744 32.3863L21.543 26.1416C21.9944 25.354 22.6456 24.6994 23.4307 24.2438C24.2159 23.7882 25.1074 23.5476 26.0152 23.5465H38.3132C39.221 23.5476 40.1125 23.7882 40.8976 24.2438C41.6828 24.6994 42.334 25.354 42.7854 26.1416L46.2834 32.2635C46.5532 32.7382 46.9257 33.1467 47.3737 33.459C47.8217 33.7713 48.3338 33.9795 48.8726 34.0684L51.406 34.4907C52.1468 34.6133 52.8519 34.896 53.4721 35.3192H52.0307C51.8355 35.3192 51.6484 35.3967 51.5104 35.5347C51.3724 35.6727 51.2949 35.8599 51.2949 36.055C51.2944 36.5383 51.3892 37.0169 51.5739 37.4635C51.7587 37.91 52.0296 38.3158 52.3713 38.6575C52.7131 38.9992 53.1188 39.2702 53.5654 39.4549C54.012 39.6396 54.4906 39.7345 54.9739 39.734H55.7097V41.9414C55.7097 42.5268 55.4771 43.0883 55.0631 43.5022C54.6492 43.9162 54.0877 44.1488 53.5023 44.1488Z" fill="white"/>
<path d="M43.538 29.0539C43.4375 28.8866 43.2747 28.766 43.0853 28.7188C42.8959 28.6715 42.6955 28.7014 42.5281 28.8019C42.3608 28.9024 42.2403 29.0653 42.193 29.2547C42.1457 29.444 42.1756 29.6445 42.2761 29.8118L43.3732 31.6402H34.3715V25.7539H38.5913C38.9723 25.7549 39.3467 25.8541 39.6783 26.0419C40.0099 26.2297 40.2876 26.4997 40.4845 26.8259L40.951 27.6044C41.0515 27.7717 41.2143 27.8923 41.4037 27.9396C41.5931 27.9868 41.7935 27.9569 41.9609 27.8564C42.1282 27.7559 42.2487 27.5931 42.296 27.4037C42.3433 27.2143 42.3134 27.0139 42.2129 26.8465L41.7456 26.0681C41.4175 25.5245 40.9549 25.0747 40.4024 24.7619C39.8499 24.4491 39.2262 24.284 38.5913 24.2823H33.6357C33.4406 24.2823 33.2534 24.3598 33.1154 24.4978C32.9774 24.6358 32.8999 24.8229 32.8999 25.0181V32.376C32.8999 32.5712 32.9774 32.7583 33.1154 32.8963C33.2534 33.0343 33.4406 33.1118 33.6357 33.1118H44.6726C44.8029 33.1118 44.9308 33.0772 45.0432 33.0116C45.1557 32.946 45.2488 32.8517 45.3129 32.7383C45.377 32.625 45.4099 32.4966 45.4082 32.3664C45.4065 32.2362 45.3703 32.1087 45.3032 31.9971L43.538 29.0539Z" fill="white"/>
<path d="M30.6925 24.2823H25.7369C25.102 24.284 24.4783 24.4491 23.9258 24.7619C23.3733 25.0747 22.9107 25.5245 22.5826 26.0681L19.025 31.9971C18.9579 32.1087 18.9217 32.2362 18.92 32.3664C18.9183 32.4966 18.9512 32.625 19.0153 32.7383C19.0794 32.8517 19.1725 32.946 19.285 33.0116C19.3975 33.0772 19.5253 33.1118 19.6556 33.1118H30.6925C30.8877 33.1118 31.0748 33.0343 31.2128 32.8963C31.3508 32.7583 31.4283 32.5712 31.4283 32.376V25.0181C31.4283 24.8229 31.3508 24.6358 31.2128 24.4978C31.0748 24.3598 30.8877 24.2823 30.6925 24.2823ZM29.9567 31.6402H20.955L23.8437 26.8259C24.0406 26.4997 24.3183 26.2297 24.6499 26.0419C24.9815 25.8541 25.3559 25.7549 25.7369 25.7539H29.9567V31.6402Z" fill="white"/>
<path d="M35.1073 33.8476H33.6357C33.4406 33.8476 33.2534 33.9251 33.1154 34.0631C32.9774 34.2011 32.8999 34.3883 32.8999 34.5834C32.8999 34.7786 32.9774 34.9657 33.1154 35.1037C33.2534 35.2417 33.4406 35.3192 33.6357 35.3192H35.1073C35.3024 35.3192 35.4896 35.2417 35.6276 35.1037C35.7656 34.9657 35.8431 34.7786 35.8431 34.5834C35.8431 34.3883 35.7656 34.2011 35.6276 34.0631C35.4896 33.9251 35.3024 33.8476 35.1073 33.8476Z" fill="white"/>
<path d="M21.1273 33.8476H19.6557C19.4606 33.8476 19.2734 33.9251 19.1354 34.0631C18.9974 34.2011 18.9199 34.3883 18.9199 34.5834C18.9199 34.7786 18.9974 34.9657 19.1354 35.1037C19.2734 35.2417 19.4606 35.3192 19.6557 35.3192H21.1273C21.3225 35.3192 21.5096 35.2417 21.6476 35.1037C21.7856 34.9657 21.8631 34.7786 21.8631 34.5834C21.8631 34.3883 21.7856 34.2011 21.6476 34.0631C21.5096 33.9251 21.3225 33.8476 21.1273 33.8476Z" fill="white"/>
<path d="M46.1444 41.2056C45.7078 41.2056 45.281 41.335 44.918 41.5776C44.555 41.8201 44.2721 42.1649 44.105 42.5682C43.938 42.9716 43.8943 43.4154 43.9794 43.8436C44.0646 44.2718 44.2748 44.6651 44.5835 44.9738C44.8923 45.2825 45.2856 45.4928 45.7138 45.5779C46.142 45.6631 46.5858 45.6194 46.9891 45.4523C47.3925 45.2852 47.7372 45.0023 47.9798 44.6393C48.2223 44.2763 48.3518 43.8495 48.3518 43.413C48.3518 42.8275 48.1192 42.2661 47.7053 41.8521C47.2913 41.4381 46.7298 41.2056 46.1444 41.2056ZM46.1444 44.1487C45.9989 44.1487 45.8566 44.1056 45.7356 44.0247C45.6146 43.9439 45.5203 43.829 45.4646 43.6945C45.4089 43.5601 45.3944 43.4121 45.4227 43.2694C45.4511 43.1267 45.5212 42.9956 45.6241 42.8927C45.727 42.7898 45.8581 42.7197 46.0009 42.6913C46.1436 42.6629 46.2915 42.6775 46.426 42.7332C46.5604 42.7889 46.6753 42.8832 46.7562 43.0042C46.837 43.1252 46.8802 43.2674 46.8802 43.413C46.8802 43.6081 46.8027 43.7953 46.6647 43.9332C46.5267 44.0712 46.3395 44.1487 46.1444 44.1487Z" fill="white"/>
<path d="M21.1273 41.2056C20.6907 41.2056 20.264 41.335 19.901 41.5776C19.5379 41.8201 19.255 42.1649 19.088 42.5682C18.9209 42.9716 18.8772 43.4154 18.9623 43.8436C19.0475 44.2718 19.2577 44.6651 19.5665 44.9738C19.8752 45.2825 20.2685 45.4928 20.6967 45.5779C21.1249 45.6631 21.5687 45.6194 21.972 45.4523C22.3754 45.2852 22.7201 45.0023 22.9627 44.6393C23.2052 44.2763 23.3347 43.8495 23.3347 43.413C23.3347 42.8275 23.1021 42.2661 22.6882 41.8521C22.2742 41.4381 21.7127 41.2056 21.1273 41.2056ZM21.1273 44.1487C20.9818 44.1487 20.8395 44.1056 20.7185 44.0247C20.5975 43.9439 20.5032 43.829 20.4475 43.6945C20.3918 43.5601 20.3773 43.4121 20.4057 43.2694C20.434 43.1267 20.5041 42.9956 20.607 42.8927C20.7099 42.7898 20.841 42.7197 20.9838 42.6913C21.1265 42.6629 21.2744 42.6775 21.4089 42.7332C21.5433 42.7889 21.6583 42.8832 21.7391 43.0042C21.82 43.1252 21.8631 43.2674 21.8631 43.413C21.8631 43.6081 21.7856 43.7953 21.6476 43.9332C21.5096 44.0712 21.3225 44.1487 21.1273 44.1487Z" fill="white"/>
</g>
<defs>
<clipPath id="clip0_201_3241">
<rect width="15.1364" height="15.1364" fill="white" transform="translate(50.4536 16.8188)"/>
</clipPath>
<clipPath id="clip1_201_3241">
<rect width="47.0909" height="47.0909" fill="white" transform="translate(10.0903 11.7737)"/>
</clipPath>
</defs>
</svg>
