<svg width="80" height="80" viewBox="0 0 80 80" fill="none" xmlns="http://www.w3.org/2000/svg">
<g clip-path="url(#clip0_201_2618)">
<path d="M70.6 36.125L66.2962 35.4087C65.7473 35.318 65.2255 35.1058 64.769 34.7877C64.3125 34.4696 63.9327 34.0536 63.6575 33.57L57.7138 23.17C56.7281 21.4494 55.3061 20.0192 53.5912 19.0237C51.8763 18.0282 49.9292 17.5026 47.9462 17.5H27.0537C25.071 17.5025 23.1239 18.0279 21.409 19.0232C19.6941 20.0184 18.272 21.4484 17.2863 23.1687L11.2238 33.7775C10.9716 34.2163 10.6337 34.5997 10.2302 34.9051C9.82663 35.2105 9.36576 35.4315 8.875 35.555L4.7325 36.59C3.7011 36.8482 2.75291 37.366 1.97815 38.0941C1.20339 38.8223 0.627841 39.7366 0.30625 40.75C0.2925 40.7825 0.29125 40.8212 0.28 40.855C0.0990275 41.4376 0.00468561 42.0437 0 42.6538L0 51.25C0.00198482 52.907 0.661102 54.4956 1.83277 55.6672C3.00445 56.8389 4.59301 57.498 6.25 57.5H10.8563C11.5632 58.9956 12.6805 60.2595 14.078 61.1447C15.4755 62.0299 17.0957 62.4998 18.75 62.4998C20.4043 62.4998 22.0245 62.0299 23.422 61.1447C24.8195 60.2595 25.9368 58.9956 26.6438 57.5H53.3563C54.0632 58.9956 55.1805 60.2595 56.578 61.1447C57.9755 62.0299 59.5957 62.4998 61.25 62.4998C62.9043 62.4998 64.5245 62.0299 65.922 61.1447C67.3195 60.2595 68.4368 58.9956 69.1437 57.5H73.75C75.407 57.498 76.9956 56.8389 78.1672 55.6672C79.3389 54.4956 79.998 52.907 80 51.25V47.2213C80.0067 44.5565 79.0644 41.9765 77.342 39.9433C75.6196 37.9101 73.2295 36.5565 70.6 36.125ZM76.1175 42.5C76.6119 43.2706 76.9818 44.1143 77.2138 45H76.25C75.2583 44.9998 74.3069 44.608 73.6025 43.91C73.2066 43.511 72.9035 43.0296 72.715 42.5H76.1175ZM2.5125 42.5H4.64875L4.02375 45H2.5V42.6538C2.5 42.6013 2.51125 42.5513 2.5125 42.5ZM18.75 60C17.5139 60 16.3055 59.6334 15.2777 58.9467C14.2499 58.2599 13.4488 57.2838 12.9758 56.1418C12.5027 54.9997 12.3789 53.7431 12.6201 52.5307C12.8612 51.3183 13.4565 50.2047 14.3306 49.3306C15.2047 48.4565 16.3183 47.8612 17.5307 47.6201C18.7431 47.3789 19.9997 47.5027 21.1418 47.9758C22.2838 48.4488 23.2599 49.2499 23.9467 50.2777C24.6334 51.3055 25 52.5139 25 53.75C24.998 55.407 24.3389 56.9956 23.1672 58.1672C21.9956 59.3389 20.407 59.998 18.75 60ZM61.25 60C60.0139 60 58.8055 59.6334 57.7777 58.9467C56.7499 58.2599 55.9488 57.2838 55.4758 56.1418C55.0027 54.9997 54.8789 53.7431 55.1201 52.5307C55.3612 51.3183 55.9565 50.2047 56.8306 49.3306C57.7047 48.4565 58.8183 47.8612 60.0307 47.6201C61.2431 47.3789 62.4997 47.5027 63.6418 47.9758C64.7838 48.4488 65.7599 49.2499 66.4467 50.2777C67.1334 51.3055 67.5 52.5139 67.5 53.75C67.498 55.407 66.8389 56.9956 65.6672 58.1672C64.4956 59.3389 62.907 59.998 61.25 60ZM73.75 55H69.9C70.09 53.7538 70.0086 52.4813 69.6612 51.2695C69.3138 50.0577 68.7086 48.9353 67.8872 47.9791C67.0658 47.0229 66.0474 46.2555 64.9018 45.7294C63.7563 45.2033 62.5106 44.9309 61.25 44.9309C59.9894 44.9309 58.7437 45.2033 57.5982 45.7294C56.4526 46.2555 55.4343 47.0229 54.6128 47.9791C53.7914 48.9353 53.1862 50.0577 52.8388 51.2695C52.4914 52.4813 52.41 53.7538 52.6 55H27.4C27.59 53.7538 27.5086 52.4813 27.1612 51.2695C26.8138 50.0577 26.2086 48.9353 25.3872 47.9791C24.5658 47.0229 23.5474 46.2555 22.4018 45.7294C21.2563 45.2033 20.0106 44.9309 18.75 44.9309C17.4894 44.9309 16.2437 45.2033 15.0982 45.7294C13.9526 46.2555 12.9343 47.0229 12.1128 47.9791C11.2914 48.9353 10.6862 50.0577 10.3388 51.2695C9.99143 52.4813 9.90996 53.7538 10.1 55H6.25C5.25544 55 4.30161 54.6049 3.59835 53.9016C2.89509 53.1984 2.5 52.2446 2.5 51.25V47.5H5C5.27866 47.5 5.54933 47.4069 5.76901 47.2354C5.98869 47.064 6.14479 46.8241 6.2125 46.5537L7.4625 41.5537C7.50867 41.3694 7.51222 41.177 7.47287 40.9911C7.43352 40.8053 7.35231 40.6308 7.23542 40.481C7.11852 40.3312 6.96902 40.21 6.79827 40.1267C6.62751 40.0433 6.44001 40 6.25 40H3.61125C4.08779 39.5216 4.68531 39.1816 5.34 39.0162L9.48375 37.98C10.3009 37.7737 11.0681 37.4051 11.7398 36.8962C12.4116 36.3872 12.974 35.7483 13.3938 35.0175L19.4562 24.4088C20.2232 23.0708 21.3294 21.9587 22.6632 21.1846C23.9971 20.4106 25.5115 20.002 27.0537 20H47.9462C49.4884 20.002 51.0029 20.4106 52.3368 21.1846C53.6706 21.9587 54.7768 23.0708 55.5438 24.4088L61.4862 34.8088C61.9446 35.6153 62.5775 36.3092 63.3386 36.8398C64.0996 37.3703 64.9697 37.724 65.885 37.875L70.1888 38.5925C71.4472 38.8007 72.6451 39.2811 73.6987 40H71.25C70.9185 40 70.6005 40.1317 70.3661 40.3661C70.1317 40.6005 70 40.9185 70 41.25C69.9992 42.071 70.1603 42.8841 70.4741 43.6427C70.7879 44.4014 71.2482 45.0907 71.8288 45.6713C72.4093 46.2518 73.0986 46.7121 73.8573 47.0259C74.6159 47.3397 75.429 47.5008 76.25 47.5H77.5V51.25C77.5 52.2446 77.1049 53.1984 76.4016 53.9016C75.6984 54.6049 74.7446 55 73.75 55Z" fill="url(#paint0_linear_201_2618)"/>
<path d="M56.8225 29.3563C56.6518 29.072 56.3751 28.8672 56.0534 28.7869C55.7316 28.7066 55.3912 28.7574 55.1069 28.9281C54.8226 29.0989 54.6178 29.3755 54.5375 29.6973C54.4572 30.019 54.508 30.3595 54.6788 30.6437L56.5425 33.75H41.25V23.75H48.4188C49.0661 23.7518 49.7021 23.9203 50.2655 24.2393C50.8288 24.5583 51.3005 25.017 51.635 25.5713L52.4275 26.8937C52.5982 27.178 52.8749 27.3828 53.1966 27.4631C53.5184 27.5434 53.8588 27.4926 54.1431 27.3219C54.4274 27.1511 54.6322 26.8745 54.7125 26.5527C54.7928 26.231 54.742 25.8905 54.5713 25.6063L53.7775 24.2838C53.2201 23.3604 52.4342 22.5962 51.4956 22.0648C50.557 21.5334 49.4973 21.2528 48.4188 21.25H40C39.6685 21.25 39.3505 21.3817 39.1161 21.6161C38.8817 21.8505 38.75 22.1685 38.75 22.5V35C38.75 35.3315 38.8817 35.6495 39.1161 35.8839C39.3505 36.1183 39.6685 36.25 40 36.25H58.75C58.9712 36.25 59.1885 36.1912 59.3796 36.0797C59.5707 35.9682 59.7288 35.808 59.8378 35.6155C59.9467 35.4229 60.0026 35.2048 59.9997 34.9836C59.9968 34.7624 59.9352 34.5459 59.8212 34.3563L56.8225 29.3563Z" fill="#A78227"/>
<path d="M34.9998 21.25H26.581C25.5024 21.2528 24.4428 21.5334 23.5042 22.0648C22.5656 22.5962 21.7797 23.3604 21.2223 24.2838L15.1785 34.3563C15.0646 34.5459 15.003 34.7624 15.0001 34.9836C14.9972 35.2048 15.0531 35.4229 15.162 35.6155C15.2709 35.808 15.429 35.9682 15.6201 36.0797C15.8112 36.1912 16.0285 36.25 16.2498 36.25H34.9998C35.3313 36.25 35.6492 36.1183 35.8836 35.8839C36.1181 35.6495 36.2498 35.3315 36.2498 35V22.5C36.2498 22.1685 36.1181 21.8505 35.8836 21.6161C35.6492 21.3817 35.3313 21.25 34.9998 21.25ZM33.7498 33.75H18.4573L23.3648 25.5713C23.6993 25.017 24.171 24.5583 24.7343 24.2393C25.2976 23.9203 25.9336 23.7518 26.581 23.75H33.7498V33.75Z" fill="#A78227"/>
<path d="M42.5 37.5H40C39.6685 37.5 39.3505 37.6317 39.1161 37.8661C38.8817 38.1005 38.75 38.4185 38.75 38.75C38.75 39.0815 38.8817 39.3995 39.1161 39.6339C39.3505 39.8683 39.6685 40 40 40H42.5C42.8315 40 43.1495 39.8683 43.3839 39.6339C43.6183 39.3995 43.75 39.0815 43.75 38.75C43.75 38.4185 43.6183 38.1005 43.3839 37.8661C43.1495 37.6317 42.8315 37.5 42.5 37.5Z" fill="#A78227"/>
<path d="M18.75 37.5H16.25C15.9185 37.5 15.6005 37.6317 15.3661 37.8661C15.1317 38.1005 15 38.4185 15 38.75C15 39.0815 15.1317 39.3995 15.3661 39.6339C15.6005 39.8683 15.9185 40 16.25 40H18.75C19.0815 40 19.3995 39.8683 19.6339 39.6339C19.8683 39.3995 20 39.0815 20 38.75C20 38.4185 19.8683 38.1005 19.6339 37.8661C19.3995 37.6317 19.0815 37.5 18.75 37.5Z" fill="#A78227"/>
<path d="M61.25 50C60.5083 50 59.7833 50.2199 59.1666 50.632C58.5499 51.044 58.0693 51.6297 57.7855 52.3149C57.5016 53.0002 57.4274 53.7542 57.5721 54.4816C57.7168 55.209 58.0739 55.8772 58.5984 56.4016C59.1228 56.9261 59.791 57.2833 60.5184 57.4279C61.2458 57.5726 61.9998 57.4984 62.6851 57.2145C63.3703 56.9307 63.956 56.4501 64.368 55.8334C64.7801 55.2167 65 54.4917 65 53.75C65 52.7554 64.6049 51.8016 63.9016 51.0984C63.1984 50.3951 62.2446 50 61.25 50ZM61.25 55C61.0028 55 60.7611 54.9267 60.5555 54.7893C60.35 54.652 60.1898 54.4568 60.0952 54.2284C60.0005 53.9999 59.9758 53.7486 60.024 53.5061C60.0723 53.2637 60.1913 53.0409 60.3661 52.8661C60.5409 52.6913 60.7637 52.5722 61.0061 52.524C61.2486 52.4758 61.4999 52.5005 61.7284 52.5952C61.9568 52.6898 62.152 52.85 62.2893 53.0555C62.4267 53.2611 62.5 53.5028 62.5 53.75C62.5 54.0815 62.3683 54.3995 62.1339 54.6339C61.8995 54.8683 61.5815 55 61.25 55Z" fill="#A78227"/>
<path d="M18.75 50C18.0083 50 17.2833 50.2199 16.6666 50.632C16.0499 51.044 15.5693 51.6297 15.2855 52.3149C15.0016 53.0002 14.9274 53.7542 15.0721 54.4816C15.2168 55.209 15.5739 55.8772 16.0984 56.4016C16.6228 56.9261 17.291 57.2833 18.0184 57.4279C18.7458 57.5726 19.4998 57.4984 20.1851 57.2145C20.8703 56.9307 21.456 56.4501 21.868 55.8334C22.2801 55.2167 22.5 54.4917 22.5 53.75C22.5 52.7554 22.1049 51.8016 21.4017 51.0984C20.6984 50.3951 19.7446 50 18.75 50ZM18.75 55C18.5028 55 18.2611 54.9267 18.0555 54.7893C17.85 54.652 17.6898 54.4568 17.5952 54.2284C17.5005 53.9999 17.4758 53.7486 17.524 53.5061C17.5723 53.2637 17.6913 53.0409 17.8661 52.8661C18.0409 52.6913 18.2637 52.5722 18.5061 52.524C18.7486 52.4758 18.9999 52.5005 19.2284 52.5952C19.4568 52.6898 19.652 52.85 19.7893 53.0555C19.9267 53.2611 20 53.5028 20 53.75C20 54.0815 19.8683 54.3995 19.6339 54.6339C19.3995 54.8683 19.0815 55 18.75 55Z" fill="#A78227"/>
</g>
<defs>
<linearGradient id="paint0_linear_201_2618" x1="78.8119" y1="58.5868" x2="-0.667085" y2="55.538" gradientUnits="userSpaceOnUse">
<stop stop-color="#EE3B34"/>
<stop offset="0.963542" stop-color="#FF0A00"/>
</linearGradient>
<clipPath id="clip0_201_2618">
<rect width="80" height="80" fill="white"/>
</clipPath>
</defs>
</svg>
