<svg width="14" height="14" viewBox="0 0 14 14" fill="none" xmlns="http://www.w3.org/2000/svg">
<g clip-path="url(#clip0_401_1388)">
<path d="M14 9.33328V12.25C14 12.7141 13.8156 13.1592 13.4874 13.4874C13.1592 13.8156 12.7141 14 12.25 14H9.33333C8.51497 13.9991 7.71122 13.7831 7.00271 13.3735C6.2942 12.964 5.70585 12.3753 5.29667 11.6666C5.73642 11.6635 6.17469 11.615 6.6045 11.522C6.93184 11.9312 7.34708 12.2616 7.81946 12.4886C8.29184 12.7156 8.80924 12.8334 9.33333 12.8333H12.25C12.4047 12.8333 12.5531 12.7718 12.6625 12.6624C12.7719 12.553 12.8333 12.4047 12.8333 12.25V9.33328C12.8332 8.809 12.715 8.29148 12.4876 7.81909C12.2602 7.3467 11.9294 6.93156 11.5197 6.60445C11.6135 6.17472 11.6628 5.73646 11.6667 5.29662C12.3754 5.7058 12.964 6.29415 13.3736 7.00266C13.7831 7.71117 13.9992 8.51493 14 9.33328ZM10.4866 5.6297C10.5411 4.87816 10.4333 4.12368 10.1703 3.41752C9.90737 2.71137 9.49549 2.0701 8.96267 1.53728C8.42985 1.00446 7.78858 0.592578 7.08243 0.329625C6.37628 0.0666731 5.62179 -0.0411895 4.87025 0.0133671C3.53845 0.165461 2.30821 0.79922 1.41119 1.7953C0.514165 2.79138 0.0122658 4.08105 0 5.42145L0 8.36145C0 9.83845 0.879083 10.5 1.75 10.5H5.075C6.41597 10.4884 7.70642 9.98685 8.70321 9.08977C9.7 8.1927 10.3343 6.96204 10.4866 5.6297V5.6297ZM8.1375 2.36303C8.55163 2.77808 8.87177 3.27723 9.07627 3.82673C9.28077 4.37622 9.36486 4.96323 9.32283 5.54803C9.19833 6.58851 8.69779 7.5476 7.91544 8.24475C7.13309 8.9419 6.12289 9.32904 5.075 9.33328H1.75C1.20867 9.33328 1.16667 8.58953 1.16667 8.36145V5.42145C1.17153 4.374 1.55904 3.36445 2.25628 2.58276C2.95352 1.80108 3.91241 1.30117 4.9525 1.17712C5.04933 1.17012 5.14617 1.16662 5.243 1.16662C5.78041 1.16612 6.31265 1.27152 6.8093 1.47681C7.30595 1.6821 7.75728 1.98324 8.1375 2.36303Z" fill="#A78227"/>
</g>
<defs>
<clipPath id="clip0_401_1388">
<rect width="14" height="14" fill="white"/>
</clipPath>
</defs>
</svg>
