<svg width="62" height="62" viewBox="0 0 62 62" fill="none" xmlns="http://www.w3.org/2000/svg">
<g clip-path="url(#clip0_201_2718)">
<path d="M26.2818 36.9495C26.2818 36.9495 21.8166 35.6679 21.8113 35.6664C21.218 35.4962 20.556 35.8684 20.3866 36.5134C20.3866 36.5134 19.1602 41.1773 19.1585 41.1841C18.9917 41.8184 19.3655 42.4994 19.9691 42.6724C19.9691 42.6724 24.4331 43.9536 24.4396 43.9555C25.0307 44.1252 25.6953 43.7514 25.8643 43.1086L27.0924 38.4379C27.262 37.7931 26.8991 37.1267 26.2818 36.9495ZM23.9361 41.2995L21.7008 40.6579L22.3149 38.3225L24.5502 38.9641L23.9361 41.2995Z" fill="#A78227"/>
<path d="M35.2231 39.5158C35.2231 39.5158 30.7573 38.234 30.7526 38.2327C30.1591 38.0623 29.4976 38.4342 29.3279 39.0796L28.0998 43.7503C27.9302 44.3951 28.2931 45.0616 28.9104 45.2387C28.9104 45.2387 33.3768 46.5206 33.381 46.5218C33.9741 46.692 34.6363 46.3192 34.8057 45.6748L36.0338 41.0041C36.2034 40.3592 35.8405 39.6929 35.2231 39.5158ZM32.8775 43.8656L30.6422 43.224L31.2562 40.8886L33.4915 41.5302L32.8775 43.8656Z" fill="#A78227"/>
<path d="M44.1644 42.0819L39.6939 40.7988C39.0768 40.6217 38.4389 41.0008 38.2692 41.6457C38.2692 41.6457 37.0421 46.3122 37.041 46.3164C36.8779 46.9369 37.2331 47.6274 37.8517 47.8048C37.8517 47.8048 42.3157 49.0861 42.3222 49.0879C42.9134 49.2575 43.5783 48.8826 43.7469 48.241L44.975 43.5702C45.1446 42.9254 44.7817 42.259 44.1644 42.0819ZM41.8187 46.4318L39.5834 45.7903L40.1975 43.4548L42.4328 44.0964L41.8187 46.4318Z" fill="#A78227"/>
<path d="M46.6204 32.7406L42.1499 31.4575C41.5328 31.2804 40.8949 31.6594 40.7252 32.3044C40.7252 32.3044 39.4974 36.9736 39.4971 36.9751C39.334 37.5952 39.689 38.2861 40.3077 38.4635C40.3077 38.4635 44.7746 39.7455 44.7782 39.7466C45.3716 39.9168 46.0336 39.5437 46.2029 38.8996L47.431 34.2289C47.6006 33.5841 47.2377 32.9177 46.6204 32.7406ZM44.2748 37.0904L42.0394 36.4488L42.6535 34.1134L44.8888 34.755L44.2748 37.0904Z" fill="#A78227"/>
<path d="M37.6797 30.1744C37.6797 30.1744 33.2195 28.8942 33.2092 28.8913C32.6075 28.7186 31.9487 29.1135 31.7845 29.7382L30.5563 34.4089C30.3868 35.0539 30.7497 35.7202 31.367 35.8973C31.367 35.8973 35.8354 37.1798 35.8375 37.1804C36.4319 37.351 37.0926 36.9785 37.2622 36.3334L38.4903 31.6627C38.6599 31.0178 38.297 30.3514 37.6797 30.1744ZM35.334 34.5243L33.0987 33.8828L33.7128 31.5473L35.9481 32.1889L35.334 34.5243Z" fill="#A78227"/>
<path d="M28.7384 27.6083C28.7384 27.6083 24.2795 26.3284 24.2679 26.3252C23.6679 26.153 23.0069 26.5494 22.8432 27.1721C22.8432 27.1721 21.6188 31.8288 21.6151 31.8428C21.4543 32.4542 21.8193 33.1573 22.4257 33.3313L26.8964 34.6144C27.5071 34.7898 28.1537 34.4039 28.321 33.7675L29.5491 29.0966C29.7186 28.4517 29.3557 27.7853 28.7384 27.6083ZM26.3929 31.9581L24.1576 31.3165L24.7716 28.9811L27.007 29.6227L26.3929 31.9581Z" fill="#A78227"/>
<path d="M31.1948 18.2668C31.1948 18.2668 26.7354 16.9868 26.7243 16.9837C26.1241 16.8115 25.4634 17.2073 25.2996 17.8306L24.0715 22.5013C23.9019 23.1462 24.2649 23.8126 24.8821 23.9897C24.8821 23.9897 29.3431 25.27 29.3526 25.2728C29.9443 25.4425 30.609 25.0659 30.7773 24.4258C30.7773 24.4258 32.0019 19.7688 32.0055 19.7553C32.1702 19.1288 31.7911 18.4379 31.1948 18.2668ZM28.8492 22.6168L26.6138 21.9753L27.2279 19.6399L29.4632 20.2814L28.8492 22.6168Z" fill="#A78227"/>
<path d="M40.1357 20.8329L35.6652 19.5498C35.0478 19.3724 34.4101 19.7517 34.2405 20.3967L33.0124 25.0674C32.8428 25.7123 33.2058 26.3787 33.823 26.5559C33.823 26.5559 38.2918 27.8385 38.2936 27.839C38.8872 28.0094 39.5481 27.6393 39.7183 26.9921C39.7183 26.9921 40.9434 22.3329 40.9464 22.3213C41.1099 21.6992 40.7287 21.003 40.1357 20.8329ZM37.7901 25.183L35.5547 24.5415L36.1688 22.2061L38.4041 22.8476L37.7901 25.183Z" fill="#A78227"/>
<path d="M49.7639 23.9756C49.6163 23.7033 49.3752 23.4848 49.0767 23.3992L44.6061 22.1161C43.9887 21.9388 43.351 22.3181 43.1814 22.963L41.9533 27.6338C41.7838 28.2787 42.1466 28.9451 42.764 29.1221L47.2345 30.4052C47.8448 30.5805 48.4918 30.195 48.6591 29.5583C48.6591 29.5583 49.8845 24.8976 49.8872 24.8876C49.9672 24.5834 49.9136 24.2518 49.7639 23.9756ZM46.7309 27.7492L44.4956 27.1076L45.1096 24.7722L47.3449 25.4137L46.7309 27.7492Z" fill="#A78227"/>
<path d="M61.5859 45.2426C61.2521 45.0333 60.8267 44.9826 60.4536 45.1956L56.0145 47.7307L51.5149 46.288L58.8055 18.4056C58.8055 18.4056 59.4738 18.5974 59.4745 18.5977C60.0583 18.7653 60.7288 18.3987 60.8992 17.7508C60.8992 17.7508 62.1221 13.0999 62.1273 13.08C62.2914 12.4557 61.9108 11.7619 61.3166 11.5916L21.0817 0.0438105C20.4643 -0.13335 19.8266 0.245795 19.657 0.890741C19.657 0.890741 18.433 5.54595 18.4289 5.56133C18.2685 6.17128 18.6215 6.87253 19.2395 7.04981L20.8043 7.49895L11.4225 43.1789C7.80596 42.183 4.29338 41.2157 4.28016 41.2122C3.57883 41.019 2.82568 41.5824 2.82568 42.3832V60.7893C2.82568 61.4581 3.34459 62.0002 3.98472 62.0002H61.0095C61.6496 62.0002 62.1685 61.4581 62.1685 60.7893C62.1685 60.7893 62.1685 46.3117 62.1685 46.2583C62.1685 45.8299 61.9243 45.4547 61.5859 45.2426ZM21.5852 2.69988L59.5848 13.6062L58.9707 15.9416L20.9713 5.03518L21.5852 2.69988ZM26.4674 59.5784H5.14376V43.9546L16.167 46.9901L12.9569 49.2503C12.4816 49.5845 12.3124 50.2202 12.5535 50.764L14.1252 54.3072C13.745 54.5506 13.5306 55.0059 13.5781 55.4684C13.6407 56.0848 14.1356 56.551 14.729 56.551C14.7708 56.551 15.9286 56.4229 15.931 56.4227C16.6822 56.3395 17.1952 55.4638 16.8582 54.7104L15.0721 50.6816L18.9171 47.974L25.9731 53.2396L28.3781 57.6619L26.4674 59.5784ZM46.6374 59.5784H29.8146L30.634 58.7566C31.0166 58.3729 31.101 57.7667 30.839 57.2849L28.6096 53.1855L31.6059 51.875L33.5078 54.8084C33.7234 55.141 34.0829 55.3402 34.4674 55.3402H43.2814L46.6374 56.7643V59.5784ZM43.9441 53.0073C43.8056 52.9485 43.6575 52.9182 43.508 52.9182H35.0822L32.9931 49.6961C32.6835 49.2189 32.0949 49.0357 31.5859 49.2583L27.1977 51.1775L19.61 45.515C19.4957 45.4296 19.3675 45.3668 19.2317 45.3294L13.6641 43.7962L21.75 13.0446C21.75 13.0446 33.9129 16.5351 33.932 16.5405C34.5415 16.7154 35.1891 16.33 35.3565 15.6942C35.5206 15.0706 35.1402 14.3773 34.5463 14.2059L22.3639 10.7099L23.0393 8.14075L56.57 17.7644L55.8983 20.3338L43.4871 16.7719C42.8784 16.5964 42.2296 16.9839 42.0627 17.6184C41.8935 18.2626 42.2574 18.9298 42.8728 19.1079L55.2872 22.6705L47.0141 54.3101L43.9441 53.0073ZM59.8505 59.5784H48.9555V56.0769L49.5459 53.8336C49.5459 53.8336 51.3525 55.7711 51.3605 55.7795C51.7941 56.2445 52.5566 56.2536 52.999 55.8017C53.4441 55.3471 53.4535 54.5525 53.0214 54.0891L50.2584 51.1267L50.9156 48.6291L55.8016 50.1955C56.1003 50.2913 56.4233 50.257 56.6975 50.1005L59.8505 48.3001V59.5784Z" fill="url(#paint0_linear_201_2718)"/>
<path d="M10.1278 57.0352C10.7679 57.0352 11.2868 56.493 11.2868 55.8242C11.2868 55.1554 10.7679 54.6133 10.1278 54.6133C9.48767 54.6133 8.96875 55.1554 8.96875 55.8242C8.96875 56.493 9.48767 57.0352 10.1278 57.0352Z" fill="url(#paint1_linear_201_2718)"/>
<path d="M56.2577 56.6719C56.8978 56.6719 57.4167 56.1297 57.4167 55.4609C57.4167 54.7922 56.8978 54.25 56.2577 54.25C55.6176 54.25 55.0986 54.7922 55.0986 55.4609C55.0986 56.1297 55.6176 56.6719 56.2577 56.6719Z" fill="url(#paint2_linear_201_2718)"/>
<path d="M38.7557 17.9219C39.3958 17.9219 39.9148 17.3797 39.9148 16.7109C39.9148 16.0422 39.3958 15.5 38.7557 15.5C38.1156 15.5 37.5967 16.0422 37.5967 16.7109C37.5967 17.3797 38.1156 17.9219 38.7557 17.9219Z" fill="url(#paint3_linear_201_2718)"/>
</g>
<defs>
<linearGradient id="paint0_linear_201_2718" x1="61.2872" y1="56.609" x2="2.26927" y2="55.3901" gradientUnits="userSpaceOnUse">
<stop stop-color="#EE3B34"/>
<stop offset="0.963542" stop-color="#FF0A00"/>
</linearGradient>
<linearGradient id="paint1_linear_201_2718" x1="11.2524" y1="56.8246" x2="8.94701" y2="56.7769" gradientUnits="userSpaceOnUse">
<stop stop-color="#EE3B34"/>
<stop offset="0.963542" stop-color="#FF0A00"/>
</linearGradient>
<linearGradient id="paint2_linear_201_2718" x1="57.3823" y1="56.4613" x2="55.0769" y2="56.4137" gradientUnits="userSpaceOnUse">
<stop stop-color="#EE3B34"/>
<stop offset="0.963542" stop-color="#FF0A00"/>
</linearGradient>
<linearGradient id="paint3_linear_201_2718" x1="39.8803" y1="17.7113" x2="37.5749" y2="17.6637" gradientUnits="userSpaceOnUse">
<stop stop-color="#EE3B34"/>
<stop offset="0.963542" stop-color="#FF0A00"/>
</linearGradient>
<clipPath id="clip0_201_2718">
<rect width="62" height="62" fill="white"/>
</clipPath>
</defs>
</svg>
