<svg width="25" height="24" viewBox="0 0 25 24" fill="none" xmlns="http://www.w3.org/2000/svg">
<g clip-path="url(#clip0_344_3252)">
<path d="M23.7087 0.293275C23.5212 0.105804 23.2669 0.000488281 23.0017 0.000488281C22.7366 0.000488281 22.4823 0.105804 22.2947 0.293275L12.0017 10.5863L1.70874 0.293275C1.52121 0.105804 1.2669 0.000488281 1.00174 0.000488281C0.736575 0.000488281 0.482267 0.105804 0.29474 0.293275C0.107269 0.480802 0.00195312 0.735111 0.00195312 1.00027C0.00195312 1.26544 0.107269 1.51975 0.29474 1.70727L10.5877 12.0003L0.29474 22.2933C0.107269 22.4808 0.00195313 22.7351 0.00195312 23.0003C0.00195312 23.2654 0.107269 23.5197 0.29474 23.7073C0.482267 23.8947 0.736575 24.0001 1.00174 24.0001C1.2669 24.0001 1.52121 23.8947 1.70874 23.7073L12.0017 13.4143L22.2947 23.7073C22.4823 23.8947 22.7366 24.0001 23.0017 24.0001C23.2669 24.0001 23.5212 23.8947 23.7087 23.7073C23.8962 23.5197 24.0015 23.2654 24.0015 23.0003C24.0015 22.7351 23.8962 22.4808 23.7087 22.2933L13.4157 12.0003L23.7087 1.70727C23.8962 1.51975 24.0015 1.26544 24.0015 1.00027C24.0015 0.735111 23.8962 0.480802 23.7087 0.293275Z" fill="black"/>
</g>
<defs>
<clipPath id="clip0_344_3252">
<rect width="24" height="24" fill="white" transform="translate(0.00195312)"/>
</clipPath>
</defs>
</svg>
