<svg width="62" height="62" viewBox="0 0 62 62" fill="none" xmlns="http://www.w3.org/2000/svg">
<path d="M36.0859 22.7656H41.8984C42.5671 22.7656 43.1094 22.2235 43.1094 21.5547V13.8047C43.1094 13.1359 42.5671 12.5938 41.8984 12.5938H36.0859C35.4173 12.5938 34.875 13.1359 34.875 13.8047V21.5547C34.875 22.2235 35.4173 22.7656 36.0859 22.7656ZM37.2969 15.0156H40.6875V20.3438H37.2969V15.0156Z" fill="#A78227"/>
<path d="M10.8984 22.7656H16.7109C17.3797 22.7656 17.9219 22.2235 17.9219 21.5547V13.8047C17.9219 13.1359 17.3797 12.5938 16.7109 12.5938H10.8984C10.2298 12.5938 9.6875 13.1359 9.6875 13.8047V21.5547C9.6875 22.2235 10.2298 22.7656 10.8984 22.7656ZM12.1094 15.0156H15.5V20.3438H12.1094V15.0156Z" fill="#A78227"/>
<path d="M23.4922 22.7656H29.3047C29.9735 22.7656 30.5156 22.2235 30.5156 21.5547V13.8047C30.5156 13.1359 29.9735 12.5938 29.3047 12.5938H23.4922C22.8234 12.5938 22.2812 13.1359 22.2812 13.8047V21.5547C22.2812 22.2235 22.8234 22.7656 23.4922 22.7656ZM24.7031 15.0156H28.0938V20.3438H24.7031V15.0156Z" fill="#A78227"/>
<path d="M16.7109 37.2969C17.3797 37.2969 17.9219 36.7547 17.9219 36.0859V28.3359C17.9219 27.6671 17.3797 27.125 16.7109 27.125H10.8984C10.2298 27.125 9.6875 27.6671 9.6875 28.3359V36.0859C9.6875 36.7547 10.2298 37.2969 10.8984 37.2969H16.7109ZM12.1094 29.5469H15.5V34.875H12.1094V29.5469Z" fill="#A78227"/>
<path d="M23.4922 37.2969H29.3047C29.9735 37.2969 30.5156 36.7547 30.5156 36.0859V28.3359C30.5156 27.6671 29.9735 27.125 29.3047 27.125H23.4922C22.8234 27.125 22.2812 27.6671 22.2812 28.3359V36.0859C22.2812 36.7547 22.8234 37.2969 23.4922 37.2969ZM24.7031 29.5469H28.0938V34.875H24.7031V29.5469Z" fill="#A78227"/>
<path d="M26.3984 8.23438C26.7169 8.23438 27.0293 8.1048 27.2544 7.87957C27.4798 7.65434 27.6094 7.34191 27.6094 7.02344C27.6094 6.70496 27.4798 6.39254 27.2544 6.1673C27.0293 5.94207 26.7169 5.8125 26.3984 5.8125C26.08 5.8125 25.7675 5.94207 25.5423 6.1673C25.3171 6.39254 25.1875 6.70496 25.1875 7.02344C25.1875 7.34191 25.3169 7.65434 25.5423 7.87957C25.7675 8.1048 26.08 8.23438 26.3984 8.23438Z" fill="url(#paint0_linear_201_2762)"/>
<path d="M58.0305 32.1405C57.4922 31.2585 56.495 30.8379 55.4899 31.0693C54.4877 31.2998 53.7765 32.1113 53.6778 33.1367C53.615 33.7892 53.4995 34.4084 53.3489 34.9887C53.3471 34.9701 53.3453 34.9513 53.3434 34.9325C53.1109 32.6417 52.2735 29.7584 49.8906 27.2708V8.23438H51.5859C52.2546 8.23438 52.7969 7.69224 52.7969 7.02344V1.21094C52.7969 0.542137 52.2546 0 51.5859 0H1.21094C0.542137 0 0 0.542137 0 1.21094V7.02344C0 7.69224 0.542137 8.23438 1.21094 8.23438H2.90625V60.7891C2.90625 61.4579 3.44851 62 4.11719 62H45.9023C54.7786 62 62 54.7786 62 45.9023C62 40.8133 60.8128 36.6976 58.0305 32.1405ZM5.32812 8.23438H20.9492C21.618 8.23438 22.1602 7.69224 22.1602 7.02344C22.1602 6.35464 21.618 5.8125 20.9492 5.8125H2.42188V2.42188H50.375V5.8125H31.8477C31.179 5.8125 30.6367 6.35464 30.6367 7.02344C30.6367 7.69224 31.179 8.23438 31.8477 8.23438H47.4688V25.2736C46.9635 24.9429 46.4193 24.6268 45.8276 24.3306C45.2996 24.0663 44.6745 24.1508 44.2351 24.5453C43.7949 24.9407 43.6441 25.5544 43.8511 26.1093C44.8796 28.8645 44.412 30.7927 42.2871 32.5563C41.0706 33.566 40.1807 34.7366 39.5298 35.9028C39.1092 34.5806 38.4618 33.1614 37.4762 31.7599C36.9054 30.9482 35.916 30.59 34.9565 30.8466C33.9881 31.1057 33.3044 31.9178 33.2142 32.9155C32.9261 36.1069 32.1417 37.8236 31.383 39.4838C31.0584 40.1942 30.7411 40.889 30.4771 41.6562H16.7109C16.0421 41.6562 15.5 42.1984 15.5 42.8672V59.5781H5.32812V8.23438ZM17.9219 44.0781H25.1875V59.5781H17.9219V44.0781ZM27.6094 59.5781V44.0781H29.9134C29.8437 44.6315 29.8044 45.234 29.8044 45.9023C29.8044 51.668 32.852 56.7346 37.4204 59.5781H27.6094ZM41.1119 54.7878C41.1119 51.8709 42.7781 50.3611 44.3892 48.9009C45.1831 48.1816 45.9927 47.4478 46.5208 46.5689C49.2652 49.0969 50.6925 52.4633 50.6925 54.7878C50.6925 57.4292 48.5436 59.5781 45.9022 59.5781C43.2607 59.5781 41.1119 57.4292 41.1119 54.7878ZM52.3877 57.9398C52.8527 56.987 53.1144 55.9175 53.1144 54.7878C53.1144 50.8864 50.4376 46.2543 46.6049 43.5235C46.2357 43.2604 45.7503 43.2256 45.3474 43.4333C44.9444 43.641 44.6912 44.0564 44.6912 44.5097C44.6912 45.3179 43.9585 46.0229 42.7629 47.1063C41.0441 48.6639 38.6899 50.7971 38.6899 54.7878C38.6899 55.9175 38.9516 56.987 39.4166 57.9398C35.1387 55.6257 32.2262 51.0979 32.2262 45.9023C32.2262 43.4656 32.8261 42.1527 33.5857 40.4905C34.3756 38.7619 35.2692 36.8067 35.6091 33.3179C37.7631 36.4869 37.8904 39.788 37.8301 41.1719C37.7711 41.6521 37.7609 41.9554 37.7596 42.0067C37.7427 42.6437 38.2225 43.1847 38.8569 43.2442C39.4911 43.3025 40.0633 42.8614 40.1653 42.2323C40.1735 42.1817 40.2221 41.8659 40.2493 41.3486C40.442 39.9102 41.1647 36.6352 43.8338 34.4199C46.093 32.5446 47.0551 30.3348 46.7393 27.7121C49.1853 29.5222 50.5903 31.9973 50.9251 35.0961C51.2474 38.0795 50.4265 40.5651 50.4188 40.5874C50.2347 41.1269 50.4518 41.722 50.9404 42.0161C51.4288 42.31 52.0565 42.2236 52.4469 41.8083C52.5738 41.6734 55.5205 38.4894 56.0671 33.5738C58.5591 37.7063 59.5781 41.2927 59.5781 45.9023C59.5781 51.0978 56.6656 55.6257 52.3877 57.9398Z" fill="url(#paint1_linear_201_2762)"/>
<defs>
<linearGradient id="paint0_linear_201_2762" x1="27.5734" y1="8.02378" x2="25.1649" y2="7.97181" gradientUnits="userSpaceOnUse">
<stop stop-color="#EE3B34"/>
<stop offset="0.963542" stop-color="#FF0A00"/>
</linearGradient>
<linearGradient id="paint1_linear_201_2762" x1="61.0792" y1="56.6087" x2="-0.578924" y2="55.2783" gradientUnits="userSpaceOnUse">
<stop stop-color="#EE3B34"/>
<stop offset="0.963542" stop-color="#FF0A00"/>
</linearGradient>
</defs>
</svg>
