<svg width="80" height="73" viewBox="0 0 80 73" fill="none" xmlns="http://www.w3.org/2000/svg">
<g clip-path="url(#clip0_201_2640)">
<path d="M58.1019 55.6583H54.5266V36.9838C54.5266 36.3447 54.0084 35.8264 53.3692 35.8264C52.7301 35.8264 52.2118 36.3447 52.2118 36.9838V55.6583H43.9007V46.0347C43.9007 45.3956 43.3824 44.8773 42.7433 44.8773H35.1961C34.557 44.8773 34.0387 45.3956 34.0387 46.0347V55.6583H25.9222V26.0896V8.01344H52.2118V26.7647C52.2118 27.4038 52.7301 27.9221 53.3692 27.9221C54.0084 27.9221 54.5266 27.4038 54.5266 26.7647V6.85604C54.5266 6.21692 54.0084 5.69863 53.3692 5.69863H50.5217V2.44354C50.5217 1.80442 50.0034 1.28613 49.3643 1.28613H29.0618C28.4227 1.28613 27.9044 1.80442 27.9044 2.44354V5.69863H24.7649C24.1258 5.69863 23.6075 6.21692 23.6075 6.85604V24.9322H14.5347V21.2987C14.5347 20.6596 14.0164 20.1413 13.3773 20.1413H5.40185C4.76273 20.1413 4.24445 20.6596 4.24445 21.2987V26.0896V55.6583H1.15741C0.518287 55.6583 0 56.1766 0 56.8157C0 57.4548 0.518287 57.9731 1.15741 57.9731H58.1019C58.741 57.9731 59.2593 57.4548 59.2593 56.8157C59.2593 56.1766 58.741 55.6583 58.1019 55.6583ZM30.2192 3.60095H48.207V5.69863H30.2192V3.60095ZM6.55926 22.4561H12.2199V24.9322H6.55926V22.4561ZM16.4189 55.6579H13.6021V51.5251H16.4189V55.6579ZM23.6075 55.6583H18.7338V50.3677C18.7338 49.7286 18.2155 49.2103 17.5764 49.2103H12.4448C11.8057 49.2103 11.2874 49.7286 11.2874 50.3677V55.6583H6.55926V27.247H13.3773H23.6075V55.6583ZM41.586 55.6579H36.3536V47.192H41.586V55.6579Z" fill="url(#paint0_linear_201_2640)"/>
<path d="M54.3312 31.3611C53.7569 30.5003 52.3796 30.8102 52.2252 31.8341C52.0679 32.8773 53.343 33.5663 54.132 32.8745C54.5659 32.4942 54.6456 31.8407 54.3312 31.3611Z" fill="url(#paint1_linear_201_2640)"/>
<path d="M37.0896 13.3171C37.0896 12.678 36.5713 12.1597 35.9322 12.1597H31.0261C30.3869 12.1597 29.8687 12.678 29.8687 13.3171V18.2232C29.8687 18.8623 30.3869 19.3806 31.0261 19.3806H35.9322C36.5713 19.3806 37.0896 18.8623 37.0896 18.2232V13.3171ZM34.7748 17.0657H32.1835V14.4744H34.7748V17.0657Z" fill="url(#paint2_linear_201_2640)"/>
<path d="M47.9368 13.3171C47.9368 12.678 47.4185 12.1597 46.7794 12.1597H41.8732C41.2341 12.1597 40.7158 12.678 40.7158 13.3171V18.2232C40.7158 18.8623 41.2341 19.3806 41.8732 19.3806H46.7794C47.4185 19.3806 47.9368 18.8623 47.9368 18.2232V13.3171ZM45.622 17.0657H43.0306V14.4744H45.622V17.0657Z" fill="url(#paint3_linear_201_2640)"/>
<path d="M37.0896 23.4374C37.0896 22.7983 36.5713 22.28 35.9322 22.28H31.0261C30.3869 22.28 29.8687 22.7983 29.8687 23.4374V28.3436C29.8687 28.9827 30.3869 29.501 31.0261 29.501H35.9322C36.5713 29.501 37.0896 28.9827 37.0896 28.3436V23.4374ZM34.7748 27.1862H32.1835V24.5948H34.7748V27.1862Z" fill="url(#paint4_linear_201_2640)"/>
<path d="M47.9368 23.4374C47.9368 22.7983 47.4185 22.28 46.7794 22.28H41.8732C41.2341 22.28 40.7158 22.7983 40.7158 23.4374V28.3436C40.7158 28.9827 41.2341 29.501 41.8732 29.501H46.7794C47.4185 29.501 47.9368 28.9827 47.9368 28.3436V23.4374ZM45.622 27.1862H43.0306V24.5948H45.622V27.1862Z" fill="url(#paint5_linear_201_2640)"/>
<path d="M35.9322 32.4003H31.0261C30.3869 32.4003 29.8687 32.9186 29.8687 33.5577V38.4638C29.8687 39.1029 30.3869 39.6212 31.0261 39.6212H35.9322C36.5713 39.6212 37.0896 39.1029 37.0896 38.4638V33.5577C37.0896 32.9186 36.5714 32.4003 35.9322 32.4003ZM34.7748 37.3064H32.1835V34.7151H34.7748V37.3064Z" fill="url(#paint6_linear_201_2640)"/>
<path d="M46.7794 32.4003H41.8732C41.2341 32.4003 40.7158 32.9186 40.7158 33.5577V38.4638C40.7158 39.1029 41.2341 39.6212 41.8732 39.6212H46.7794C47.4185 39.6212 47.9368 39.1029 47.9368 38.4638V33.5577C47.9368 32.9186 47.4185 32.4003 46.7794 32.4003ZM45.622 37.3064H43.0306V34.7151H45.622V37.3064Z" fill="url(#paint7_linear_201_2640)"/>
<path d="M10.259 29.9139C9.61985 29.9139 9.10156 30.4322 9.10156 31.0713V45.5717C9.10156 46.2108 9.61985 46.7291 10.259 46.7291C10.8981 46.7291 11.4164 46.2108 11.4164 45.5717V31.0713C11.4164 30.4322 10.8981 29.9139 10.259 29.9139Z" fill="url(#paint8_linear_201_2640)"/>
<path d="M14.9992 46.7291C15.6383 46.7291 16.1566 46.2108 16.1566 45.5717V31.0713C16.1566 30.4322 15.6383 29.9139 14.9992 29.9139C14.3601 29.9139 13.8418 30.4322 13.8418 31.0713V45.5717C13.8418 46.2109 14.36 46.7291 14.9992 46.7291Z" fill="url(#paint9_linear_201_2640)"/>
<path d="M19.7394 46.7291C20.3786 46.7291 20.8968 46.2108 20.8968 45.5717V31.0713C20.8968 30.4322 20.3786 29.9139 19.7394 29.9139C19.1003 29.9139 18.582 30.4322 18.582 31.0713V45.5717C18.582 46.2109 19.1002 46.7291 19.7394 46.7291Z" fill="url(#paint10_linear_201_2640)"/>
<path d="M76.3611 44.1521C75.7467 39.6107 71.9501 36.2128 67.4437 36.2128C65.1689 36.2128 63.0409 37.0608 61.3812 38.615C59.7215 37.0608 57.5935 36.2128 55.3188 36.2128C50.3543 36.2128 46.3154 40.3479 46.3154 45.4306C46.3154 46.4348 46.6084 47.5604 47.1912 48.8029H46.9733C46.61 48.8029 46.3154 49.0974 46.3154 49.4608C46.3154 49.8241 46.61 50.1187 46.9733 50.1187H47.8919C49.1206 52.1989 51.0638 54.5645 53.7134 57.1991C57.3042 60.7696 60.9453 63.563 60.9816 63.5908C61.0995 63.681 61.2404 63.7261 61.3812 63.7261C61.5221 63.7261 61.6629 63.681 61.7809 63.5908C61.8086 63.5696 64.5934 61.4342 67.6794 58.5245C67.9438 58.2753 67.9561 57.8589 67.7068 57.5945C67.4576 57.3302 67.0412 57.3179 66.7768 57.5672C64.4232 59.7862 63.3099 55.1467 62.4408 55.8341C61.408 55.017 67.7426 60.3938 64.9009 57.5672C62.6259 55.3041 55.256 52.6744 54.0785 50.8618L55.3276 50.1187C55.6211 50.1187 55.8791 49.9243 55.96 49.6422L57.1095 45.6355L60.2926 55.8341C60.3784 56.1088 60.6328 56.296 60.9207 56.296C61.2085 56.296 61.4629 56.1088 61.5486 55.8341L63.3114 50.1845L75.3213 52.498C75.6847 52.498 66.9065 49.89 66.9065 49.5266C66.9065 49.1633 66.6119 48.8687 66.2486 48.8687H62.8276C62.5397 48.8687 62.2853 49.0558 62.1995 49.3306L60.9205 53.4297L57.7108 43.1464C57.6243 42.8689 57.3665 42.6805 57.0752 42.6845C56.7846 42.6879 56.5306 42.8816 56.4504 43.161L54.8318 48.8029H48.6591C47.9791 47.519 54.6318 57.5559 54.6318 56.5991C54.6318 52.242 59.1963 61.1542 63.4353 61.1542C65.5658 61.1542 56.2438 43.9794 57.7108 45.5695C57.8355 45.7045 57.7948 49.7272 58.1944 45.7813C58.594 56.2474 66.0801 59.6212 66.5637 59.4094C68.0307 57.8193 73.1908 52.498 75.3213 52.498C78.9863 52.498 70.8979 41.9543 71.6385 45.5695C71.6385 45.5695 74.466 43.7376 74.2101 43.7376C71.0178 43.7376 68.4207 46.3348 68.4207 49.5271C68.4207 52.7194 71.0178 55.3166 74.2101 55.3166C77.4025 55.3166 79.9996 52.7194 79.9996 49.5271C79.9997 47.0945 78.4915 45.0077 76.3611 44.1521ZM74.2102 54.0008C71.7434 54.0008 75.3213 55.5217 75.3213 53.0549C75.3213 50.5881 71.9188 53.9906 74.3856 53.9906C76.8524 53.9906 72.5142 50.5881 72.5142 53.0549C72.5142 55.5217 76.677 54.0008 74.2102 54.0008Z" fill="white"/>
<path d="M74.49 43.4949C73.8756 38.9534 70.079 35.5555 65.5726 35.5555C63.2978 35.5555 61.1698 36.4035 59.5101 37.9578C57.8504 36.4035 55.7224 35.5555 53.4477 35.5555C48.4832 35.5555 44.4443 39.6906 44.4443 44.7733C44.4443 45.7775 44.7373 46.9031 45.3201 48.1456H45.1022C44.7389 48.1456 44.4443 48.4402 44.4443 48.8035C44.4443 49.1669 44.7389 49.4614 45.1022 49.4614H46.0208C47.2495 51.5417 49.1927 53.9073 51.8423 56.5419C55.4331 60.1124 59.0742 62.9057 59.1105 62.9336C59.2284 63.0237 59.3693 63.0688 59.5101 63.0688C59.651 63.0688 59.7918 63.0237 59.9098 62.9336C59.9375 62.9123 62.7223 60.7769 65.8083 57.8673C66.0727 57.618 66.085 57.2016 65.8357 56.9373C65.5865 56.6729 65.1701 56.6606 64.9057 56.9099C62.5521 59.1289 60.3793 60.8883 59.5102 61.5757C58.4775 60.7586 55.6023 58.4262 52.7607 55.5995C50.4857 53.3364 48.7441 51.2741 47.5666 49.4614H53.4565C53.75 49.4614 54.008 49.267 54.0889 48.985L55.2384 44.9783L58.4215 55.1768C58.5073 55.4516 58.7617 55.6387 59.0496 55.6387C59.3374 55.6387 59.5918 55.4516 59.6775 55.1768L61.4403 49.5273H64.3775C64.7408 49.5273 65.0354 49.2327 65.0354 48.8694C65.0354 48.506 64.7408 48.2115 64.3775 48.2115H60.9565C60.6686 48.2115 60.4142 48.3986 60.3284 48.6734L59.0494 52.7724L55.8397 42.4891C55.7532 42.2117 55.4954 42.0233 55.2041 42.0273C54.9135 42.0306 54.6595 42.2243 54.5793 42.5037L52.9607 48.1457H46.788C46.108 46.8617 45.7601 45.7301 45.7601 44.7733C45.7601 40.4161 49.2088 36.8713 53.4477 36.8713C55.5782 36.8713 57.5596 37.7471 59.0266 39.3373C59.1512 39.4723 59.3265 39.549 59.5101 39.549C59.6938 39.549 59.8692 39.4723 59.9937 39.3373C61.4607 37.7471 63.4421 36.8713 65.5726 36.8713C69.2375 36.8713 72.3534 39.5144 73.094 43.1296C72.8468 43.0973 72.5949 43.0804 72.3391 43.0804C69.1467 43.0804 66.5496 45.6775 66.5496 48.8698C66.5496 52.0621 69.1467 54.6593 72.3391 54.6593C75.5314 54.6593 78.1285 52.0621 78.1285 48.8698C78.1286 46.4372 76.6204 44.3505 74.49 43.4949ZM72.3391 53.3435C69.8723 53.3435 67.8654 51.3366 67.8654 48.8698C67.8654 46.4031 69.8723 44.3961 72.3391 44.3961C74.8059 44.3961 76.8128 46.4031 76.8128 48.8698C76.8128 51.3366 74.8059 53.3435 72.3391 53.3435Z" fill="#A78227" stroke="#A78227" stroke-width="0.7"/>
<path d="M67.6683 55.1093C67.4087 54.8551 66.9922 54.8593 66.7379 55.1188L66.7192 55.1379C66.4649 55.3974 66.4692 55.8139 66.7287 56.0683C66.8568 56.1938 67.023 56.2563 67.1891 56.2563C67.3597 56.2563 67.5303 56.1903 67.6591 56.0588L67.6778 56.0397C67.9321 55.7802 67.9278 55.3637 67.6683 55.1093Z" fill="#A78227" stroke="#A78227" stroke-width="0.8"/>
<path d="M74.7457 48.212H72.9974V46.4637C72.9974 46.1003 72.7028 45.8058 72.3395 45.8058C71.9761 45.8058 71.6816 46.1003 71.6816 46.4637V48.212H69.9333C69.5699 48.212 69.2754 48.5065 69.2754 48.8699C69.2754 49.2332 69.5699 49.5278 69.9333 49.5278H71.6816V51.2761C71.6816 51.6394 71.9761 51.934 72.3395 51.934C72.7028 51.934 72.9974 51.6394 72.9974 51.2761V49.5278H74.7457C75.109 49.5278 75.4036 49.2332 75.4036 48.8699C75.4036 48.5065 75.109 48.212 74.7457 48.212Z" fill="#A78227"/>
</g>
<defs>
<linearGradient id="paint0_linear_201_2640" x1="58.3792" y1="53.0439" x2="-0.550787" y2="51.7146" gradientUnits="userSpaceOnUse">
<stop stop-color="#EE3B34"/>
<stop offset="0.963542" stop-color="#FF0A00"/>
</linearGradient>
<linearGradient id="paint1_linear_201_2640" x1="54.4876" y1="32.954" x2="52.1904" y2="32.9041" gradientUnits="userSpaceOnUse">
<stop stop-color="#EE3B34"/>
<stop offset="0.963542" stop-color="#FF0A00"/>
</linearGradient>
<linearGradient id="paint2_linear_201_2640" x1="36.9824" y1="18.7527" x2="29.8012" y2="18.5978" gradientUnits="userSpaceOnUse">
<stop stop-color="#EE3B34"/>
<stop offset="0.963542" stop-color="#FF0A00"/>
</linearGradient>
<linearGradient id="paint3_linear_201_2640" x1="47.8295" y1="18.7527" x2="40.6484" y2="18.5978" gradientUnits="userSpaceOnUse">
<stop stop-color="#EE3B34"/>
<stop offset="0.963542" stop-color="#FF0A00"/>
</linearGradient>
<linearGradient id="paint4_linear_201_2640" x1="36.9824" y1="28.8731" x2="29.8012" y2="28.7181" gradientUnits="userSpaceOnUse">
<stop stop-color="#EE3B34"/>
<stop offset="0.963542" stop-color="#FF0A00"/>
</linearGradient>
<linearGradient id="paint5_linear_201_2640" x1="47.8295" y1="28.8731" x2="40.6484" y2="28.7181" gradientUnits="userSpaceOnUse">
<stop stop-color="#EE3B34"/>
<stop offset="0.963542" stop-color="#FF0A00"/>
</linearGradient>
<linearGradient id="paint6_linear_201_2640" x1="36.9824" y1="38.9933" x2="29.8012" y2="38.8384" gradientUnits="userSpaceOnUse">
<stop stop-color="#EE3B34"/>
<stop offset="0.963542" stop-color="#FF0A00"/>
</linearGradient>
<linearGradient id="paint7_linear_201_2640" x1="47.8295" y1="38.9933" x2="40.6484" y2="38.8384" gradientUnits="userSpaceOnUse">
<stop stop-color="#EE3B34"/>
<stop offset="0.963542" stop-color="#FF0A00"/>
</linearGradient>
<linearGradient id="paint8_linear_201_2640" x1="11.382" y1="45.2669" x2="9.0789" y2="45.2601" gradientUnits="userSpaceOnUse">
<stop stop-color="#EE3B34"/>
<stop offset="0.963542" stop-color="#FF0A00"/>
</linearGradient>
<linearGradient id="paint9_linear_201_2640" x1="16.1222" y1="45.2669" x2="13.8191" y2="45.2601" gradientUnits="userSpaceOnUse">
<stop stop-color="#EE3B34"/>
<stop offset="0.963542" stop-color="#FF0A00"/>
</linearGradient>
<linearGradient id="paint10_linear_201_2640" x1="20.8625" y1="45.2669" x2="18.5594" y2="45.2601" gradientUnits="userSpaceOnUse">
<stop stop-color="#EE3B34"/>
<stop offset="0.963542" stop-color="#FF0A00"/>
</linearGradient>
<clipPath id="clip0_201_2640">
<rect width="80" height="72.5926" fill="white"/>
</clipPath>
</defs>
</svg>
