<svg width="78" height="78" viewBox="0 0 78 78" fill="none" xmlns="http://www.w3.org/2000/svg">
<g filter="url(#filter0_d_201_2676)">
<path d="M30.1147 55.5105C30.8694 55.5105 31.4819 54.8985 31.4819 54.1433C31.4819 53.3882 30.8694 52.7761 30.1147 52.7761H13.7085C12.9533 52.7761 12.3413 53.3882 12.3413 54.1433C12.3413 54.8985 12.9533 55.5105 13.7085 55.5105H30.1147Z" fill="url(#paint0_linear_201_2676)"/>
<path d="M73.0403 36.0147L57.7604 31.2445C57.6205 31.197 57.4725 31.1713 57.3214 31.1713C57.3208 31.1713 57.3198 31.1713 57.3192 31.1713C57.1686 31.1713 57.0202 31.197 56.8808 31.244L54.8482 31.879V13.3984C54.8482 13.0209 54.6949 12.6791 54.4476 12.4318L42.4164 0.400543C42.1691 0.152741 41.8273 0 41.4497 0H8.10156C5.83983 0 4 1.83983 4 4.10156V26.1133C4 26.8684 4.61203 27.4805 5.36719 27.4805C6.12234 27.4805 6.73438 26.8684 6.73438 26.1133V4.10156C6.73438 3.34747 7.34747 2.73438 8.10156 2.73438H40.0825V10.8521C40.0825 13.0102 41.838 14.7656 43.9956 14.7656H52.1138V32.7324L41.6003 36.0147C41.0294 36.1931 40.6406 36.7218 40.6406 37.3199V37.4583H13.7086C12.9535 37.4583 12.3414 38.0703 12.3414 38.8255C12.3414 39.5806 12.9535 40.1926 13.7086 40.1926H40.6406V45.1172H13.7086C12.9535 45.1172 12.3414 45.7292 12.3414 46.4844C12.3414 47.2395 12.9535 47.8516 13.7086 47.8516H40.6406V50.1074C40.6406 54.4215 42.011 58.4702 44.3699 61.7969H8.10156C7.34747 61.7969 6.73438 61.1838 6.73438 60.4297V38.418C6.73438 37.6628 6.12234 37.0508 5.36719 37.0508C4.61203 37.0508 4 37.6628 4 38.418V60.4297C4 62.6914 5.83983 64.5312 8.10156 64.5312H46.6963C49.4654 67.2555 53.0297 69.2027 57.0629 69.9754C57.1478 69.992 57.2343 70 57.3203 70C57.4063 70 57.4928 69.992 57.5777 69.9754C67.0936 68.1522 74 59.7963 74 50.1074V37.3199C74 36.7218 73.6112 36.1931 73.0403 36.0147ZM43.9956 12.0312C43.3456 12.0312 42.8169 11.5025 42.8169 10.8521V4.66766L50.18 12.0312H43.9956ZM71.2656 50.1074C71.2656 58.3992 65.4172 65.562 57.3203 67.2389C49.2235 65.562 43.375 58.3992 43.375 50.1074V38.3256L57.3203 33.9714L71.2656 38.3256V50.1074Z" fill="url(#paint1_linear_201_2676)"/>
<path d="M56.9128 36.9632L47.0691 40.0367C46.4982 40.2151 46.1094 40.7433 46.1094 41.3414V50.1069C46.1094 56.7335 50.5709 62.5868 56.9582 64.3406C57.0768 64.3732 57.1985 64.3892 57.3203 64.3892C57.4421 64.3892 57.5638 64.3732 57.6824 64.3406C64.0697 62.5868 68.5312 56.7335 68.5312 50.1074V41.3419C68.5312 40.7438 68.1425 40.2151 67.5715 40.0367L57.7278 36.9632C57.4624 36.8804 57.1783 36.8804 56.9128 36.9632ZM65.7969 42.347V50.1069C65.7969 55.3797 62.3298 60.0516 57.3203 61.5982C52.3109 60.0516 48.8438 55.3797 48.8438 50.1069V42.347L57.3203 39.7008L65.7969 42.347Z" fill="url(#paint2_linear_201_2676)"/>
<path d="M53.912 48.9929C53.3779 48.4588 52.5127 48.4588 51.9787 48.9929C51.4446 49.5269 51.4446 50.3926 51.9787 50.9261L55.1285 54.0765C55.3956 54.3436 55.7454 54.4771 56.0952 54.4771C56.445 54.4771 56.7948 54.3436 57.0618 54.0765L62.662 48.4764C63.196 47.9424 63.196 47.0767 62.662 46.5426C62.1279 46.0091 61.2627 46.0091 60.7281 46.5426L56.0952 51.1761L53.912 48.9929Z" fill="#A78227"/>
<path d="M33.396 13.3969H26.8335C26.0783 13.3969 25.4663 14.0094 25.4663 14.764V18.8656H21.3647C20.6096 18.8656 19.9976 19.4782 19.9976 20.2328V26.7953C19.9976 27.5504 20.6096 28.1625 21.3647 28.1625H25.4663V32.264C25.4663 33.0192 26.0783 33.6312 26.8335 33.6312H33.396C34.1506 33.6312 34.7632 33.0192 34.7632 32.264V28.1625H38.8647C39.6194 28.1625 40.2319 27.5504 40.2319 26.7953V20.2328C40.2319 19.4782 39.6194 18.8656 38.8647 18.8656H34.7632V14.764C34.7632 14.0094 34.1506 13.3969 33.396 13.3969ZM37.4976 21.6V25.4281H33.396C32.6408 25.4281 32.0288 26.0407 32.0288 26.7953V30.8969H28.2007V26.7953C28.2007 26.0407 27.5881 25.4281 26.8335 25.4281H22.7319V21.6H26.8335C27.5881 21.6 28.2007 20.9879 28.2007 20.2328V16.1312H32.0288V20.2328C32.0288 20.9879 32.6408 21.6 33.396 21.6H37.4976Z" fill="#A78227"/>
<path d="M5.36719 33.6328C5.72661 33.6328 6.07962 33.4865 6.33383 33.2323C6.58804 32.9781 6.73438 32.625 6.73438 32.2656C6.73438 31.9062 6.58804 31.5532 6.33383 31.299C6.07962 31.0448 5.72661 30.8984 5.36719 30.8984C5.00777 30.8984 4.65475 31.0448 4.40054 31.299C4.14633 31.5532 4 31.9062 4 32.2656C4 32.625 4.14633 32.9781 4.40054 33.2323C4.65475 33.4865 5.00777 33.6328 5.36719 33.6328Z" fill="url(#paint3_linear_201_2676)"/>
</g>
<defs>
<filter id="filter0_d_201_2676" x="0" y="0" width="78" height="78" filterUnits="userSpaceOnUse" color-interpolation-filters="sRGB">
<feFlood flood-opacity="0" result="BackgroundImageFix"/>
<feColorMatrix in="SourceAlpha" type="matrix" values="0 0 0 0 0 0 0 0 0 0 0 0 0 0 0 0 0 0 127 0" result="hardAlpha"/>
<feOffset dy="4"/>
<feGaussianBlur stdDeviation="2"/>
<feComposite in2="hardAlpha" operator="out"/>
<feColorMatrix type="matrix" values="0 0 0 0 0 0 0 0 0 0 0 0 0 0 0 0 0 0 0.25 0"/>
<feBlend mode="normal" in2="BackgroundImageFix" result="effect1_dropShadow_201_2676"/>
<feBlend mode="normal" in="SourceGraphic" in2="effect1_dropShadow_201_2676" result="shape"/>
</filter>
<linearGradient id="paint0_linear_201_2676" x1="31.1977" y1="55.2727" x2="12.5785" y2="52.4604" gradientUnits="userSpaceOnUse">
<stop stop-color="#EE3B34"/>
<stop offset="0.963542" stop-color="#FF0A00"/>
</linearGradient>
<linearGradient id="paint1_linear_201_2676" x1="72.9604" y1="63.9131" x2="3.34638" y2="62.411" gradientUnits="userSpaceOnUse">
<stop stop-color="#EE3B34"/>
<stop offset="0.963542" stop-color="#FF0A00"/>
</linearGradient>
<linearGradient id="paint2_linear_201_2676" x1="68.1983" y1="61.9989" x2="45.8965" y2="61.6064" gradientUnits="userSpaceOnUse">
<stop stop-color="#EE3B34"/>
<stop offset="0.963542" stop-color="#FF0A00"/>
</linearGradient>
<linearGradient id="paint3_linear_201_2676" x1="6.69377" y1="33.395" x2="3.97447" y2="33.3364" gradientUnits="userSpaceOnUse">
<stop stop-color="#EE3B34"/>
<stop offset="0.963542" stop-color="#FF0A00"/>
</linearGradient>
</defs>
</svg>
