<svg width="70" height="70" viewBox="0 0 70 70" fill="none" xmlns="http://www.w3.org/2000/svg">
<path d="M68.3594 43.8988L55.2344 36.2425C55.0671 36.1449 54.8768 36.0934 54.6831 36.0934C54.4894 36.0934 54.2992 36.1449 54.1319 36.2425L47.5573 40.0783C47.0169 39.7206 46.4455 39.412 45.85 39.1563C46.8577 38.4735 47.688 37.5603 48.2722 36.4924C48.8563 35.4245 49.1774 34.2327 49.2089 33.0159C51.2748 31.1955 52.9294 28.9561 54.0626 26.4465C55.1959 23.937 55.7817 21.2149 55.7812 18.4614C55.7815 15.388 54.9661 12.3695 53.4183 9.71426C51.8705 7.059 49.6458 4.86206 46.9713 3.34776C44.2968 1.83345 41.2683 1.05604 38.1951 1.09489C35.1219 1.13375 32.1141 1.98748 29.4788 3.56891L28.4375 4.19344L27.3962 3.56891C24.7609 1.98748 21.7531 1.13375 18.6799 1.09489C15.6067 1.05604 12.5782 1.83345 9.90371 3.34776C7.22921 4.86206 5.00449 7.059 3.4567 9.71426C1.90892 12.3695 1.09351 15.388 1.09375 18.4614C1.0938 21.2137 1.67993 23.9345 2.81316 26.4427C3.94638 28.9509 5.60071 31.1891 7.66609 33.0083C7.69713 34.2267 8.01861 35.4201 8.60378 36.4892C9.18895 37.5584 10.0209 38.4723 11.0305 39.1552C9.05753 39.9966 7.3751 41.3988 6.19194 43.1878C5.00879 44.9768 4.37701 47.0739 4.375 49.2188V63.4375C4.375 63.7276 4.49023 64.0058 4.69535 64.2109C4.90047 64.416 5.17867 64.5313 5.46875 64.5313H18.5938V67.8125C18.5938 68.1026 18.709 68.3808 18.9141 68.5859C19.1192 68.791 19.3974 68.9063 19.6875 68.9063H37.1875C37.4776 68.9063 37.7558 68.791 37.9609 68.5859C38.166 68.3808 38.2812 68.1026 38.2812 67.8125V64.5313H46.9372C47.1308 64.657 47.3233 64.7828 47.5234 64.8999L54.1406 68.7575C54.3079 68.8551 54.4982 68.9066 54.6919 68.9066C54.8856 68.9066 55.0758 68.8551 55.2431 68.7575L61.8559 64.8999C63.9987 63.6434 65.7762 61.8493 67.0128 59.695C68.2493 57.5408 68.902 55.101 68.9062 52.617V44.8438C68.9059 44.6521 68.8551 44.464 68.7592 44.2981C68.6632 44.1323 68.5253 43.9946 68.3594 43.8988ZM41.5625 38.2813C40.4809 38.2813 39.4236 37.9605 38.5242 37.3596C37.6249 36.7587 36.924 35.9046 36.51 34.9053C36.0961 33.906 35.9878 32.8064 36.1988 31.7456C36.4098 30.6848 36.9307 29.7103 37.6955 28.9455C38.4603 28.1807 39.4348 27.6599 40.4956 27.4488C41.5564 27.2378 42.656 27.3461 43.6553 27.76C44.6546 28.174 45.5087 28.8749 46.1096 29.7742C46.7105 30.6736 47.0312 31.7309 47.0312 32.8125C47.0295 34.2624 46.4528 35.6524 45.4276 36.6776C44.4024 37.7028 43.0124 38.2795 41.5625 38.2813ZM3.28125 18.4614C3.28121 15.7752 3.99403 13.137 5.34694 10.8164C6.69984 8.49569 8.64436 6.57561 10.982 5.25216C13.3196 3.92872 15.9665 3.24932 18.6525 3.28334C21.3386 3.31736 23.9674 4.06357 26.2708 5.44579L27.8742 6.40719C28.0443 6.5094 28.239 6.56339 28.4375 6.56339C28.636 6.56339 28.8307 6.5094 29.0008 6.40719L30.6042 5.44579C32.9076 4.06357 35.5364 3.31736 38.2225 3.28334C40.9085 3.24932 43.5554 3.92872 45.893 5.25216C48.2306 6.57561 50.1752 8.49569 51.5281 10.8164C52.881 13.137 53.5938 15.7752 53.5938 18.4614C53.5983 22.9026 51.8871 27.1738 48.8173 30.3833C48.4324 29.2277 47.7773 28.1806 46.9065 27.3291C46.0357 26.4775 44.9743 25.8459 43.8104 25.4869C42.6465 25.1279 41.4137 25.0517 40.2145 25.2647C39.0153 25.4777 37.8842 25.9738 36.9151 26.7117C35.9461 27.4496 35.1671 28.408 34.6428 29.5074C34.1185 30.6068 33.8641 31.8154 33.9007 33.0329C33.9373 34.2504 34.2638 35.4415 34.8531 36.5075C35.4425 37.5734 36.2776 38.4833 37.2892 39.1617C36.203 39.6225 35.1986 40.2563 34.3153 41.0386C33.5982 40.1755 32.6998 39.4809 31.6839 39.0042C30.668 38.5275 29.5596 38.2804 28.4375 38.2804C27.3154 38.2804 26.207 38.5275 25.1911 39.0042C24.1752 39.4809 23.2768 40.1755 22.5597 41.0386C21.676 40.2563 20.6713 39.6225 19.5847 39.1617C20.5965 38.4835 21.4319 37.5736 22.0215 36.5077C22.6111 35.4418 22.9378 34.2505 22.9746 33.033C23.0113 31.8154 22.757 30.6067 22.2328 29.5071C21.7086 28.4076 20.9296 27.449 19.9605 26.7109C18.9914 25.9729 17.8602 25.4768 16.6608 25.2638C15.4615 25.0507 14.2286 25.1269 13.0646 25.486C11.9007 25.8452 10.8392 26.4768 9.96834 27.3286C9.09751 28.1803 8.44248 29.2276 8.05766 30.3833C4.98751 27.1741 3.2762 22.9027 3.28125 18.4614ZM28.4375 51.4063C27.3559 51.4063 26.2986 51.0855 25.3992 50.4846C24.4999 49.8837 23.799 49.0296 23.385 48.0303C22.9711 47.031 22.8628 45.9314 23.0738 44.8706C23.2848 43.8098 23.8057 42.8353 24.5705 42.0705C25.3353 41.3057 26.3098 40.7849 27.3706 40.5738C28.4314 40.3628 29.531 40.4711 30.5303 40.885C31.5296 41.299 32.3837 41.9999 32.9846 42.8992C33.5855 43.7986 33.9062 44.8559 33.9062 45.9375C33.9045 47.3874 33.3278 48.7774 32.3026 49.8026C31.2774 50.8278 29.8874 51.4045 28.4375 51.4063ZM9.84375 32.8125C9.84375 31.7309 10.1645 30.6736 10.7654 29.7742C11.3663 28.8749 12.2204 28.174 13.2197 27.76C14.219 27.3461 15.3186 27.2378 16.3794 27.4488C17.4402 27.6599 18.4147 28.1807 19.1795 28.9455C19.9443 29.7103 20.4652 30.6848 20.6762 31.7456C20.8872 32.8064 20.7789 33.906 20.365 34.9053C19.951 35.9046 19.2501 36.7587 18.3508 37.3596C17.4514 37.9605 16.3941 38.2813 15.3125 38.2813C13.8626 38.2795 12.4726 37.7028 11.4474 36.6776C10.4222 35.6524 9.84549 34.2624 9.84375 32.8125ZM6.5625 62.3438V49.2188C6.56052 47.4999 7.0654 45.8187 8.01398 44.3853C8.96256 42.9519 10.3127 41.83 11.8956 41.16C13.4785 40.4899 15.2237 40.3015 16.9131 40.6182C18.6026 40.9349 20.1611 41.7428 21.3937 42.9406C20.6883 44.5955 20.5894 46.4462 21.1144 48.1668C21.6394 49.8875 22.7546 51.3677 24.2638 52.3469C22.5709 53.1394 21.1386 54.3976 20.1345 55.9742C19.1305 57.5509 18.596 59.3808 18.5938 61.25V62.3438H6.5625ZM36.0938 66.7188H20.7812V61.25C20.7812 59.2194 21.5879 57.272 23.0237 55.8362C24.4595 54.4004 26.4069 53.5938 28.4375 53.5938C30.4681 53.5938 32.4155 54.4004 33.8513 55.8362C35.2871 57.272 36.0938 59.2194 36.0938 61.25V66.7188ZM32.6112 52.348C34.1204 51.3688 35.2356 49.8886 35.7606 48.1679C36.2856 46.4473 36.1867 44.5966 35.4812 42.9417C36.7635 41.6881 38.4027 40.8627 40.1734 40.5791C41.9441 40.2955 43.7591 40.5676 45.3687 41.358L41.0156 43.8988C40.8497 43.9946 40.7118 44.1323 40.6158 44.2981C40.5199 44.464 40.4691 44.6521 40.4688 44.8438V52.617C40.4775 56.2316 41.8582 59.7081 44.3319 62.3438H38.2812V61.25C38.2788 59.381 37.7442 57.5513 36.7402 55.9749C35.7361 54.3984 34.304 53.1404 32.6112 52.348ZM66.7188 52.617C66.7144 54.7188 66.1614 56.7831 65.1144 58.6055C64.0674 60.4279 62.5626 61.9454 60.7491 63.0077L54.6875 66.546L48.6259 63.0099C46.8121 61.9474 45.3071 60.4296 44.2601 58.6067C43.213 56.7839 42.6602 54.7192 42.6562 52.617V45.4716L54.6875 38.4541L66.7188 45.4716V52.617Z" fill="#EE3B34"/>
<path d="M49.9918 50.633C49.7867 50.4279 49.5085 50.3127 49.2185 50.3127C48.9285 50.3127 48.6503 50.4279 48.4452 50.633L45.164 53.9142C44.9589 54.1193 44.8438 54.3975 44.8438 54.6875C44.8438 54.9775 44.9589 55.2557 45.164 55.4608L51.7265 62.0233C51.9316 62.2283 52.2097 62.3435 52.4998 62.3435C52.7898 62.3435 53.0679 62.2283 53.273 62.0233L65.3043 49.992C65.5093 49.7869 65.6245 49.5088 65.6245 49.2188C65.6245 48.9287 65.5093 48.6506 65.3043 48.4455L62.023 45.1642C61.8179 44.9592 61.5398 44.844 61.2498 44.844C60.9597 44.844 60.6816 44.9592 60.4765 45.1642L52.4998 53.1409L49.9918 50.633ZM61.2498 47.4841L62.9845 49.2188L52.4998 59.7034L47.4838 54.6875L49.2185 52.9528L51.7265 55.4608C51.9316 55.6658 52.2097 55.781 52.4998 55.781C52.7898 55.781 53.0679 55.6658 53.273 55.4608L61.2498 47.4841Z" fill="#A78227"/>
</svg>
