<svg width="20" height="20" viewBox="0 0 20 20" fill="none" xmlns="http://www.w3.org/2000/svg">
<g clip-path="url(#clip0_201_2873)">
<path d="M10.0001 0.0354004C7.79507 0.0378263 5.68101 0.914797 4.12173 2.47392C2.56245 4.03305 1.68526 6.14702 1.68262 8.35207C1.68262 10.4937 3.34095 13.8454 6.61178 18.3137C7.00117 18.8472 7.511 19.2811 8.09979 19.5803C8.68857 19.8795 9.33968 20.0354 10.0001 20.0354C10.6606 20.0354 11.3117 19.8795 11.9004 19.5803C12.4892 19.2811 12.9991 18.8472 13.3885 18.3137C16.6593 13.8454 18.3176 10.4937 18.3176 8.35207C18.315 6.14702 17.4378 4.03305 15.8785 2.47392C14.3192 0.914797 12.2052 0.0378263 10.0001 0.0354004ZM10.0001 11.6671C9.34085 11.6671 8.69638 11.4716 8.14822 11.1053C7.60005 10.739 7.17281 10.2184 6.92052 9.60935C6.66823 9.00026 6.60222 8.33004 6.73083 7.68343C6.85945 7.03683 7.17692 6.44289 7.64309 5.97671C8.10927 5.51054 8.70321 5.19307 9.34982 5.06445C9.99642 4.93583 10.6666 5.00184 11.2757 5.25414C11.8848 5.50643 12.4054 5.93367 12.7717 6.48183C13.138 7.03 13.3335 7.67446 13.3335 8.33373C13.3335 9.21779 12.9823 10.0656 12.3571 10.6908C11.732 11.3159 10.8842 11.6671 10.0001 11.6671Z" fill="white"/>
</g>
<defs>
<clipPath id="clip0_201_2873">
<rect width="20" height="20" fill="white"/>
</clipPath>
</defs>
</svg>
