<svg width="70" height="73" viewBox="0 0 70 73" fill="none" xmlns="http://www.w3.org/2000/svg">
<path d="M37.0102 72.6676C32.5201 72.6676 28.8488 69.0505 28.8488 64.6677V42.2064C28.8488 41.8069 29.1666 41.4891 29.5661 41.4891C29.9718 41.4891 30.2996 41.813 30.2996 42.2064V64.6193C30.2996 68.2631 33.3308 71.233 37.0748 71.233C40.8149 71.233 43.9146 68.2669 43.9146 64.6193V52.0403C43.9146 51.6408 44.2324 51.323 44.6319 51.323C45.0506 51.323 45.3653 51.6439 45.3653 52.0403V64.664C45.2544 69.0506 41.58 72.6676 37.0102 72.6676Z" fill="#A78227" stroke="#A78227" stroke-width="0.6"/>
<path d="M29.5178 36.684C21.4924 36.684 14.9526 30.1442 14.9526 22.135V7.2307C14.9526 6.66553 15.4048 6.21339 15.9699 6.21339H20.5236C21.0887 6.21339 21.557 6.66553 21.557 7.2307C21.557 7.79586 21.0887 8.19955 20.5236 8.19955H16.9388V22.0704C16.9388 29.0139 22.5743 34.6494 29.5178 34.6494C36.4451 34.6978 42.1291 29.0139 42.1291 22.0704V8.19955H38.5605C37.9792 8.19955 37.527 7.74742 37.527 7.18225C37.527 6.60094 37.9792 6.1488 38.5605 6.1488H43.1626C43.7277 6.1488 44.1799 6.60094 44.1799 7.18225V22.0219C44.1314 30.0957 37.5916 36.684 29.5178 36.684Z" fill="#EE3B34" stroke="#EE3B34" stroke-width="0.6"/>
<path d="M31.617 43.2237H27.467C26.9019 43.2237 26.4336 42.7716 26.4336 42.2064V35.5051C26.4336 34.9238 26.9019 34.4717 27.467 34.4717C28.0322 34.4717 28.4843 34.9238 28.4843 35.5051V41.2375H30.6481V35.5051C30.6481 34.9238 31.1003 34.4717 31.6654 34.4717C32.2467 34.4717 32.6989 34.9238 32.6989 35.5051V42.2064C32.6343 42.7716 32.1822 43.2237 31.617 43.2237Z" fill="#EE3B34" stroke="#EE3B34" stroke-width="0.6"/>
<path d="M44.5191 53.0092C42.1292 53.0092 40.1431 51.0877 40.1431 48.6978C40.1431 46.308 42.0808 44.3702 44.5191 44.3702C46.9089 44.3702 48.8466 46.308 48.8466 48.6978C48.8466 51.0877 46.9089 53.0092 44.5191 53.0092ZM44.5191 46.421C43.2111 46.421 42.1292 47.4383 42.1292 48.7462C42.1292 50.0542 43.2111 51.0877 44.5191 51.0877C45.827 51.0877 46.8605 50.0542 46.8605 48.7462C46.8605 47.4383 45.827 46.421 44.5191 46.421Z" fill="#EE3B34"/>
<path d="M45.3909 58.3775C45.2829 58.4869 45.1748 58.5963 45.0669 58.7058C44.8742 58.8405 44.7139 58.9099 44.5189 58.9099C44.3764 58.9099 44.1751 58.8316 44.0468 58.7172C41.6305 56.3251 39.1915 53.9088 37.3538 51.4413C35.5138 48.9705 34.3068 46.4871 34.3068 43.9665C34.3068 40.9517 36.7233 38.5341 39.7554 38.5341C42.0092 38.5341 43.3607 39.5967 44.2698 40.9525L44.5178 41.3224L44.7674 40.9536C45.2909 40.1801 45.8732 39.5799 46.591 39.171C47.3074 38.763 48.1788 38.5341 49.2986 38.5341C52.3152 38.5341 54.7472 40.9522 54.7472 43.9665C54.7472 46.4624 53.5409 48.9295 51.706 51.3992C49.9598 53.7497 47.6735 56.0655 45.3909 58.3775ZM44.3068 57.0322L44.5186 57.2439L44.7307 57.0326C46.8927 54.8786 49.044 52.6877 50.654 50.5112C52.2605 48.3394 53.361 46.1391 53.361 43.9665C53.361 41.7484 51.5134 39.9203 49.2986 39.9203C48.3714 39.9203 47.6186 40.1176 46.9489 40.6373C46.2916 41.1473 45.7424 41.9469 45.171 43.0896C45.0407 43.3502 44.8014 43.5051 44.5189 43.5051C44.2561 43.5051 44.0159 43.3536 43.8841 43.0917C43.3372 41.9495 42.8002 41.1484 42.1414 40.6373C41.4705 40.1166 40.7047 39.9203 39.7554 39.9203C37.5406 39.9203 35.693 41.7484 35.693 43.9665C35.693 46.1391 36.7935 48.3393 38.3979 50.511C40.0058 52.6874 42.153 54.8784 44.3068 57.0322Z" fill="#A78227" stroke="#A78227" stroke-width="0.6"/>
<path d="M23.7047 11.4452C21.3795 11.4452 19.5063 9.57205 19.5063 7.23065C19.5063 4.90539 21.3795 3.01611 23.7047 3.01611C26.0461 3.01611 27.9193 4.90539 27.9193 7.23065C27.9193 9.57205 26.0461 11.4452 23.7047 11.4452ZM23.7047 5.01842C22.5098 5.01842 21.4925 5.98728 21.4925 7.23065C21.4925 8.49016 22.4614 9.44287 23.7047 9.44287C24.8997 9.44287 25.9331 8.42557 25.9331 7.23065C25.9331 5.98728 24.8997 5.01842 23.7047 5.01842Z" fill="#EE3B34" stroke="#EE3B34" stroke-width="0.6"/>
<path d="M35.3634 11.4452C33.0382 11.4452 31.165 9.57205 31.165 7.23065C31.165 4.90539 33.0382 3.01611 35.3634 3.01611C37.7048 3.01611 39.578 4.90539 39.578 7.23065C39.5134 9.57205 37.6402 11.4452 35.3634 11.4452ZM35.3634 5.01842C34.1685 5.01842 33.1512 5.98728 33.1512 7.23065C33.1512 8.49016 34.1201 9.44287 35.3634 9.44287C36.5583 9.44287 37.5918 8.42557 37.5918 7.23065C37.5272 5.98728 36.5583 5.01842 35.3634 5.01842Z" fill="#EE3B34" stroke="#EE3B34" stroke-width="0.6"/>
</svg>
