<svg width="80" height="80" viewBox="0 0 80 80" fill="none" xmlns="http://www.w3.org/2000/svg">
<g clip-path="url(#clip0_201_2710)">
<path fill-rule="evenodd" clip-rule="evenodd" d="M6.27194 38.9128C5.61474 38.9128 5.08154 38.3796 5.08154 37.7224V30.7742C5.08154 28.9866 6.53441 27.5337 8.32208 27.5337H9.92168C11.3063 27.5337 12.6311 28.0462 13.652 28.9804C13.6603 28.9866 13.6685 28.9948 13.6768 29.001C14.2617 29.5404 15.0201 29.838 15.8158 29.838H31.3861C32.0433 29.838 32.5765 30.3712 32.5765 31.0284C32.5765 31.6856 32.0433 32.2188 31.3861 32.2188H15.8158C14.4311 32.2188 13.1064 31.7042 12.0855 30.7722C12.0772 30.766 12.0689 30.7577 12.0607 30.7515C11.4758 30.2121 10.7173 29.9145 9.92168 29.9145H8.32208C7.84881 29.9145 7.46234 30.301 7.46234 30.7742V37.7224C7.46234 38.3796 6.92914 38.9128 6.27194 38.9128Z" fill="#A78227"/>
<path fill-rule="evenodd" clip-rule="evenodd" d="M13.4308 62.0594C10.5003 62.0594 7.74541 60.9124 5.67254 58.8312C3.60174 56.7501 2.46094 53.987 2.46094 51.0461C2.46094 48.1052 3.60174 45.34 5.67254 43.261C7.74541 41.1798 10.5003 40.0328 13.4308 40.0328C16.3613 40.0328 19.1162 41.1798 21.1891 43.261C23.2599 45.3421 24.4007 48.1052 24.4007 51.0461C24.4007 53.987 23.2599 56.7522 21.1891 58.8312C19.1162 60.9124 16.3613 62.0594 13.4308 62.0594ZM13.4308 42.4136C8.69607 42.4136 4.84174 46.2866 4.84174 51.0461C4.84174 55.8056 8.69401 59.6786 13.4308 59.6786C18.1655 59.6786 22.0178 55.8056 22.0178 51.0461C22.0178 46.2845 18.1655 42.4136 13.4308 42.4136Z" fill="#EE3B34"/>
<path fill-rule="evenodd" clip-rule="evenodd" d="M13.4309 56.8577C10.2379 56.8577 7.64014 54.2495 7.64014 51.0441C7.64014 47.8387 10.2379 45.2306 13.4309 45.2306C16.6239 45.2306 19.2217 47.8387 19.2217 51.0441C19.2217 54.2516 16.6239 56.8577 13.4309 56.8577ZM13.4309 47.6135C11.5503 47.6135 10.0209 49.1531 10.0209 51.0462C10.0209 52.9393 11.5503 54.4789 13.4309 54.4789C15.3116 54.4789 16.8409 52.9393 16.8409 51.0462C16.8409 49.1531 15.3116 47.6135 13.4309 47.6135Z" fill="#A78227"/>
<path fill-rule="evenodd" clip-rule="evenodd" d="M67.6789 62.0594C64.7483 62.0594 61.9935 60.9124 59.9206 58.8312C57.8498 56.7501 56.709 53.987 56.709 51.0461C56.709 48.1052 57.8498 45.34 59.9206 43.261C61.9935 41.1798 64.7483 40.0328 67.6789 40.0328C70.6094 40.0328 73.3643 41.1798 75.4371 43.261C77.5079 45.3421 78.6487 48.1052 78.6487 51.0461C78.6487 53.987 77.5079 56.7522 75.4371 58.8312C73.3643 60.9124 70.6094 62.0594 67.6789 62.0594ZM67.6789 42.4136C62.9441 42.4136 59.0919 46.2866 59.0919 51.0461C59.0919 55.8056 62.9441 59.6786 67.6789 59.6786C72.4136 59.6786 76.2659 55.8056 76.2659 51.0461C76.2659 46.2845 72.4136 42.4136 67.6789 42.4136Z" fill="#EE3B34"/>
<path fill-rule="evenodd" clip-rule="evenodd" d="M67.6785 56.8577C64.4855 56.8577 61.8877 54.2495 61.8877 51.0441C61.8877 47.8387 64.4855 45.2306 67.6785 45.2306C70.8715 45.2306 73.4693 47.8387 73.4693 51.0441C73.4693 54.2516 70.8715 56.8577 67.6785 56.8577ZM67.6785 47.6135C65.7978 47.6135 64.2685 49.1531 64.2685 51.0462C64.2685 52.9393 65.7978 54.4789 67.6785 54.4789C69.5592 54.4789 71.0885 52.9393 71.0885 51.0462C71.0885 49.1531 69.5592 47.6135 67.6785 47.6135Z" fill="#A78227"/>
<path fill-rule="evenodd" clip-rule="evenodd" d="M27.7094 56.2851C27.604 56.2851 27.4944 56.2707 27.387 56.2417C26.7546 56.064 26.3846 55.4068 26.5624 54.7744C26.9013 53.5675 27.0728 52.3151 27.0728 51.0482C27.0728 43.4884 20.9534 37.338 13.4308 37.338C10.1179 37.338 6.92491 38.5449 4.43871 40.7376C3.94478 41.1716 3.19251 41.1262 2.75851 40.6322C2.32451 40.1383 2.36998 39.386 2.86391 38.952C5.78617 36.377 9.53717 34.9572 13.4308 34.9572C17.7108 34.9572 21.7346 36.6312 24.7623 39.6712C27.7879 42.7092 29.4536 46.7495 29.4536 51.0461C29.4536 52.53 29.2532 53.9994 28.8564 55.4151C28.7076 55.94 28.2302 56.2851 27.7094 56.2851Z" fill="#EE3B34"/>
<path fill-rule="evenodd" clip-rule="evenodd" d="M48.7625 39.5555H21.2221C20.5649 39.5555 20.0317 39.0223 20.0317 38.3651C20.0317 37.7079 20.5649 37.1747 21.2221 37.1747H48.7646C49.4218 37.1747 49.955 37.7079 49.955 38.3651C49.9529 39.0223 49.4197 39.5555 48.7625 39.5555Z" fill="#EE3B34"/>
<path fill-rule="evenodd" clip-rule="evenodd" d="M45.6457 56.2831H27.707C27.0498 56.2831 26.5166 55.7499 26.5166 55.0927C26.5166 54.4355 27.0498 53.9023 27.707 53.9023H45.6457C46.3029 53.9023 46.8361 54.4355 46.8361 55.0927C46.8361 55.752 46.3029 56.2831 45.6457 56.2831Z" fill="#EE3B34"/>
<path fill-rule="evenodd" clip-rule="evenodd" d="M45.6478 56.2851C45.5734 56.2851 45.499 56.2789 45.4246 56.2645C44.7777 56.1425 44.3541 55.5184 44.476 54.8736L48.2373 34.9984C48.3593 34.3516 48.9813 33.9279 49.6282 34.0498C50.2751 34.1718 50.6987 34.7959 50.5768 35.4407L46.8155 55.3159C46.708 55.8863 46.2079 56.2851 45.6478 56.2851Z" fill="#EE3B34"/>
<path fill-rule="evenodd" clip-rule="evenodd" d="M30.1522 39.3633C29.5198 39.3633 28.9949 38.8673 28.9639 38.2287C28.9515 37.9455 28.9246 37.8897 28.9143 37.6645C28.8481 36.3191 28.8233 35.8148 28.8709 34.6141C28.9618 32.2932 30.0902 30.3567 32.1321 29.0093C34.0726 27.73 36.7614 27.0542 39.911 27.0542C42.703 27.0542 45.183 27.5853 47.0844 28.5918C47.6651 28.8997 47.8883 29.6189 47.5804 30.2017C47.2724 30.7845 46.5532 31.0057 45.9704 30.6977C44.4101 29.8731 42.3145 29.4371 39.911 29.4371C37.2284 29.4371 34.9923 29.9765 33.4423 30.9995C32.0473 31.9191 31.3095 33.1674 31.2496 34.7091C31.2062 35.8045 31.2289 36.2447 31.293 37.5487C31.3033 37.7761 31.3302 37.8339 31.3426 38.1171C31.3736 38.7743 30.8673 39.3323 30.2101 39.3612C30.1915 39.3612 30.1708 39.3633 30.1522 39.3633Z" fill="#EE3B34"/>
<path fill-rule="evenodd" clip-rule="evenodd" d="M53.1335 40.6219C53.119 40.6219 53.1045 40.6219 53.0921 40.6219C52.7615 40.6094 52.4515 40.4627 52.2365 40.2127L44.5775 31.4107C44.1538 30.923 44.1951 30.1852 44.6725 29.7491L49.6243 25.2314C49.8619 25.0144 50.1781 24.9028 50.5005 24.9235C50.8229 24.9441 51.1226 25.0929 51.3313 25.3368L58.73 33.9734C59.1351 34.4467 59.1082 35.1514 58.668 35.5895L53.9767 40.2726C53.7514 40.4958 53.4476 40.6219 53.1335 40.6219ZM47.136 30.7246L53.1955 37.6872L56.2045 34.6843L50.3228 27.8189L47.136 30.7246Z" fill="#EE3B34"/>
<path fill-rule="evenodd" clip-rule="evenodd" d="M60.2612 33.961H58.5459C55.4748 33.961 52.9741 31.4624 52.9741 28.3893V28.0979C52.9741 25.0268 55.4727 22.5261 58.5459 22.5261H60.2612C61.1023 22.5261 61.7885 23.2102 61.7885 24.0534V32.4337C61.7885 33.2769 61.1044 33.961 60.2612 33.961ZM58.5459 24.9069C56.7871 24.9069 55.3549 26.3391 55.3549 28.0979V28.3893C55.3549 30.148 56.7851 31.5802 58.5459 31.5802H59.4077V24.9069H58.5459Z" fill="#EE3B34"/>
<path fill-rule="evenodd" clip-rule="evenodd" d="M61.2554 44.8297C60.9248 44.8297 60.5941 44.6912 60.3585 44.4225L54.6318 37.8753C54.1978 37.3814 54.2494 36.6291 54.7434 36.1951C55.2373 35.7611 55.9896 35.8128 56.4236 36.3067L62.1503 42.856C62.5843 43.3499 62.5326 44.1022 62.0387 44.5362C61.8134 44.7325 61.5324 44.8297 61.2554 44.8297Z" fill="#EE3B34"/>
<path fill-rule="evenodd" clip-rule="evenodd" d="M47.8345 29.5011C47.5018 29.5011 47.1732 29.3627 46.9376 29.094L40.4296 21.6271H35.9863C35.3291 21.6271 34.7959 21.0939 34.7959 20.4367C34.7959 19.7795 35.3291 19.2463 35.9863 19.2463H40.9711C41.3142 19.2463 41.6407 19.3951 41.868 19.6535L48.7314 27.5275C49.1634 28.0235 49.1138 28.7757 48.6178 29.2077C48.3904 29.404 48.1114 29.5011 47.8345 29.5011Z" fill="#EE3B34"/>
<path fill-rule="evenodd" clip-rule="evenodd" d="M53.398 56.2851C52.8772 56.2851 52.3998 55.9421 52.253 55.4151C51.8562 53.9994 51.6558 52.53 51.6558 51.0461C51.6558 46.7495 53.3215 42.7092 56.3471 39.6712C59.3727 36.6312 63.3986 34.9572 67.6786 34.9572C71.5702 34.9572 75.3232 36.3749 78.2455 38.952C78.7394 39.386 78.7849 40.1383 78.3509 40.6322C77.9169 41.1262 77.1646 41.1737 76.6707 40.7376C74.1845 38.5449 70.9915 37.338 67.6786 37.338C60.156 37.338 54.0366 43.4884 54.0366 51.0482C54.0366 52.3151 54.2081 53.5675 54.547 54.7744C54.7248 55.4068 54.3548 56.064 53.7224 56.2417C53.6129 56.2707 53.5054 56.2851 53.398 56.2851Z" fill="#EE3B34"/>
<path fill-rule="evenodd" clip-rule="evenodd" d="M41.5641 47.9192H33.4463C32.7891 47.9192 32.2559 47.3861 32.2559 46.7289C32.2559 46.0717 32.7891 45.5385 33.4463 45.5385H41.5641C42.2213 45.5385 42.7545 46.0717 42.7545 46.7289C42.7545 47.3861 42.2213 47.9192 41.5641 47.9192Z" fill="#A78227"/>
</g>
<defs>
<clipPath id="clip0_201_2710">
<rect width="80" height="80" fill="white"/>
</clipPath>
</defs>
</svg>
