<svg width="18" height="18" viewBox="0 0 18 18" fill="none" xmlns="http://www.w3.org/2000/svg">
<g clip-path="url(#clip0_401_1371)">
<path d="M17.1398 0.860996C16.6299 0.351893 15.9388 0.0659485 15.2183 0.0659485C14.4977 0.0659485 13.8066 0.351893 13.2968 0.860996L1.09876 13.059C0.74945 13.4063 0.472483 13.8195 0.283885 14.2746C0.0952868 14.7297 -0.00119848 15.2176 1.12359e-05 15.7102V17.25C1.12359e-05 17.4489 0.0790289 17.6397 0.219681 17.7803C0.360333 17.921 0.551099 18 0.750011 18H2.28976C2.78233 18.0014 3.27029 17.9051 3.72538 17.7166C4.18047 17.5281 4.59365 17.2512 4.94101 16.902L17.1398 4.70325C17.6486 4.19339 17.9344 3.50247 17.9344 2.78212C17.9344 2.06177 17.6486 1.37085 17.1398 0.860996ZM3.88051 15.8415C3.45751 16.2617 2.88598 16.4983 2.28976 16.5H1.50001V15.7102C1.49925 15.4147 1.55713 15.1219 1.67029 14.8488C1.78345 14.5758 1.94965 14.3279 2.15926 14.1195L11.4165 4.86225L13.1415 6.58725L3.88051 15.8415ZM16.0785 3.64275L14.199 5.523L12.474 3.80175L14.3543 1.9215C14.4675 1.80848 14.6019 1.71887 14.7498 1.6578C14.8977 1.59673 15.0562 1.56539 15.2162 1.56556C15.3762 1.56574 15.5346 1.59742 15.6824 1.65882C15.8301 1.72021 15.9644 1.81011 16.0774 1.92337C16.1904 2.03664 16.28 2.17105 16.3411 2.31895C16.4022 2.46684 16.4335 2.62531 16.4333 2.78532C16.4331 2.94533 16.4015 3.10373 16.3401 3.25149C16.2787 3.39926 16.1888 3.53348 16.0755 3.6465L16.0785 3.64275Z" fill="#A78227"/>
</g>
<defs>
<clipPath id="clip0_401_1371">
<rect width="18" height="18" fill="white"/>
</clipPath>
</defs>
</svg>
