<svg width="20" height="20" viewBox="0 0 20 20" fill="none" xmlns="http://www.w3.org/2000/svg">
<g clip-path="url(#clip0_201_2877)">
<path d="M19.1669 9.1663C18.9459 9.1663 18.7339 9.0785 18.5777 8.92222C18.4214 8.76594 18.3336 8.55398 18.3336 8.33297C18.3318 6.5654 17.6289 4.87073 16.379 3.62087C15.1291 2.37101 13.4345 1.66807 11.6669 1.6663C11.4459 1.6663 11.2339 1.5785 11.0777 1.42222C10.9214 1.26594 10.8336 1.05398 10.8336 0.832969C10.8336 0.611955 10.9214 0.399993 11.0777 0.243713C11.2339 0.0874327 11.4459 -0.000364667 11.6669 -0.000364667C13.8763 0.00206166 15.9945 0.880815 17.5568 2.44309C19.1191 4.00537 19.9978 6.12358 20.0002 8.33297C20.0002 8.55398 19.9124 8.76594 19.7562 8.92222C19.5999 9.0785 19.3879 9.1663 19.1669 9.1663ZM16.6669 8.33297C16.6669 7.00689 16.1401 5.73512 15.2024 4.79743C14.2648 3.85975 12.993 3.33297 11.6669 3.33297C11.4459 3.33297 11.2339 3.42077 11.0777 3.57705C10.9214 3.73333 10.8336 3.94529 10.8336 4.1663C10.8336 4.38732 10.9214 4.59928 11.0777 4.75556C11.2339 4.91184 11.4459 4.99964 11.6669 4.99964C12.551 4.99964 13.3988 5.35082 14.0239 5.97595C14.6491 6.60107 15.0002 7.44891 15.0002 8.33297C15.0002 8.55398 15.088 8.76594 15.2443 8.92222C15.4006 9.0785 15.6126 9.1663 15.8336 9.1663C16.0546 9.1663 16.2666 9.0785 16.4228 8.92222C16.5791 8.76594 16.6669 8.55398 16.6669 8.33297ZM18.4861 18.4696L19.2444 17.5955C19.7271 17.1112 19.9981 16.4554 19.9981 15.7717C19.9981 15.088 19.7271 14.4322 19.2444 13.948C19.2186 13.9221 17.2136 12.3796 17.2136 12.3796C16.7324 11.9216 16.0932 11.6665 15.4288 11.6674C14.7645 11.6684 14.126 11.9252 13.6461 12.3846L12.0577 13.723C10.7612 13.1864 9.58348 12.399 8.59215 11.4059C7.60082 10.4129 6.81543 9.23375 6.28108 7.9363L7.61441 6.35297C8.07417 5.87311 8.33133 5.23453 8.33241 4.56997C8.3335 3.90541 8.07844 3.26599 7.62025 2.78464C7.62025 2.78464 6.07608 0.782135 6.05025 0.756302C5.57479 0.277759 4.93015 0.00548701 4.2556 -0.00168568C3.58106 -0.00885837 2.93077 0.249644 2.44525 0.717969L1.48691 1.5513C-4.17475 8.11964 8.01691 20.2171 14.8019 19.9996C15.4871 20.0036 16.1661 19.8703 16.7988 19.6075C17.4316 19.3447 18.0053 18.9578 18.4861 18.4696Z" fill="white"/>
</g>
<defs>
<clipPath id="clip0_201_2877">
<rect width="20" height="20" fill="white"/>
</clipPath>
</defs>
</svg>
