<svg width="71" height="74" viewBox="0 0 71 74" fill="none" xmlns="http://www.w3.org/2000/svg">
<g clip-path="url(#clip0_205_3449)">
<path d="M60.0922 17.4753C59.7537 13.52 57.1901 10.9565 53.235 10.6182C52.6857 10.5712 52.2025 10.9784 52.1555 11.5275C52.1085 12.0765 52.6859 12.2965 53.235 12.3434C56.2281 12.5996 57.9855 14.4826 58.2417 17.4753C58.2626 17.7192 58.2311 18.1053 58.3917 18.2658C58.5928 18.4667 58.8777 18.5809 59.1828 18.5548C59.732 18.5077 60.1391 18.0245 60.0922 17.4753Z" fill="url(#paint0_linear_205_3449)" stroke="#EE3B34" stroke-width="0.8"/>
<path d="M65.2386 5.4721C64.2976 4.53124 62.9976 4.06168 61.6729 4.18272L60.1243 4.32457C54.1542 4.87197 48.7046 7.66893 44.7796 12.2007L42.3962 14.9523L36.8988 12.6739L37.1928 12.3798C38.0683 11.5042 38.0683 10.0795 37.1928 9.20403L35.5269 7.53755C34.6514 6.66231 33.2267 6.66204 32.3511 7.53755L30.0525 9.8361L27.4096 8.74078L28.072 8.07837C28.9475 7.20273 28.9475 5.77821 28.072 4.9027L26.4058 3.23649C25.53 2.36098 24.1054 2.36125 23.23 3.23649L20.5632 5.90328L16.0696 4.04087C13.9394 3.15798 11.5097 3.64123 9.87924 5.27147L6.88822 8.26249C6.25333 8.89738 5.92628 9.77531 5.99097 10.671C6.05565 11.5666 6.50562 12.3883 7.22506 12.9255L29.6518 29.6655L22.1661 38.3079C21.8052 38.7245 21.8504 39.3548 22.267 39.7157C22.4558 39.8791 22.6884 39.9594 22.92 39.9594C23.1994 39.9594 23.4773 39.8426 23.6747 39.6147L31.8628 30.1614C31.8627 30.1615 31.863 30.1613 31.8628 30.1614L36.6992 24.5778L46.2883 13.5072C49.874 9.36735 54.8524 6.81221 60.3065 6.31218L61.8552 6.17034C62.5892 6.1031 63.3069 6.36305 63.8272 6.88347C64.3476 7.40376 64.6076 8.12252 64.5403 8.85552L64.3985 10.4042C64.0696 13.9924 62.8167 17.4587 60.7753 20.428C60.463 20.8823 60.5781 21.5036 61.0322 21.8159C61.4866 22.1283 62.1078 22.013 62.4201 21.5589C64.6547 18.3085 66.026 14.5143 66.3861 10.5864L66.5279 9.03776C66.6494 7.71268 66.1794 6.41297 65.2386 5.4721ZM33.7624 8.94919C33.8593 8.85176 34.0178 8.85162 34.1152 8.94919L35.7813 10.6153C35.8786 10.7124 35.8786 10.8709 35.7814 10.9681L34.903 11.8464L34.0926 11.5105L32.0482 10.6632L33.7624 8.94919ZM24.6415 4.64799C24.7385 4.55056 24.897 4.55043 24.9943 4.64799L26.6604 6.31406C26.7577 6.41122 26.7577 6.56958 26.6604 6.66674L25.4138 7.91344L22.559 6.73035L24.6415 4.64799ZM30.9622 28.1527L8.41902 11.3258C8.16029 11.1329 8.00515 10.8492 7.9818 10.5272C7.95859 10.2053 8.07131 9.90226 8.29972 9.67413L11.2906 6.68324C11.9972 5.97682 12.9348 5.60254 13.8915 5.60254C14.3667 5.60254 14.8469 5.69501 15.3056 5.88503L41.0191 16.5419L30.9622 28.1527Z" fill="url(#paint1_linear_205_3449)"/>
<path d="M31.8628 30.1614L23.6747 39.6148C23.4773 39.8426 23.1994 39.9594 22.92 39.9594C22.6884 39.9594 22.4558 39.8791 22.267 39.7157C21.8504 39.3548 21.8052 38.7245 22.1661 38.3079L29.6518 29.6655L7.22506 12.9255C6.50562 12.3883 6.05565 11.5666 5.99097 10.671C5.92628 9.77531 6.25333 8.89738 6.88822 8.26249L9.87924 5.27147C11.5097 3.64123 13.9394 3.15798 16.0696 4.04087L20.5632 5.90328L23.23 3.23649C24.1054 2.36125 25.53 2.36098 26.4058 3.23649L28.072 4.9027C28.9475 5.77821 28.9475 7.20273 28.072 8.07837L27.4096 8.74078L30.0525 9.8361L32.3511 7.53755C33.2267 6.66204 34.6514 6.66231 35.5269 7.53755L37.1928 9.20403C38.0683 10.0795 38.0683 11.5042 37.1928 12.3798L36.8988 12.6739L42.3962 14.9523L44.7796 12.2007C48.7046 7.66893 54.1542 4.87197 60.1243 4.32457L61.6729 4.18272C62.9976 4.06168 64.2976 4.53124 65.2386 5.4721C66.1794 6.41297 66.6494 7.71268 66.5279 9.03776L66.3861 10.5864C66.026 14.5143 64.6547 18.3085 62.4201 21.5589C62.1078 22.013 61.4866 22.1283 61.0322 21.8159C60.5781 21.5036 60.463 20.8823 60.7753 20.428C62.8167 17.4587 64.0696 13.9924 64.3985 10.4042L64.5403 8.85552C64.6076 8.12252 64.3476 7.40376 63.8272 6.88347C63.3069 6.36305 62.5892 6.1031 61.8552 6.17034L60.3065 6.31218C54.8524 6.81221 49.874 9.36735 46.2883 13.5072L36.6992 24.5778L31.8628 30.1614ZM31.8628 30.1614C31.863 30.1613 31.8627 30.1615 31.8628 30.1614ZM33.7624 8.94919C33.8593 8.85176 34.0178 8.85162 34.1152 8.94919L35.7813 10.6153C35.8786 10.7124 35.8786 10.8709 35.7814 10.9681L34.903 11.8464L34.0926 11.5105L32.0482 10.6632L33.7624 8.94919ZM24.6415 4.64799C24.7385 4.55056 24.897 4.55043 24.9943 4.64799L26.6604 6.31406C26.7577 6.41122 26.7577 6.56958 26.6604 6.66674L25.4138 7.91344L22.559 6.73035L24.6415 4.64799ZM30.9622 28.1527L8.41902 11.3258C8.16029 11.1329 8.00515 10.8492 7.9818 10.5272C7.95859 10.2053 8.07131 9.90226 8.29972 9.67413L11.2906 6.68324C11.9972 5.97682 12.9348 5.60254 13.8915 5.60254C14.3667 5.60254 14.8469 5.69501 15.3056 5.88503L41.0191 16.5419L30.9622 28.1527Z" stroke="#A78227" stroke-width="0.8"/>
<mask id="path-4-inside-1_205_3449" fill="white">
<path d="M65.2386 5.4721C64.2976 4.53124 62.9976 4.06168 61.6729 4.18272L60.1243 4.32457C54.1542 4.87197 48.7046 7.66893 44.7796 12.2007L42.3962 14.9523L36.8988 12.6739L37.1928 12.3798C38.0683 11.5042 38.0683 10.0795 37.1928 9.20403L35.5269 7.53755C34.6514 6.66231 33.2267 6.66204 32.3511 7.53755L30.0525 9.8361L27.4096 8.74078L28.072 8.07837C28.9475 7.20273 28.9475 5.77821 28.072 4.9027L26.4058 3.23649C25.53 2.36098 24.1054 2.36125 23.23 3.23649L20.5632 5.90328L16.0696 4.04087C13.9394 3.15798 11.5097 3.64123 9.87924 5.27147L6.88822 8.26249C6.25333 8.89738 5.92628 9.77531 5.99097 10.671C6.05565 11.5666 6.50562 12.3883 7.22506 12.9255L29.6518 29.6655L22.1661 38.3079C21.8052 38.7245 21.8504 39.3548 22.267 39.7157C22.4558 39.8791 22.6884 39.9594 22.92 39.9594C23.1994 39.9594 23.4773 39.8426 23.6747 39.6147L31.8628 30.1614C31.8627 30.1615 31.863 30.1613 31.8628 30.1614L36.6992 24.5778L46.2883 13.5072C49.874 9.36735 54.8524 6.81221 60.3065 6.31218L61.8552 6.17034C62.5892 6.1031 63.3069 6.36305 63.8272 6.88347C64.3476 7.40376 64.6076 8.12252 64.5403 8.85552L64.3985 10.4042C64.0696 13.9924 62.8167 17.4587 60.7753 20.428C60.463 20.8823 60.5781 21.5036 61.0322 21.8159C61.4866 22.1283 62.1078 22.013 62.4201 21.5589C64.6547 18.3085 66.026 14.5143 66.3861 10.5864L66.5279 9.03776C66.6494 7.71268 66.1794 6.41297 65.2386 5.4721ZM33.7624 8.94919C33.8593 8.85176 34.0178 8.85162 34.1152 8.94919L35.7813 10.6153C35.8786 10.7124 35.8786 10.8709 35.7814 10.9681L34.903 11.8464L34.0926 11.5105L32.0482 10.6632L33.7624 8.94919ZM24.6415 4.64799C24.7385 4.55056 24.897 4.55043 24.9943 4.64799L26.6604 6.31406C26.7577 6.41122 26.7577 6.56958 26.6604 6.66674L25.4138 7.91344L22.559 6.73035L24.6415 4.64799ZM30.9622 28.1527L8.41902 11.3258C8.16029 11.1329 8.00515 10.8492 7.9818 10.5272C7.95859 10.2053 8.07131 9.90226 8.29972 9.67413L11.2906 6.68324C11.9972 5.97682 12.9348 5.60254 13.8915 5.60254C14.3667 5.60254 14.8469 5.69501 15.3056 5.88503L41.0191 16.5419L30.9622 28.1527Z"/>
</mask>
<path d="M65.2386 5.4721C64.2976 4.53124 62.9976 4.06168 61.6729 4.18272L60.1243 4.32457C54.1542 4.87197 48.7046 7.66893 44.7796 12.2007L42.3962 14.9523L36.8988 12.6739L37.1928 12.3798C38.0683 11.5042 38.0683 10.0795 37.1928 9.20403L35.5269 7.53755C34.6514 6.66231 33.2267 6.66204 32.3511 7.53755L30.0525 9.8361L27.4096 8.74078L28.072 8.07837C28.9475 7.20273 28.9475 5.77821 28.072 4.9027L26.4058 3.23649C25.53 2.36098 24.1054 2.36125 23.23 3.23649L20.5632 5.90328L16.0696 4.04087C13.9394 3.15798 11.5097 3.64123 9.87924 5.27147L6.88822 8.26249C6.25333 8.89738 5.92628 9.77531 5.99097 10.671C6.05565 11.5666 6.50562 12.3883 7.22506 12.9255L29.6518 29.6655L22.1661 38.3079C21.8052 38.7245 21.8504 39.3548 22.267 39.7157C22.4558 39.8791 22.6884 39.9594 22.92 39.9594C23.1994 39.9594 23.4773 39.8426 23.6747 39.6147L31.8628 30.1614C31.8627 30.1615 31.863 30.1613 31.8628 30.1614L36.6992 24.5778L46.2883 13.5072C49.874 9.36735 54.8524 6.81221 60.3065 6.31218L61.8552 6.17034C62.5892 6.1031 63.3069 6.36305 63.8272 6.88347C64.3476 7.40376 64.6076 8.12252 64.5403 8.85552L64.3985 10.4042C64.0696 13.9924 62.8167 17.4587 60.7753 20.428C60.463 20.8823 60.5781 21.5036 61.0322 21.8159C61.4866 22.1283 62.1078 22.013 62.4201 21.5589C64.6547 18.3085 66.026 14.5143 66.3861 10.5864L66.5279 9.03776C66.6494 7.71268 66.1794 6.41297 65.2386 5.4721ZM33.7624 8.94919C33.8593 8.85176 34.0178 8.85162 34.1152 8.94919L35.7813 10.6153C35.8786 10.7124 35.8786 10.8709 35.7814 10.9681L34.903 11.8464L34.0926 11.5105L32.0482 10.6632L33.7624 8.94919ZM24.6415 4.64799C24.7385 4.55056 24.897 4.55043 24.9943 4.64799L26.6604 6.31406C26.7577 6.41122 26.7577 6.56958 26.6604 6.66674L25.4138 7.91344L22.559 6.73035L24.6415 4.64799ZM30.9622 28.1527L8.41902 11.3258C8.16029 11.1329 8.00515 10.8492 7.9818 10.5272C7.95859 10.2053 8.07131 9.90226 8.29972 9.67413L11.2906 6.68324C11.9972 5.97682 12.9348 5.60254 13.8915 5.60254C14.3667 5.60254 14.8469 5.69501 15.3056 5.88503L41.0191 16.5419L30.9622 28.1527Z" fill="url(#paint2_linear_205_3449)"/>
<path d="M65.2386 5.4721L65.8042 4.90642L65.8042 4.90638L65.2386 5.4721ZM61.6729 4.18272L61.6001 3.38604L61.5999 3.38606L61.6729 4.18272ZM60.1243 4.32457L60.0513 3.5279L60.0512 3.52791L60.1243 4.32457ZM44.7796 12.2007L45.3843 12.7245L45.3843 12.7244L44.7796 12.2007ZM42.3962 14.9523L42.0899 15.6913L42.6231 15.9123L43.0009 15.4761L42.3962 14.9523ZM36.8988 12.6739L36.3331 12.1082L35.4867 12.9546L36.5925 13.4129L36.8988 12.6739ZM37.1928 12.3798L37.7585 12.9455L37.7585 12.9455L37.1928 12.3798ZM37.1928 9.20403L36.627 9.76962L36.6271 9.76971L37.1928 9.20403ZM35.5269 7.53755L36.0926 6.97196L36.0925 6.97178L35.5269 7.53755ZM32.3511 7.53755L31.7854 6.97182L31.7854 6.97187L32.3511 7.53755ZM30.0525 9.8361L29.7462 10.5751L30.2401 10.7798L30.6182 10.4018L30.0525 9.8361ZM27.4096 8.74078L26.8439 8.17509L25.9975 9.02152L27.1033 9.47982L27.4096 8.74078ZM28.072 8.07837L28.6377 8.64406L28.6377 8.64401L28.072 8.07837ZM28.072 4.9027L28.6377 4.33701L28.072 4.9027ZM26.4058 3.23649L26.9715 2.6708L26.9714 2.67072L26.4058 3.23649ZM23.23 3.23649L22.6643 2.67076L22.6643 2.6708L23.23 3.23649ZM20.5632 5.90328L20.2569 6.64232L20.7508 6.84703L21.1289 6.46897L20.5632 5.90328ZM16.0696 4.04087L15.7632 4.77991L15.7633 4.77992L16.0696 4.04087ZM9.87924 5.27147L9.3136 4.70574L9.31355 4.70579L9.87924 5.27147ZM6.88822 8.26249L7.45391 8.82818L6.88822 8.26249ZM7.22506 12.9255L6.74642 13.5665L6.74652 13.5666L7.22506 12.9255ZM29.6518 29.6655L30.2565 30.1893L30.8197 29.539L30.1303 29.0244L29.6518 29.6655ZM22.1661 38.3079L22.7707 38.8317L22.7708 38.8317L22.1661 38.3079ZM22.267 39.7157L21.7432 40.3203L21.7434 40.3205L22.267 39.7157ZM23.6747 39.6147L24.2794 40.1386L24.2794 40.1385L23.6747 39.6147ZM36.6992 24.5778L37.3039 25.1016L37.3039 25.1016L36.6992 24.5778ZM46.2883 13.5072L46.893 14.031L46.893 14.031L46.2883 13.5072ZM60.3065 6.31218L60.2335 5.51552L60.2335 5.51553L60.3065 6.31218ZM61.8552 6.17034L61.7822 5.37367V5.37367L61.8552 6.17034ZM63.8272 6.88347L63.2614 7.44908L63.2616 7.44923L63.8272 6.88347ZM64.5403 8.85552L63.7437 8.78244L63.7437 8.78255L64.5403 8.85552ZM64.3985 10.4042L65.1951 10.4772L65.1951 10.4771L64.3985 10.4042ZM60.7753 20.428L60.116 19.9748L60.116 19.9748L60.7753 20.428ZM61.0322 21.8159L60.579 22.4751L60.579 22.4751L61.0322 21.8159ZM62.4201 21.5589L63.0793 22.0122L63.0794 22.0121L62.4201 21.5589ZM66.3861 10.5864L67.1828 10.6594L67.1828 10.6594L66.3861 10.5864ZM66.5279 9.03776L65.7313 8.96474L65.7313 8.96479L66.5279 9.03776ZM33.7624 8.94919L34.3281 9.51492L34.3297 9.51331L33.7624 8.94919ZM34.1152 8.94919L33.5492 9.51448L33.5495 9.51487L34.1152 8.94919ZM35.7813 10.6153L35.2156 11.1809L35.216 11.1813L35.7813 10.6153ZM35.7814 10.9681L36.3471 11.5338L36.3471 11.5338L35.7814 10.9681ZM34.903 11.8464L34.5967 12.5854L35.0906 12.7901L35.4686 12.4121L34.903 11.8464ZM34.0926 11.5105L34.3989 10.7715L34.3989 10.7715L34.0926 11.5105ZM32.0482 10.6632L31.4825 10.0974L30.636 10.9439L31.7419 11.4022L32.0482 10.6632ZM24.6415 4.64799L25.2072 5.21369L25.2083 5.2125L24.6415 4.64799ZM24.9943 4.64799L24.4278 5.2129L24.4286 5.21367L24.9943 4.64799ZM26.6604 6.31406L26.0947 6.87975L26.0951 6.88014L26.6604 6.31406ZM26.6604 6.66674L26.0951 6.10066L26.0947 6.10108L26.6604 6.66674ZM25.4138 7.91344L25.1075 8.65249L25.6015 8.85719L25.9795 8.4791L25.4138 7.91344ZM22.559 6.73035L21.9933 6.16464L21.1468 7.01109L22.2527 7.4694L22.559 6.73035ZM30.9622 28.1527L30.4837 28.7938L31.0799 29.2388L31.5669 28.6765L30.9622 28.1527ZM8.41902 11.3258L8.89756 10.6847L8.89732 10.6846L8.41902 11.3258ZM7.9818 10.5272L7.18388 10.5848L7.1839 10.5851L7.9818 10.5272ZM8.29972 9.67413L8.86507 10.2401L8.86541 10.2398L8.29972 9.67413ZM11.2906 6.68324L10.725 6.1175L10.7249 6.11756L11.2906 6.68324ZM15.3056 5.88503L15.6119 5.14599L15.6117 5.14594L15.3056 5.88503ZM41.0191 16.5419L41.6238 17.0656L42.3498 16.2274L41.3254 15.8028L41.0191 16.5419ZM65.8042 4.90638C64.6951 3.79738 63.1611 3.2434 61.6001 3.38604L61.7457 4.9794C62.8341 4.87995 63.9001 5.26509 64.6729 6.03783L65.8042 4.90638ZM61.5999 3.38606L60.0513 3.5279L60.1972 5.12124L61.7459 4.97939L61.5999 3.38606ZM60.0512 3.52791C53.8753 4.09418 48.2352 6.98893 44.1749 11.6769L45.3843 12.7244C49.174 8.34893 54.433 5.64975 60.1973 5.12123L60.0512 3.52791ZM44.1749 11.6769L41.7915 14.4285L43.0009 15.4761L45.3843 12.7245L44.1749 11.6769ZM42.7025 14.2132L37.2051 11.9348L36.5925 13.4129L42.0899 15.6913L42.7025 14.2132ZM37.4645 13.2396L37.7585 12.9455L36.6271 11.8141L36.3331 12.1082L37.4645 13.2396ZM37.7585 12.9455C38.9464 11.7574 38.9464 9.8263 37.7585 8.63834L36.6271 9.76971C37.1902 10.3328 37.1903 11.2509 36.6271 11.8142L37.7585 12.9455ZM37.7586 8.63843L36.0926 6.97196L34.9611 8.10315L36.627 9.76962L37.7586 8.63843ZM36.0925 6.97178C34.9046 5.78432 32.9736 5.78386 31.7854 6.97182L32.9167 8.10328C33.4798 7.54022 34.3981 7.5403 34.9613 8.10332L36.0925 6.97178ZM31.7854 6.97187L29.4868 9.27042L30.6182 10.4018L32.9167 8.10324L31.7854 6.97187ZM30.3588 9.09706L27.7159 8.00173L27.1033 9.47982L29.7462 10.5751L30.3588 9.09706ZM27.9753 9.30646L28.6377 8.64406L27.5063 7.51269L26.8439 8.17509L27.9753 9.30646ZM28.6377 8.64401C29.8256 7.45598 29.8256 5.52497 28.6377 4.33701L27.5063 5.46838C28.0694 6.03145 28.0694 6.94947 27.5063 7.51273L28.6377 8.64401ZM28.6377 4.33701L26.9715 2.6708L25.8401 3.80217L27.5063 5.46838L28.6377 4.33701ZM26.9714 2.67072C25.7832 1.48286 23.8521 1.48319 22.6643 2.67076L23.7956 3.80222C24.3586 3.2393 25.2769 3.23909 25.8402 3.80226L26.9714 2.67072ZM22.6643 2.6708L19.9975 5.3376L21.1289 6.46897L23.7957 3.80217L22.6643 2.6708ZM20.8695 5.16424L16.3758 3.30183L15.7633 4.77992L20.2569 6.64232L20.8695 5.16424ZM16.3759 3.30184C13.9467 2.29501 11.1729 2.84675 9.3136 4.70574L10.4449 5.83721C11.8466 4.43571 13.9321 4.02096 15.7632 4.77991L16.3759 3.30184ZM9.31355 4.70579L6.32253 7.69681L7.45391 8.82818L10.4449 5.83716L9.31355 4.70579ZM6.32253 7.69681C5.52339 8.49595 5.11164 9.60136 5.19305 10.7286L6.78889 10.6133C6.74093 9.94926 6.98326 9.29882 7.45391 8.82818L6.32253 7.69681ZM5.19305 10.7286C5.27447 11.8559 5.84105 12.8905 6.74642 13.5665L7.7037 12.2845C7.17019 11.8861 6.83684 11.2772 6.78889 10.6133L5.19305 10.7286ZM6.74652 13.5666L29.1733 30.3066L30.1303 29.0244L7.70359 12.2844L6.74652 13.5666ZM29.0471 29.1418L21.5614 37.7842L22.7708 38.8317L30.2565 30.1893L29.0471 29.1418ZM21.5614 37.7841C20.9112 38.5347 20.9927 39.6702 21.7432 40.3203L22.7908 39.111C22.7081 39.0394 22.6992 38.9143 22.7707 38.8317L21.5614 37.7841ZM21.7434 40.3205C22.0828 40.6143 22.503 40.7594 22.92 40.7594V39.1594C22.8737 39.1594 22.8288 39.1439 22.7906 39.1108L21.7434 40.3205ZM22.92 40.7594C23.4217 40.7594 23.9237 40.5491 24.2794 40.1386L23.0701 39.0909C23.0309 39.1361 22.9771 39.1594 22.92 39.1594V40.7594ZM24.2794 40.1385L32.4675 30.6852L31.2581 29.6376L23.07 39.091L24.2794 40.1385ZM32.4285 30.7271C32.4285 30.7271 32.4286 30.7271 32.4286 30.7271C32.4286 30.7271 32.4286 30.7271 32.4286 30.7271C32.4286 30.7271 32.4286 30.7271 32.4286 30.7271C32.4286 30.7271 32.4286 30.7271 32.4286 30.7271C32.4286 30.7271 32.4286 30.7271 32.4286 30.7271C32.4286 30.7271 32.4286 30.7271 32.4286 30.7271C31.8629 30.1614 31.2972 29.5957 31.2972 29.5957C31.2972 29.5957 31.2972 29.5957 31.2972 29.5957C31.2972 29.5957 31.2972 29.5957 31.2972 29.5957C31.2972 29.5957 31.2972 29.5957 31.2972 29.5957C31.2972 29.5957 31.2972 29.5957 31.2972 29.5957C31.2972 29.5957 31.2972 29.5957 31.2972 29.5957C31.2971 29.5958 31.2972 29.5957 31.2972 29.5957C31.2971 29.5957 31.2971 29.5957 31.2971 29.5957C31.2971 29.5958 31.2972 29.5957 31.2971 29.5958C31.2971 29.5958 31.2971 29.5957 31.2971 29.5958C31.2971 29.5958 31.2971 29.5958 31.2971 29.5958C31.2971 29.5958 31.2971 29.5958 31.2971 29.5958C31.2971 29.5958 31.2971 29.5958 31.2971 29.5958C31.2971 29.5958 31.8628 30.1614 32.4285 30.7271C32.4285 30.7271 32.4285 30.7271 32.4285 30.7271C32.4285 30.7271 32.4285 30.7271 32.4285 30.7271C32.4285 30.7271 32.4285 30.7272 32.4285 30.7271C32.4285 30.7271 32.4285 30.7271 32.4285 30.7271C32.4285 30.7271 32.4285 30.7271 32.4285 30.7271L31.2972 29.5957C31.2971 29.5957 31.2971 29.5957 31.2971 29.5958C31.2971 29.5958 31.2971 29.5958 31.2971 29.5958C31.2971 29.5958 31.2971 29.5958 31.2971 29.5958C31.2971 29.5958 31.2971 29.5958 31.2971 29.5958C31.2971 29.5958 31.2971 29.5958 31.2971 29.5958L31.2971 29.5958C31.8628 30.1614 32.4285 30.7271 32.4285 30.7271C32.4285 30.7271 32.4285 30.7271 32.4285 30.7271C32.4285 30.7271 32.4285 30.7271 32.4285 30.7271C32.4285 30.7271 32.4285 30.7271 32.4285 30.7271C32.4286 30.727 32.4285 30.7272 32.4285 30.7271C32.4285 30.7271 32.4285 30.7271 32.4286 30.7271C32.4286 30.727 32.4285 30.7271 32.4286 30.7271C32.4286 30.727 32.4285 30.7271 32.4286 30.7271C32.4286 30.7271 32.4286 30.7271 32.4286 30.7271C32.4286 30.7271 32.4286 30.7271 32.4286 30.7271C32.4286 30.7271 32.4286 30.7271 32.4286 30.7271C32.4286 30.7271 31.8629 30.1614 31.2972 29.5957C31.2972 29.5957 31.2972 29.5957 31.2972 29.5957C31.2972 29.5957 31.2972 29.5957 31.2972 29.5957C31.2972 29.5957 31.2972 29.5957 31.2972 29.5957C31.2972 29.5957 31.2972 29.5957 31.2972 29.5957C31.2972 29.5957 31.2972 29.5957 31.2972 29.5957L32.4285 30.7271ZM32.4675 30.6852L37.3039 25.1016L36.0945 24.054L31.2581 29.6376L32.4675 30.6852ZM37.3039 25.1016L46.893 14.031L45.6836 12.9835L36.0945 24.054L37.3039 25.1016ZM46.893 14.031C50.3434 10.0474 55.1312 7.59 60.3795 7.10884L60.2335 5.51553C54.5736 6.03442 49.4047 8.68734 45.6836 12.9835L46.893 14.031ZM60.3795 7.10885L61.9281 6.967L61.7822 5.37367L60.2335 5.51552L60.3795 7.10885ZM61.9281 6.967C62.4255 6.92145 62.9092 7.0967 63.2614 7.44908L64.393 6.31786C63.7047 5.62939 62.7529 5.28476 61.7822 5.37367L61.9281 6.967ZM63.2616 7.44923C63.6139 7.80144 63.7892 8.2861 63.7437 8.78244L65.337 8.92859C65.4259 7.95894 65.0814 7.00607 64.3928 6.31771L63.2616 7.44923ZM63.7437 8.78255L63.6018 10.3312L65.1951 10.4771L65.337 8.92849L63.7437 8.78255ZM63.6018 10.3311C63.2854 13.7829 62.0798 17.1184 60.116 19.9748L61.4345 20.8812C63.5535 17.7991 64.8537 14.2018 65.1951 10.4772L63.6018 10.3311ZM60.116 19.9748C59.5534 20.7932 59.7609 21.9125 60.579 22.4751L61.4855 21.1567C61.3954 21.0947 61.3725 20.9713 61.4345 20.8812L60.116 19.9748ZM60.579 22.4751C61.3977 23.038 62.5168 22.8301 63.0793 22.0122L61.7609 21.1056C61.6989 21.1959 61.5756 21.2186 61.4855 21.1566L60.579 22.4751ZM63.0794 22.0121C65.3915 18.6488 66.8102 14.7237 67.1828 10.6594L65.5894 10.5134C65.2419 14.3048 63.9178 17.9681 61.7609 21.1057L63.0794 22.0121ZM67.1828 10.6594L67.3246 9.11073L65.7313 8.96479L65.5894 10.5134L67.1828 10.6594ZM67.3246 9.11077C67.4677 7.54909 66.9132 6.01533 65.8042 4.90642L64.6729 6.03779C65.4457 6.8106 65.831 7.87627 65.7313 8.96474L67.3246 9.11077ZM34.3297 9.51331C34.1134 9.73075 33.7639 9.72949 33.5492 9.51448L34.6813 8.38389C34.2717 7.97376 33.6052 7.97276 33.1952 8.38506L34.3297 9.51331ZM33.5495 9.51487L35.2156 11.1809L36.347 10.0496L34.6809 8.3835L33.5495 9.51487ZM35.216 11.1813C35.0004 10.9661 35.0004 10.6177 35.2158 10.4024L36.3471 11.5338C36.7568 11.1241 36.7568 10.4588 36.3466 10.0492L35.216 11.1813ZM35.2158 10.4023L34.3373 11.2807L35.4686 12.4121L36.3471 11.5338L35.2158 10.4023ZM35.2093 11.1074L34.3989 10.7715L33.7862 12.2495L34.5967 12.5854L35.2093 11.1074ZM34.3989 10.7715L32.3545 9.92413L31.7419 11.4022L33.7862 12.2495L34.3989 10.7715ZM32.6138 11.2289L34.3281 9.51492L33.1968 8.38346L31.4825 10.0974L32.6138 11.2289ZM25.2083 5.2125C24.9927 5.42899 24.6432 5.42885 24.4278 5.21289L25.5608 4.08308C25.1508 3.672 24.4843 3.67213 24.0746 4.08348L25.2083 5.2125ZM24.4286 5.21367L26.0947 6.87975L27.2261 5.74838L25.56 4.0823L24.4286 5.21367ZM26.0951 6.88014C25.8794 6.66479 25.8794 6.31601 26.0951 6.10066L27.2257 7.23281C27.6359 6.82314 27.6359 6.15766 27.2257 5.74799L26.0951 6.88014ZM26.0947 6.10108L24.8481 7.34779L25.9795 8.4791L27.2261 7.23239L26.0947 6.10108ZM25.7201 7.17439L22.8653 5.9913L22.2527 7.4694L25.1075 8.65249L25.7201 7.17439ZM23.1247 7.29605L25.2071 5.21369L24.0758 4.08229L21.9933 6.16464L23.1247 7.29605ZM31.4408 27.5116L8.89756 10.6847L7.94049 11.9669L30.4837 28.7938L31.4408 27.5116ZM8.89732 10.6846C8.82514 10.6307 8.78629 10.5601 8.77971 10.4694L7.1839 10.5851C7.22402 11.1382 7.49544 11.635 7.94073 11.9671L8.89732 10.6846ZM8.77973 10.4697C8.77319 10.379 8.80143 10.3037 8.86507 10.2401L7.73437 9.10811C7.3412 9.50081 7.14398 10.0316 7.18388 10.5848L8.77973 10.4697ZM8.86541 10.2398L11.8563 7.24893L10.7249 6.11756L7.73404 9.10844L8.86541 10.2398ZM11.8562 7.24898C12.4107 6.69463 13.144 6.40254 13.8915 6.40254V4.80254C12.7256 4.80254 11.5836 5.25902 10.725 6.1175L11.8562 7.24898ZM13.8915 6.40254C14.2627 6.40254 14.6387 6.4747 14.9994 6.62412L15.6117 5.14594C15.055 4.91531 14.4707 4.80254 13.8915 4.80254V6.40254ZM14.9993 6.62407L40.7128 17.2809L41.3254 15.8028L15.6119 5.14599L14.9993 6.62407ZM40.4144 16.0181L30.3575 27.629L31.5669 28.6765L41.6238 17.0656L40.4144 16.0181Z" fill="#A78227" mask="url(#path-4-inside-1_205_3449)"/>
<path d="M68.053 44.8838L66.3869 43.2175C65.5112 42.342 64.0865 42.3422 63.2111 43.2175L62.3862 44.0424L61.1213 40.9902L63.173 38.9384C64.0485 38.0628 64.0485 36.6383 63.173 35.7627L61.5069 34.0964C60.6312 33.2209 59.2065 33.221 58.3311 34.0965L58.2839 34.1438L55.8391 28.2447L58.5104 25.9308C58.7076 25.76 58.9042 25.5838 59.0949 25.407C59.4992 25.0324 59.5231 24.4008 59.1483 23.9968C58.7739 23.5925 58.1423 23.5687 57.738 23.9433C57.5635 24.1049 57.3838 24.266 57.2036 24.4222L28.0436 49.6793C26.5195 50.9994 24.9322 52.2417 23.2893 53.4039C21.0208 55.009 18.6235 56.472 16.1641 57.7529C16.1635 57.7532 16.163 57.7536 16.1625 57.7539C15.527 58.0848 14.886 58.4053 14.2389 58.7141C13.4479 59.0916 12.7317 58.7918 12.3252 58.3854C11.9188 57.9789 11.619 57.2627 11.9964 56.4716C12.3253 55.7822 12.6686 55.1 13.0227 54.4237C13.1555 54.1702 13.2895 53.9171 13.4261 53.665C13.4569 53.6082 13.4884 53.552 13.5193 53.4952C13.6543 53.2479 13.7904 53.0012 13.929 52.7554C13.958 52.704 13.9876 52.6528 14.0168 52.6014C14.1591 52.3506 14.3029 52.1005 14.4489 51.8514C14.476 51.8052 14.5035 51.7593 14.5306 51.7132C14.6794 51.4608 14.8299 51.2093 14.9824 50.9589C15.0101 50.9135 15.0381 50.8683 15.0659 50.8229C15.2178 50.5748 15.3715 50.3277 15.5269 50.0817C15.5586 50.0315 15.5905 49.9818 15.6223 49.9317C15.7738 49.6935 15.9269 49.4564 16.0815 49.2203C16.1198 49.1621 16.1582 49.104 16.1965 49.0459C16.3455 48.8201 16.4961 48.5956 16.6479 48.3722C16.6928 48.306 16.738 48.2399 16.7833 48.1738C16.9313 47.9579 17.0806 47.7431 17.2311 47.5293C18.301 46.0099 19.4384 44.5375 20.6429 43.1194C20.9996 42.6992 20.9485 42.0694 20.5283 41.7126C20.1079 41.356 19.4785 41.4071 19.1215 41.8272C18.0867 43.0456 17.1002 44.3031 16.1612 45.5944L7.14216 41.5117C5.44053 40.7412 3.41077 41.1111 2.09066 42.4316L0.555296 43.9671C0.166791 44.3556 -0.0338356 44.8929 0.0046794 45.4411C0.0433286 45.9893 0.317362 46.493 0.75646 46.8231L10.802 54.3788C10.5958 54.7879 10.3923 55.1985 10.1949 55.6121C9.51493 57.0375 9.79715 58.6801 10.9138 59.7968C11.6261 60.5092 12.5524 60.8819 13.4998 60.8819C14.0376 60.8819 14.5823 60.7617 15.0984 60.5154C15.5121 60.318 15.9226 60.1145 16.3317 59.9084L23.8873 69.954C24.2176 70.3931 24.7212 70.6671 25.2693 70.7058C25.314 70.7089 25.3584 70.7105 25.4028 70.7105C25.9039 70.7105 26.3862 70.512 26.7432 70.155L28.2783 68.6198C29.5988 67.2995 29.9685 65.2694 29.1985 63.5683L25.1163 54.5504C26.5733 53.4909 27.9862 52.3694 29.3503 51.1879L41.0735 41.0338L57.9712 63.6716C58.5084 64.3913 59.3302 64.8412 60.2259 64.9057C60.3005 64.9111 60.3748 64.9138 60.4492 64.9138C61.2659 64.9138 62.0523 64.5903 62.6343 64.0083L65.6251 61.0176C67.2556 59.3872 67.7387 56.9574 66.856 54.8274L65.2237 50.8889L68.0531 48.0595C68.9285 47.1838 68.9285 45.7593 68.053 44.8838ZM2.04812 45.2972L3.50216 43.8432C4.23838 43.107 5.37048 42.9009 6.31899 43.3303L14.992 47.2565C14.9733 47.2838 14.9551 47.3117 14.9366 47.3391C14.8283 47.4991 14.7208 47.6596 14.6138 47.8205C14.5617 47.8989 14.5101 47.9776 14.4584 48.0563C14.0947 48.6094 13.7396 49.1681 13.3933 49.7323C13.3501 49.8027 13.3066 49.8729 13.2636 49.9435C13.1612 50.1118 13.0598 50.2806 12.959 50.4498C12.9068 50.5373 12.8551 50.6251 12.8035 50.7129C12.7062 50.8779 12.609 51.043 12.5132 51.2089C12.4643 51.2934 12.4166 51.3785 12.3681 51.4632C12.2096 51.7406 12.0533 52.0192 11.899 52.299C11.8461 52.3949 11.7923 52.4906 11.7399 52.5867L2.04812 45.2972ZM27.3802 64.3916C27.8095 65.3401 27.6036 66.4721 26.8671 67.2084L25.4133 68.6623L18.1238 58.9705C18.2808 58.885 18.437 58.7979 18.5933 58.711C18.8166 58.587 19.039 58.4615 19.2607 58.3348C19.3654 58.275 19.47 58.2152 19.5745 58.1548C19.7414 58.0582 19.9077 57.9608 20.0737 57.8627C20.1567 57.8136 20.2395 57.7639 20.3225 57.7144C20.8944 57.3727 21.4609 57.0222 22.0218 56.6628C22.0951 56.6159 22.1685 56.5689 22.2416 56.5216C22.4149 56.4096 22.5879 56.297 22.7601 56.1832C22.8292 56.1376 22.8979 56.0913 22.9669 56.0454C23.1296 55.9369 23.293 55.8295 23.4547 55.7195L27.3802 64.3916ZM59.7424 35.508C59.8394 35.4106 59.9979 35.4106 60.0952 35.5079L61.7612 37.1742C61.8585 37.2714 61.8585 37.4298 61.7612 37.5269L60.2939 38.9944L59.3948 36.8248L59.1108 36.1394L59.7424 35.508ZM64.2136 59.6061L61.2227 62.597C60.9947 62.8251 60.692 62.9367 60.3696 62.915C60.0475 62.8918 59.764 62.7364 59.5709 62.4778L42.5864 39.7235L46.1462 36.6401L54.2488 29.622L65.0119 55.5914C65.5846 56.9728 65.2712 58.5487 64.2136 59.6061ZM66.6415 46.6479L64.3965 48.893L63.2133 46.0381L64.6226 44.6288C64.7197 44.5314 64.8781 44.5314 64.9754 44.6287L66.6415 46.2949V46.2951C66.7388 46.3923 66.7388 46.5507 66.6415 46.6479Z" fill="url(#paint3_linear_205_3449)" stroke="url(#paint4_linear_205_3449)" stroke-width="0.8"/>
</g>
<defs>
<linearGradient id="paint0_linear_205_3449" x1="59.9779" y1="17.8677" x2="52.0787" y2="17.6973" gradientUnits="userSpaceOnUse">
<stop stop-color="#EE3B34"/>
<stop offset="0.963542" stop-color="#FF0A00"/>
</linearGradient>
<linearGradient id="paint1_linear_205_3449" x1="65.6473" y1="36.709" x2="5.46292" y2="34.6049" gradientUnits="userSpaceOnUse">
<stop stop-color="#EE3B34"/>
<stop offset="0.963542" stop-color="#FF0A00"/>
</linearGradient>
<linearGradient id="paint2_linear_205_3449" x1="65.6473" y1="36.709" x2="5.46292" y2="34.6049" gradientUnits="userSpaceOnUse">
<stop stop-color="#EE3B34"/>
<stop offset="0.963542" stop-color="#FF0A00"/>
</linearGradient>
<linearGradient id="paint3_linear_205_3449" x1="67.6892" y1="66.6206" x2="-0.605528" y2="64.4678" gradientUnits="userSpaceOnUse">
<stop stop-color="#EE3B34"/>
<stop offset="0.963542" stop-color="#FF0A00"/>
</linearGradient>
<linearGradient id="paint4_linear_205_3449" x1="67.6892" y1="66.6206" x2="-0.605528" y2="64.4678" gradientUnits="userSpaceOnUse">
<stop stop-color="#EE3B34"/>
<stop offset="0.963542" stop-color="#FF0A00"/>
</linearGradient>
<clipPath id="clip0_205_3449">
<rect width="71" height="73.2903" fill="white"/>
</clipPath>
</defs>
</svg>
