<svg width="64" height="64" viewBox="0 0 64 64" fill="none" xmlns="http://www.w3.org/2000/svg">
<g filter="url(#filter0_d_409_2381)">
<circle cx="32" cy="30" r="24" fill="white"/>
</g>
<g clip-path="url(#clip0_409_2381)">
<path d="M28.9999 42C28.8683 42.0007 28.7379 41.9755 28.616 41.9258C28.4942 41.876 28.3834 41.8027 28.2899 41.71C28.1962 41.617 28.1218 41.5064 28.071 41.3846C28.0203 41.2627 27.9941 41.132 27.9941 41C27.9941 40.868 28.0203 40.7373 28.071 40.6154C28.1218 40.4936 28.1962 40.383 28.2899 40.29L36.4599 32.12C37.0217 31.5575 37.3373 30.795 37.3373 30C37.3373 29.205 37.0217 28.4425 36.4599 27.88L28.2899 19.71C28.1016 19.5217 27.9958 19.2663 27.9958 19C27.9958 18.7337 28.1016 18.4783 28.2899 18.29C28.4782 18.1017 28.7336 17.9959 28.9999 17.9959C29.2662 17.9959 29.5216 18.1017 29.7099 18.29L37.8799 26.46C38.3456 26.9245 38.715 27.4762 38.9671 28.0837C39.2191 28.6911 39.3489 29.3423 39.3489 30C39.3489 30.6577 39.2191 31.3089 38.9671 31.9163C38.715 32.5238 38.3456 33.0755 37.8799 33.54L29.7099 41.71C29.6165 41.8027 29.5057 41.876 29.3838 41.9258C29.262 41.9755 29.1315 42.0007 28.9999 42Z" fill="#EE3B34"/>
</g>
<defs>
<filter id="filter0_d_409_2381" x="0" y="0" width="64" height="64" filterUnits="userSpaceOnUse" color-interpolation-filters="sRGB">
<feFlood flood-opacity="0" result="BackgroundImageFix"/>
<feColorMatrix in="SourceAlpha" type="matrix" values="0 0 0 0 0 0 0 0 0 0 0 0 0 0 0 0 0 0 127 0" result="hardAlpha"/>
<feOffset dy="2"/>
<feGaussianBlur stdDeviation="4"/>
<feComposite in2="hardAlpha" operator="out"/>
<feColorMatrix type="matrix" values="0 0 0 0 0.0470588 0 0 0 0 0.34902 0 0 0 0 0.478431 0 0 0 0.2 0"/>
<feBlend mode="normal" in2="BackgroundImageFix" result="effect1_dropShadow_409_2381"/>
<feBlend mode="normal" in="SourceGraphic" in2="effect1_dropShadow_409_2381" result="shape"/>
</filter>
<clipPath id="clip0_409_2381">
<rect width="24" height="24" fill="white" transform="translate(22 18)"/>
</clipPath>
</defs>
</svg>
