<svg width="50" height="50" viewBox="0 0 50 50" fill="none" xmlns="http://www.w3.org/2000/svg">
<path d="M19.9629 2.99998C19.7042 3.00961 19.4593 3.1192 19.2797 3.3057C19.1001 3.4922 18.9998 3.74108 19 3.99998V13H6C4.35503 13 3 14.355 3 16V46C3.00001 46.1704 3.04358 46.3381 3.12659 46.487C3.2096 46.6358 3.32929 46.761 3.47429 46.8507C3.61929 46.9403 3.78479 46.9914 3.95508 46.999C4.12537 47.0067 4.29479 46.9707 4.44727 46.8945L6 46.1172L7.55273 46.8945C7.69161 46.9639 7.84474 47.0001 8 47.0001C8.15526 47.0001 8.30839 46.9639 8.44727 46.8945L10 46.1172L11.5527 46.8945C11.6916 46.9639 11.8447 47.0001 12 47.0001C12.1553 47.0001 12.3084 46.9639 12.4473 46.8945L14 46.1172L15.5527 46.8945C15.6916 46.9639 15.8447 47.0001 16 47.0001C16.1553 47.0001 16.3084 46.9639 16.4473 46.8945L18 46.1172L19.5527 46.8945C19.6916 46.9639 19.8447 47.0001 20 47.0001C20.1553 47.0001 20.3084 46.9639 20.4473 46.8945L22 46.1172L23.5527 46.8945C23.7052 46.9707 23.8746 47.0067 24.0449 46.999C24.2152 46.9914 24.3807 46.9403 24.5257 46.8507C24.6707 46.761 24.7904 46.6358 24.8734 46.487C24.9564 46.3381 25 46.1704 25 46V41.3926C26.7659 42.412 28.8165 43 31 43C31.706 43 32.3936 42.9259 33.0664 42.8086C33.6634 42.908 34.3104 43 35 43C41.6211 43 47 37.6211 47 31C47 26.5663 44.5817 22.6986 41 20.6211V3.99998C41 3.82952 40.9564 3.66188 40.8734 3.513C40.7904 3.36411 40.6707 3.23892 40.5257 3.14929C40.3807 3.05967 40.2152 3.0086 40.0449 3.00092C39.8746 2.99325 39.7052 3.02923 39.5527 3.10545L38 3.88279L36.4473 3.10545C36.3084 3.03601 36.1553 2.99986 36 2.99986C35.8447 2.99986 35.6916 3.03601 35.5527 3.10545L34 3.88279L32.4473 3.10545C32.3084 3.03601 32.1553 2.99986 32 2.99986C31.8447 2.99986 31.6916 3.03601 31.5527 3.10545L30 3.88279L28.4473 3.10545C28.3084 3.03601 28.1553 2.99986 28 2.99986C27.8447 2.99986 27.6916 3.03601 27.5527 3.10545L26 3.88279L24.4473 3.10545C24.3084 3.03601 24.1553 2.99986 24 2.99986C23.8447 2.99986 23.6916 3.03601 23.5527 3.10545L22 3.88279L20.4473 3.10545C20.2972 3.0302 20.1306 2.99393 19.9629 2.99998ZM24 5.11717L25.5527 5.89451C25.6916 5.96395 25.8447 6.0001 26 6.0001C26.1553 6.0001 26.3084 5.96395 26.4473 5.89451L28 5.11717L29.5527 5.89451C29.6916 5.96395 29.8447 6.0001 30 6.0001C30.1553 6.0001 30.3084 5.96395 30.4473 5.89451L32 5.11717L33.5527 5.89451C33.6916 5.96395 33.8447 6.0001 34 6.0001C34.1553 6.0001 34.3084 5.96395 34.4473 5.89451L36 5.11717L37.5527 5.89451C37.6916 5.96395 37.8447 6.0001 38 6.0001C38.1553 6.0001 38.3084 5.96395 38.4473 5.89451L39 5.61717V19.6992C37.7469 19.2547 36.4043 19 35 19C34.3451 19 33.6737 19.0537 33.0098 19.1816C32.3548 19.0707 31.6863 19 31 19C30.3186 19 29.6512 19.0606 29 19.1699V16C29 14.6394 27.9837 13.6659 26.7324 13.3047C26.6376 13.2066 26.5237 13.129 26.3977 13.0766C26.2718 13.0242 26.1364 12.9981 26 13H21V5.61717L21.5527 5.89451C21.6916 5.96395 21.8447 6.0001 22 6.0001C22.1553 6.0001 22.3084 5.96395 22.4473 5.89451L24 5.11717ZM24 8.99998C23.8675 8.9981 23.7359 9.02259 23.613 9.072C23.49 9.12141 23.3781 9.19477 23.2837 9.28782C23.1893 9.38086 23.1144 9.49173 23.0632 9.61399C23.0121 9.73625 22.9858 9.86745 22.9858 9.99998C22.9858 10.1325 23.0121 10.2637 23.0632 10.386C23.1144 10.5082 23.1893 10.6191 23.2837 10.7121C23.3781 10.8052 23.49 10.8785 23.613 10.928C23.7359 10.9774 23.8675 11.0019 24 11H29C29.1325 11.0019 29.2641 10.9774 29.387 10.928C29.51 10.8785 29.6219 10.8052 29.7163 10.7121C29.8107 10.6191 29.8856 10.5082 29.9368 10.386C29.9879 10.2637 30.0142 10.1325 30.0142 9.99998C30.0142 9.86745 29.9879 9.73625 29.9368 9.61399C29.8856 9.49173 29.8107 9.38086 29.7163 9.28782C29.6219 9.19477 29.51 9.12141 29.387 9.072C29.2641 9.02259 29.1325 8.9981 29 8.99998H24ZM34 8.99998C33.8675 8.9981 33.7359 9.02259 33.613 9.072C33.49 9.12141 33.3781 9.19477 33.2837 9.28782C33.1893 9.38086 33.1144 9.49173 33.0632 9.61399C33.0121 9.73625 32.9858 9.86745 32.9858 9.99998C32.9858 10.1325 33.0121 10.2637 33.0632 10.386C33.1144 10.5082 33.1893 10.6191 33.2837 10.7121C33.3781 10.8052 33.49 10.8785 33.613 10.928C33.7359 10.9774 33.8675 11.0019 34 11H36C36.1325 11.0019 36.2641 10.9774 36.387 10.928C36.51 10.8785 36.6219 10.8052 36.7163 10.7121C36.8107 10.6191 36.8856 10.5082 36.9368 10.386C36.9879 10.2637 37.0142 10.1325 37.0142 9.99998C37.0142 9.86745 36.9879 9.73625 36.9368 9.61399C36.8856 9.49173 36.8107 9.38086 36.7163 9.28782C36.6219 9.19477 36.51 9.12141 36.387 9.072C36.2641 9.02259 36.1325 8.9981 36 8.99998H34ZM34 13C33.8675 12.9981 33.7359 13.0226 33.613 13.072C33.49 13.1214 33.3781 13.1948 33.2837 13.2878C33.1893 13.3809 33.1144 13.4917 33.0632 13.614C33.0121 13.7362 32.9858 13.8675 32.9858 14C32.9858 14.1325 33.0121 14.2637 33.0632 14.386C33.1144 14.5082 33.1893 14.6191 33.2837 14.7121C33.3781 14.8052 33.49 14.8785 33.613 14.928C33.7359 14.9774 33.8675 15.0019 34 15H36C36.1325 15.0019 36.2641 14.9774 36.387 14.928C36.51 14.8785 36.6219 14.8052 36.7163 14.7121C36.8107 14.6191 36.8856 14.5082 36.9368 14.386C36.9879 14.2637 37.0142 14.1325 37.0142 14C37.0142 13.8675 36.9879 13.7362 36.9368 13.614C36.8856 13.4917 36.8107 13.3809 36.7163 13.2878C36.6219 13.1948 36.51 13.1214 36.387 13.072C36.2641 13.0226 36.1325 12.9981 36 13H34ZM6 15H19.832C19.94 15.0178 20.0502 15.0178 20.1582 15H23.416C23.279 15.342 23 15.6116 23 16V44.3828L22.4473 44.1054C22.3084 44.036 22.1553 43.9999 22 43.9999C21.8447 43.9999 21.6916 44.036 21.5527 44.1054L20 44.8828L18.4473 44.1054C18.3084 44.036 18.1553 43.9999 18 43.9999C17.8447 43.9999 17.6916 44.036 17.5527 44.1054L16 44.8828L14.4473 44.1054C14.3084 44.036 14.1553 43.9999 14 43.9999C13.8447 43.9999 13.6916 44.036 13.5527 44.1054L12 44.8828L10.4473 44.1054C10.3084 44.036 10.1553 43.9999 10 43.9999C9.84474 43.9999 9.69161 44.036 9.55273 44.1054L8 44.8828L6.44727 44.1054C6.30839 44.036 6.15526 43.9999 6 43.9999C5.84474 43.9999 5.69161 44.036 5.55273 44.1054L5 44.3828V16C5 15.4349 5.43497 15 6 15ZM26 15C26.565 15 27 15.4349 27 16V19.6894C26.3005 19.9365 25.633 20.2475 25 20.6133V16C25 15.4349 25.435 15 26 15ZM31 21C31.5733 21 32.1314 21.0587 32.6777 21.1504C32.7744 21.1811 32.8752 21.1969 32.9766 21.1972C37.5651 22.1092 41 26.1343 41 31C41 35.8373 37.605 39.8444 33.0566 40.7871C32.8852 40.7701 32.7123 40.7977 32.5547 40.8672C32.047 40.9459 31.5306 41 31 41C28.8501 41 26.8719 40.3274 25.2441 39.1816C25.1689 39.1289 25.0867 39.0869 25 39.0566V22.9844C25.0408 22.9617 25.0799 22.9363 25.1172 22.9082C26.7676 21.7079 28.7946 21 31 21ZM38.4805 21.6308C38.8099 21.7525 39.1316 21.8887 39.4434 22.0429C39.4447 22.0443 39.446 22.0456 39.4473 22.0469C39.5258 22.099 39.6113 22.1397 39.7012 22.1679C42.8586 23.8447 45 27.1599 45 31C45 35.3152 42.2924 38.9608 38.4805 40.3691C41.2313 38.1691 43 34.7914 43 31C43 27.2085 41.2313 23.8309 38.4805 21.6308ZM8 22C7.86749 21.9981 7.73593 22.0226 7.61296 22.072C7.48999 22.1214 7.37807 22.1948 7.2837 22.2878C7.18933 22.3809 7.11439 22.4917 7.06324 22.614C7.0121 22.7362 6.98576 22.8675 6.98576 23C6.98576 23.1325 7.0121 23.2637 7.06324 23.386C7.11439 23.5082 7.18933 23.6191 7.2837 23.7121C7.37807 23.8052 7.48999 23.8785 7.61296 23.928C7.73593 23.9774 7.86749 24.0019 8 24H13C13.1325 24.0019 13.2641 23.9774 13.387 23.928C13.51 23.8785 13.6219 23.8052 13.7163 23.7121C13.8107 23.6191 13.8856 23.5082 13.9368 23.386C13.9879 23.2637 14.0142 23.1325 14.0142 23C14.0142 22.8675 13.9879 22.7362 13.9368 22.614C13.8856 22.4917 13.8107 22.3809 13.7163 22.2878C13.6219 22.1948 13.51 22.1214 13.387 22.072C13.2641 22.0226 13.1325 21.9981 13 22H8ZM18 22C17.8675 21.9981 17.7359 22.0226 17.613 22.072C17.49 22.1214 17.3781 22.1948 17.2837 22.2878C17.1893 22.3809 17.1144 22.4917 17.0632 22.614C17.0121 22.7362 16.9858 22.8675 16.9858 23C16.9858 23.1325 17.0121 23.2637 17.0632 23.386C17.1144 23.5082 17.1893 23.6191 17.2837 23.7121C17.3781 23.8052 17.49 23.8785 17.613 23.928C17.7359 23.9774 17.8675 24.0019 18 24H20C20.1325 24.0019 20.2641 23.9774 20.387 23.928C20.51 23.8785 20.6219 23.8052 20.7163 23.7121C20.8107 23.6191 20.8856 23.5082 20.9368 23.386C20.9879 23.2637 21.0142 23.1325 21.0142 23C21.0142 22.8675 20.9879 22.7362 20.9368 22.614C20.8856 22.4917 20.8107 22.3809 20.7163 22.2878C20.6219 22.1948 20.51 22.1214 20.387 22.072C20.2641 22.0226 20.1325 21.9981 20 22H18ZM30 24V25.7695C27.352 26.2135 27.2676 28.5667 27.2676 28.8457C27.2676 31.3217 29.2718 31.7689 30.8828 32.1289C32.3288 32.4529 33.1465 32.6842 33.1465 33.6562C33.1465 34.2392 32.868 35.2187 31.002 35.2187C30.961 35.2187 29.9908 35.2115 29.3828 34.6035C29.0238 34.2445 28.8502 33.7255 28.8672 33.0625L28.8691 33H27.0117L27.0137 33.0644C27.0737 35.1644 28.056 36.3644 30.002 36.7344V38H30.0977H31.918H32V36.7656C34.846 36.3036 35 34.0976 35 33.6426C35.001 31.2516 32.9967 30.7919 31.3867 30.4219C29.9407 30.0899 29.123 29.8564 29.123 28.9414C29.123 27.8464 29.7283 27.3359 31.0293 27.3359C32.4453 27.3359 32.8181 28.207 32.8691 29H34.7246C34.7256 28.224 34.4105 27.3892 33.8555 26.7812C33.3695 26.2502 32.731 25.9085 31.998 25.7715V24H31.918H30.0957H30ZM8 26C7.86749 25.9981 7.73593 26.0226 7.61296 26.072C7.48999 26.1214 7.37807 26.1948 7.2837 26.2878C7.18933 26.3809 7.11439 26.4917 7.06324 26.614C7.0121 26.7362 6.98576 26.8675 6.98576 27C6.98576 27.1325 7.0121 27.2637 7.06324 27.386C7.11439 27.5082 7.18933 27.6191 7.2837 27.7121C7.37807 27.8052 7.48999 27.8785 7.61296 27.928C7.73593 27.9774 7.86749 28.0019 8 28H10C10.1325 28.0019 10.2641 27.9774 10.387 27.928C10.51 27.8785 10.6219 27.8052 10.7163 27.7121C10.8107 27.6191 10.8856 27.5082 10.9368 27.386C10.9879 27.2637 11.0142 27.1325 11.0142 27C11.0142 26.8675 10.9879 26.7362 10.9368 26.614C10.8856 26.4917 10.8107 26.3809 10.7163 26.2878C10.6219 26.1948 10.51 26.1214 10.387 26.072C10.2641 26.0226 10.1325 25.9981 10 26H8ZM18 26C17.8675 25.9981 17.7359 26.0226 17.613 26.072C17.49 26.1214 17.3781 26.1948 17.2837 26.2878C17.1893 26.3809 17.1144 26.4917 17.0632 26.614C17.0121 26.7362 16.9858 26.8675 16.9858 27C16.9858 27.1325 17.0121 27.2637 17.0632 27.386C17.1144 27.5082 17.1893 27.6191 17.2837 27.7121C17.3781 27.8052 17.49 27.8785 17.613 27.928C17.7359 27.9774 17.8675 28.0019 18 28H20C20.1325 28.0019 20.2641 27.9774 20.387 27.928C20.51 27.8785 20.6219 27.8052 20.7163 27.7121C20.8107 27.6191 20.8856 27.5082 20.9368 27.386C20.9879 27.2637 21.0142 27.1325 21.0142 27C21.0142 26.8675 20.9879 26.7362 20.9368 26.614C20.8856 26.4917 20.8107 26.3809 20.7163 26.2878C20.6219 26.1948 20.51 26.1214 20.387 26.072C20.2641 26.0226 20.1325 25.9981 20 26H18ZM8 30C7.86749 29.9981 7.73593 30.0226 7.61296 30.072C7.48999 30.1214 7.37807 30.1948 7.2837 30.2878C7.18933 30.3809 7.11439 30.4917 7.06324 30.614C7.0121 30.7362 6.98576 30.8675 6.98576 31C6.98576 31.1325 7.0121 31.2637 7.06324 31.386C7.11439 31.5082 7.18933 31.6191 7.2837 31.7121C7.37807 31.8052 7.48999 31.8785 7.61296 31.928C7.73593 31.9774 7.86749 32.0019 8 32H13C13.1325 32.0019 13.2641 31.9774 13.387 31.928C13.51 31.8785 13.6219 31.8052 13.7163 31.7121C13.8107 31.6191 13.8856 31.5082 13.9368 31.386C13.9879 31.2637 14.0142 31.1325 14.0142 31C14.0142 30.8675 13.9879 30.7362 13.9368 30.614C13.8856 30.4917 13.8107 30.3809 13.7163 30.2878C13.6219 30.1948 13.51 30.1214 13.387 30.072C13.2641 30.0226 13.1325 29.9981 13 30H8ZM18 30C17.8675 29.9981 17.7359 30.0226 17.613 30.072C17.49 30.1214 17.3781 30.1948 17.2837 30.2878C17.1893 30.3809 17.1144 30.4917 17.0632 30.614C17.0121 30.7362 16.9858 30.8675 16.9858 31C16.9858 31.1325 17.0121 31.2637 17.0632 31.386C17.1144 31.5082 17.1893 31.6191 17.2837 31.7121C17.3781 31.8052 17.49 31.8785 17.613 31.928C17.7359 31.9774 17.8675 32.0019 18 32H20C20.1325 32.0019 20.2641 31.9774 20.387 31.928C20.51 31.8785 20.6219 31.8052 20.7163 31.7121C20.8107 31.6191 20.8856 31.5082 20.9368 31.386C20.9879 31.2637 21.0142 31.1325 21.0142 31C21.0142 30.8675 20.9879 30.7362 20.9368 30.614C20.8856 30.4917 20.8107 30.3809 20.7163 30.2878C20.6219 30.1948 20.51 30.1214 20.387 30.072C20.2641 30.0226 20.1325 29.9981 20 30H18ZM8 34C7.86749 33.9981 7.73593 34.0226 7.61296 34.072C7.48999 34.1214 7.37807 34.1948 7.2837 34.2878C7.18933 34.3809 7.11439 34.4917 7.06324 34.614C7.0121 34.7362 6.98576 34.8675 6.98576 35C6.98576 35.1325 7.0121 35.2637 7.06324 35.386C7.11439 35.5082 7.18933 35.6191 7.2837 35.7121C7.37807 35.8052 7.48999 35.8785 7.61296 35.928C7.73593 35.9774 7.86749 36.0019 8 36H11C11.1325 36.0019 11.2641 35.9774 11.387 35.928C11.51 35.8785 11.6219 35.8052 11.7163 35.7121C11.8107 35.6191 11.8856 35.5082 11.9368 35.386C11.9879 35.2637 12.0142 35.1325 12.0142 35C12.0142 34.8675 11.9879 34.7362 11.9368 34.614C11.8856 34.4917 11.8107 34.3809 11.7163 34.2878C11.6219 34.1948 11.51 34.1214 11.387 34.072C11.2641 34.0226 11.1325 33.9981 11 34H8ZM18 34C17.8675 33.9981 17.7359 34.0226 17.613 34.072C17.49 34.1214 17.3781 34.1948 17.2837 34.2878C17.1893 34.3809 17.1144 34.4917 17.0632 34.614C17.0121 34.7362 16.9858 34.8675 16.9858 35C16.9858 35.1325 17.0121 35.2637 17.0632 35.386C17.1144 35.5082 17.1893 35.6191 17.2837 35.7121C17.3781 35.8052 17.49 35.8785 17.613 35.928C17.7359 35.9774 17.8675 36.0019 18 36H20C20.1325 36.0019 20.2641 35.9774 20.387 35.928C20.51 35.8785 20.6219 35.8052 20.7163 35.7121C20.8107 35.6191 20.8856 35.5082 20.9368 35.386C20.9879 35.2637 21.0142 35.1325 21.0142 35C21.0142 34.8675 20.9879 34.7362 20.9368 34.614C20.8856 34.4917 20.8107 34.3809 20.7163 34.2878C20.6219 34.1948 20.51 34.1214 20.387 34.072C20.2641 34.0226 20.1325 33.9981 20 34H18Z" fill="#EE3B34"/>
</svg>
