<svg width="18" height="18" viewBox="0 0 18 18" fill="none" xmlns="http://www.w3.org/2000/svg">
<path d="M10.1401 3.74998C10.3369 3.75081 10.5254 3.82893 10.6651 3.96749L14.1076 7.40999C14.529 7.83186 14.7656 8.40373 14.7656 8.99999C14.7656 9.59624 14.529 10.1681 14.1076 10.59L10.6651 14.0325C10.5246 14.1722 10.3345 14.2506 10.1364 14.2506C9.93821 14.2506 9.74813 14.1722 9.6076 14.0325C9.53731 13.9628 9.48151 13.8798 9.44344 13.7884C9.40536 13.697 9.38576 13.599 9.38576 13.5C9.38576 13.401 9.40536 13.3029 9.44344 13.2116C9.48151 13.1202 9.53731 13.0372 9.6076 12.9675L13.0501 9.53248C13.1204 9.46276 13.1762 9.37981 13.2143 9.28842C13.2523 9.19702 13.272 9.09899 13.272 8.99999C13.272 8.90098 13.2523 8.80295 13.2143 8.71155C13.1762 8.62016 13.1204 8.53721 13.0501 8.46748L9.60761 5.03248C9.53731 4.96276 9.48151 4.87981 9.44344 4.78842C9.40536 4.69702 9.38576 4.59899 9.38576 4.49998C9.38576 4.40098 9.40536 4.30295 9.44344 4.21155C9.48151 4.12016 9.53731 4.03721 9.60761 3.96748C9.67769 3.89797 9.7608 3.84298 9.85217 3.80566C9.94355 3.76833 10.0414 3.74941 10.1401 3.74998Z" fill="white"/>
<path d="M4.88988 3.74998C5.08663 3.75081 5.27518 3.82893 5.41488 3.96749L9.91487 8.46748C9.98517 8.53721 10.041 8.62016 10.079 8.71155C10.1171 8.80295 10.1367 8.90098 10.1367 8.99999C10.1367 9.09899 10.1171 9.19702 10.079 9.28842C10.041 9.37981 9.98517 9.46276 9.91487 9.53248L5.41488 14.0325C5.27436 14.1722 5.08427 14.2506 4.88613 14.2506C4.68799 14.2506 4.4979 14.1722 4.35738 14.0325C4.28708 13.9628 4.23129 13.8798 4.19321 13.7884C4.15513 13.697 4.13553 13.599 4.13553 13.5C4.13553 13.401 4.15513 13.3029 4.19321 13.2116C4.23129 13.1202 4.28708 13.0372 4.35738 12.9675L8.32487 8.99999L4.35738 5.03248C4.28708 4.96276 4.23129 4.87981 4.19321 4.78842C4.15514 4.69702 4.13553 4.59899 4.13553 4.49998C4.13553 4.40098 4.15514 4.30295 4.19321 4.21155C4.23129 4.12016 4.28708 4.03721 4.35738 3.96748C4.42746 3.89797 4.51057 3.84298 4.60195 3.80565C4.69333 3.76833 4.79117 3.74941 4.88988 3.74998Z" fill="white"/>
</svg>
