<svg width="50" height="50" viewBox="0 0 50 50" fill="none" xmlns="http://www.w3.org/2000/svg">
<path d="M21.4377 1.00588C20.0819 1.04637 18.7719 1.75249 18.0256 2.98634L17.7619 3.42384C17.3854 4.04552 16.7219 4.42841 15.9963 4.44338H15.9943L15.4826 4.45509C13.2868 4.50083 11.498 6.2883 11.4533 8.48439L11.4416 8.99611C11.4266 9.72171 11.0426 10.3866 10.4221 10.7617L9.98457 11.0274C8.10564 12.1647 7.44959 14.6083 8.50801 16.5332H8.50996L8.75606 16.9824C9.1062 17.6181 9.1062 18.3858 8.75606 19.0215L8.50996 19.4688C7.45171 21.3933 8.10637 23.8373 9.98652 24.9746L10.424 25.2383C11.0457 25.6148 11.4286 26.2783 11.4436 27.0039V27.0059L11.4553 27.5176C11.4923 29.2938 12.6766 30.7864 14.2873 31.3223L9.09199 42.5801C9.0215 42.7325 8.99052 42.9002 9.00192 43.0678C9.01331 43.2353 9.06672 43.3973 9.15721 43.5388C9.24769 43.6803 9.37235 43.7967 9.51968 43.8773C9.66701 43.9579 9.83226 44.0001 10.0002 44H16.5197L20.2189 48.625C20.3265 48.7594 20.467 48.8638 20.6268 48.928C20.7866 48.9922 20.9602 49.0141 21.1309 48.9915C21.3016 48.9689 21.4636 48.9026 21.6012 48.7991C21.7388 48.6955 21.8473 48.5582 21.9162 48.4004L25.0314 41.2813L28.1467 48.4004C28.2156 48.5582 28.3241 48.6955 28.4617 48.7991C28.5993 48.9026 28.7612 48.9689 28.9319 48.9915C29.1027 49.0141 29.2763 48.9922 29.4361 48.928C29.5959 48.8638 29.7363 48.7594 29.8439 48.625L33.5432 44H40.0627C40.2306 44.0001 40.3959 43.9579 40.5432 43.8773C40.6905 43.7967 40.8152 43.6803 40.9057 43.5388C40.9962 43.3973 41.0496 43.2353 41.061 43.0678C41.0724 42.9002 41.0414 42.7325 40.9709 42.5801L35.7678 31.3047C37.3514 30.7537 38.5105 29.2744 38.5471 27.5176V27.5156L38.5588 27.0059V27.0039C38.5737 26.2783 38.9578 25.6135 39.5783 25.2383L40.0178 24.9727C41.8968 23.8353 42.5508 21.3936 41.4924 19.4688L41.4904 19.4668L41.2404 19.0156C40.8924 18.3807 40.8929 17.6149 41.2424 16.9805L41.4904 16.5332V16.5313C42.5482 14.6075 41.8941 12.1653 40.0158 11.0274L40.0139 11.0254L39.5764 10.7617C38.9547 10.3854 38.5718 9.7217 38.5568 8.99611V8.99416L38.5451 8.48439V8.48244C38.4994 6.28659 36.7119 4.49783 34.5158 4.45314L34.0041 4.44142C33.2785 4.42646 32.6136 4.0424 32.2385 3.42189L31.9729 2.98439C30.8356 1.10424 28.3916 0.449579 26.467 1.50783V1.50978L26.0178 1.75588C25.3821 2.10602 24.6144 2.10602 23.9787 1.75588L23.5314 1.50978C23.0503 1.24522 22.5372 1.08746 22.0197 1.02931C21.8257 1.00751 21.6314 1.00009 21.4377 1.00588ZM21.3869 3.00002C21.7824 2.97116 22.1923 3.05483 22.5686 3.26173L23.0139 3.50783C24.2482 4.18768 25.7503 4.18768 26.9846 3.50783L27.4318 3.25978V3.26173C28.4353 2.70998 29.6692 3.0397 30.2619 4.01955L30.5275 4.45705C31.2562 5.66126 32.554 6.41174 33.9611 6.44142L34.4748 6.45314C35.6201 6.47644 36.5238 7.3782 36.5471 8.52345V8.52541L36.5568 9.03713C36.5859 10.4455 37.3369 11.7432 38.5412 12.4727L38.9787 12.7383C39.958 13.3306 40.2888 14.5633 39.7385 15.5664L39.4904 16.0156C38.8106 17.2499 38.8106 18.7501 39.4904 19.9844L39.4924 19.9863V19.9883L39.7404 20.4317C40.292 21.4348 39.9597 22.6691 38.9807 23.2617L38.5432 23.5274C37.3377 24.2562 36.5878 25.5545 36.5588 26.9629L36.549 27.4746V27.4766C36.5257 28.6218 35.622 29.5236 34.4768 29.5469L33.9631 29.5586C32.5554 29.5883 31.2586 30.3373 30.5295 31.541V31.543L30.2639 31.9805C29.6712 32.9603 28.4372 33.29 27.4338 32.7383V32.7402L26.9865 32.4922C25.7522 31.8123 24.2501 31.8123 23.0158 32.4922L22.5686 32.7402V32.7383C21.5654 33.2899 20.3311 32.9595 19.7385 31.9805L19.4729 31.543C18.7442 30.3388 17.4464 29.5883 16.0393 29.5586H16.0373L15.5256 29.5469C14.3803 29.5236 13.4766 28.6218 13.4533 27.4766V27.4746L13.4436 26.9629C13.4145 25.5545 12.6635 24.2568 11.4592 23.5274L11.0217 23.2617C10.0419 22.6689 9.71016 21.4351 10.2619 20.4317L10.508 19.9863V19.9844C11.1869 18.7504 11.1875 17.2494 10.508 16.0156L10.26 15.5684H10.2619C9.71033 14.5652 10.0407 13.3309 11.0197 12.7383L11.4572 12.4727C12.6614 11.744 13.4119 10.4462 13.4416 9.03908V9.03713L13.4533 8.52541C13.4766 7.38016 14.3784 6.47644 15.5236 6.45314H15.5256L16.0373 6.44338C17.4457 6.41434 18.7434 5.66332 19.4729 4.459L19.7385 4.0215C20.0348 3.53158 20.4901 3.20249 20.9982 3.06642C21.1253 3.03241 21.2551 3.00964 21.3869 3.00002ZM32.2834 11.086L24.0432 23.9668L17.4201 18.0059L16.0803 19.4942L24.4572 27.0313L33.967 12.1641L32.2834 11.086ZM33.7014 31.6035L38.4982 42H33.0627C32.9127 41.9999 32.7646 42.0336 32.6293 42.0985C32.4941 42.1634 32.3752 42.2579 32.2814 42.375L29.3146 46.082L26.1232 38.7832L27.8068 34.9356C29.414 35.1866 31.0897 34.4789 31.9748 33.0156L32.2404 32.5781C32.5628 32.0459 33.0995 31.7047 33.7014 31.6035ZM16.3576 31.6113C16.9367 31.725 17.4508 32.0635 17.7619 32.5781L18.0275 33.0156C19.1649 34.8946 21.6085 35.5506 23.5334 34.4922V34.4902L23.9826 34.2442C24.5928 33.9081 25.3216 33.9038 25.9416 34.2129L20.7482 46.082L17.7814 42.375C17.6877 42.2579 17.5688 42.1634 17.4335 42.0985C17.2983 42.0336 17.1502 41.9999 17.0002 42H11.5646L16.3576 31.6113Z" fill="#EE3B34"/>
</svg>
