<svg width="50" height="50" viewBox="0 0 50 50" fill="none" xmlns="http://www.w3.org/2000/svg">
<path d="M7.90625 1.96875C7.86328 1.97656 7.82031 1.98828 7.78125 2C7.31641 2.10547 6.98828 2.52344 7 3V12H16C16.3594 12.0039 16.6953 11.8164 16.8789 11.5039C17.0586 11.1914 17.0586 10.8086 16.8789 10.4961C16.6953 10.1836 16.3594 9.99609 16 10H10.3125C14.1016 6.29297 19.2773 4 25 4C36.6094 4 46 13.3906 46 25C46 36.6094 36.6094 46 25 46C13.3906 46 4 36.6094 4 25C4 21.5273 4.85547 18.2578 6.34375 15.375L4.5625 14.4688C2.92969 17.625 2 21.207 2 25C2 37.6914 12.3086 48 25 48C37.6914 48 48 37.6914 48 25C48 12.3086 37.6914 2 25 2C18.7734 2 13.1406 4.50391 9 8.53125V3C9.01172 2.71094 8.89453 2.43359 8.6875 2.23828C8.47656 2.03906 8.19141 1.94141 7.90625 1.96875ZM25 5C24.4492 5 24 5.44922 24 6C24 6.55078 24.4492 7 25 7C25.5508 7 26 6.55078 26 6C26 5.44922 25.5508 5 25 5ZM34.5 7.53125C33.9492 7.53125 33.5 7.98047 33.5 8.53125C33.5 9.08203 33.9492 9.53125 34.5 9.53125C35.0508 9.53125 35.5 9.08203 35.5 8.53125C35.5 7.98047 35.0508 7.53125 34.5 7.53125ZM41.4688 14.5C40.918 14.5 40.4688 14.9492 40.4688 15.5C40.4688 16.0508 40.918 16.5 41.4688 16.5C42.0195 16.5 42.4688 16.0508 42.4688 15.5C42.4688 14.9492 42.0195 14.5 41.4688 14.5ZM18.375 16.9063C15.6016 16.9063 13.625 18.7148 13.625 21.3125V21.3438H15.6875V21.3125C15.6875 19.8086 16.7266 18.8125 18.2812 18.8125C19.7344 18.8125 20.8438 19.7734 20.8438 21.0625C20.8438 22.0977 20.3867 22.8477 18.5 24.8125L13.75 29.75V31.3438H23.25V29.375H16.7812V29.2188L19.9375 26.0312C22.3008 23.6406 23 22.4297 23 20.9375C23 18.6133 21.0508 16.9063 18.375 16.9063ZM31.5938 17.25C29.082 21.0117 26.9805 24.2891 25.7188 26.5938V28.625H32.5938V31.3438H34.6875V28.625H36.6562V26.6562H34.6875V17.25H31.5938ZM32.5 19.1875H32.625V26.7188H27.8125V26.5625C29.4727 23.6797 31.1055 21.207 32.5 19.1875ZM6 24C5.44922 24 5 24.4492 5 25C5 25.5508 5.44922 26 6 26C6.55078 26 7 25.5508 7 25C7 24.4492 6.55078 24 6 24ZM44 24C43.4492 24 43 24.4492 43 25C43 25.5508 43.4492 26 44 26C44.5508 26 45 25.5508 45 25C45 24.4492 44.5508 24 44 24ZM8.53125 33.5C7.98047 33.5 7.53125 33.9492 7.53125 34.5C7.53125 35.0508 7.98047 35.5 8.53125 35.5C9.08203 35.5 9.53125 35.0508 9.53125 34.5C9.53125 33.9492 9.08203 33.5 8.53125 33.5ZM41.4688 33.5C40.918 33.5 40.4688 33.9492 40.4688 34.5C40.4688 35.0508 40.918 35.5 41.4688 35.5C42.0195 35.5 42.4688 35.0508 42.4688 34.5C42.4688 33.9492 42.0195 33.5 41.4688 33.5ZM15.5 40.4688C14.9492 40.4688 14.5 40.918 14.5 41.4688C14.5 42.0195 14.9492 42.4688 15.5 42.4688C16.0508 42.4688 16.5 42.0195 16.5 41.4688C16.5 40.918 16.0508 40.4688 15.5 40.4688ZM34.5 40.4688C33.9492 40.4688 33.5 40.918 33.5 41.4688C33.5 42.0195 33.9492 42.4688 34.5 42.4688C35.0508 42.4688 35.5 42.0195 35.5 41.4688C35.5 40.918 35.0508 40.4688 34.5 40.4688ZM25 43C24.4492 43 24 43.4492 24 44C24 44.5508 24.4492 45 25 45C25.5508 45 26 44.5508 26 44C26 43.4492 25.5508 43 25 43Z" fill="#EE3B34"/>
</svg>
