<svg width="40" height="40" viewBox="0 0 40 40" fill="none" xmlns="http://www.w3.org/2000/svg">
<rect width="40" height="40" rx="20" fill="url(#paint0_linear_201_2902)"/>
<path d="M30.5251 10.3892C30.2987 10.1974 30.0247 10.0706 29.732 10.0221C29.4393 9.97359 29.1389 10.0053 28.8628 10.1139L10.0376 17.5073C9.70742 17.6331 9.42773 17.864 9.24162 18.1643C9.05551 18.4647 8.97329 18.8179 9.00763 19.1696C9.03826 19.5211 9.18203 19.8532 9.41737 20.1162C9.65271 20.3791 9.96695 20.5586 10.313 20.6279L15.0957 21.5763V27.5522C15.0956 27.8755 15.1914 28.1915 15.3712 28.4603C15.5509 28.729 15.8065 28.9382 16.1053 29.0615C16.3031 29.1411 16.5142 29.1826 16.7274 29.1839C16.9417 29.1846 17.154 29.1426 17.3519 29.0603C17.5497 28.978 17.7292 28.8571 17.8798 28.7046L20.5312 26.0633L24.539 29.5918C24.8348 29.8527 25.2152 29.9976 25.6097 29.9997C25.7832 30.0033 25.9559 29.9756 26.1196 29.9181C26.3887 29.833 26.6309 29.679 26.8223 29.4716C27.0137 29.2641 27.1476 29.0103 27.2108 28.7352L31.0452 11.9903C31.1122 11.7014 31.0992 11.3996 31.0076 11.1175C30.9159 10.8354 30.7491 10.5836 30.5251 10.3892ZM15.7178 20.0364L10.6393 19.0268L24.8755 13.4282L15.7178 20.0364ZM16.7274 27.5522V22.7184L19.2973 24.9824L16.7274 27.5522ZM25.6199 28.368L17.2169 20.9746L29.3217 12.235L25.6199 28.368Z" fill="white"/>
<defs>
<linearGradient id="paint0_linear_201_2902" x1="39.4059" y1="36.5218" x2="-0.373499" y2="35.6634" gradientUnits="userSpaceOnUse">
<stop stop-color="#EE3B34"/>
<stop offset="0.963542" stop-color="#FF0A00"/>
</linearGradient>
</defs>
</svg>
