<svg width="74" height="74" viewBox="0 0 74 74" fill="none" xmlns="http://www.w3.org/2000/svg">
<circle cx="37" cy="37" r="37" fill="#EE3B34"/>
<g clip-path="url(#clip0_201_3261)">
<path d="M58.0228 16.8182C56.5259 16.8182 55.0627 17.262 53.8181 18.0936C52.5735 18.9252 51.6035 20.1072 51.0307 21.4901C50.4579 22.873 50.308 24.3948 50.6 25.8628C50.892 27.3309 51.6128 28.6794 52.6713 29.7379C53.7297 30.7963 55.0782 31.5171 56.5463 31.8091C58.0144 32.1011 59.5361 31.9513 60.919 31.3784C62.3019 30.8056 63.4839 29.8356 64.3155 28.591C65.1471 27.3464 65.591 25.8832 65.591 24.3864C65.5888 22.3798 64.7907 20.4561 63.3719 19.0372C61.9531 17.6184 60.0293 16.8203 58.0228 16.8182V16.8182ZM58.0228 30.6932C56.7754 30.6932 55.556 30.3233 54.5189 29.6303C53.4817 28.9373 52.6734 27.9523 52.196 26.7999C51.7187 25.6475 51.5938 24.3794 51.8371 23.156C52.0805 21.9326 52.6812 20.8088 53.5632 19.9268C54.4452 19.0447 55.569 18.4441 56.7924 18.2007C58.0158 17.9574 59.2839 18.0823 60.4363 18.5596C61.5887 19.037 62.5737 19.8453 63.2667 20.8825C63.9597 21.9196 64.3296 23.139 64.3296 24.3864C64.3278 26.0585 63.6627 27.6616 62.4803 28.8439C61.298 30.0263 59.6949 30.6913 58.0228 30.6932Z" fill="white"/>
<path d="M58.0228 19.9717C57.8555 19.9717 57.6951 20.0381 57.5768 20.1564C57.4585 20.2747 57.3921 20.4351 57.3921 20.6024V25.6478C57.3921 25.8151 57.4585 25.9755 57.5768 26.0938C57.6951 26.2121 57.8555 26.2785 58.0228 26.2785C58.19 26.2785 58.3505 26.2121 58.4687 26.0938C58.587 25.9755 58.6535 25.8151 58.6535 25.6478V20.6024C58.6535 20.4351 58.587 20.2747 58.4687 20.1564C58.3505 20.0381 58.19 19.9717 58.0228 19.9717Z" fill="white"/>
<path d="M58.6535 28.1705C58.6535 27.8222 58.3711 27.5399 58.0228 27.5399C57.6745 27.5399 57.3921 27.8222 57.3921 28.1705C57.3921 28.5189 57.6745 28.8012 58.0228 28.8012C58.3711 28.8012 58.6535 28.5189 58.6535 28.1705Z" fill="white"/>
</g>
<g clip-path="url(#clip1_201_3261)">
<path d="M23.0071 16.8182V18.4327H15.338C14.2217 18.4327 13.3198 19.3346 13.3198 20.4509V55.1636C13.3198 56.2799 14.2217 57.1818 15.338 57.1818H45.2071C46.3234 57.1818 47.2253 56.2799 47.2253 55.1636V20.4509C47.2253 19.3346 46.3234 18.4327 45.2071 18.4327H37.538V16.8182H23.0071ZM24.6216 18.4327H35.9235V19.0886C35.9235 19.1139 35.9235 19.1391 35.9235 19.1643V19.24C35.9172 19.2999 35.9172 19.3567 35.9235 19.4166V22.3177C35.9235 22.3429 35.9235 22.3682 35.9235 22.3934V22.4691C35.9172 22.529 35.9172 22.5858 35.9235 22.6457V23.2764H24.6216V22.6204C24.6437 22.5132 24.6437 22.3997 24.6216 22.2925V19.3914C24.6437 19.2841 24.6437 19.1706 24.6216 19.0634V18.4327ZM15.338 20.0473H23.0071V21.6618H17.3562V53.1455H43.1889V21.6618H37.538V20.0473H45.2071C45.3805 20.0473 45.6107 20.2775 45.6107 20.4509V55.1636C45.6107 55.3371 45.3805 55.5673 45.2071 55.5673H15.338C15.1646 55.5673 14.9344 55.3371 14.9344 55.1636V20.4509C14.9344 20.2775 15.1646 20.0473 15.338 20.0473ZM18.9707 23.2764H23.0071V24.8909H37.538V23.2764H41.5744V51.5309H18.9707V23.2764ZM31.0798 27.3127V28.9273H38.3453V27.3127H31.0798ZM24.6216 28.9273V31.3491H22.1998V32.9636H24.6216V35.3854H26.2362V32.9636H28.658V31.3491H26.2362V28.9273H24.6216ZM31.0798 31.3491V32.9636H38.3453V31.3491H31.0798ZM31.0798 35.3854V37H38.3453V35.3854H31.0798ZM22.1998 39.4218V41.0364H38.3453V39.4218H22.1998ZM22.1998 43.4582V45.0727H38.3453V43.4582H22.1998ZM22.1998 47.4945V49.1091H38.3453V47.4945H22.1998Z" fill="white"/>
</g>
<defs>
<clipPath id="clip0_201_3261">
<rect width="15.1364" height="15.1364" fill="white" transform="translate(50.4546 16.8182)"/>
</clipPath>
<clipPath id="clip1_201_3261">
<rect width="40.3636" height="40.3636" fill="white" transform="translate(10.0908 16.8182)"/>
</clipPath>
</defs>
</svg>
