<svg width="40" height="40" viewBox="0 0 40 40" fill="none" xmlns="http://www.w3.org/2000/svg">
<rect width="40" height="40" rx="20" fill="url(#paint0_linear_201_2905)"/>
<path fill-rule="evenodd" clip-rule="evenodd" d="M24.5125 21.985C24.2641 21.8608 23.0466 21.2625 22.82 21.1792C22.5933 21.0967 22.4283 21.0558 22.2625 21.3042C22.0975 21.5508 21.6233 22.1092 21.4791 22.2742C21.3341 22.44 21.19 22.46 20.9425 22.3367C20.695 22.2117 19.8966 21.9508 18.9508 21.1075C18.215 20.4509 17.7175 19.64 17.5733 19.3917C17.4292 19.1442 17.5575 19.01 17.6817 18.8867C17.7933 18.7759 17.9292 18.5975 18.0533 18.4534C18.1775 18.3084 18.2183 18.205 18.3008 18.0392C18.3842 17.8742 18.3425 17.73 18.28 17.6059C18.2183 17.4817 17.7233 16.2625 17.5167 15.7667C17.3158 15.2842 17.1117 15.35 16.96 15.3417C16.815 15.335 16.65 15.3334 16.485 15.3334C16.32 15.3334 16.0517 15.395 15.825 15.6434C15.5975 15.8909 14.9583 16.49 14.9583 17.7092C14.9583 18.9275 15.845 20.105 15.9692 20.2709C16.0933 20.4359 17.715 22.9375 20.1991 24.01C20.7908 24.265 21.2516 24.4175 21.6108 24.5308C22.2041 24.72 22.7441 24.6933 23.1708 24.6292C23.6458 24.5583 24.6358 24.03 24.8425 23.4517C25.0483 22.8733 25.0483 22.3775 24.9866 22.2742C24.925 22.1708 24.76 22.1092 24.5116 21.985H24.5125ZM19.9941 28.1542H19.9908C18.5153 28.1544 17.067 27.7578 15.7975 27.0058L15.4975 26.8275L12.3792 27.6458L13.2117 24.6058L13.0158 24.2942C12.1909 22.9811 11.7544 21.4615 11.7567 19.9109C11.7583 15.3692 15.4533 11.6742 19.9975 11.6742C22.1975 11.6742 24.2658 12.5325 25.8208 14.0892C26.5878 14.853 27.1957 15.7613 27.6094 16.7616C28.023 17.7619 28.2343 18.8343 28.2308 19.9167C28.2291 24.4583 24.5341 28.1542 19.9941 28.1542ZM27.0041 12.9067C26.086 11.9825 24.9935 11.2496 23.79 10.7507C22.5866 10.2518 21.2961 9.9966 19.9933 10C14.5317 10 10.085 14.4459 10.0833 19.91C10.0808 21.649 10.537 23.3578 11.4058 24.8642L10 30L15.2533 28.6217C16.7066 29.4134 18.3351 29.8283 19.99 29.8283H19.9941C25.4558 29.8283 29.9025 25.3825 29.9041 19.9175C29.9082 18.6152 29.6539 17.3251 29.1562 16.1217C28.6584 14.9183 27.9269 13.8256 27.0041 12.9067Z" fill="white"/>
<defs>
<linearGradient id="paint0_linear_201_2905" x1="39.4059" y1="36.5218" x2="-0.373499" y2="35.6634" gradientUnits="userSpaceOnUse">
<stop stop-color="#EE3B34"/>
<stop offset="0.963542" stop-color="#FF0A00"/>
</linearGradient>
</defs>
</svg>
