<svg width="550" height="389" viewBox="0 0 550 389" fill="none" xmlns="http://www.w3.org/2000/svg">
<path d="M100.667 74.2587C62.0492 111.446 119.589 152.199 92.5412 173.4C65.4938 194.601 -49.2939 239.988 73.6686 307.133C196.631 374.278 204.976 410.253 286.191 357.347C367.381 304.44 358.915 309.753 430.379 337.261C501.842 364.769 571.074 310.189 542.571 252.626C514.044 195.062 498.398 196.833 524.086 157.196C549.775 117.583 492.624 -3.85125 401.003 83.2826C309.381 170.416 295.724 123.405 252.012 84.0588C228.312 62.7848 161.7 15.4822 100.667 74.2587Z" fill="url(#paint0_linear_5_369)"/>
<path d="M293.269 38.5936L290.399 128.892L293.802 129L296.672 38.7017L293.269 38.5936Z" fill="#F29814"/>
<path d="M219 64.4186C219 64.4186 243.877 51.3254 270.064 64.6805C270.064 64.6805 293.631 48.4449 322.698 67.561C322.698 67.561 347.052 49.2305 369.572 63.8949C369.572 63.8949 345.219 0 288.394 0C245.71 0 222.404 46.0881 219 64.4186Z" fill="#C8A246"/>
<path d="M219 64.4187C219 64.4187 243.877 51.3255 270.064 64.6805C270.064 64.6805 270.325 64.4187 270.849 64.1568C264.826 27.7576 288.394 0 288.394 0C245.71 0 222.404 46.0881 219 64.4187Z" fill="#A78227"/>
<path d="M369.573 63.895C369.573 63.895 345.22 0 288.395 0C288.395 0 326.627 16.4975 323.223 67.0373C326.627 64.6805 348.886 50.278 369.573 63.895Z" fill="#E9B73D"/>
<path d="M129.873 111.785C131.79 109.99 134.361 109.093 136.981 109.335C164.902 111.858 217.032 98.3951 251.089 63.5367C253.442 61.1109 257.76 62.4936 260.477 64.507C298.344 92.8158 361.147 98.6862 382.93 99.8748C387.442 100.117 391.105 103.611 391.566 108.122C411.385 299.565 286.748 368.942 260.89 381.168C258.076 382.502 254.728 382.308 252.084 380.658C123.227 300.414 128.733 196.033 126.962 118.723C126.89 116.103 127.957 113.58 129.873 111.785Z" fill="url(#paint1_linear_5_369)"/>
<path d="M257.397 367.001C256.863 367.001 256.354 366.856 255.893 366.564C206.553 335.029 174.387 297.309 157.576 251.292C142.561 210.175 141.833 168.306 141.178 131.337C141.154 129.688 141.13 128.038 141.081 126.413C141.057 125.661 141.348 124.957 141.881 124.424C142.415 123.89 143.119 123.599 143.871 123.599H143.895C160.123 123.599 179.335 119.815 197.99 112.974C219.361 105.139 238.815 93.6648 254.243 79.8379C255.189 78.9889 256.572 78.8919 257.639 79.5954C273.553 90.1475 310.036 108.583 375.726 113.411C377.085 113.508 378.176 114.575 378.297 115.933C384.847 190.55 369.322 253.669 332.184 303.494C304.433 340.706 271.539 360.088 258.707 366.686C258.246 366.904 257.834 367.001 257.397 367.001ZM258.319 366.055L258.488 366.37L258.319 366.055C271.127 359.481 303.899 340.148 331.553 303.058C368.594 253.378 384.071 190.453 377.545 115.982C377.448 114.963 376.648 114.163 375.629 114.09C362.312 113.12 341.887 110.864 320.176 105.672C294.802 99.608 273.601 91.0208 257.203 80.1533C256.427 79.6439 255.383 79.7166 254.68 80.3473C239.179 94.2228 219.652 105.745 198.208 113.605C179.481 120.494 160.172 124.278 143.871 124.278H143.846C143.288 124.278 142.755 124.496 142.342 124.909C141.954 125.297 141.736 125.831 141.76 126.389C141.784 128.014 141.809 129.663 141.857 131.313C142.512 168.209 143.24 210.029 158.207 251.025C174.969 296.896 207.038 334.471 256.233 365.934C256.887 366.346 257.688 366.395 258.319 366.055Z" fill="#EE3B34"/>
<path d="M270.644 157H257.192C253.224 157 250 153.788 250 149.808V139.719C250 135.752 253.212 132.528 257.192 132.528H270.644C274.611 132.528 277.835 135.739 277.835 139.719V149.808C277.835 153.776 274.611 157 270.644 157Z" fill="#070854"/>
<path d="M274.775 139.921H271.992V129.87C271.992 125.411 268.364 121.784 263.906 121.784C259.447 121.784 255.82 125.411 255.82 129.87V137.956H253.036V129.87C253.036 123.874 257.91 119 263.906 119C269.901 119 274.775 123.874 274.775 129.87V139.921V139.921Z" fill="#070854"/>
<path d="M267.318 143.208C267.318 144.77 266.046 146.042 264.484 146.042C262.922 146.042 261.65 144.77 261.65 143.208C261.65 141.646 262.922 140.374 264.484 140.374C266.046 140.374 267.318 141.646 267.318 143.208Z" fill="#A78227"/>
<path d="M264.485 141.886L262.105 151.823H266.878L264.485 141.886Z" fill="#A78227"/>
<path d="M75.7062 195.936C108.436 195.936 134.968 169.403 134.968 136.674C134.968 103.945 108.436 77.4123 75.7062 77.4123C42.9769 77.4123 16.4446 103.945 16.4446 136.674C16.4446 169.403 42.9769 195.936 75.7062 195.936Z" fill="#D3BE8A"/>
<path d="M113.722 175.209C134.658 154.273 134.658 120.33 113.722 99.3939C92.7864 78.4582 58.843 78.4582 37.9074 99.3939C16.9717 120.33 16.9717 154.273 37.9074 175.209C58.843 196.144 92.7864 196.144 113.722 175.209Z" fill="white"/>
<path d="M141.857 84.0345L92.5413 67.709C89.8244 66.8115 86.865 68.1942 85.8219 70.8625L58.5319 141.186C57.7314 143.272 58.7988 145.625 60.9092 146.377L117.09 166.098C119.079 166.802 121.262 165.735 121.917 163.721L145.714 91.7484C146.806 88.5464 145.059 85.1018 141.857 84.0345Z" fill="url(#paint2_linear_5_369)"/>
<path d="M109.255 162.144C109.182 162.12 109.133 162.047 109.158 161.975C109.182 161.902 109.255 161.853 109.327 161.878L115.683 163.891C117.648 164.522 119.807 163.43 120.438 161.465L123.591 151.908C123.615 151.835 123.688 151.786 123.761 151.811C123.834 151.835 123.882 151.908 123.858 151.98L120.704 161.538C120.001 163.648 117.696 164.837 115.586 164.158L109.255 162.144Z" fill="#CBB889"/>
<path d="M124.683 149.118C124.61 149.094 124.562 149.021 124.586 148.924L125.095 147.372C125.12 147.299 125.192 147.25 125.265 147.274C125.338 147.299 125.386 147.372 125.362 147.444L124.853 148.997C124.828 149.094 124.756 149.142 124.683 149.118Z" fill="#CBB889"/>
<path d="M141.905 83.4038C134.871 82.0939 110.783 77.2424 92.1043 69.4556C91.2553 69.0918 90.285 69.5042 89.9454 70.3774L62.3643 140.919C61.9762 141.889 62.4614 142.981 63.4317 143.369C71.3397 146.498 103.894 159.331 116.119 161.999C116.871 162.169 117.623 161.732 117.866 161.004L143.264 85.7083C143.604 84.6895 142.973 83.5979 141.905 83.4038Z" fill="#CBB889"/>
<path d="M140.571 85.0291C133.804 83.7677 110.613 79.1102 92.6624 71.5903C91.8376 71.2507 90.8916 71.6388 90.5762 72.4636L64.014 140.385C63.6502 141.307 64.1111 142.374 65.0329 142.738C72.6255 145.77 103.967 158.093 115.732 160.665C116.459 160.81 117.163 160.422 117.405 159.719L141.857 87.2608C142.197 86.2662 141.59 85.2232 140.571 85.0291Z" fill="#CBB889"/>
<path d="M114.931 72.0997L120.68 73.4582L122.839 68.4853C123.276 67.4908 122.96 66.3021 122.063 65.6957C121.068 65.0165 119.54 64.4828 117.357 65.1378C113.063 66.3992 114.931 72.0997 114.931 72.0997ZM117.526 68.2185C117.793 67.4422 118.618 67.0299 119.394 67.2967C120.171 67.5635 120.583 68.3883 120.316 69.1645C120.049 69.9408 119.225 70.3532 118.448 70.0863C117.696 69.8195 117.26 68.9705 117.526 68.2185Z" fill="url(#paint3_linear_5_369)"/>
<path d="M120.777 71.2507C120.631 71.178 120.559 71.0082 120.631 70.8626L120.971 70.0621C121.044 69.9166 121.214 69.8438 121.359 69.9166C121.505 69.9893 121.577 70.1592 121.505 70.3047L121.165 71.1052C121.117 71.2022 121.02 71.275 120.898 71.275C120.874 71.275 120.826 71.275 120.777 71.2507ZM121.456 69.6983C121.311 69.6255 121.238 69.4557 121.311 69.3101L121.577 68.7037C121.917 67.9274 121.65 67.0299 120.971 66.569C120.437 66.1809 119.807 65.9626 119.152 65.8898C118.982 65.8655 118.885 65.72 118.885 65.5744C118.909 65.4046 119.055 65.3076 119.2 65.3076C119.952 65.4046 120.656 65.6715 121.286 66.0839C122.184 66.7146 122.524 67.9032 122.087 68.922L121.82 69.5285C121.772 69.6255 121.675 69.6983 121.553 69.6983C121.553 69.7225 121.505 69.7225 121.456 69.6983Z" fill="#CBB889"/>
<path d="M127.254 79.3042L128.103 76.7329C128.394 75.8354 127.885 74.8893 126.987 74.6225L108.988 69.3343C108.188 69.0917 107.339 69.5041 107.047 70.2803L106.077 72.7061L127.254 79.3042Z" fill="url(#paint4_linear_5_369)"/>
<path d="M122.427 74.186L121.65 73.9434C121.578 73.9192 121.529 73.8464 121.553 73.7736C121.578 73.7008 121.65 73.6523 121.723 73.6766L122.499 73.9192C122.572 73.9434 122.621 74.0162 122.597 74.089C122.572 74.1617 122.499 74.2103 122.427 74.186Z" fill="white"/>
<path d="M126.599 78.334C126.72 78.334 126.817 78.2613 126.866 78.14L127.205 77.0969C127.351 76.6602 127.302 76.1993 127.108 75.8112C126.914 75.3988 126.55 75.1077 126.138 74.9622L123.324 74.0404C123.179 73.9919 123.009 74.0647 122.96 74.2345C122.912 74.38 122.984 74.5498 123.154 74.5983L125.968 75.5201C126.55 75.7142 126.866 76.3449 126.672 76.9271L126.332 77.9702C126.284 78.1157 126.356 78.2855 126.526 78.334C126.526 78.334 126.575 78.334 126.599 78.334Z" fill="#CBB889"/>
<path d="M133.124 80.2019L102.001 69.9166C100.886 69.5527 99.6485 70.0379 99.1148 71.081L99.042 71.2265C98.4356 72.3666 98.9935 73.7736 100.231 74.186L132.154 84.7381C132.882 84.9807 133.682 84.5683 133.876 83.8163L134.289 82.3608C134.531 81.439 134.022 80.493 133.124 80.2019Z" fill="url(#paint5_linear_5_369)"/>
<g opacity="0.7">
<path d="M128.491 115.23L132.979 99.7537C133.028 99.5839 132.931 99.414 132.785 99.3655L88.5147 84.35C88.4419 84.3257 88.3449 84.3257 88.2721 84.3743C88.1994 84.4228 88.1508 84.4955 88.1266 84.5683L83.9543 100.675C83.9057 100.845 84.0028 100.991 84.1726 101.039L128.103 115.448C128.273 115.497 128.443 115.424 128.491 115.254C128.491 115.23 128.491 115.23 128.491 115.23ZM132.3 99.8749L131.378 103.028L87.8112 88.304L88.6603 85.0535L132.3 99.8749ZM84.6335 100.554L87.6414 88.9105L131.208 103.635L127.982 114.769L84.6335 100.554Z" fill="white"/>
<path d="M89.4607 93.8347L109.304 100.336C109.692 100.457 110.104 100.239 110.201 99.8506L110.225 99.7778C110.322 99.3654 110.08 98.9531 109.692 98.8075L89.9216 92.3307C89.5335 92.2094 89.1211 92.4277 88.9998 92.8158L88.9755 92.8886C88.8543 93.301 89.0726 93.7134 89.4607 93.8347Z" fill="white"/>
<path d="M108.672 102.81L88.7326 96.2605C88.3445 96.1392 87.9321 96.3575 87.8108 96.7456L87.7866 96.8184C87.6653 97.2308 87.8836 97.6432 88.2717 97.7887L108.284 104.363C108.672 104.484 109.085 104.266 109.182 103.853L109.206 103.78C109.303 103.392 109.061 102.956 108.672 102.81Z" fill="white"/>
<path d="M125.799 105.745C126.211 105.891 126.623 105.648 126.72 105.212C126.817 104.775 126.551 104.314 126.138 104.193L117.43 101.33C117.017 101.185 116.605 101.427 116.508 101.864C116.411 102.301 116.653 102.737 117.09 102.883L125.799 105.745Z" fill="white"/>
<path d="M125.847 109.311C125.944 108.874 125.677 108.414 125.265 108.268L116.484 105.381C116.071 105.236 115.635 105.478 115.537 105.915C115.44 106.352 115.683 106.813 116.12 106.958L124.925 109.869C125.338 109.99 125.75 109.748 125.847 109.311Z" fill="white"/>
<path d="M133.755 90.5842C133.61 91.0209 133.173 91.2634 132.761 91.1421L91.9107 78.3826C91.4498 78.237 91.2073 77.7519 91.3528 77.291L91.3771 77.2182C91.5226 76.7573 92.0078 76.5147 92.4686 76.636L133.319 89.4684C133.731 89.5896 133.949 90.0505 133.828 90.4872L133.755 90.5842Z" fill="white"/>
<path d="M132.663 94.0288C132.518 94.4654 132.081 94.708 131.669 94.5867L90.7946 81.9969C90.3337 81.8514 90.0911 81.3662 90.2124 80.9053L90.2367 80.8326C90.3822 80.3717 90.8674 80.1291 91.3283 80.2504L132.178 92.9372C132.591 93.0585 132.809 93.5194 132.688 93.956L132.663 94.0288Z" fill="white"/>
<path d="M87.787 116.346C87.787 116.346 87.7627 116.322 87.787 116.346L81.9408 114.502C81.0918 114.236 80.5824 113.459 80.728 112.659L81.6983 107.613C81.7468 107.322 81.9408 107.055 82.2077 106.885C82.4988 106.691 82.8869 106.619 83.2508 106.716C83.7602 106.837 84.4394 106.982 85.2156 107.152C86.8894 107.516 88.7815 107.904 89.8489 108.22H89.8731C90.6494 108.462 91.1588 109.141 91.1588 109.869C91.1103 111.082 90.4553 113.217 89.7033 115.473C89.4607 116.2 88.5875 116.588 87.787 116.346ZM83.1537 107.176C82.9112 107.128 82.6928 107.152 82.4988 107.274C82.3532 107.371 82.2562 107.516 82.2077 107.686L81.2374 112.732C81.1403 113.265 81.5042 113.823 82.1106 113.993L87.9325 115.812C88.4904 115.982 89.0726 115.739 89.2424 115.254C89.9702 113.047 90.6494 110.961 90.6736 109.796C90.6979 109.287 90.2855 108.778 89.7276 108.632C88.6602 108.317 86.6954 107.904 85.1186 107.565C84.3424 107.443 83.6389 107.298 83.1537 107.176Z" fill="white"/>
<path opacity="0.6" d="M83.6144 107.856C84.8758 108.147 87.6169 108.681 88.8783 109.044C89.412 109.19 89.7759 109.675 89.7759 110.16C89.7516 111.131 89.1694 112.926 88.6115 114.575C88.4417 115.06 87.8595 115.327 87.3258 115.157L82.6684 113.702C82.0862 113.532 81.7466 112.974 81.8436 112.465L82.6198 108.414C82.7169 108.026 83.1535 107.759 83.6144 107.856Z" fill="white"/>
<g opacity="0.6">
<path d="M94.8945 112.95C94.3851 112.78 93.9485 113.071 93.9485 113.605L93.8999 114.818C93.8757 115.351 94.2881 115.909 94.7975 116.079L123.3 124.763C123.81 124.909 124.343 124.618 124.489 124.108L124.586 123.793C124.732 123.284 124.44 122.726 123.931 122.556L94.8945 112.95Z" fill="white"/>
</g>
<path d="M83.6386 108.705C84.148 108.583 84.6574 108.899 84.7787 109.408L85.3124 111.834C85.3609 112.077 85.6763 112.149 85.8218 111.98L90.6006 106.497C90.8432 106.23 91.2798 106.473 91.1585 106.813C90.5278 108.753 88.9025 112.295 84.8515 114.43C84.8515 114.43 83.3475 113.241 82.8866 109.796C82.8381 109.287 83.1535 108.826 83.6386 108.705Z" fill="url(#paint6_linear_5_369)"/>
<path d="M83.6386 129.227L77.7925 127.383C76.9435 127.116 76.4341 126.34 76.5796 125.539L77.5499 120.494C77.5985 120.203 77.7925 119.936 78.0594 119.766C78.3505 119.572 78.7386 119.499 79.1025 119.596C79.6119 119.718 80.2911 119.863 81.0673 120.033C82.7411 120.397 84.6332 120.785 85.7006 121.1H85.7248C86.5011 121.343 87.0105 122.022 87.0105 122.75C86.962 123.963 86.307 126.097 85.555 128.353C85.3124 129.081 84.4634 129.469 83.6386 129.227ZM79.0054 120.081C78.7628 120.033 78.5445 120.057 78.3505 120.179C78.2049 120.276 78.1079 120.421 78.0594 120.591L77.0891 125.636C76.992 126.17 77.3559 126.728 77.9623 126.898L83.7842 128.717C84.3421 128.887 84.9243 128.644 85.0941 128.159C85.8218 125.952 86.5011 123.866 86.5253 122.701C86.5496 122.192 86.1372 121.682 85.5793 121.537C84.5119 121.222 82.547 120.809 80.9703 120.47C80.2183 120.348 79.5148 120.179 79.0054 120.081Z" fill="white"/>
<path opacity="0.6" d="M79.4905 120.761C80.7519 121.052 83.493 121.586 84.7544 121.95C85.2881 122.095 85.652 122.58 85.652 123.065C85.6277 124.036 85.0455 125.831 84.4876 127.48C84.3178 127.965 83.7356 128.232 83.2019 128.062L78.5445 126.607C77.9623 126.437 77.6227 125.879 77.7197 125.37L78.4959 121.319C78.5687 120.906 79.0296 120.64 79.4905 120.761Z" fill="white"/>
<g opacity="0.6">
<path d="M90.7702 125.855C90.2608 125.685 89.8242 125.976 89.8242 126.51L89.7757 127.723C89.7514 128.256 90.1638 128.814 90.6732 128.984L119.176 137.644C119.685 137.79 120.219 137.499 120.365 136.989L120.462 136.674C120.607 136.164 120.316 135.607 119.807 135.437L90.7702 125.855Z" fill="white"/>
</g>
<path d="M79.5147 142.108C79.5147 142.108 79.4905 142.108 79.5147 142.108L73.6686 140.264C72.8196 139.997 72.3102 139.221 72.4557 138.42L73.426 133.375C73.4746 133.084 73.6686 132.817 73.9355 132.647C74.2266 132.453 74.6147 132.38 74.9785 132.477C75.488 132.599 76.1672 132.744 76.9434 132.914C78.6172 133.278 80.5093 133.666 81.5766 133.981H81.6009C82.3772 134.224 82.8866 134.903 82.8866 135.631C82.8381 136.844 82.1831 138.978 81.4311 141.234C81.1885 141.962 80.3395 142.35 79.5147 142.108ZM74.8815 132.962C74.6389 132.914 74.4206 132.938 74.2266 133.059C74.081 133.156 73.984 133.302 73.9355 133.472L72.9652 138.517C72.8681 139.051 73.232 139.609 73.8384 139.779L79.6603 141.598C80.2182 141.768 80.8004 141.525 80.9702 141.04C81.6979 138.833 82.3772 136.747 82.4014 135.582C82.4257 135.073 82.0133 134.563 81.4554 134.418C80.388 134.103 78.4231 133.69 76.8464 133.351C76.0701 133.229 75.3667 133.084 74.8815 132.962Z" fill="white"/>
<path opacity="0.6" d="M75.3424 133.642C76.6038 133.933 79.345 134.466 80.6064 134.83C81.14 134.976 81.5039 135.461 81.5039 135.946C81.4797 136.916 80.8975 138.712 80.3395 140.361C80.1697 140.846 79.5875 141.113 79.0539 140.943L74.3964 139.488C73.8142 139.318 73.4746 138.76 73.5716 138.251L74.3479 134.2C74.4449 133.787 74.8815 133.545 75.3424 133.642Z" fill="white"/>
<g opacity="0.6">
<path d="M86.6224 138.736C86.113 138.566 85.6764 138.857 85.6764 139.391L85.6278 140.604C85.6036 141.138 86.016 141.695 86.5254 141.865L115.028 150.525C115.538 150.671 116.071 150.38 116.217 149.87L116.314 149.555C116.459 149.046 116.168 148.488 115.659 148.318L86.6224 138.736Z" fill="white"/>
</g>
</g>
<path d="M63.4318 147.08L37.573 154.649C35.2928 155.328 32.867 153.994 32.1878 151.714L13.3153 87.1396C12.6361 84.8594 13.9702 82.4336 16.2505 81.7544L42.1092 74.186C44.3895 73.5067 46.8152 74.8409 47.4944 77.1211L66.367 141.695C67.0462 144 65.712 146.425 63.4318 147.08Z" fill="#ED9996"/>
<path d="M29.5044 90.6544C30.1727 87.9079 28.4879 85.1397 25.7414 84.4714C22.9949 83.8031 20.2266 85.4879 19.5584 88.2344C18.8901 90.981 20.5749 93.7492 23.3214 94.4174C26.0679 95.0857 28.8362 93.4009 29.5044 90.6544Z" fill="#CBB889"/>
<path d="M44.6655 85.4635C44.8877 82.6455 42.7833 80.1809 39.9653 79.9587C37.1472 79.7365 34.6826 81.8409 34.4604 84.6589C34.2382 87.477 36.3426 89.9416 39.1606 90.1637C41.9787 90.3859 44.4433 88.2816 44.6655 85.4635Z" fill="#CBB889"/>
<path d="M30.5867 107.787C33.2023 106.715 34.4538 103.725 33.3818 101.11C32.3099 98.4941 29.3206 97.2427 26.7049 98.3146C24.0893 99.3865 22.8378 102.376 23.9098 104.992C24.9817 107.607 27.9711 108.859 30.5867 107.787Z" fill="#CBB889"/>
<path d="M48.6878 99.6892C49.2659 96.922 47.4913 94.2102 44.7242 93.6321C41.957 93.054 39.2452 94.8286 38.6671 97.5958C38.089 100.363 39.8636 103.075 42.6308 103.653C45.3979 104.231 48.1098 102.456 48.6878 99.6892Z" fill="#CBB889"/>
<path d="M34.4968 122.117C37.2134 121.336 38.7819 118.5 38.0003 115.783C37.2187 113.067 34.3829 111.498 31.6663 112.28C28.9498 113.061 27.3812 115.897 28.1628 118.614C28.9444 121.33 31.7802 122.899 34.4968 122.117Z" fill="#CBB889"/>
<path d="M50.0155 117.558C52.6428 116.515 53.9267 113.539 52.8834 110.912C51.84 108.285 48.8644 107.001 46.2371 108.044C43.6099 109.087 42.3259 112.063 43.3693 114.69C44.4127 117.317 47.3883 118.601 50.0155 117.558Z" fill="#CBB889"/>
<path d="M42.1094 129.372C42.9099 132.089 41.3574 134.927 38.6405 135.728C35.9236 136.528 33.0855 134.976 32.285 132.259C31.4845 129.542 33.037 126.704 35.7538 125.903C38.4707 125.103 41.3331 126.655 42.1094 129.372Z" fill="#CBB889"/>
<path d="M52.2248 131.531C55.0516 131.531 57.3432 129.24 57.3432 126.413C57.3432 123.586 55.0516 121.294 52.2248 121.294C49.398 121.294 47.1064 123.586 47.1064 126.413C47.1064 129.24 49.398 131.531 52.2248 131.531Z" fill="url(#paint7_linear_5_369)"/>
<path d="M41.4786 149.482C44.3054 149.482 46.597 147.19 46.597 144.363C46.597 141.537 44.3054 139.245 41.4786 139.245C38.6518 139.245 36.3602 141.537 36.3602 144.363C36.3602 147.19 38.6518 149.482 41.4786 149.482Z" fill="url(#paint8_linear_5_369)"/>
<path d="M56.4942 145.091C59.321 145.091 61.6126 142.8 61.6126 139.973C61.6126 137.146 59.321 134.855 56.4942 134.855C53.6674 134.855 51.3759 137.146 51.3759 139.973C51.3759 142.8 53.6674 145.091 56.4942 145.091Z" fill="url(#paint9_linear_5_369)"/>
<path d="M91.2797 140.652H62.413C58.1437 140.652 54.6748 137.183 54.6748 132.914V107.953C54.6748 103.683 58.1437 100.214 62.413 100.214H91.2797C95.5491 100.214 99.0179 103.683 99.0179 107.953V132.914C98.9937 137.183 95.5491 140.652 91.2797 140.652ZM62.413 103.053C59.7204 103.053 57.513 105.236 57.513 107.953V132.914C57.513 135.606 59.6962 137.814 62.413 137.814H91.2797C93.9723 137.814 96.1798 135.631 96.1798 132.914V107.953C96.1798 105.26 93.9966 103.053 91.2797 103.053H62.413Z" fill="url(#paint10_linear_5_369)"/>
<path d="M109.061 171.823H44.4624C38.1797 171.823 33.0613 166.681 33.0613 160.422V127.723C33.0613 121.44 38.2039 116.321 44.4624 116.321H109.037C115.295 116.321 120.438 121.44 120.438 127.723V160.422C120.462 166.705 115.319 171.823 109.061 171.823Z" fill="url(#paint11_linear_5_369)"/>
<path d="M77.4046 160.301C86.4075 160.301 93.7058 153.002 93.7058 144C93.7058 134.997 86.4075 127.698 77.4046 127.698C68.4017 127.698 61.1034 134.997 61.1034 144C61.1034 153.002 68.4017 160.301 77.4046 160.301Z" fill="url(#paint12_linear_5_369)"/>
<path d="M86.7192 139.512H81.3097V134.855C81.3097 133.763 80.4122 132.865 79.3206 132.865H75.3423C74.2507 132.865 73.3532 133.763 73.3532 134.855V139.512H67.9437C66.8521 139.512 65.9546 140.41 65.9546 141.501V146.11C65.9546 147.202 66.8521 148.099 67.9437 148.099H73.3532V152.757C73.3532 153.848 74.2507 154.746 75.3423 154.746H79.3206C80.4122 154.746 81.3097 153.848 81.3097 152.757V148.099H86.7192C87.8108 148.099 88.7084 147.202 88.7084 146.11V141.501C88.7084 140.385 87.8108 139.512 86.7192 139.512Z" fill="white"/>
<path d="M82.3284 369.936C117.469 369.936 145.956 341.449 145.956 306.308C145.956 271.168 117.469 242.68 82.3284 242.68C47.1876 242.68 18.7003 271.168 18.7003 306.308C18.7003 341.449 47.1876 369.936 82.3284 369.936Z" fill="#D3BE8A"/>
<path d="M123.149 347.698C145.629 325.218 145.629 288.771 123.149 266.292C100.669 243.812 64.2224 243.812 41.7427 266.292C19.2629 288.771 19.2629 325.218 41.7426 347.698C64.2224 370.178 100.669 370.178 123.149 347.698Z" fill="white"/>
<path d="M135.574 311.403C134.41 337.892 110.274 358.366 81.6979 357.104C53.098 355.843 30.8537 333.356 32.0181 306.866C33.1824 280.377 57.3189 259.903 85.8945 261.165C114.47 262.426 136.739 284.913 135.574 311.403Z" fill="url(#paint13_linear_5_369)"/>
<g opacity="0.68">
<path d="M97.0771 309.365C97.0771 313.61 96.9073 317.831 96.5919 322.076C96.2523 326.297 95.7429 330.518 94.9909 334.69C94.6028 336.776 94.1662 338.862 93.6568 340.9C93.1231 342.962 92.5166 344.999 91.7889 346.989C91.0369 348.978 90.1636 350.943 88.9993 352.738C88.4171 353.635 87.7379 354.484 86.9131 355.188C86.5007 355.527 86.0398 355.843 85.5304 356.061C85.021 356.279 84.4873 356.425 83.9294 356.449C83.3715 356.473 82.8135 356.352 82.3041 356.158C81.7947 355.964 81.3338 355.649 80.8972 355.333C80.0482 354.654 79.3689 353.805 78.7625 352.932C77.5739 351.161 76.6763 349.196 75.9243 347.207C75.1723 345.218 74.5659 343.18 74.0322 341.118C73.4986 339.056 73.0619 336.994 72.6738 334.908C71.9218 330.736 71.3881 326.515 71.0485 322.294C70.7089 318.073 70.5149 313.828 70.4906 309.583C70.4906 307.473 70.5391 305.338 70.6119 303.228C70.6847 301.117 70.806 299.007 70.9758 296.872C71.2911 292.651 71.752 288.43 72.4555 284.258C72.7951 282.172 73.2075 280.086 73.7169 278.024C74.202 275.962 74.7842 273.924 75.4877 271.911C76.2154 269.922 77.0402 267.933 78.2046 266.162C78.7867 265.264 79.466 264.415 80.2907 263.736C80.7031 263.396 81.164 263.105 81.6734 262.911C82.1828 262.717 82.7165 262.62 83.2744 262.62C83.8081 262.644 84.366 262.766 84.8512 262.984C85.3363 263.202 85.7972 263.493 86.2096 263.833C87.0344 264.512 87.7379 265.337 88.3443 266.21C89.5572 267.957 90.479 269.897 91.2795 271.862C92.08 273.827 92.7107 275.865 93.2929 277.903C93.8508 279.94 94.336 282.002 94.7484 284.088C95.5731 288.236 96.1553 292.457 96.5192 296.678C96.883 300.875 97.0771 305.12 97.0771 309.365ZM96.3736 309.365C96.3736 305.144 96.2281 300.923 95.8642 296.727C95.5246 292.53 94.9909 288.333 94.2147 284.185C93.8266 282.123 93.3657 280.061 92.832 278.024C92.2983 275.986 91.6676 273.973 90.9156 272.008C90.1394 270.043 89.2661 268.127 88.0775 266.38C87.4953 265.507 86.8161 264.706 86.0156 264.027C85.6032 263.687 85.1908 263.396 84.7056 263.202C84.2447 262.984 83.7353 262.863 83.2259 262.838C82.7165 262.814 82.2071 262.936 81.7219 263.13C81.2368 263.324 80.8001 263.615 80.412 263.93C79.6115 264.585 78.9566 265.434 78.3986 266.307C77.2828 268.078 76.4823 270.043 75.7788 272.032C75.0996 274.021 74.5659 276.059 74.0807 278.121C73.6198 280.183 73.2317 282.245 72.9164 284.331C71.6307 292.676 71.2183 301.141 71.2426 309.559C71.2183 313.78 71.3639 318.001 71.6792 322.197C71.9946 326.394 72.4797 330.59 73.2075 334.763C73.5713 336.849 73.9837 338.911 74.4931 340.948C75.0025 342.986 75.5847 345.024 76.3125 346.989C77.0402 348.953 77.8892 350.894 79.0536 352.641C79.6358 353.514 80.2907 354.314 81.0912 354.969C81.4794 355.285 81.916 355.576 82.4012 355.77C82.862 355.964 83.3715 356.061 83.8809 356.061C84.3903 356.037 84.8754 355.915 85.3363 355.697C85.7972 355.479 86.2096 355.188 86.622 354.848C87.3983 354.169 88.0532 353.344 88.6111 352.471C89.7513 350.724 90.576 348.784 91.3038 346.795C92.0315 344.805 92.6137 342.792 93.0988 340.754C93.6082 338.717 94.0206 336.631 94.3845 334.569C95.1122 330.421 95.5731 326.224 95.8885 322.003C96.2281 317.807 96.3736 313.586 96.3736 309.365Z" fill="white"/>
<path d="M118.448 309.365C118.424 314.823 117.72 320.281 116.265 325.545C114.785 330.784 112.529 335.854 109.497 340.39C106.465 344.902 102.584 348.929 97.9504 351.84C95.6459 353.295 93.1473 354.46 90.5275 355.236C87.9077 356.012 85.1908 356.425 82.4497 356.449C79.7086 356.449 76.9917 356.036 74.3719 355.26C71.752 354.484 69.2535 353.32 66.949 351.864C62.3158 348.953 58.4345 344.951 55.378 340.415C52.3216 335.878 50.0656 330.833 48.5859 325.569C47.8581 322.949 47.3002 320.256 46.9364 317.539C46.5725 314.823 46.4027 312.106 46.3784 309.365C46.4027 306.624 46.5725 303.907 46.9364 301.19C47.3002 298.473 47.8581 295.805 48.5859 293.16C50.0899 287.921 52.3458 282.851 55.4023 278.339C58.4588 273.827 62.34 269.8 66.9732 266.914C69.2777 265.482 71.8005 264.318 74.3961 263.542C77.0159 262.766 79.7328 262.353 82.4497 262.353C85.1666 262.353 87.9077 262.766 90.5033 263.566C93.1231 264.342 95.6216 265.507 97.9261 266.938C102.559 269.849 106.416 273.851 109.473 278.363C112.529 282.899 114.761 287.945 116.265 293.185C117.72 298.449 118.424 303.907 118.448 309.365ZM117.648 309.365C117.648 303.979 116.968 298.57 115.562 293.379C114.13 288.188 111.996 283.166 109.036 278.654C107.556 276.398 105.883 274.288 103.991 272.347C102.098 270.431 100.037 268.684 97.7563 267.229C95.4761 265.798 93.0261 264.633 90.4305 263.833C87.8592 263.057 85.1666 262.644 82.4497 262.62C79.7571 262.62 77.0645 263.057 74.4689 263.833C71.8976 264.609 69.4233 265.773 67.143 267.229C64.8628 268.684 62.8009 270.431 60.9088 272.347C59.041 274.288 57.3429 276.398 55.8875 278.654C52.928 283.166 50.7933 288.188 49.3621 293.379C48.6587 295.974 48.1492 298.618 47.7854 301.287C47.4458 303.955 47.276 306.648 47.2517 309.34C47.2517 312.033 47.4215 314.726 47.7854 317.394C48.125 320.062 48.6587 322.706 49.3621 325.302C50.7933 330.493 52.928 335.49 55.8875 340.002C57.3672 342.258 59.041 344.369 60.9088 346.309C62.8009 348.226 64.8628 349.972 67.143 351.428C69.4233 352.859 71.8733 354.023 74.4446 354.799C77.016 355.6 79.7086 356.012 82.4012 356.012C85.0938 356.012 87.7864 355.576 90.3577 354.799C92.929 354.023 95.4033 352.859 97.6835 351.428C99.9638 349.972 102.05 348.25 103.918 346.309C105.81 344.393 107.484 342.258 108.963 340.002C111.923 335.49 114.082 330.493 115.513 325.302C116.968 320.135 117.623 314.75 117.648 309.365Z" fill="white"/>
<path d="M40.4596 290.735L51.2543 290.638L62.049 290.589C65.6392 290.565 69.2536 290.565 72.8437 290.565L83.6384 290.541L105.252 290.589L116.047 290.638L126.841 290.735C126.866 290.735 126.866 290.759 126.866 290.759C126.866 290.783 126.841 290.783 126.841 290.783L116.047 290.88L105.252 290.929L83.6384 290.977L72.8437 290.953C69.2536 290.953 65.6392 290.953 62.049 290.929L51.2543 290.88L40.4596 290.783C40.4354 290.783 40.4111 290.759 40.4111 290.735C40.4111 290.759 40.4354 290.735 40.4596 290.735Z" fill="white"/>
<path d="M53.0007 272.638C55.5477 272.59 58.119 272.566 60.6661 272.541L68.3316 272.493C70.8786 272.469 73.4499 272.469 75.997 272.469L83.6625 272.444L91.3279 272.469C93.875 272.469 96.4463 272.469 98.9934 272.493L106.659 272.541C109.206 272.566 111.777 272.59 114.324 272.638C114.349 272.638 114.349 272.663 114.349 272.663C114.349 272.687 114.324 272.687 114.324 272.687C111.777 272.736 109.206 272.76 106.659 272.784L98.9934 272.833C96.4463 272.857 93.875 272.857 91.3279 272.857L83.6625 272.881L75.997 272.857C73.4499 272.857 70.8786 272.857 68.3316 272.833L60.6661 272.784C58.119 272.76 55.5477 272.736 53.0007 272.687C52.9764 272.687 52.9521 272.663 52.9521 272.638C52.9279 272.663 52.9521 272.638 53.0007 272.638Z" fill="white"/>
<path d="M36.6998 308.831L48.4405 308.734L60.1812 308.685L83.6627 308.637L107.144 308.685L118.885 308.734L130.626 308.831C130.65 308.831 130.65 308.855 130.65 308.855C130.65 308.879 130.626 308.879 130.626 308.879L118.885 308.976L107.144 309.025L83.6627 309.122L60.1812 309.073L48.4405 309.025L36.6998 308.928C36.6755 308.928 36.6512 308.904 36.6512 308.879C36.6512 308.855 36.6755 308.831 36.6998 308.831Z" fill="white"/>
<path d="M40.4596 326.927L51.2543 326.83L62.049 326.782C65.6392 326.757 69.2536 326.757 72.8437 326.757L83.6384 326.733L105.252 326.782L116.047 326.83L126.841 326.927C126.866 326.927 126.866 326.951 126.866 326.951C126.866 326.976 126.841 326.976 126.841 326.976L116.047 327.073L105.252 327.121L83.6384 327.17L72.8437 327.145C69.2536 327.145 65.6392 327.145 62.049 327.121L51.2543 327.073L40.4596 326.976C40.4354 326.976 40.4111 326.951 40.4111 326.927C40.4111 326.951 40.4354 326.927 40.4596 326.927Z" fill="white"/>
<path d="M115.901 345.266H54.5291C54.4321 345.266 54.3351 345.193 54.3351 345.072C54.3351 344.975 54.4079 344.878 54.5291 344.878H115.877C115.974 344.878 116.071 344.951 116.071 345.072C116.071 345.169 115.998 345.266 115.901 345.266Z" fill="white"/>
</g>
<path d="M108.624 316.763L104.816 306.624C104.743 306.405 104.573 306.235 104.379 306.138L93.3902 300.802C93.0991 300.656 92.7352 300.68 92.4684 300.899C92.2015 301.093 92.0802 301.432 92.1288 301.748L93.8753 311.233L108.624 316.763Z" fill="url(#paint14_linear_5_369)"/>
<path d="M38.9801 276.617C38.9801 276.617 139.601 328.722 142.197 332.482C144.792 336.242 148.164 344.636 149.959 346.042C151.779 347.449 157.285 353.441 152.142 356.716C147 359.991 62.971 317.54 56.7125 308.031C50.4297 298.522 33.0854 276.374 33.0854 276.374C33.0854 276.374 33.4493 271.741 38.9801 276.617Z" fill="url(#paint15_linear_5_369)"/>
<path d="M67.8468 292.02L60.5694 275.161C60.1085 274.094 59.963 272.929 60.1328 271.813L62.1462 258.569C62.316 257.526 61.7581 256.483 60.812 256.022C57.7555 254.542 51.3272 251.583 50.8178 252.165C50.1629 252.965 37.0394 275.549 37.0394 275.549L67.8468 292.02Z" fill="url(#paint16_linear_5_369)"/>
<path d="M37.5244 280.182L33.1338 283.7C32.3818 284.282 31.9937 285.155 31.9937 286.101C31.9937 287.047 32.4545 287.921 33.2065 288.503L37.6942 291.972C38.3977 292.53 39.2952 292.772 40.1685 292.578L55.2083 289.619L37.5244 280.182Z" fill="url(#paint17_linear_5_369)"/>
<path d="M72.6983 330.275C72.6983 330.275 72.8438 335.708 77.2587 339.129C81.6736 342.549 88.0777 345.533 90.2851 344.757C92.5168 343.98 103.651 334.107 93.3659 328.819C83.1291 323.555 68.5987 320.693 72.6983 330.275Z" fill="url(#paint18_linear_5_369)"/>
<path d="M76.9189 314.459L100.74 326.976L65.6633 336C65.1782 336.121 64.6445 336.048 64.2321 335.757L50.8661 327.097C50.2839 326.733 49.9686 326.054 50.0413 325.375C50.1141 324.696 50.575 324.113 51.23 323.871L76.9189 314.459Z" fill="url(#paint19_linear_5_369)"/>
<path d="M88.9024 344.199C88.951 344.247 88.9995 344.296 89.048 344.32C89.3633 344.49 89.8728 344.417 90.552 344.102C92.7594 343.059 96.1798 339.808 96.8347 335.806C97.0288 334.617 96.6164 333.453 95.7189 332.652C94.9911 331.997 93.8268 331.464 92.4198 332.628C90.2366 334.447 88.4415 341.118 88.6356 343.35C88.6841 343.762 88.7569 344.029 88.9024 344.199ZM95.6946 333.331C96.2525 333.986 96.5194 334.884 96.3738 335.757C95.7431 339.517 92.4198 342.719 90.3579 343.689C89.7515 343.981 89.4119 344.005 89.3148 343.932C89.2906 343.932 89.1693 343.835 89.145 343.35C88.951 341.045 90.8431 334.641 92.7594 333.04C93.6812 332.288 94.5545 332.288 95.4278 333.065C95.5005 333.137 95.5976 333.234 95.6946 333.331Z" fill="url(#paint20_linear_5_369)"/>
<path d="M47.5429 257.429L49.7261 259.103L41.0175 274.579L38.3007 273.342L47.5429 257.429Z" fill="url(#paint21_linear_5_369)"/>
<path d="M70.3695 301.82C70.9274 301.092 71.9463 300.971 72.674 301.529L72.7468 301.602C73.4745 302.16 73.5958 303.179 73.0379 303.906L72.3829 304.755C71.825 305.483 70.8061 305.604 70.0784 305.046L70.0056 304.974C69.2779 304.416 69.1566 303.397 69.7145 302.669L70.3695 301.82Z" fill="url(#paint22_linear_5_369)"/>
<path d="M75.6333 305.289C76.1912 304.562 77.21 304.44 77.9378 304.998L78.0106 305.071C78.7383 305.629 78.8596 306.648 78.3016 307.376L77.6467 308.225C77.0888 308.952 76.0699 309.074 75.3422 308.516L75.2694 308.443C74.5417 307.885 74.4204 306.866 74.9783 306.138L75.6333 305.289Z" fill="url(#paint23_linear_5_369)"/>
<path d="M81.4795 308.006C82.0374 307.278 83.0562 307.157 83.784 307.715L83.8567 307.788C84.5845 308.346 84.7058 309.365 84.1478 310.092L83.4929 310.941C82.9349 311.669 81.9161 311.79 81.1884 311.232L81.1156 311.16C80.3879 310.602 80.2666 309.583 80.8245 308.855L81.4795 308.006Z" fill="url(#paint24_linear_5_369)"/>
<path d="M86.6708 310.772C87.2287 310.044 88.2475 309.923 88.9753 310.481L89.048 310.553C89.7758 311.111 89.897 312.13 89.3391 312.858L88.6842 313.707C88.1262 314.435 87.1074 314.556 86.3797 313.998L86.3069 313.925C85.5792 313.367 85.4579 312.348 86.0158 311.621L86.6708 310.772Z" fill="url(#paint25_linear_5_369)"/>
<path d="M92.6136 314.168C93.1716 313.44 94.1904 313.319 94.9181 313.877L94.9909 313.949C95.7186 314.507 95.8399 315.526 95.282 316.254L94.627 317.103C94.0691 317.831 93.0503 317.952 92.3225 317.394L92.2498 317.321C91.522 316.763 91.4008 315.745 91.9587 315.017L92.6136 314.168Z" fill="url(#paint26_linear_5_369)"/>
<path d="M98.1687 317.248C98.7266 316.52 99.7454 316.399 100.473 316.957L100.546 317.03C101.274 317.588 101.395 318.606 100.837 319.334L100.182 320.183C99.6242 320.911 98.6053 321.032 97.8776 320.474L97.8048 320.402C97.0771 319.844 96.9558 318.825 97.5137 318.097L98.1687 317.248Z" fill="url(#paint27_linear_5_369)"/>
<path d="M104.015 319.941C104.573 319.213 105.592 319.092 106.319 319.65L106.392 319.723C107.12 320.281 107.241 321.299 106.683 322.027L106.028 322.876C105.47 323.604 104.452 323.725 103.724 323.167L103.651 323.095C102.923 322.537 102.802 321.518 103.36 320.79L104.015 319.941Z" fill="url(#paint28_linear_5_369)"/>
<path d="M108.891 323.119C109.449 322.391 110.468 322.27 111.195 322.828L111.268 322.9C111.996 323.458 112.117 324.477 111.559 325.205L110.904 326.054C110.346 326.782 109.327 326.903 108.6 326.345L108.527 326.272C107.799 325.714 107.678 324.695 108.236 323.968L108.891 323.119Z" fill="url(#paint29_linear_5_369)"/>
<path d="M114.47 326.199C115.028 325.472 116.047 325.35 116.775 325.908L116.847 325.981C117.575 326.539 117.696 327.558 117.138 328.286L116.483 329.135C115.926 329.862 114.907 329.984 114.179 329.426L114.106 329.353C113.378 328.795 113.257 327.776 113.815 327.048L114.47 326.199Z" fill="url(#paint30_linear_5_369)"/>
<path d="M120.316 328.892C120.874 328.164 121.893 328.043 122.621 328.601L122.694 328.674C123.421 329.232 123.543 330.251 122.985 330.978L122.33 331.827C121.772 332.555 120.753 332.676 120.025 332.118L119.953 332.046C119.225 331.488 119.104 330.469 119.661 329.741L120.316 328.892Z" fill="url(#paint31_linear_5_369)"/>
<path d="M125.192 332.07C125.75 331.342 126.769 331.221 127.497 331.779L127.57 331.851C128.297 332.409 128.419 333.428 127.861 334.156L127.206 335.005C126.648 335.733 125.629 335.854 124.901 335.296L124.828 335.223C124.101 334.665 123.979 333.647 124.537 332.919L125.192 332.07Z" fill="url(#paint32_linear_5_369)"/>
<path d="M146.224 339.978L135.623 335.66C134.823 335.345 133.901 335.636 133.44 336.339C132.882 337.188 132.3 338.207 132.542 338.256C132.955 338.377 149.304 345.484 149.304 345.484L146.224 339.978Z" fill="url(#paint33_linear_5_369)"/>
<path opacity="0.68" d="M151.973 332.846C152.045 329.644 152.846 326.466 154.326 323.507C157.406 317.346 161.069 312.13 157.673 305.144C155.563 300.778 152.239 296.945 151.051 292.239C149.717 286.926 151.39 281.08 154.932 276.932C158.474 272.784 163.762 270.261 169.171 269.534C164.684 271.304 161.166 275.331 159.978 280.013C157.018 291.754 170.433 299.128 166.818 311.621C165.217 317.152 163.155 322.876 163.616 328.722C163.907 332.385 170.505 353.126 158.789 348.08C156.848 347.255 155.49 345.46 154.495 343.592C152.725 340.221 151.876 336.533 151.973 332.846Z" fill="white"/>
<path d="M462.642 368.384C497.555 368.384 525.857 340.081 525.857 305.168C525.857 270.255 497.555 241.952 462.642 241.952C427.729 241.952 399.426 270.255 399.426 305.168C399.426 340.081 427.729 368.384 462.642 368.384Z" fill="#D3BE8A"/>
<path d="M503.206 346.312C525.543 323.974 525.543 287.758 503.206 265.42C480.868 243.082 444.652 243.082 422.314 265.42C399.976 287.758 399.976 323.974 422.314 346.312C444.652 368.649 480.868 368.649 503.206 346.312Z" fill="white"/>
<path d="M497.015 349.875H428.075C426.474 349.875 425.164 348.565 425.164 346.964V283.87C425.164 282.269 426.474 280.959 428.075 280.959H497.015C498.616 280.959 499.926 282.269 499.926 283.87V346.964C499.926 348.565 498.616 349.875 497.015 349.875Z" fill="url(#paint34_linear_5_369)"/>
<path d="M419.802 292.214L463.854 231.473L503.758 293.621L419.802 292.214Z" fill="url(#paint35_linear_5_369)"/>
<path d="M487.724 344.223H479.331C478.288 344.223 477.439 343.374 477.439 342.331C477.439 341.288 478.288 340.439 479.331 340.439H487.724C488.767 340.439 489.616 341.288 489.616 342.331C489.616 343.374 488.767 344.223 487.724 344.223Z" fill="#ED9996"/>
<path d="M493.813 348.905H485.42C484.376 348.905 483.527 348.056 483.527 347.012C483.527 345.969 484.376 345.12 485.42 345.12H493.813C494.856 345.12 495.705 345.969 495.705 347.012C495.705 348.056 494.856 348.905 493.813 348.905Z" fill="#ED9996"/>
<path d="M496.772 339.735H488.379C487.336 339.735 486.487 338.886 486.487 337.843C486.487 336.8 487.336 335.951 488.379 335.951H496.772C497.815 335.951 498.664 336.8 498.664 337.843C498.664 338.886 497.815 339.735 496.772 339.735Z" fill="#ED9996"/>
<path d="M490.683 335.175H482.29C481.247 335.175 480.398 334.326 480.398 333.283C480.398 332.24 481.247 331.391 482.29 331.391H490.683C491.726 331.391 492.575 332.24 492.575 333.283C492.575 334.326 491.726 335.175 490.683 335.175Z" fill="#ED9996"/>
<path d="M493.813 325.569H485.42C484.376 325.569 483.527 324.72 483.527 323.677C483.527 322.634 484.376 321.785 485.42 321.785H493.813C494.856 321.785 495.705 322.634 495.705 323.677C495.705 324.72 494.856 325.569 493.813 325.569Z" fill="#ED9996"/>
<path d="M495.632 316.448H487.239C486.196 316.448 485.347 315.599 485.347 314.556C485.347 313.513 486.196 312.664 487.239 312.664H495.632C496.675 312.664 497.524 313.513 497.524 314.556C497.524 315.599 496.675 316.448 495.632 316.448Z" fill="#ED9996"/>
<path d="M492.551 308.055H486.535C485.492 308.055 484.643 307.206 484.643 306.162C484.643 305.119 485.492 304.27 486.535 304.27H492.551C493.594 304.27 494.443 305.119 494.443 306.162C494.443 307.206 493.594 308.055 492.551 308.055Z" fill="#ED9996"/>
<path d="M498.034 303.349H489.641C488.598 303.349 487.749 302.5 487.749 301.457C487.749 300.413 488.598 299.564 489.641 299.564H498.034C499.077 299.564 499.926 300.413 499.926 301.457C499.926 302.5 499.077 303.349 498.034 303.349Z" fill="#ED9996"/>
<path d="M499.925 340.439H492.502C491.75 340.439 491.12 340.948 491.12 341.603V343.059C491.12 343.69 491.75 344.223 492.502 344.223H499.925V340.439Z" fill="#ED9996"/>
<path d="M499.926 326.927C499.853 326.927 499.756 326.903 499.683 326.903H490.296C489.544 326.903 488.913 327.412 488.913 328.067V329.523C488.913 330.153 489.544 330.687 490.296 330.687H499.683C499.756 330.687 499.853 330.687 499.926 330.663V326.927Z" fill="#ED9996"/>
<path d="M499.926 317.37C499.853 317.37 499.756 317.345 499.683 317.345H490.296C489.544 317.345 488.913 317.855 488.913 318.51V319.965C488.913 320.596 489.544 321.13 490.296 321.13H499.683C499.756 321.13 499.853 321.13 499.926 321.105V317.37Z" fill="#ED9996"/>
<path d="M499.925 308.273H492.502C491.75 308.273 491.12 308.782 491.12 309.437V310.893C491.12 311.524 491.75 312.057 492.502 312.057H499.925V308.273Z" fill="#ED9996"/>
<path d="M499.95 304.101H496.506C495.754 304.101 495.123 304.61 495.123 305.265V306.721C495.123 307.351 495.754 307.885 496.506 307.885H499.95V304.101Z" fill="#ED9996"/>
<path d="M499.829 296.12H491.023C490.271 296.12 489.641 296.532 489.641 297.018V298.158C489.641 298.643 490.271 299.055 491.023 299.055H499.829V296.12Z" fill="#ED9996"/>
<path d="M463.103 266.113C466.064 266.113 468.464 263.702 468.464 260.728C468.464 257.754 466.064 255.343 463.103 255.343C460.142 255.343 457.742 257.754 457.742 260.728C457.742 263.702 460.142 266.113 463.103 266.113Z" fill="url(#paint36_linear_5_369)"/>
<path d="M463.102 264.876C465.393 264.876 467.25 263.019 467.25 260.728C467.25 258.437 465.393 256.58 463.102 256.58C460.811 256.58 458.954 258.437 458.954 260.728C458.954 263.019 460.811 264.876 463.102 264.876Z" fill="url(#paint37_linear_5_369)"/>
<path d="M463.102 265.215C461.914 265.215 460.798 264.755 459.949 263.906C459.1 263.057 458.639 261.941 458.639 260.752C458.639 259.563 459.1 258.423 459.949 257.599C460.798 256.75 461.914 256.289 463.102 256.289C464.291 256.289 465.407 256.75 466.256 257.599C467.105 258.448 467.566 259.563 467.566 260.752C467.566 261.941 467.105 263.081 466.256 263.906C465.407 264.73 464.291 265.215 463.102 265.215ZM463.102 256.895C462.083 256.895 461.113 257.283 460.385 258.011C459.658 258.739 459.27 259.709 459.27 260.728C459.27 261.747 459.658 262.717 460.385 263.445C461.113 264.172 462.059 264.561 463.102 264.561C464.145 264.561 465.091 264.172 465.819 263.445C466.547 262.717 466.935 261.747 466.935 260.728C466.935 259.709 466.547 258.739 465.819 258.011C465.091 257.283 464.121 256.895 463.102 256.895Z" fill="url(#paint38_linear_5_369)"/>
<path d="M473.097 349.851H454.321V329.401C454.321 323.943 458.736 319.529 464.194 319.529C469.118 319.529 473.097 323.507 473.097 328.431V349.851Z" fill="url(#paint39_linear_5_369)"/>
<path d="M457.62 335.976C457.62 336.461 457.207 336.873 456.673 336.873C456.164 336.873 455.727 336.485 455.727 335.976C455.727 335.49 456.14 335.078 456.673 335.078C457.183 335.102 457.62 335.49 457.62 335.976Z" fill="url(#paint40_linear_5_369)"/>
<path d="M482.509 301.311H467.348V315.453H482.509V301.311Z" fill="url(#paint41_linear_5_369)"/>
<path d="M482.896 315.793H466.959V300.996H482.896V315.793ZM467.735 315.138H482.144V301.627H467.735V315.138V315.138Z" fill="url(#paint42_linear_5_369)"/>
<path d="M475.523 315.623H474.746L474.892 301.457H475.644L475.523 315.623Z" fill="url(#paint43_linear_5_369)"/>
<path d="M482.266 307.691L467.517 307.594L467.542 306.963L482.266 307.06V307.691Z" fill="url(#paint44_linear_5_369)"/>
<path d="M482.557 316.181H467.323C466.935 316.181 466.62 315.866 466.62 315.478C466.62 315.089 466.935 314.774 467.323 314.774H482.557C482.945 314.774 483.261 315.089 483.261 315.478C483.261 315.866 482.945 316.181 482.557 316.181Z" fill="url(#paint45_linear_5_369)"/>
<path d="M482.97 281.541H467.808V295.683H482.97V281.541Z" fill="url(#paint46_linear_5_369)"/>
<path d="M483.357 296.023H467.42V281.226H483.357V296.023ZM468.196 295.368H482.605V281.856H468.196V295.368Z" fill="url(#paint47_linear_5_369)"/>
<path d="M475.984 295.877L475.207 295.853L475.329 281.687H476.105L475.984 295.877Z" fill="url(#paint48_linear_5_369)"/>
<path d="M482.726 287.921L467.978 287.824V287.193L482.726 287.29V287.921Z" fill="url(#paint49_linear_5_369)"/>
<path d="M482.872 296.411H467.905C467.444 296.411 467.056 296.096 467.056 295.708C467.056 295.32 467.444 295.004 467.905 295.004H482.872C483.333 295.004 483.721 295.32 483.721 295.708C483.721 296.096 483.333 296.411 482.872 296.411Z" fill="url(#paint50_linear_5_369)"/>
<path d="M457.669 301.117H442.508V315.259H457.669V301.117Z" fill="url(#paint51_linear_5_369)"/>
<path d="M458.056 315.575H442.119V300.778H458.056V315.575ZM442.895 314.944H457.305V301.433H442.895V314.944Z" fill="url(#paint52_linear_5_369)"/>
<path d="M450.682 315.429H449.906L450.027 301.263H450.804L450.682 315.429Z" fill="url(#paint53_linear_5_369)"/>
<path d="M457.426 307.497L442.677 307.4V306.769L457.426 306.842V307.497Z" fill="url(#paint54_linear_5_369)"/>
<path d="M457.572 315.963H442.605C442.144 315.963 441.756 315.648 441.756 315.26C441.756 314.871 442.144 314.556 442.605 314.556H457.572C458.033 314.556 458.421 314.871 458.421 315.26C458.421 315.648 458.033 315.963 457.572 315.963Z" fill="url(#paint55_linear_5_369)"/>
<path d="M458.105 281.347H442.944V295.489H458.105V281.347Z" fill="url(#paint56_linear_5_369)"/>
<path d="M458.493 295.805H442.556V281.007H458.493V295.805ZM443.332 295.174H457.741V281.662H443.332V295.174Z" fill="url(#paint57_linear_5_369)"/>
<path d="M451.119 295.659H450.367L450.488 281.493H451.265L451.119 295.659Z" fill="url(#paint58_linear_5_369)"/>
<path d="M457.862 287.727L443.138 287.63V286.999L457.887 287.096L457.862 287.727Z" fill="url(#paint59_linear_5_369)"/>
<path d="M458.008 296.193H443.041C442.58 296.193 442.192 295.878 442.192 295.489C442.192 295.101 442.58 294.786 443.041 294.786H458.008C458.469 294.786 458.857 295.101 458.857 295.489C458.857 295.878 458.469 296.193 458.008 296.193Z" fill="url(#paint60_linear_5_369)"/>
<path d="M465.286 230.26L461.162 228.295C460.798 228.125 460.313 228.223 460.094 228.538L454.418 236.688L452.89 246.586L447.966 245.979L444.375 251.146L445.419 256.895L439.597 258.035L414.32 294.422C414.102 294.737 414.223 295.125 414.611 295.319L418.735 297.284C419.099 297.454 419.584 297.357 419.802 297.042L465.601 231.133C465.771 230.842 465.649 230.43 465.286 230.26Z" fill="url(#paint61_linear_5_369)"/>
<path d="M463.855 231.473L420.361 291.414C420.118 291.778 420.409 292.215 420.918 292.215L424.12 292.19C426.11 292.166 427.929 291.293 428.924 289.862L461.987 242.971C462.229 242.632 462.836 242.632 463.078 242.971L499.683 293.258C499.829 293.452 500.071 293.549 500.338 293.5C502.691 293.185 503.977 291.05 502.885 289.304L465.407 229.532C465.189 229.144 464.097 231.109 463.855 231.473Z" fill="url(#paint62_linear_5_369)"/>
<path d="M510.647 294.567L466.838 231.497L464.897 228.708C464.849 228.635 464.751 228.562 464.679 228.514L463.053 226.258C462.714 225.797 461.913 225.797 461.598 226.282L458.542 230.842L459.342 230.915C459.318 231.061 459.342 231.231 459.439 231.376L505.213 297.26C505.432 297.575 505.941 297.697 506.329 297.503L510.405 295.562C510.744 295.295 510.865 294.883 510.647 294.567Z" fill="url(#paint63_linear_5_369)"/>
<path d="M434.381 346.527C434.381 346.843 441.076 340.196 441.076 340.196L433.969 331.439L441.804 322.342L433.168 312.664L444.691 323.119L437.607 331.196C437.607 331.196 446.85 342.015 446.656 342.064C446.486 342.112 434.381 346.527 434.381 346.527Z" fill="#ED9996"/>
<path d="M475.959 266.889C475.231 266.452 462.666 267.399 462.666 267.399L463.976 276.18C463.976 276.18 448.936 277.854 449.033 277.66C449.154 277.441 467.323 279.042 467.323 279.042L465.14 269.606L475.959 266.889Z" fill="#ED9996"/>
<path d="M496.651 288.552C495.923 289.279 495.147 289.91 494.347 290.444C487.045 295.295 474.552 298.012 469.701 288.527C469.094 287.339 468.682 286.053 468.755 284.719C468.973 280.838 474.067 279.576 475.159 275.962C476.226 272.517 473.897 269.194 473.461 265.846C472.951 262.062 475.935 258.86 478.628 256.556C481.757 253.863 485.153 251.437 487.845 248.332C490.538 245.227 492.503 241.128 491.969 237.052C494.225 239.333 494.613 242.85 494.25 246.028C493.886 249.181 492.77 252.408 493.061 255.585C493.206 257.283 492.77 259.03 491.848 260.437C491.169 261.48 490.223 262.378 489.907 263.566C489.447 265.264 490.393 268.296 491.387 269.728C492.77 271.741 495.414 272.444 497.039 270.334C497.767 269.388 498.107 268.248 498.543 267.156C500.435 262.426 504.244 258.496 508.901 256.434C504.753 258.254 506.136 265.07 506.136 268.515C506.136 269.8 506.136 271.11 505.99 272.396C505.554 276.059 503.831 279.382 501.697 282.342C500.29 284.331 498.567 286.684 496.651 288.552Z" fill="url(#paint64_linear_5_369)"/>
<path d="M474.139 282.366C474.94 280.425 476.032 278.509 476.784 276.835C477.73 274.725 478.385 272.396 478.336 270.067C478.312 268.587 477.972 267.132 477.851 265.652C477.73 264.173 477.827 262.62 478.554 261.334C479.088 260.413 479.913 259.685 480.422 258.763C479.937 260 479.84 261.407 480.204 262.693C480.301 263.032 480.446 263.396 480.762 263.542C481.15 263.712 484.037 259.564 484.594 258.957C482.727 260.946 482.508 264.148 482.751 266.695C483.066 269.946 485.371 272.711 484.91 276.083C484.74 277.296 484.037 278.145 483.721 279.285C483.285 280.789 483.43 282.633 483.697 284.161C484.425 282.172 486.341 280.862 488.306 280.086C490.271 279.309 492.381 278.945 494.346 278.145C498.276 276.52 501.357 273.002 502.497 268.927C502.521 269.825 502.23 270.674 501.963 271.523C501.454 273.051 500.944 274.555 500.459 276.083C499.853 277.902 499.246 279.722 498.349 281.42C495.244 287.217 487.578 292.409 480.835 292.166C479.331 292.117 477.802 292.045 476.444 291.414C474.333 290.444 472.999 288.042 473.242 285.738C473.315 284.67 473.678 283.506 474.139 282.366Z" fill="url(#paint65_linear_5_369)"/>
<path d="M424.411 280.061C423.635 276.956 422.689 272.93 420.336 270.625C421.015 272.59 420.651 274.846 419.584 276.641C418.274 278.897 416.139 279.77 414.32 281.541C413.544 282.293 412.816 283.142 412.307 284.112C410.997 286.587 411.118 289.619 412.015 292.287C412.913 294.956 414.514 297.309 416.091 299.613C412.04 297.163 408.571 293.815 404.35 291.681C407.382 293.185 408.668 296.726 410.414 299.637C413.35 304.562 418.128 308.297 422.81 311.427C427.637 314.653 433.92 315.187 439.596 315.089C445.249 315.017 451.483 313.149 453.278 307.133C454.151 304.222 453.86 301.069 453.205 298.061C452.72 295.853 452.041 293.67 450.949 291.657C449.251 288.454 446.68 285.81 444.594 282.851C442.823 280.377 440.009 277.005 439.718 273.948C439.621 272.857 439.839 271.765 440.057 270.698C440.591 268.054 441.197 265.264 443.09 263.275C437.995 265.555 434.211 270.358 433.265 275.719C432.998 277.247 432.95 278.824 432.513 280.328C432.101 281.832 431.228 283.288 429.796 283.967C426.619 285.495 425.018 282.487 424.411 280.061Z" fill="url(#paint66_linear_5_369)"/>
<path d="M443.671 297.236C444.06 298.279 444.448 299.322 444.739 300.414C445.224 300.195 445.467 299.807 445.661 299.274C446.291 297.551 446.364 295.635 445.879 293.888C445.976 294.252 447.262 295.053 447.553 295.441C448.062 296.169 448.329 296.921 448.572 297.77C449.032 299.346 449.421 300.826 449.518 302.476C449.736 306.575 450.245 312.543 445.2 313.828C440.154 315.09 434.041 313.392 429.675 310.65C426.788 308.831 424.338 306.405 422.179 303.761C421.063 302.403 420.99 300.996 420.335 299.443C419.632 297.794 418.613 296.314 418.443 294.471C418.152 291.22 419.875 288.115 421.912 285.665C418.322 289.934 424.969 296.314 428.316 298.23C430.184 299.298 432.222 300.001 434.138 300.972C436.055 301.942 437.898 303.228 438.917 305.12C439.354 302.621 437.825 300.22 437.583 297.697C437.17 293.233 440.785 288.818 439.354 284.598C440.348 287.533 441.512 290.371 442.337 293.355C442.677 294.737 443.186 295.975 443.671 297.236Z" fill="url(#paint67_linear_5_369)"/>
<path d="M259.989 117.13C266.058 117.13 270.977 112.21 270.977 106.141C270.977 100.073 266.058 95.1527 259.989 95.1527C253.92 95.1527 249 100.073 249 106.141C249 112.21 253.92 117.13 259.989 117.13Z" fill="url(#paint68_linear_5_369)"/>
<path d="M259.989 116.742C265.843 116.742 270.589 111.996 270.589 106.141C270.589 100.287 265.843 95.5408 259.989 95.5408C254.134 95.5408 249.388 100.287 249.388 106.141C249.388 111.996 254.134 116.742 259.989 116.742Z" fill="url(#paint69_linear_5_369)"/>
<path opacity="0.71" d="M251.256 102.139C251.183 102.139 251.135 102.115 251.062 102.09C250.868 101.993 250.771 101.751 250.868 101.533C252.614 98.0637 256.107 95.929 259.989 95.929C260.619 95.929 261.226 95.9775 261.832 96.0988C262.05 96.1473 262.196 96.3656 262.172 96.5839C262.123 96.8023 261.929 96.9478 261.687 96.9236C261.129 96.8265 260.571 96.778 259.989 96.778C256.423 96.778 253.221 98.7671 251.595 101.945C251.547 102.066 251.401 102.139 251.256 102.139Z" fill="white"/>
<path opacity="0.71" d="M268.817 108.962C270.254 104.218 267.572 99.2075 262.828 97.771C258.083 96.3345 253.073 99.016 251.636 103.76C250.2 108.505 252.881 113.515 257.626 114.952C262.37 116.388 267.38 113.707 268.817 108.962Z" fill="white"/>
<path d="M259.358 113.055V112.085C258.339 112.036 257.32 111.794 256.617 111.478C256.35 111.357 256.229 111.09 256.301 110.799L256.544 109.877C256.641 109.538 257.005 109.368 257.32 109.513C258.024 109.804 258.897 110.047 259.843 110.047C260.813 110.047 261.565 109.707 261.565 109.028C261.565 108.422 261.007 108.058 259.625 107.67C257.684 107.136 256.277 106.287 256.277 104.565C256.277 103.012 257.417 101.848 259.382 101.533V100.562C259.382 100.247 259.649 100.004 259.94 100.004H260.522C260.838 100.004 261.08 100.271 261.08 100.562V101.436C262.026 101.484 262.705 101.63 263.263 101.824C263.554 101.921 263.7 102.212 263.627 102.503L263.409 103.352C263.312 103.667 262.972 103.861 262.657 103.74C262.147 103.546 261.444 103.352 260.522 103.352C259.358 103.352 259.018 103.837 259.018 104.274C259.018 104.807 259.722 105.171 261.226 105.632C263.385 106.287 264.282 107.185 264.282 108.786C264.282 110.265 263.191 111.6 261.056 111.939V113.031C261.056 113.346 260.789 113.589 260.498 113.589H259.916C259.6 113.613 259.358 113.37 259.358 113.055Z" fill="url(#paint70_linear_5_369)"/>
<path d="M291.257 112.23C301.814 112.23 310.372 103.672 310.372 93.1151C310.372 82.5581 301.814 74 291.257 74C280.7 74 272.142 82.5581 272.142 93.1151C272.142 103.672 280.7 112.23 291.257 112.23Z" fill="url(#paint71_linear_5_369)"/>
<path d="M291.257 111.6C301.465 111.6 309.741 103.324 309.741 93.1151C309.741 82.9065 301.465 74.6307 291.257 74.6307C281.048 74.6307 272.772 82.9065 272.772 93.1151C272.772 103.324 281.048 111.6 291.257 111.6Z" fill="url(#paint72_linear_5_369)"/>
<path opacity="0.71" d="M275.999 85.8619C275.926 85.8619 275.877 85.8377 275.805 85.8134C275.61 85.7164 275.513 85.4738 275.61 85.2555C278.594 79.3366 284.586 75.6494 291.208 75.6494C292.276 75.6494 293.319 75.7465 294.362 75.9405C294.58 75.989 294.726 76.2074 294.701 76.4257C294.653 76.644 294.459 76.7895 294.216 76.7653C293.222 76.5955 292.227 76.4984 291.208 76.4984C284.877 76.4984 279.201 80.0158 276.338 85.6436C276.314 85.7649 276.168 85.8619 275.999 85.8619Z" fill="white"/>
<path opacity="0.71" d="M291.645 109.174C300.286 109.174 307.292 102.169 307.292 93.5275C307.292 84.8863 300.286 77.8812 291.645 77.8812C283.004 77.8812 275.999 84.8863 275.999 93.5275C275.999 102.169 283.004 109.174 291.645 109.174Z" fill="white"/>
<path d="M290.117 105.147V103.449C288.346 103.376 286.599 102.964 285.338 102.406C284.901 102.212 284.659 101.702 284.804 101.241L285.241 99.6647C285.411 99.0825 286.041 98.7914 286.599 99.0097C287.836 99.5192 289.365 99.9315 291.014 99.9315C292.712 99.9315 293.998 99.3494 293.998 98.1607C293.998 97.0934 293.003 96.4627 290.65 95.8077C287.254 94.8859 284.828 93.4062 284.828 90.4225C284.828 87.7299 286.793 85.668 290.214 85.1343V83.4363C290.214 82.8784 290.65 82.4417 291.208 82.4417H292.203C292.761 82.4417 293.197 82.8784 293.197 83.4363V84.9645C294.847 85.0373 296.035 85.3041 296.982 85.6437C297.467 85.8135 297.734 86.3472 297.588 86.8324L297.2 88.2878C297.054 88.8458 296.448 89.1611 295.89 88.967C295.017 88.6274 293.78 88.2878 292.179 88.2878C290.141 88.2878 289.583 89.1368 289.583 89.8888C289.583 90.8106 290.796 91.4413 293.44 92.2661C297.2 93.4062 298.777 94.9587 298.777 97.7726C298.777 100.344 296.86 102.673 293.149 103.255V105.147C293.149 105.705 292.712 106.142 292.154 106.142H291.16C290.553 106.142 290.117 105.681 290.117 105.147Z" fill="url(#paint73_linear_5_369)"/>
<path d="M304.429 155.482C315.294 155.482 324.102 146.674 324.102 135.809C324.102 124.944 315.294 116.136 304.429 116.136C293.564 116.136 284.756 124.944 284.756 135.809C284.756 146.674 293.564 155.482 304.429 155.482Z" fill="url(#paint74_linear_5_369)"/>
<path d="M304.428 154.827C314.932 154.827 323.447 146.312 323.447 135.809C323.447 125.305 314.932 116.791 304.428 116.791C293.925 116.791 285.41 125.305 285.41 135.809C285.41 146.312 293.925 154.827 304.428 154.827Z" fill="url(#paint75_linear_5_369)"/>
<path opacity="0.71" d="M288.758 128.313C288.685 128.313 288.637 128.289 288.564 128.265C288.37 128.168 288.273 127.925 288.37 127.707C291.451 121.618 297.588 117.834 304.404 117.834C305.496 117.834 306.588 117.931 307.655 118.125C307.873 118.173 308.019 118.392 307.995 118.61C307.946 118.828 307.752 118.974 307.509 118.95C306.491 118.756 305.448 118.683 304.429 118.683C297.928 118.683 292.057 122.297 289.122 128.119C289.049 128.24 288.904 128.313 288.758 128.313Z" fill="white"/>
<path opacity="0.71" d="M320.508 139.93C322.549 131.286 317.196 122.624 308.552 120.582C299.907 118.541 291.245 123.894 289.204 132.538C287.163 141.183 292.516 149.845 301.16 151.886C309.804 153.927 318.466 148.574 320.508 139.93Z" fill="white"/>
<path d="M303.264 148.18V146.434C301.445 146.361 299.625 145.924 298.364 145.366C297.903 145.172 297.685 144.663 297.806 144.178L298.243 142.552C298.413 141.946 299.068 141.655 299.625 141.873C300.887 142.407 302.464 142.819 304.162 142.819C305.908 142.819 307.218 142.213 307.218 141C307.218 139.908 306.199 139.253 303.774 138.598C300.28 137.652 297.782 136.124 297.782 133.068C297.782 130.302 299.82 128.192 303.313 127.61V125.863C303.313 125.305 303.774 124.844 304.331 124.844H305.35C305.908 124.844 306.369 125.305 306.369 125.863V127.44C308.067 127.513 309.28 127.804 310.25 128.143C310.76 128.313 311.027 128.847 310.881 129.38L310.469 130.884C310.323 131.467 309.692 131.782 309.135 131.564C308.237 131.224 306.976 130.86 305.326 130.86C303.24 130.86 302.633 131.733 302.633 132.51C302.633 133.456 303.895 134.111 306.587 134.96C310.469 136.124 312.07 137.725 312.07 140.612C312.07 143.256 310.105 145.657 306.296 146.24V148.204C306.296 148.762 305.835 149.223 305.278 149.223H304.259C303.725 149.199 303.264 148.738 303.264 148.18Z" fill="url(#paint76_linear_5_369)"/>
<path d="M337.409 121.818C345.367 121.818 351.818 115.367 351.818 107.409C351.818 99.4512 345.367 93 337.409 93C329.451 93 323 99.4512 323 107.409C323 115.367 329.451 121.818 337.409 121.818Z" fill="url(#paint77_linear_5_369)"/>
<path d="M337.409 121.333C345.099 121.333 351.333 115.099 351.333 107.409C351.333 99.7191 345.099 93.4851 337.409 93.4851C329.719 93.4851 323.485 99.7191 323.485 107.409C323.485 115.099 329.719 121.333 337.409 121.333Z" fill="url(#paint78_linear_5_369)"/>
<path opacity="0.71" d="M325.911 102.048C325.838 102.048 325.79 102.024 325.717 102C325.523 101.903 325.426 101.66 325.523 101.442C327.803 96.9298 332.339 94.1401 337.385 94.1401C338.185 94.1401 338.986 94.2129 339.786 94.3585C340.005 94.407 340.15 94.6253 340.126 94.8436C340.077 95.0619 339.883 95.2075 339.641 95.1832C338.913 95.0377 338.161 94.9892 337.385 94.9892C332.655 94.9892 328.409 97.609 326.275 101.83C326.202 101.975 326.056 102.048 325.911 102.048Z" fill="white"/>
<path opacity="0.71" d="M339.595 119.357C346.022 118.314 350.386 112.258 349.343 105.831C348.3 99.4043 342.244 95.0397 335.817 96.0828C329.39 97.1258 325.026 103.182 326.069 109.609C327.112 116.036 333.167 120.4 339.595 119.357Z" fill="white"/>
<path d="M336.56 116.482V115.196C335.226 115.147 333.892 114.832 332.97 114.42C332.63 114.274 332.46 113.886 332.557 113.546L332.873 112.358C332.994 111.921 333.479 111.703 333.892 111.873C334.813 112.261 335.978 112.576 337.215 112.576C338.5 112.576 339.471 112.139 339.471 111.242C339.471 110.441 338.719 109.956 336.948 109.471C334.401 108.768 332.557 107.652 332.557 105.42C332.557 103.382 334.037 101.83 336.608 101.418V100.132C336.608 99.7195 336.948 99.3799 337.36 99.3799H338.112C338.525 99.3799 338.864 99.7195 338.864 100.132V101.272C340.102 101.321 340.999 101.539 341.727 101.781C342.091 101.903 342.285 102.315 342.188 102.679L341.897 103.795C341.775 104.231 341.314 104.45 340.902 104.304C340.247 104.062 339.325 103.795 338.112 103.795C336.584 103.795 336.147 104.425 336.147 104.983C336.147 105.687 337.069 106.172 339.058 106.778C341.897 107.628 343.085 108.816 343.085 110.927C343.085 112.867 341.654 114.614 338.84 115.05V116.482C338.84 116.894 338.5 117.234 338.088 117.234H337.336C336.875 117.234 336.56 116.894 336.56 116.482Z" fill="url(#paint79_linear_5_369)"/>
<path d="M466.474 182.715C500.972 182.715 528.938 154.749 528.938 120.251C528.938 85.7537 500.972 57.7877 466.474 57.7877C431.976 57.7877 404.01 85.7537 404.01 120.251C404.01 154.749 431.976 182.715 466.474 182.715Z" fill="#D3BE8A"/>
<path d="M506.555 160.897C528.628 138.825 528.628 103.038 506.555 80.9656C484.483 58.8932 448.696 58.8932 426.624 80.9656C404.552 103.038 404.552 138.825 426.624 160.897C448.696 182.969 484.483 182.969 506.555 160.897Z" fill="white"/>
<path d="M434.252 130.647C434.252 127.518 431.73 124.995 428.6 124.995H426.078C422.948 124.995 420.426 127.518 420.426 130.647V145.784C420.426 148.914 422.948 151.436 426.078 151.436H428.6C431.73 151.436 434.252 148.914 434.252 145.784V130.647Z" fill="url(#paint80_linear_5_369)"/>
<path d="M512.12 130.647C512.12 127.518 509.597 124.995 506.468 124.995H503.945C500.816 124.995 498.293 127.518 498.293 130.647V145.784C498.293 148.914 500.816 151.436 503.945 151.436H506.468C509.597 151.436 512.12 148.914 512.12 145.784V130.647Z" fill="url(#paint81_linear_5_369)"/>
<path d="M428.091 102.557C427.921 102.509 427.703 102.363 427.703 102.193V101.029C427.703 99.913 427.169 98.8942 426.175 98.3847C424.889 97.7298 423.409 97.7055 422.124 98.312L419.795 99.4278C418.655 99.9615 418 101.126 418 102.387V103.261C418 104.886 419.14 106.269 420.765 106.487L430.638 107.845L431.803 103.333L428.091 102.557Z" fill="url(#paint82_linear_5_369)"/>
<path d="M505.158 102.557C505.328 102.509 505.328 102.363 505.328 102.193V101.029C505.328 99.913 506.08 98.8942 507.074 98.3847C508.36 97.7298 509.937 97.7055 511.247 98.312L513.769 99.4278C514.91 99.9615 515.759 101.126 515.759 102.387V103.261C515.759 104.886 514.473 106.269 512.848 106.487L502.902 107.845L501.592 103.333L505.158 102.557Z" fill="url(#paint83_linear_5_369)"/>
<path d="M512.508 112.503C511.077 107.676 503.679 103.115 503.679 103.115C503.679 103.115 497.469 84 490.798 84C485.437 84 472.556 84 467.68 84C467.68 84 466.977 84 465.764 84C460.888 84 447.983 84 442.622 84C435.927 84 429.741 103.115 429.741 103.115C429.741 103.115 422.342 107.627 420.911 112.454C419.868 115.996 422.124 129.726 423.434 136.736C423.895 139.211 426.224 141.224 428.94 141.224H465.788H467.704H504.503C507.22 141.224 509.573 139.211 510.01 136.761C511.296 129.75 513.551 116.044 512.508 112.503Z" fill="url(#paint84_linear_5_369)"/>
<path d="M511.586 132.952C511.174 132.467 510.543 132.273 509.864 132.273H423.531C422.851 132.273 422.221 132.467 421.808 132.928C421.396 133.389 421.226 133.971 421.372 134.553L422.779 140.278C422.997 141.176 423.895 141.952 424.913 141.952H508.336C509.355 141.952 510.228 141.176 510.47 140.278L511.95 134.626C512.144 134.068 511.999 133.413 511.586 132.952Z" fill="#ED9996"/>
<path d="M443.374 124.098C443.374 124.098 441.215 117.646 438.522 117.088C435.805 116.53 424.356 114.152 424.113 116.142C423.871 118.131 421.566 124.971 428.407 125.602C435.272 126.257 444.49 126.791 443.374 124.098Z" fill="url(#paint85_linear_5_369)"/>
<path d="M489.997 124.098C489.997 124.098 492.156 117.645 494.849 117.087C497.566 116.53 509.015 114.152 509.258 116.141C509.501 118.131 511.805 124.971 504.964 125.602C498.124 126.257 488.906 126.791 489.997 124.098Z" fill="url(#paint86_linear_5_369)"/>
<path d="M488.469 118.567C488.251 118.228 487.863 117.961 487.45 117.961H445.921C445.509 117.961 445.096 118.228 444.878 118.591C444.66 118.955 444.66 119.44 444.854 119.804L447.183 124.243C448.056 125.869 449.754 126.936 451.597 126.936H482.114C484.079 126.936 485.874 125.747 486.674 123.952L488.542 119.732C488.712 119.368 488.688 118.907 488.469 118.567Z" fill="#ED9996"/>
<path d="M499.773 104.716C499.506 105.128 499.045 105.347 498.56 105.347H434.835C434.325 105.347 433.864 105.128 433.598 104.692C433.331 104.279 433.307 103.746 433.501 103.309C434.956 100.253 437.673 94.6248 439.177 91.4713C439.25 91.3257 439.322 91.1559 439.419 91.0104C440.147 89.846 441.457 89.094 442.84 89.094H491.04C492.447 89.094 493.757 89.8702 494.485 91.0589C494.582 91.2287 494.679 91.4227 494.751 91.5925L499.87 103.333C500.088 103.794 500.04 104.304 499.773 104.716Z" fill="#BDD0FB"/>
<path d="M494.485 91.0591C491.113 91.714 481.192 93.4121 466.224 93.4121C451.136 93.4121 442.282 91.6898 439.42 91.0348C440.147 89.8704 441.457 89.1184 442.84 89.1184H491.04C492.447 89.0942 493.757 89.8704 494.485 91.0591Z" fill="#91B3FA"/>
<path d="M442.355 115.341C442.306 115.341 442.233 115.317 442.185 115.268L433.937 107.457C433.84 107.36 433.84 107.215 433.937 107.118C434.034 107.021 434.18 107.021 434.277 107.118L442.524 114.929C442.621 115.026 442.621 115.171 442.524 115.268C442.476 115.317 442.403 115.341 442.355 115.341Z" fill="#ED9996"/>
<path d="M490.434 115.341C490.361 115.341 490.312 115.317 490.264 115.268C490.167 115.171 490.167 115.026 490.264 114.929L498.511 107.118C498.608 107.021 498.754 107.021 498.851 107.118C498.948 107.215 498.948 107.36 498.851 107.457L490.603 115.268C490.555 115.317 490.482 115.341 490.434 115.341Z" fill="#ED9996"/>
<path d="M306.531 281.98C306.749 285.669 303.493 288.707 299.37 289.141L228.841 294.132C224.5 294.349 221.028 291.745 220.811 288.056L213.867 190.617C213.65 186.928 216.905 183.889 221.028 183.455L291.558 178.464C295.898 178.247 299.37 180.851 299.587 184.54L306.531 281.98Z" fill="#EBF2F2"/>
<path d="M293.511 178.029H239.909L217.991 201.032V283.063C217.991 286.752 221.029 289.574 224.501 289.574H293.294C296.984 289.574 299.805 286.535 299.805 283.063V184.756C300.022 181.067 297.201 178.029 293.511 178.029Z" fill="white"/>
<path d="M239.909 178.029L217.991 201.032V201.683H233.833C237.522 201.683 240.56 198.645 240.56 195.173V178.246H239.909V178.029Z" fill="#CBB889"/>
<path d="M296.117 216.441H223.634V217.526H296.117V216.441Z" fill="#CBB889"/>
<path d="M240.776 229.244C240.776 233.151 237.738 236.189 233.832 236.189C229.926 236.189 226.887 233.151 226.887 229.244C226.887 225.338 229.926 222.3 233.832 222.3C237.738 222.517 240.776 225.555 240.776 229.244Z" fill="#CBB889"/>
<path d="M292.426 224.471H246.419V226.207H292.426V224.471Z" fill="#E1D8C1"/>
<path d="M292.426 228.81H246.419V230.546H292.426V228.81Z" fill="#E1D8C1"/>
<path d="M292.426 232.934H246.419V234.67H292.426V232.934Z" fill="#E1D8C1"/>
<path d="M292.426 242.049H246.419V243.785H292.426V242.049Z" fill="#E1D8C1"/>
<path d="M292.426 246.172H246.419V247.908H292.426V246.172Z" fill="#E1D8C1"/>
<path d="M292.426 250.512H246.419V252.248H292.426V250.512Z" fill="#E1D8C1"/>
<path d="M292.426 264.184H246.419V265.92H292.426V264.184Z" fill="#E1D8C1"/>
<path d="M292.426 268.525H246.419V270.261H292.426V268.525Z" fill="#E1D8C1"/>
<path d="M292.426 272.647H246.419V274.383H292.426V272.647Z" fill="#E1D8C1"/>
<path d="M227.756 227.075L233.616 234.454L240.126 222.518L233.616 231.199L227.756 227.075Z" fill="#494C7F"/>
<path d="M240.776 248.341C240.776 252.247 237.738 255.286 233.832 255.286C229.926 255.286 226.887 252.247 226.887 248.341C226.887 244.435 229.926 241.397 233.832 241.397C237.738 241.397 240.776 244.652 240.776 248.341Z" fill="#CBB889"/>
<path d="M227.756 245.954L233.616 253.549L240.126 241.397L233.616 250.294L227.756 245.954Z" fill="#494C7F"/>
<path d="M240.776 268.957C240.776 272.863 237.738 275.902 233.832 275.902C229.926 275.902 226.887 272.863 226.887 268.957C226.887 265.051 229.926 262.013 233.832 262.013C237.738 262.23 240.776 265.268 240.776 268.957Z" fill="#CBB889"/>
<path d="M227.756 266.788L233.616 274.167L240.126 262.231L233.616 270.912L227.756 266.788Z" fill="#494C7F"/>
<path d="M282.443 180.417C282.443 181.936 280.924 183.021 279.188 183.021H245.768C244.032 183.021 242.512 181.936 242.512 180.417V172.604C242.512 171.085 244.032 170 245.768 170H279.405C281.141 170 282.66 171.085 282.66 172.604V180.417H282.443Z" fill="#CBB889"/>
<defs>
<linearGradient id="paint0_linear_5_369" x1="16.4446" y1="225.896" x2="543.489" y2="191.476" gradientUnits="userSpaceOnUse">
<stop stop-color="#F3D0CF"/>
<stop offset="1" stop-color="#FAD8D7"/>
</linearGradient>
<linearGradient id="paint1_linear_5_369" x1="208.228" y1="238.949" x2="463.472" y2="63.6518" gradientUnits="userSpaceOnUse">
<stop stop-color="#E9B73D"/>
<stop offset="1" stop-color="#EE3B34"/>
</linearGradient>
<linearGradient id="paint2_linear_5_369" x1="91.8756" y1="75.6556" x2="124.478" y2="203.847" gradientUnits="userSpaceOnUse">
<stop stop-color="#09005D"/>
<stop offset="1" stop-color="#1A0F91"/>
</linearGradient>
<linearGradient id="paint3_linear_5_369" x1="131.365" y1="60.5237" x2="96.5162" y2="84.8983" gradientUnits="userSpaceOnUse">
<stop stop-color="#09005D"/>
<stop offset="1" stop-color="#1A0F91"/>
</linearGradient>
<linearGradient id="paint4_linear_5_369" x1="111.186" y1="56.9993" x2="123.998" y2="94.3463" gradientUnits="userSpaceOnUse">
<stop stop-color="#09005D"/>
<stop offset="1" stop-color="#1A0F91"/>
</linearGradient>
<linearGradient id="paint5_linear_5_369" x1="113.44" y1="59.771" x2="119.588" y2="93.7143" gradientUnits="userSpaceOnUse">
<stop stop-color="#09005D"/>
<stop offset="1" stop-color="#1A0F91"/>
</linearGradient>
<linearGradient id="paint6_linear_5_369" x1="89.4208" y1="100.315" x2="80.2029" y2="130.556" gradientUnits="userSpaceOnUse">
<stop stop-color="#FE7062"/>
<stop offset="1" stop-color="#FF928E"/>
</linearGradient>
<linearGradient id="paint7_linear_5_369" x1="49.8633" y1="119.147" x2="56.7314" y2="140.243" gradientUnits="userSpaceOnUse">
<stop stop-color="#FF928E"/>
<stop offset="1" stop-color="#FEB3B1"/>
</linearGradient>
<linearGradient id="paint8_linear_5_369" x1="38.9414" y1="136.607" x2="45.8096" y2="157.703" gradientUnits="userSpaceOnUse">
<stop stop-color="#FF928E"/>
<stop offset="1" stop-color="#FEB3B1"/>
</linearGradient>
<linearGradient id="paint9_linear_5_369" x1="53.5968" y1="131.076" x2="60.465" y2="152.172" gradientUnits="userSpaceOnUse">
<stop stop-color="#FF928E"/>
<stop offset="1" stop-color="#FEB3B1"/>
</linearGradient>
<linearGradient id="paint10_linear_5_369" x1="97.4456" y1="74.7999" x2="63.6077" y2="149.753" gradientUnits="userSpaceOnUse">
<stop stop-color="#EE3B34"/>
<stop offset="1" stop-color="#4F52FF"/>
</linearGradient>
<linearGradient id="paint11_linear_5_369" x1="106.245" y1="78.7723" x2="72.4074" y2="153.725" gradientUnits="userSpaceOnUse">
<stop stop-color="#A78227"/>
<stop offset="1" stop-color="#EE3B34"/>
</linearGradient>
<linearGradient id="paint12_linear_5_369" x1="99.3308" y1="102.438" x2="61.1268" y2="174.844" gradientUnits="userSpaceOnUse">
<stop stop-color="#FE7062"/>
<stop offset="1" stop-color="#FF928E"/>
</linearGradient>
<linearGradient id="paint13_linear_5_369" x1="111.204" y1="275.649" x2="29.0681" y2="375.979" gradientUnits="userSpaceOnUse">
<stop stop-color="#EE3B34"/>
<stop offset="1" stop-color="#EC364F"/>
</linearGradient>
<linearGradient id="paint14_linear_5_369" x1="103.885" y1="302.199" x2="83.5096" y2="342.222" gradientUnits="userSpaceOnUse">
<stop stop-color="#FE7062"/>
<stop offset="1" stop-color="#FF928E"/>
</linearGradient>
<linearGradient id="paint15_linear_5_369" x1="82.1963" y1="241.968" x2="90.9286" y2="297.273" gradientUnits="userSpaceOnUse">
<stop stop-color="#FE7062"/>
<stop offset="1" stop-color="#FF928E"/>
</linearGradient>
<linearGradient id="paint16_linear_5_369" x1="67.2446" y1="246.041" x2="51.963" y2="284.973" gradientUnits="userSpaceOnUse">
<stop stop-color="#FE7062"/>
<stop offset="1" stop-color="#FF928E"/>
</linearGradient>
<linearGradient id="paint17_linear_5_369" x1="53.7513" y1="273.645" x2="41.3805" y2="290.382" gradientUnits="userSpaceOnUse">
<stop stop-color="#FE7062"/>
<stop offset="1" stop-color="#FF928E"/>
</linearGradient>
<linearGradient id="paint18_linear_5_369" x1="84.9489" y1="336.644" x2="83.4254" y2="258.946" gradientUnits="userSpaceOnUse">
<stop stop-color="#FE7062"/>
<stop offset="1" stop-color="#FF928E"/>
</linearGradient>
<linearGradient id="paint19_linear_5_369" x1="54.2561" y1="336.825" x2="81.9085" y2="322.271" gradientUnits="userSpaceOnUse">
<stop stop-color="#FE7062"/>
<stop offset="1" stop-color="#FF928E"/>
</linearGradient>
<linearGradient id="paint20_linear_5_369" x1="112.378" y1="299.482" x2="102.918" y2="318.038" gradientUnits="userSpaceOnUse">
<stop stop-color="#FE7062"/>
<stop offset="1" stop-color="#FF928E"/>
</linearGradient>
<linearGradient id="paint21_linear_5_369" x1="43.8825" y1="264.857" x2="49.9693" y2="327.535" gradientUnits="userSpaceOnUse">
<stop stop-color="#FE7062"/>
<stop offset="1" stop-color="#FF928E"/>
</linearGradient>
<linearGradient id="paint22_linear_5_369" x1="347.215" y1="77.2308" x2="309.396" y2="108.225" gradientUnits="userSpaceOnUse">
<stop stop-color="#09005D"/>
<stop offset="1" stop-color="#1A0F91"/>
</linearGradient>
<linearGradient id="paint23_linear_5_369" x1="351.027" y1="81.8833" x2="313.209" y2="112.878" gradientUnits="userSpaceOnUse">
<stop stop-color="#09005D"/>
<stop offset="1" stop-color="#1A0F91"/>
</linearGradient>
<linearGradient id="paint24_linear_5_369" x1="354.704" y1="86.3696" x2="316.886" y2="117.364" gradientUnits="userSpaceOnUse">
<stop stop-color="#09005D"/>
<stop offset="1" stop-color="#1A0F91"/>
</linearGradient>
<linearGradient id="paint25_linear_5_369" x1="358.151" y1="90.5739" x2="320.333" y2="121.568" gradientUnits="userSpaceOnUse">
<stop stop-color="#09005D"/>
<stop offset="1" stop-color="#1A0F91"/>
</linearGradient>
<linearGradient id="paint26_linear_5_369" x1="362.194" y1="95.5082" x2="324.375" y2="126.502" gradientUnits="userSpaceOnUse">
<stop stop-color="#09005D"/>
<stop offset="1" stop-color="#1A0F91"/>
</linearGradient>
<linearGradient id="paint27_linear_5_369" x1="365.94" y1="100.076" x2="328.121" y2="131.071" gradientUnits="userSpaceOnUse">
<stop stop-color="#09005D"/>
<stop offset="1" stop-color="#1A0F91"/>
</linearGradient>
<linearGradient id="paint28_linear_5_369" x1="369.616" y1="104.563" x2="331.798" y2="135.557" gradientUnits="userSpaceOnUse">
<stop stop-color="#09005D"/>
<stop offset="1" stop-color="#1A0F91"/>
</linearGradient>
<linearGradient id="paint29_linear_5_369" x1="373.131" y1="108.851" x2="335.312" y2="139.845" gradientUnits="userSpaceOnUse">
<stop stop-color="#09005D"/>
<stop offset="1" stop-color="#1A0F91"/>
</linearGradient>
<linearGradient id="paint30_linear_5_369" x1="376.876" y1="113.42" x2="339.057" y2="144.415" gradientUnits="userSpaceOnUse">
<stop stop-color="#09005D"/>
<stop offset="1" stop-color="#1A0F91"/>
</linearGradient>
<linearGradient id="paint31_linear_5_369" x1="380.553" y1="117.906" x2="342.734" y2="148.9" gradientUnits="userSpaceOnUse">
<stop stop-color="#09005D"/>
<stop offset="1" stop-color="#1A0F91"/>
</linearGradient>
<linearGradient id="paint32_linear_5_369" x1="384.067" y1="122.194" x2="346.249" y2="153.189" gradientUnits="userSpaceOnUse">
<stop stop-color="#09005D"/>
<stop offset="1" stop-color="#1A0F91"/>
</linearGradient>
<linearGradient id="paint33_linear_5_369" x1="393.776" y1="134.02" x2="355.956" y2="165.015" gradientUnits="userSpaceOnUse">
<stop stop-color="#09005D"/>
<stop offset="1" stop-color="#1A0F91"/>
</linearGradient>
<linearGradient id="paint34_linear_5_369" x1="487.782" y1="234.334" x2="436.425" y2="312.724" gradientUnits="userSpaceOnUse">
<stop stop-color="#A78227"/>
<stop offset="1" stop-color="#EE3B34"/>
</linearGradient>
<linearGradient id="paint35_linear_5_369" x1="490.121" y1="189.427" x2="448.489" y2="268.558" gradientUnits="userSpaceOnUse">
<stop stop-color="#A78227"/>
<stop offset="1" stop-color="#EE3B34"/>
</linearGradient>
<linearGradient id="paint36_linear_5_369" x1="457.725" y1="260.73" x2="468.469" y2="260.73" gradientUnits="userSpaceOnUse">
<stop stop-color="#DAE3FE"/>
<stop offset="1" stop-color="#E9EFFD"/>
</linearGradient>
<linearGradient id="paint37_linear_5_369" x1="481.185" y1="244.529" x2="457.914" y2="265.372" gradientUnits="userSpaceOnUse">
<stop stop-color="#E1473D"/>
<stop offset="1" stop-color="#E9605A"/>
</linearGradient>
<linearGradient id="paint38_linear_5_369" x1="458.629" y1="260.73" x2="467.564" y2="260.73" gradientUnits="userSpaceOnUse">
<stop stop-color="#DAE3FE"/>
<stop offset="1" stop-color="#E9EFFD"/>
</linearGradient>
<linearGradient id="paint39_linear_5_369" x1="467.731" y1="332.304" x2="432.44" y2="383.24" gradientUnits="userSpaceOnUse">
<stop stop-color="#FE7062"/>
<stop offset="1" stop-color="#FF928E"/>
</linearGradient>
<linearGradient id="paint40_linear_5_369" x1="452.046" y1="332.704" x2="459.3" y2="337.841" gradientUnits="userSpaceOnUse">
<stop stop-color="#E1473D"/>
<stop offset="1" stop-color="#E9605A"/>
</linearGradient>
<linearGradient id="paint41_linear_5_369" x1="492.034" y1="291.846" x2="454.06" y2="328.59" gradientUnits="userSpaceOnUse">
<stop stop-color="#FE7062"/>
<stop offset="1" stop-color="#FF928E"/>
</linearGradient>
<linearGradient id="paint42_linear_5_369" x1="466.967" y1="308.392" x2="482.902" y2="308.392" gradientUnits="userSpaceOnUse">
<stop stop-color="#DAE3FE"/>
<stop offset="1" stop-color="#E9EFFD"/>
</linearGradient>
<linearGradient id="paint43_linear_5_369" x1="474.756" y1="308.549" x2="475.654" y2="308.549" gradientUnits="userSpaceOnUse">
<stop stop-color="#DAE3FE"/>
<stop offset="1" stop-color="#E9EFFD"/>
</linearGradient>
<linearGradient id="paint44_linear_5_369" x1="467.525" y1="307.328" x2="482.278" y2="307.328" gradientUnits="userSpaceOnUse">
<stop stop-color="#DAE3FE"/>
<stop offset="1" stop-color="#E9EFFD"/>
</linearGradient>
<linearGradient id="paint45_linear_5_369" x1="466.608" y1="315.467" x2="483.261" y2="315.467" gradientUnits="userSpaceOnUse">
<stop stop-color="#DAE3FE"/>
<stop offset="1" stop-color="#E9EFFD"/>
</linearGradient>
<linearGradient id="paint46_linear_5_369" x1="482.373" y1="281.861" x2="444.398" y2="318.605" gradientUnits="userSpaceOnUse">
<stop stop-color="#FE7062"/>
<stop offset="1" stop-color="#FF928E"/>
</linearGradient>
<linearGradient id="paint47_linear_5_369" x1="467.417" y1="288.622" x2="483.352" y2="288.622" gradientUnits="userSpaceOnUse">
<stop stop-color="#DAE3FE"/>
<stop offset="1" stop-color="#E9EFFD"/>
</linearGradient>
<linearGradient id="paint48_linear_5_369" x1="475.207" y1="288.779" x2="476.105" y2="288.779" gradientUnits="userSpaceOnUse">
<stop stop-color="#DAE3FE"/>
<stop offset="1" stop-color="#E9EFFD"/>
</linearGradient>
<linearGradient id="paint49_linear_5_369" x1="467.975" y1="287.559" x2="482.728" y2="287.559" gradientUnits="userSpaceOnUse">
<stop stop-color="#DAE3FE"/>
<stop offset="1" stop-color="#E9EFFD"/>
</linearGradient>
<linearGradient id="paint50_linear_5_369" x1="467.058" y1="295.697" x2="483.711" y2="295.697" gradientUnits="userSpaceOnUse">
<stop stop-color="#DAE3FE"/>
<stop offset="1" stop-color="#E9EFFD"/>
</linearGradient>
<linearGradient id="paint51_linear_5_369" x1="479.918" y1="279.324" x2="441.943" y2="316.068" gradientUnits="userSpaceOnUse">
<stop stop-color="#FE7062"/>
<stop offset="1" stop-color="#FF928E"/>
</linearGradient>
<linearGradient id="paint52_linear_5_369" x1="442.118" y1="308.189" x2="458.053" y2="308.189" gradientUnits="userSpaceOnUse">
<stop stop-color="#DAE3FE"/>
<stop offset="1" stop-color="#E9EFFD"/>
</linearGradient>
<linearGradient id="paint53_linear_5_369" x1="449.907" y1="308.346" x2="450.805" y2="308.346" gradientUnits="userSpaceOnUse">
<stop stop-color="#DAE3FE"/>
<stop offset="1" stop-color="#E9EFFD"/>
</linearGradient>
<linearGradient id="paint54_linear_5_369" x1="442.676" y1="307.125" x2="457.429" y2="307.125" gradientUnits="userSpaceOnUse">
<stop stop-color="#DAE3FE"/>
<stop offset="1" stop-color="#E9EFFD"/>
</linearGradient>
<linearGradient id="paint55_linear_5_369" x1="441.759" y1="315.263" x2="458.413" y2="315.263" gradientUnits="userSpaceOnUse">
<stop stop-color="#DAE3FE"/>
<stop offset="1" stop-color="#E9EFFD"/>
</linearGradient>
<linearGradient id="paint56_linear_5_369" x1="470.256" y1="269.338" x2="432.28" y2="306.083" gradientUnits="userSpaceOnUse">
<stop stop-color="#FE7062"/>
<stop offset="1" stop-color="#FF928E"/>
</linearGradient>
<linearGradient id="paint57_linear_5_369" x1="442.568" y1="288.419" x2="458.504" y2="288.419" gradientUnits="userSpaceOnUse">
<stop stop-color="#DAE3FE"/>
<stop offset="1" stop-color="#E9EFFD"/>
</linearGradient>
<linearGradient id="paint58_linear_5_369" x1="450.357" y1="288.576" x2="451.256" y2="288.576" gradientUnits="userSpaceOnUse">
<stop stop-color="#DAE3FE"/>
<stop offset="1" stop-color="#E9EFFD"/>
</linearGradient>
<linearGradient id="paint59_linear_5_369" x1="443.126" y1="287.355" x2="457.879" y2="287.355" gradientUnits="userSpaceOnUse">
<stop stop-color="#DAE3FE"/>
<stop offset="1" stop-color="#E9EFFD"/>
</linearGradient>
<linearGradient id="paint60_linear_5_369" x1="442.21" y1="295.493" x2="458.863" y2="295.493" gradientUnits="userSpaceOnUse">
<stop stop-color="#DAE3FE"/>
<stop offset="1" stop-color="#E9EFFD"/>
</linearGradient>
<linearGradient id="paint61_linear_5_369" x1="500.784" y1="158.069" x2="422.753" y2="292.355" gradientUnits="userSpaceOnUse">
<stop stop-color="#985CE5"/>
<stop offset="1" stop-color="#DE3E4A"/>
</linearGradient>
<linearGradient id="paint62_linear_5_369" x1="522.631" y1="247.346" x2="442.57" y2="275.886" gradientUnits="userSpaceOnUse">
<stop stop-color="#09005D"/>
<stop offset="1" stop-color="#1A0F91"/>
</linearGradient>
<linearGradient id="paint63_linear_5_369" x1="498.415" y1="239.212" x2="434.663" y2="348.925" gradientUnits="userSpaceOnUse">
<stop stop-color="#EE3B34"/>
<stop offset="1" stop-color="#4F52FF"/>
</linearGradient>
<linearGradient id="paint64_linear_5_369" x1="481.396" y1="296.573" x2="498.481" y2="239.153" gradientUnits="userSpaceOnUse">
<stop stop-color="#E1473D"/>
<stop offset="1" stop-color="#E9605A"/>
</linearGradient>
<linearGradient id="paint65_linear_5_369" x1="465.244" y1="293.609" x2="494.625" y2="265.733" gradientUnits="userSpaceOnUse">
<stop stop-color="#FE7062"/>
<stop offset="1" stop-color="#FF928E"/>
</linearGradient>
<linearGradient id="paint66_linear_5_369" x1="459.093" y1="304.235" x2="405.459" y2="269.667" gradientUnits="userSpaceOnUse">
<stop stop-color="#E1473D"/>
<stop offset="1" stop-color="#E9605A"/>
</linearGradient>
<linearGradient id="paint67_linear_5_369" x1="433.997" y1="263.865" x2="433.997" y2="291.154" gradientUnits="userSpaceOnUse">
<stop stop-color="#FE7062"/>
<stop offset="1" stop-color="#FF928E"/>
</linearGradient>
<linearGradient id="paint68_linear_5_369" x1="244.976" y1="123.572" x2="259.7" y2="106.481" gradientUnits="userSpaceOnUse">
<stop stop-color="#E1473D"/>
<stop offset="1" stop-color="#E9605A"/>
</linearGradient>
<linearGradient id="paint69_linear_5_369" x1="268.02" y1="94.0159" x2="224.481" y2="159.792" gradientUnits="userSpaceOnUse">
<stop stop-color="#FE7062"/>
<stop offset="1" stop-color="#FF928E"/>
</linearGradient>
<linearGradient id="paint70_linear_5_369" x1="266.721" y1="95.9007" x2="243.537" y2="134.823" gradientUnits="userSpaceOnUse">
<stop stop-color="#FE7062"/>
<stop offset="1" stop-color="#FF928E"/>
</linearGradient>
<linearGradient id="paint71_linear_5_369" x1="265.095" y1="123.471" x2="290.727" y2="93.719" gradientUnits="userSpaceOnUse">
<stop stop-color="#E1473D"/>
<stop offset="1" stop-color="#E9605A"/>
</linearGradient>
<linearGradient id="paint72_linear_5_369" x1="305.211" y1="72.0193" x2="229.416" y2="186.524" gradientUnits="userSpaceOnUse">
<stop stop-color="#FE7062"/>
<stop offset="1" stop-color="#FF928E"/>
</linearGradient>
<linearGradient id="paint73_linear_5_369" x1="302.95" y1="75.3002" x2="262.59" y2="143.057" gradientUnits="userSpaceOnUse">
<stop stop-color="#FE7062"/>
<stop offset="1" stop-color="#FF928E"/>
</linearGradient>
<linearGradient id="paint74_linear_5_369" x1="277.516" y1="167.033" x2="303.891" y2="136.419" gradientUnits="userSpaceOnUse">
<stop stop-color="#E1473D"/>
<stop offset="1" stop-color="#E9605A"/>
</linearGradient>
<linearGradient id="paint75_linear_5_369" x1="318.795" y1="114.09" x2="240.803" y2="231.914" gradientUnits="userSpaceOnUse">
<stop stop-color="#FE7062"/>
<stop offset="1" stop-color="#FF928E"/>
</linearGradient>
<linearGradient id="paint76_linear_5_369" x1="316.468" y1="117.466" x2="274.939" y2="187.187" gradientUnits="userSpaceOnUse">
<stop stop-color="#FE7062"/>
<stop offset="1" stop-color="#FF928E"/>
</linearGradient>
<linearGradient id="paint77_linear_5_369" x1="317.687" y1="130.304" x2="337.012" y2="107.873" gradientUnits="userSpaceOnUse">
<stop stop-color="#E1473D"/>
<stop offset="1" stop-color="#E9605A"/>
</linearGradient>
<linearGradient id="paint78_linear_5_369" x1="347.932" y1="91.513" x2="290.787" y2="177.842" gradientUnits="userSpaceOnUse">
<stop stop-color="#FE7062"/>
<stop offset="1" stop-color="#FF928E"/>
</linearGradient>
<linearGradient id="paint79_linear_5_369" x1="346.227" y1="93.9867" x2="315.799" y2="145.071" gradientUnits="userSpaceOnUse">
<stop stop-color="#FE7062"/>
<stop offset="1" stop-color="#FF928E"/>
</linearGradient>
<linearGradient id="paint80_linear_5_369" x1="420.431" y1="138.216" x2="434.257" y2="138.216" gradientUnits="userSpaceOnUse">
<stop stop-color="#09005D"/>
<stop offset="1" stop-color="#1A0F91"/>
</linearGradient>
<linearGradient id="paint81_linear_5_369" x1="498.298" y1="138.216" x2="512.125" y2="138.216" gradientUnits="userSpaceOnUse">
<stop stop-color="#09005D"/>
<stop offset="1" stop-color="#1A0F91"/>
</linearGradient>
<linearGradient id="paint82_linear_5_369" x1="418.005" y1="102.869" x2="431.78" y2="102.869" gradientUnits="userSpaceOnUse">
<stop stop-color="#4042E2"/>
<stop offset="1" stop-color="#4F52FF"/>
</linearGradient>
<linearGradient id="paint83_linear_5_369" x1="515.764" y1="102.869" x2="501.624" y2="102.869" gradientUnits="userSpaceOnUse">
<stop stop-color="#4042E2"/>
<stop offset="1" stop-color="#4F52FF"/>
</linearGradient>
<linearGradient id="paint84_linear_5_369" x1="497.811" y1="45.2856" x2="463.442" y2="123.143" gradientUnits="userSpaceOnUse">
<stop stop-color="#A78227"/>
<stop offset="1" stop-color="#EE3B34"/>
</linearGradient>
<linearGradient id="paint85_linear_5_369" x1="423.559" y1="120.755" x2="443.469" y2="120.755" gradientUnits="userSpaceOnUse">
<stop stop-color="#FE7062"/>
<stop offset="1" stop-color="#FF928E"/>
</linearGradient>
<linearGradient id="paint86_linear_5_369" x1="489.918" y1="120.755" x2="509.828" y2="120.755" gradientUnits="userSpaceOnUse">
<stop stop-color="#FE7062"/>
<stop offset="1" stop-color="#FF928E"/>
</linearGradient>
</defs>
</svg>
