<svg width="110" height="16" viewBox="0 0 110 16" fill="none" xmlns="http://www.w3.org/2000/svg">
<path fill-rule="evenodd" clip-rule="evenodd" d="M8.74375 0.581154C8.58035 0.226889 8.22583 0 7.8357 0C7.44556 0 7.09104 0.226889 6.92764 0.581154L5.13425 4.46922L0.882293 4.97336C0.494871 5.01929 0.169537 5.28634 0.048978 5.65738C-0.0715805 6.02842 0.0346521 6.4357 0.321083 6.70058L3.46466 9.60768L2.6302 13.8073C2.55417 14.19 2.70761 14.5819 3.02324 14.8112C3.33887 15.0405 3.75904 15.0654 4.09947 14.8748L7.83569 12.7834L11.5719 14.8748C11.9124 15.0654 12.3325 15.0405 12.6482 14.8112C12.9638 14.5819 13.1172 14.19 13.0412 13.8073L12.2067 9.60768L15.3503 6.70058C15.6367 6.4357 15.743 6.02842 15.6224 5.65738C15.5019 5.28634 15.1765 5.01929 14.7891 4.97336L10.5371 4.46922L8.74375 0.581154Z" fill="#FFBF41"/>
<path fill-rule="evenodd" clip-rule="evenodd" d="M32.1617 0.581154C31.9983 0.226889 31.6438 0 31.2537 0C30.8635 0 30.509 0.226889 30.3456 0.581154L28.5522 4.46922L24.3003 4.97336C23.9128 5.01929 23.5875 5.28634 23.4669 5.65738C23.3464 6.02842 23.4526 6.4357 23.7391 6.70058L26.8826 9.60768L26.0482 13.8073C25.9721 14.19 26.1256 14.5819 26.4412 14.8112C26.7568 15.0405 27.177 15.0654 27.5174 14.8748L31.2537 12.7834L34.9899 14.8748C35.3303 15.0654 35.7505 15.0405 36.0661 14.8112C36.3817 14.5819 36.5352 14.19 36.4592 13.8073L35.6247 9.60768L38.7683 6.70058C39.0547 6.4357 39.1609 6.02842 39.0404 5.65738C38.9198 5.28634 38.5945 5.01929 38.2071 4.97336L33.9551 4.46922L32.1617 0.581154Z" fill="#FFBF41"/>
<path fill-rule="evenodd" clip-rule="evenodd" d="M55.5841 0.581154C55.4207 0.226889 55.0662 0 54.676 0C54.2859 0 53.9314 0.226889 53.768 0.581154L51.9746 4.46922L47.7226 4.97336C47.3352 5.01929 47.0099 5.28634 46.8893 5.65738C46.7688 6.02842 46.875 6.4357 47.1614 6.70058L50.305 9.60768L49.4705 13.8073C49.3945 14.19 49.5479 14.5819 49.8636 14.8112C50.1792 15.0405 50.5994 15.0654 50.9398 14.8748L54.676 12.7834L58.4123 14.8748C58.7527 15.0654 59.1729 15.0405 59.4885 14.8112C59.8041 14.5819 59.9576 14.19 59.8815 13.8073L59.0471 9.60768L62.1906 6.70058C62.4771 6.4357 62.5833 6.02842 62.4627 5.65738C62.3422 5.28634 62.0168 5.01929 61.6294 4.97336L57.3775 4.46922L55.5841 0.581154Z" fill="#FFBF41"/>
<path fill-rule="evenodd" clip-rule="evenodd" d="M78.9991 0.581154C78.8357 0.226889 78.4812 0 78.0911 0C77.7009 0 77.3464 0.226889 77.183 0.581154L75.3896 4.46922L71.1377 4.97336C70.7502 5.01929 70.4249 5.28634 70.3043 5.65738C70.1838 6.02842 70.29 6.4357 70.5765 6.70058L73.72 9.60768L72.8856 13.8073C72.8095 14.19 72.963 14.5819 73.2786 14.8112C73.5942 15.0405 74.0144 15.0654 74.3548 14.8748L78.0911 12.7834L81.8273 14.8748C82.1677 15.0654 82.5879 15.0405 82.9035 14.8112C83.2191 14.5819 83.3726 14.19 83.2966 13.8073L82.4621 9.60768L85.6057 6.70058C85.8921 6.4357 85.9983 6.02842 85.8778 5.65738C85.7572 5.28634 85.4319 5.01929 85.0445 4.97336L80.7925 4.46922L78.9991 0.581154Z" fill="#FFBF41"/>
<path fill-rule="evenodd" clip-rule="evenodd" d="M102.419 0.581154C102.256 0.226889 101.901 0 101.511 0C101.121 0 100.766 0.226889 100.603 0.581154L98.8095 4.46922L94.5576 4.97336C94.1702 5.01929 93.8448 5.28634 93.7243 5.65738C93.6037 6.02842 93.7099 6.4357 93.9964 6.70058L97.14 9.60768L96.3055 13.8073C96.2295 14.19 96.3829 14.5819 96.6985 14.8112C97.0142 15.0405 97.4343 15.0654 97.7748 14.8748L101.511 12.7834L105.247 14.8748C105.588 15.0654 106.008 15.0405 106.323 14.8112C106.639 14.5819 106.793 14.19 106.716 13.8073L105.882 9.60768L109.026 6.70058C109.312 6.4357 109.418 6.02842 109.298 5.65738C109.177 5.28634 108.852 5.01929 108.464 4.97336L104.212 4.46922L102.419 0.581154Z" fill="#B6BCCB"/>
</svg>
