<svg width="188" height="172" viewBox="0 0 188 172" fill="none" xmlns="http://www.w3.org/2000/svg">
<path fill-rule="evenodd" clip-rule="evenodd" d="M105.737 21.9146C115.062 18.4479 122.369 10.0569 132.318 10.0329C144.187 10.0042 157.729 12.3975 165.009 21.7713C172.307 31.1669 168.682 44.5348 168.35 56.4267C168.035 67.7392 170.506 80.5481 163.133 89.133C155.866 97.5936 143.108 98.9634 131.957 98.7986C123.064 98.6672 116.896 89.8222 108.129 88.3204C97.0205 86.4174 82.5721 97.5521 75.153 89.0675C67.959 80.8402 80.635 68.5939 81.3442 57.688C81.9635 48.1637 73.6265 37.7393 79.0036 29.8537C84.372 21.9807 96.8056 25.2353 105.737 21.9146Z" fill="#EE3B34" fill-opacity="0.18"/>
<path fill-rule="evenodd" clip-rule="evenodd" d="M35.231 47.9683C41.0887 49.9871 42.7432 57.7219 48.2183 60.6223C55.3385 64.3944 66.4433 60.2128 70.9513 66.8915C75.22 73.2158 70.928 82.2006 67.3216 88.9246C64.1085 94.9155 58.0025 98.3117 52.1997 101.853C46.8833 105.098 41.4545 108.265 35.231 108.51C28.8363 108.762 22.8998 106.258 17.2614 103.231C10.7757 99.7486 1.87278 97.0268 0.40642 89.813C-1.08039 82.4985 8.33299 77.6061 10.6076 70.4971C12.9002 63.332 8.01706 53.7586 13.5674 48.6804C19.0317 43.6809 28.2288 45.5551 35.231 47.9683Z" fill="#EE3B34" fill-opacity="0.13"/>
<path fill-rule="evenodd" clip-rule="evenodd" d="M98.231 104.968C104.089 106.987 105.743 114.722 111.218 117.622C118.339 121.394 129.443 117.213 133.951 123.892C138.22 130.216 133.928 139.201 130.322 145.925C127.108 151.915 121.002 155.312 115.2 158.853C109.883 162.098 104.455 165.265 98.231 165.51C91.8363 165.762 85.8998 163.258 80.2614 160.231C73.7757 156.749 64.8728 154.027 63.4064 146.813C61.9196 139.499 71.333 134.606 73.6076 127.497C75.9002 120.332 71.0171 110.759 76.5674 105.68C82.0317 100.681 91.2288 102.555 98.231 104.968Z" fill="black" fill-opacity="0.06"/>
<g filter="url(#filter0_d_370_2888)">
<circle cx="89" cy="88" r="64" fill="#FFFDFD"/>
</g>
<g clip-path="url(#clip0_370_2888)">
<path d="M121.13 83.9312L116.611 83.1792C116.035 83.0839 115.487 82.8611 115.007 82.5271C114.528 82.1931 114.129 81.7563 113.84 81.2485L107.599 70.3285C106.565 68.5219 105.071 67.0202 103.271 65.9749C101.47 64.9296 99.4256 64.3778 97.3436 64.375H75.4064C73.3245 64.3776 71.2801 64.9293 69.4795 65.9743C67.6788 67.0193 66.1856 68.5208 65.1506 70.3272L58.7849 81.4664C58.5202 81.9271 58.1654 82.3297 57.7417 82.6504C57.318 82.971 56.834 83.2031 56.3187 83.3327L51.9691 84.4195C50.8861 84.6906 49.8906 85.2343 49.0771 85.9988C48.2636 86.7634 47.6592 87.7234 47.3216 88.7875C47.3071 88.8216 47.3058 88.8623 47.294 88.8977C47.104 89.5095 47.0049 90.1459 47 90.7864V99.8125C47.0021 101.552 47.6942 103.22 48.9244 104.451C50.1547 105.681 51.8227 106.373 53.5625 106.375H58.3991C59.1414 107.945 60.3145 109.273 61.7819 110.202C63.2493 111.131 64.9505 111.625 66.6875 111.625C68.4245 111.625 70.1257 111.131 71.5931 110.202C73.0605 109.273 74.2336 107.945 74.9759 106.375H103.024C103.766 107.945 104.94 109.273 106.407 110.202C107.874 111.131 109.576 111.625 111.312 111.625C113.049 111.625 114.751 111.131 116.218 110.202C117.685 109.273 118.859 107.945 119.601 106.375H124.437C126.177 106.373 127.845 105.681 129.076 104.451C130.306 103.22 130.998 101.552 131 99.8125V95.5823C131.007 92.7844 130.018 90.0753 128.209 87.9404C126.401 85.8056 123.891 84.3843 121.13 83.9312ZM126.923 90.625C127.442 91.4341 127.831 92.32 128.074 93.25H127.062C126.021 93.2497 125.022 92.8384 124.283 92.1055C123.867 91.6865 123.549 91.181 123.351 90.625H126.923ZM49.6381 90.625H51.8812L51.2249 93.25H49.625V90.7864C49.625 90.7313 49.6368 90.6788 49.6381 90.625ZM66.6875 109C65.3896 109 64.1208 108.615 63.0416 107.894C61.9624 107.173 61.1212 106.148 60.6245 104.949C60.1278 103.75 59.9979 102.43 60.2511 101.157C60.5043 99.8842 61.1293 98.7149 62.0471 97.7971C62.9649 96.8793 64.1342 96.2543 65.4072 96.0011C66.6802 95.7479 67.9997 95.8778 69.1989 96.3745C70.398 96.8712 71.4229 97.7124 72.144 98.7916C72.8651 99.8708 73.25 101.14 73.25 102.437C73.2479 104.177 72.5558 105.845 71.3256 107.076C70.0953 108.306 68.4273 108.998 66.6875 109ZM111.312 109C110.015 109 108.746 108.615 107.667 107.894C106.587 107.173 105.746 106.148 105.25 104.949C104.753 103.75 104.623 102.43 104.876 101.157C105.129 99.8842 105.754 98.7149 106.672 97.7971C107.59 96.8793 108.759 96.2543 110.032 96.0011C111.305 95.7479 112.625 95.8778 113.824 96.3745C115.023 96.8712 116.048 97.7124 116.769 98.7916C117.49 99.8708 117.875 101.14 117.875 102.437C117.873 104.177 117.181 105.845 115.951 107.076C114.72 108.306 113.052 108.998 111.312 109ZM124.437 103.75H120.395C120.595 102.441 120.509 101.105 120.144 99.833C119.779 98.5606 119.144 97.3821 118.282 96.3781C117.419 95.3741 116.35 94.5683 115.147 94.0159C113.944 93.4634 112.636 93.1774 111.312 93.1774C109.989 93.1774 108.681 93.4634 107.478 94.0159C106.275 94.5683 105.206 95.3741 104.343 96.3781C103.481 97.3821 102.846 98.5606 102.481 99.833C102.116 101.105 102.03 102.441 102.23 103.75H75.77C75.9695 102.441 75.884 101.105 75.5192 99.833C75.1544 98.5606 74.5191 97.3821 73.6565 96.3781C72.794 95.3741 71.7248 94.5683 70.5219 94.0159C69.3191 93.4634 68.0111 93.1774 66.6875 93.1774C65.3639 93.1774 64.0559 93.4634 62.8531 94.0159C61.6502 94.5683 60.581 95.3741 59.7185 96.3781C58.8559 97.3821 58.2206 98.5606 57.8558 99.833C57.491 101.105 57.4055 102.441 57.605 103.75H53.5625C52.5182 103.75 51.5167 103.335 50.7783 102.597C50.0398 101.858 49.625 100.857 49.625 99.8125V95.875H52.25C52.5426 95.875 52.8268 95.7772 53.0575 95.5972C53.2881 95.4172 53.452 95.1652 53.5231 94.8814L54.8356 89.6314C54.8841 89.4379 54.8878 89.2359 54.8465 89.0407C54.8052 88.8455 54.7199 88.6623 54.5972 88.505C54.4744 88.3477 54.3175 88.2205 54.1382 88.133C53.9589 88.0455 53.762 88 53.5625 88H50.7918C51.2922 87.4977 51.9196 87.1407 52.607 86.9671L56.9579 85.879C57.8159 85.6624 58.6215 85.2753 59.3268 84.7409C60.0322 84.2066 60.6227 83.5357 61.0634 82.7684L67.4291 71.6292C68.2343 70.2243 69.3958 69.0566 70.7964 68.2439C72.197 67.4311 73.7871 67.0021 75.4064 67H97.3436C98.9629 67.0021 100.553 67.4311 101.954 68.2439C103.354 69.0566 104.516 70.2243 105.321 71.6292L111.561 82.5492C112.042 83.3961 112.706 84.1247 113.505 84.6817C114.305 85.2388 115.218 85.6102 116.179 85.7687L120.698 86.5221C122.02 86.7407 123.277 87.2451 124.384 88H121.812C121.464 88 121.131 88.1383 120.884 88.3844C120.638 88.6306 120.5 88.9644 120.5 89.3125C120.499 90.1745 120.668 91.0283 120.998 91.8249C121.327 92.6215 121.811 93.3452 122.42 93.9548C123.03 94.5644 123.754 95.0477 124.55 95.3772C125.347 95.7067 126.2 95.8758 127.062 95.875H128.375V99.8125C128.375 100.857 127.96 101.858 127.222 102.597C126.483 103.335 125.482 103.75 124.437 103.75Z" fill="url(#paint0_linear_370_2888)"/>
<path d="M106.664 76.8241C106.484 76.5256 106.194 76.3105 105.856 76.2262C105.518 76.1419 105.161 76.1953 104.862 76.3745C104.564 76.5538 104.349 76.8443 104.264 77.1821C104.18 77.52 104.233 77.8774 104.413 78.1759L106.37 81.4375H90.3125V70.9375H97.8397C98.5194 70.9394 99.1872 71.1163 99.7787 71.4512C100.37 71.7862 100.865 72.2679 101.217 72.8498L102.049 74.2384C102.228 74.5369 102.519 74.752 102.856 74.8363C103.194 74.9206 103.552 74.8672 103.85 74.688C104.149 74.5087 104.364 74.2182 104.448 73.8804C104.532 73.5425 104.479 73.1851 104.3 72.8866L103.466 71.4979C102.881 70.5284 102.056 69.726 101.07 69.1681C100.085 68.6101 98.9722 68.3155 97.8397 68.3125H89C88.6519 68.3125 88.3181 68.4508 88.0719 68.6969C87.8258 68.9431 87.6875 69.2769 87.6875 69.625V82.75C87.6875 83.0981 87.8258 83.4319 88.0719 83.6781C88.3181 83.9242 88.6519 84.0625 89 84.0625H108.687C108.92 84.0625 109.148 84.0008 109.349 83.8837C109.549 83.7666 109.715 83.5984 109.83 83.3962C109.944 83.194 110.003 82.9651 110 82.7328C109.997 82.5005 109.932 82.2732 109.812 82.0741L106.664 76.8241Z" fill="#A78227"/>
<path d="M83.7497 68.3125H74.9101C73.7776 68.3155 72.6649 68.6101 71.6794 69.1681C70.6939 69.726 69.8687 70.5284 69.2834 71.4979L62.9374 82.0741C62.8178 82.2732 62.7532 82.5005 62.7501 82.7328C62.7471 82.9651 62.8057 83.194 62.9201 83.3962C63.0345 83.5984 63.2005 83.7666 63.4011 83.8837C63.6018 84.0008 63.8299 84.0625 64.0623 84.0625H83.7497C84.0978 84.0625 84.4317 83.9242 84.6778 83.6781C84.924 83.4319 85.0622 83.0981 85.0622 82.75V69.625C85.0622 69.2769 84.924 68.9431 84.6778 68.6969C84.4317 68.4508 84.0978 68.3125 83.7497 68.3125ZM82.4372 81.4375H66.3801L71.533 72.8498C71.8843 72.2679 72.3795 71.7862 72.971 71.4512C73.5625 71.1163 74.2303 70.9394 74.9101 70.9375H82.4372V81.4375Z" fill="#A78227"/>
<path d="M91.625 85.375H89C88.6519 85.375 88.3181 85.5133 88.0719 85.7594C87.8258 86.0056 87.6875 86.3394 87.6875 86.6875C87.6875 87.0356 87.8258 87.3694 88.0719 87.6156C88.3181 87.8617 88.6519 88 89 88H91.625C91.9731 88 92.3069 87.8617 92.5531 87.6156C92.7992 87.3694 92.9375 87.0356 92.9375 86.6875C92.9375 86.3394 92.7992 86.0056 92.5531 85.7594C92.3069 85.5133 91.9731 85.375 91.625 85.375Z" fill="#A78227"/>
<path d="M66.6875 85.375H64.0625C63.7144 85.375 63.3806 85.5133 63.1344 85.7594C62.8883 86.0056 62.75 86.3394 62.75 86.6875C62.75 87.0356 62.8883 87.3694 63.1344 87.6156C63.3806 87.8617 63.7144 88 64.0625 88H66.6875C67.0356 88 67.3694 87.8617 67.6156 87.6156C67.8617 87.3694 68 87.0356 68 86.6875C68 86.3394 67.8617 86.0056 67.6156 85.7594C67.3694 85.5133 67.0356 85.375 66.6875 85.375Z" fill="#A78227"/>
<path d="M111.313 98.5C110.534 98.5 109.772 98.7309 109.125 99.1636C108.477 99.5962 107.973 100.211 107.675 100.931C107.377 101.65 107.299 102.442 107.451 103.206C107.603 103.969 107.978 104.671 108.528 105.222C109.079 105.772 109.781 106.147 110.544 106.299C111.308 106.451 112.1 106.373 112.819 106.075C113.539 105.777 114.154 105.273 114.586 104.625C115.019 103.978 115.25 103.216 115.25 102.437C115.25 101.393 114.835 100.392 114.097 99.6533C113.358 98.9148 112.357 98.5 111.313 98.5ZM111.313 103.75C111.053 103.75 110.799 103.673 110.583 103.529C110.367 103.385 110.199 103.18 110.1 102.94C110.001 102.7 109.975 102.436 110.025 102.181C110.076 101.927 110.201 101.693 110.384 101.509C110.568 101.326 110.802 101.201 111.056 101.15C111.311 101.1 111.575 101.126 111.815 101.225C112.055 101.324 112.26 101.492 112.404 101.708C112.548 101.924 112.625 102.178 112.625 102.437C112.625 102.786 112.487 103.119 112.241 103.366C111.994 103.612 111.661 103.75 111.313 103.75Z" fill="#A78227"/>
<path d="M66.6875 98.5C65.9087 98.5 65.1475 98.7309 64.4999 99.1636C63.8524 99.5962 63.3477 100.211 63.0497 100.931C62.7517 101.65 62.6737 102.442 62.8257 103.206C62.9776 103.969 63.3526 104.671 63.9033 105.222C64.4539 105.772 65.1555 106.147 65.9193 106.299C66.6831 106.451 67.4748 106.373 68.1943 106.075C68.9138 105.777 69.5288 105.273 69.9614 104.625C70.3941 103.978 70.625 103.216 70.625 102.437C70.625 101.393 70.2102 100.392 69.4717 99.6533C68.7333 98.9148 67.7318 98.5 66.6875 98.5ZM66.6875 103.75C66.4279 103.75 66.1742 103.673 65.9583 103.529C65.7425 103.385 65.5742 103.18 65.4749 102.94C65.3756 102.7 65.3496 102.436 65.4002 102.181C65.4509 101.927 65.5759 101.693 65.7594 101.509C65.943 101.326 66.1768 101.201 66.4314 101.15C66.686 101.1 66.9499 101.126 67.1898 101.225C67.4296 101.324 67.6346 101.492 67.7788 101.708C67.923 101.924 68 102.178 68 102.437C68 102.786 67.8617 103.119 67.6156 103.366C67.3694 103.612 67.0356 103.75 66.6875 103.75Z" fill="#A78227"/>
</g>
<defs>
<filter id="filter0_d_370_2888" x="5" y="4" width="168" height="168" filterUnits="userSpaceOnUse" color-interpolation-filters="sRGB">
<feFlood flood-opacity="0" result="BackgroundImageFix"/>
<feColorMatrix in="SourceAlpha" type="matrix" values="0 0 0 0 0 0 0 0 0 0 0 0 0 0 0 0 0 0 127 0" result="hardAlpha"/>
<feOffset/>
<feGaussianBlur stdDeviation="10"/>
<feComposite in2="hardAlpha" operator="out"/>
<feColorMatrix type="matrix" values="0 0 0 0 0 0 0 0 0 0 0 0 0 0 0 0 0 0 0.15 0"/>
<feBlend mode="normal" in2="BackgroundImageFix" result="effect1_dropShadow_370_2888"/>
<feBlend mode="normal" in="SourceGraphic" in2="effect1_dropShadow_370_2888" result="shape"/>
</filter>
<linearGradient id="paint0_linear_370_2888" x1="129.752" y1="107.516" x2="46.2996" y2="104.315" gradientUnits="userSpaceOnUse">
<stop stop-color="#EE3B34"/>
<stop offset="0.963542" stop-color="#FF0A00"/>
</linearGradient>
<clipPath id="clip0_370_2888">
<rect width="84" height="84" fill="white" transform="translate(47 46)"/>
</clipPath>
</defs>
</svg>
