<svg width="204" height="52" viewBox="0 0 204 52" fill="none" xmlns="http://www.w3.org/2000/svg">
<rect x="0.5" y="0.5" width="203" height="51" rx="7.5" stroke="black"/>
<path d="M1 8C1 4.13401 4.13401 1 8 1H37V51H8C4.13401 51 1 47.866 1 44V8Z" fill="#2E1FD3"/>
<path d="M19.0008 6.1748L19.4008 7.1748L20.4508 7.2248L19.6508 7.92481L19.9008 8.92481L19.0008 8.37481L18.1008 8.92481L18.3508 7.92481L17.5508 7.2248L18.6008 7.1748L19.0008 6.1748ZM14.6258 7.4223L15.0258 8.42231L16.0758 8.47231L15.2758 9.17231L15.5258 10.1723L14.6258 9.62231L13.7258 10.1723L13.9758 9.17231L13.1758 8.47231L14.2258 8.42231L14.6258 7.4223ZM11.4233 10.6248L11.8233 11.6248L12.8733 11.6748L12.0733 12.3748L12.3233 13.3748L11.4233 12.8248L10.5233 13.3748L10.7733 12.3748L9.97328 11.6748L11.0233 11.6248L11.4233 10.6248ZM10.2508 14.9998L10.6508 15.9998L11.7008 16.0498L10.9008 16.7498L11.1508 17.7498L10.2508 17.1998L9.35078 17.7498L9.60078 16.7498L8.80078 16.0498L9.85078 15.9998L10.2508 14.9998ZM27.7508 14.9998L27.3508 15.9998L26.3008 16.0498L27.1008 16.7498L26.8508 17.7498L27.7508 17.1998L28.6508 17.7498L28.4008 16.7498L29.2008 16.0498L28.1508 15.9998L27.7508 14.9998ZM11.4233 19.3748L11.8233 20.3748L12.8733 20.4248L12.0733 21.1248L12.3233 22.1248L11.4233 21.5748L10.5233 22.1248L10.7733 21.1248L9.97328 20.4248L11.0233 20.3748L11.4233 19.3748ZM14.6258 22.5773L15.0258 23.5773L16.0758 23.6273L15.2758 24.3273L15.5258 25.3273L14.6258 24.7773L13.7258 25.3273L13.9758 24.3273L13.1758 23.6273L14.2258 23.5773L14.6258 22.5773ZM23.8508 7.99981L24.9008 8.04981L24.1008 8.74981L24.3508 9.74981L23.4508 9.19981L22.5508 9.74981L22.8008 8.74981L22.0008 8.04981L23.0508 7.99981L23.4508 6.9998L23.8508 7.99981ZM26.9783 11.6248L28.0283 11.6748L27.2283 12.3748L27.4783 13.3748L26.5783 12.8248L25.6783 13.3748L25.9283 12.3748L25.1283 11.6748L26.1783 11.6248L26.5783 10.6248L26.9783 11.6248ZM26.9783 20.3748L28.0283 20.4248L27.2283 21.1248L27.4783 22.1248L26.5783 21.5748L25.6783 22.1248L25.9283 21.1248L25.1283 20.4248L26.1783 20.3748L26.5783 19.3748L26.9783 20.3748ZM23.7758 23.5773L24.8258 23.6273L24.0258 24.3273L24.2758 25.3273L23.3758 24.7773L22.4758 25.3273L22.7258 24.3273L21.9258 23.6273L22.9758 23.5773L23.3758 22.5773L23.7758 23.5773ZM19.0008 23.7498L19.4008 24.7498L20.4508 24.7998L19.6508 25.4998L19.9008 26.4998L19.0008 25.9498L18.1008 26.4998L18.3508 25.4998L17.5508 24.7998L18.6008 24.7498L19.0008 23.7498Z" fill="url(#paint0_linear_366_4652)"/>
<path d="M72.017 33H69.3807L73.3977 21.3636H76.5682L80.5795 33H77.9432L75.0284 24.0227H74.9375L72.017 33ZM71.8523 28.4261H78.0795V30.3466H71.8523V28.4261ZM81.9801 33V21.3636H86.571C87.4536 21.3636 88.2055 21.5322 88.8267 21.8693C89.4479 22.2027 89.9214 22.6667 90.2472 23.2614C90.5767 23.8523 90.7415 24.5341 90.7415 25.3068C90.7415 26.0795 90.5748 26.7614 90.2415 27.3523C89.9081 27.9432 89.4252 28.4034 88.7926 28.733C88.1638 29.0625 87.4025 29.2273 86.5085 29.2273H83.5824V27.2557H86.1108C86.5843 27.2557 86.9744 27.1742 87.2812 27.0114C87.5919 26.8447 87.8229 26.6155 87.9744 26.3239C88.1297 26.0284 88.2074 25.6894 88.2074 25.3068C88.2074 24.9205 88.1297 24.5833 87.9744 24.2955C87.8229 24.0038 87.5919 23.7784 87.2812 23.6193C86.9706 23.4564 86.5767 23.375 86.0994 23.375H84.4403V33H81.9801ZM101.037 21.3636V33H98.5767V23.6989H98.5085L95.8438 25.3693V23.1875L98.7244 21.3636H101.037ZM108.104 33.1591C107.255 33.1591 106.5 33.0133 105.837 32.7216C105.178 32.4261 104.657 32.0208 104.274 31.5057C103.895 30.9867 103.7 30.3883 103.689 29.7102H106.166C106.181 29.9943 106.274 30.2443 106.445 30.4602C106.619 30.6723 106.85 30.8371 107.138 30.9545C107.426 31.072 107.75 31.1307 108.109 31.1307C108.484 31.1307 108.816 31.0644 109.104 30.9318C109.392 30.7992 109.617 30.6155 109.78 30.3807C109.943 30.1458 110.024 29.875 110.024 29.5682C110.024 29.2576 109.937 28.983 109.763 28.7443C109.592 28.5019 109.346 28.3125 109.024 28.1761C108.706 28.0398 108.327 27.9716 107.888 27.9716H106.803V26.1648H107.888C108.259 26.1648 108.587 26.1004 108.871 25.9716C109.159 25.8428 109.382 25.6648 109.541 25.4375C109.7 25.2064 109.78 24.9375 109.78 24.6307C109.78 24.339 109.71 24.0833 109.57 23.8636C109.433 23.6402 109.24 23.4659 108.99 23.3409C108.744 23.2159 108.456 23.1534 108.126 23.1534C107.793 23.1534 107.488 23.214 107.212 23.3352C106.935 23.4527 106.714 23.6212 106.547 23.8409C106.38 24.0606 106.291 24.3182 106.28 24.6136H103.922C103.933 23.9432 104.125 23.3523 104.496 22.8409C104.867 22.3295 105.367 21.9299 105.996 21.642C106.628 21.3504 107.342 21.2045 108.138 21.2045C108.941 21.2045 109.643 21.3504 110.246 21.642C110.848 21.9337 111.316 22.3277 111.649 22.8239C111.986 23.3163 112.153 23.8693 112.149 24.483C112.153 25.1345 111.95 25.678 111.541 26.1136C111.136 26.5492 110.607 26.8258 109.956 26.9432V27.0341C110.812 27.1439 111.464 27.4413 111.911 27.9261C112.361 28.4072 112.585 29.0095 112.581 29.733C112.585 30.3958 112.393 30.9848 112.007 31.5C111.625 32.0152 111.096 32.4205 110.422 32.7159C109.748 33.0114 108.975 33.1591 108.104 33.1591ZM114.173 30.9545V29.017L119.031 21.3636H120.702V24.0455H119.713L116.651 28.892V28.983H123.554V30.9545H114.173ZM119.759 33V30.3636L119.804 29.5057V21.3636H122.111V33H119.759ZM125.017 30.9545V29.017L129.875 21.3636H131.545V24.0455H130.557L127.494 28.892V28.983H134.398V30.9545H125.017ZM130.602 33V30.3636L130.648 29.5057V21.3636H132.955V33H130.602ZM143.821 25.125C143.741 24.8485 143.63 24.6042 143.486 24.392C143.342 24.1761 143.166 23.9943 142.957 23.8466C142.753 23.6951 142.518 23.5795 142.253 23.5C141.991 23.4205 141.702 23.3807 141.384 23.3807C140.789 23.3807 140.266 23.5284 139.815 23.8239C139.368 24.1193 139.02 24.5492 138.77 25.1136C138.52 25.6742 138.395 26.3598 138.395 27.1705C138.395 27.9811 138.518 28.6705 138.764 29.2386C139.01 29.8068 139.359 30.2405 139.81 30.5398C140.26 30.8352 140.793 30.983 141.406 30.983C141.963 30.983 142.438 30.8845 142.832 30.6875C143.23 30.4867 143.533 30.2045 143.741 29.8409C143.954 29.4773 144.06 29.0473 144.06 28.5511L144.56 28.625H141.56V26.7727H146.429V28.2386C146.429 29.2614 146.213 30.1402 145.781 30.875C145.349 31.6061 144.755 32.1705 143.997 32.5682C143.24 32.9621 142.372 33.1591 141.395 33.1591C140.304 33.1591 139.346 32.9186 138.52 32.4375C137.694 31.9527 137.05 31.2652 136.588 30.375C136.13 29.4811 135.901 28.4205 135.901 27.1932C135.901 26.25 136.037 25.4091 136.31 24.6705C136.586 23.928 136.973 23.2992 137.469 22.7841C137.965 22.2689 138.543 21.8769 139.202 21.608C139.861 21.339 140.575 21.2045 141.344 21.2045C142.003 21.2045 142.616 21.3011 143.185 21.4943C143.753 21.6837 144.257 21.9527 144.696 22.3011C145.139 22.6496 145.501 23.0644 145.781 23.5455C146.062 24.0227 146.241 24.5492 146.321 25.125H143.821ZM148.277 33V21.3636H150.737V26.1648H155.732V21.3636H158.186V33H155.732V28.1932H150.737V33H148.277Z" fill="black"/>
<path d="M9.27841 44V32.3636H16.5739V33.875H11.0341V37.4205H16.1932V38.9261H11.0341V42.4886H16.642V44H9.27841ZM26.402 32.3636H28.1634V40.017C28.1634 40.8314 27.9721 41.553 27.5895 42.1818C27.2069 42.8068 26.669 43.2992 25.9759 43.6591C25.2827 44.0152 24.4702 44.1932 23.5384 44.1932C22.6103 44.1932 21.7997 44.0152 21.1065 43.6591C20.4134 43.2992 19.8755 42.8068 19.4929 42.1818C19.1103 41.553 18.919 40.8314 18.919 40.017V32.3636H20.6747V39.875C20.6747 40.4015 20.7902 40.8693 21.0213 41.2784C21.2562 41.6875 21.5876 42.0095 22.0156 42.2443C22.4437 42.4754 22.9512 42.5909 23.5384 42.5909C24.1293 42.5909 24.6387 42.4754 25.0668 42.2443C25.4986 42.0095 25.8281 41.6875 26.0554 41.2784C26.2865 40.8693 26.402 40.4015 26.402 39.875V32.3636Z" fill="#FFFDFD"/>
<defs>
<linearGradient id="paint0_linear_366_4652" x1="11.9648" y1="7.34026" x2="29.3243" y2="24.6998" gradientUnits="userSpaceOnUse">
<stop stop-color="#FFD869"/>
<stop offset="1" stop-color="#FEC52B"/>
</linearGradient>
</defs>
</svg>
