<svg width="22" height="21" viewBox="0 0 22 21" fill="none" xmlns="http://www.w3.org/2000/svg">
<path d="M11.0008 0.174805L11.4008 1.1748L12.4508 1.2248L11.6508 1.92481L11.9008 2.92481L11.0008 2.37481L10.1008 2.92481L10.3508 1.92481L9.55078 1.2248L10.6008 1.1748L11.0008 0.174805ZM6.62578 1.4223L7.02578 2.42231L8.07578 2.47231L7.27578 3.17231L7.52578 4.17231L6.62578 3.62231L5.72578 4.17231L5.97578 3.17231L5.17578 2.47231L6.22578 2.42231L6.62578 1.4223ZM3.42328 4.62481L3.82328 5.62481L4.87328 5.67481L4.07328 6.37481L4.32328 7.37481L3.42328 6.82481L2.52328 7.37481L2.77328 6.37481L1.97328 5.67481L3.02328 5.62481L3.42328 4.62481ZM2.25078 8.99981L2.65078 9.99981L3.70078 10.0498L2.90078 10.7498L3.15078 11.7498L2.25078 11.1998L1.35078 11.7498L1.60078 10.7498L0.800781 10.0498L1.85078 9.99981L2.25078 8.99981ZM19.7508 8.99981L19.3508 9.99981L18.3008 10.0498L19.1008 10.7498L18.8508 11.7498L19.7508 11.1998L20.6508 11.7498L20.4008 10.7498L21.2008 10.0498L20.1508 9.99981L19.7508 8.99981ZM3.42328 13.3748L3.82328 14.3748L4.87328 14.4248L4.07328 15.1248L4.32328 16.1248L3.42328 15.5748L2.52328 16.1248L2.77328 15.1248L1.97328 14.4248L3.02328 14.3748L3.42328 13.3748ZM6.62578 16.5773L7.02578 17.5773L8.07578 17.6273L7.27578 18.3273L7.52578 19.3273L6.62578 18.7773L5.72578 19.3273L5.97578 18.3273L5.17578 17.6273L6.22578 17.5773L6.62578 16.5773ZM15.8508 1.99981L16.9008 2.04981L16.1008 2.74981L16.3508 3.74981L15.4508 3.19981L14.5508 3.74981L14.8008 2.74981L14.0008 2.04981L15.0508 1.99981L15.4508 0.999805L15.8508 1.99981ZM18.9783 5.62481L20.0283 5.67481L19.2283 6.37481L19.4783 7.37481L18.5783 6.82481L17.6783 7.37481L17.9283 6.37481L17.1283 5.67481L18.1783 5.62481L18.5783 4.62481L18.9783 5.62481ZM18.9783 14.3748L20.0283 14.4248L19.2283 15.1248L19.4783 16.1248L18.5783 15.5748L17.6783 16.1248L17.9283 15.1248L17.1283 14.4248L18.1783 14.3748L18.5783 13.3748L18.9783 14.3748ZM15.7758 17.5773L16.8258 17.6273L16.0258 18.3273L16.2758 19.3273L15.3758 18.7773L14.4758 19.3273L14.7258 18.3273L13.9258 17.6273L14.9758 17.5773L15.3758 16.5773L15.7758 17.5773ZM11.0008 17.7498L11.4008 18.7498L12.4508 18.7998L11.6508 19.4998L11.9008 20.4998L11.0008 19.9498L10.1008 20.4998L10.3508 19.4998L9.55078 18.7998L10.6008 18.7498L11.0008 17.7498Z" fill="url(#paint0_linear_794_8855)"/>
<defs>
<linearGradient id="paint0_linear_794_8855" x1="3.96478" y1="1.34026" x2="21.3243" y2="18.6998" gradientUnits="userSpaceOnUse">
<stop stop-color="#FFD869"/>
<stop offset="1" stop-color="#FEC52B"/>
</linearGradient>
</defs>
</svg>
