<svg width="16" height="16" viewBox="0 0 16 16" fill="none" xmlns="http://www.w3.org/2000/svg">
<path d="M13.9333 2.86099C13.6985 2.21847 13.2721 1.66352 12.7118 1.27115C12.1514 0.878774 11.4841 0.667888 10.8 0.666992H5.2C4.51592 0.667888 3.84861 0.878774 3.28824 1.27115C2.72788 1.66352 2.30148 2.21847 2.06667 2.86099L0.26667 7.81233C0.0896361 8.29998 -0.000616488 8.81487 3.16924e-06 9.33366V10.0003C0.00119272 10.5155 0.122291 11.0234 0.353713 11.4837C0.585135 11.944 0.920526 12.3441 1.33334 12.6523C1.33334 12.6577 1.33334 12.6617 1.33334 12.667V14.0003C1.33334 14.5308 1.54405 15.0395 1.91912 15.4145C2.2942 15.7896 2.8029 16.0003 3.33334 16.0003C3.86377 16.0003 4.37248 15.7896 4.74755 15.4145C5.12262 15.0395 5.33334 14.5308 5.33334 14.0003V13.3337H10.6667V14.0003C10.6667 14.5308 10.8774 15.0395 11.2525 15.4145C11.6275 15.7896 12.1362 16.0003 12.6667 16.0003C13.1971 16.0003 13.7058 15.7896 14.0809 15.4145C14.456 15.0395 14.6667 14.5308 14.6667 14.0003V12.667C14.6667 12.6617 14.6667 12.6577 14.6667 12.6523C15.0795 12.3441 15.4149 11.944 15.6463 11.4837C15.8777 11.0234 15.9988 10.5155 16 10.0003V9.33366C16.0007 8.81508 15.9104 8.3004 15.7333 7.81299L13.9333 2.86099ZM3.32134 3.31699C3.46229 2.93177 3.71796 2.59902 4.05388 2.3636C4.38979 2.12817 4.7898 2.00138 5.2 2.00033H10.8C11.2104 2.00111 11.6107 2.12777 11.9469 2.36322C12.2831 2.59866 12.539 2.93156 12.68 3.31699L14.1387 7.33366H1.86067L3.32134 3.31699ZM4 14.0003C4 14.1771 3.92977 14.3467 3.80474 14.4717C3.67972 14.5968 3.51015 14.667 3.33334 14.667C3.15653 14.667 2.98696 14.5968 2.86193 14.4717C2.73691 14.3467 2.66667 14.1771 2.66667 14.0003V13.267C2.88609 13.3115 3.10944 13.3339 3.33334 13.3337H4V14.0003ZM13.3333 14.0003C13.3333 14.1771 13.2631 14.3467 13.1381 14.4717C13.0131 14.5968 12.8435 14.667 12.6667 14.667C12.4899 14.667 12.3203 14.5968 12.1953 14.4717C12.0702 14.3467 12 14.1771 12 14.0003V13.3337H12.6667C12.8906 13.3339 13.1139 13.3115 13.3333 13.267V14.0003ZM14.6667 10.0003C14.6667 10.5308 14.456 11.0395 14.0809 11.4145C13.7058 11.7896 13.1971 12.0003 12.6667 12.0003H3.33334C2.8029 12.0003 2.2942 11.7896 1.91912 11.4145C1.54405 11.0395 1.33334 10.5308 1.33334 10.0003V9.33366C1.33605 9.10917 1.3631 8.88565 1.414 8.66699H2.66667V9.33366C2.66667 9.51047 2.73691 9.68004 2.86193 9.80506C2.98696 9.93009 3.15653 10.0003 3.33334 10.0003C3.51015 10.0003 3.67972 9.93009 3.80474 9.80506C3.92977 9.68004 4 9.51047 4 9.33366V8.66699H12V9.33366C12 9.51047 12.0702 9.68004 12.1953 9.80506C12.3203 9.93009 12.4899 10.0003 12.6667 10.0003C12.8435 10.0003 13.0131 9.93009 13.1381 9.80506C13.2631 9.68004 13.3333 9.51047 13.3333 9.33366V8.66699H14.586C14.6369 8.88564 14.664 9.10917 14.6667 9.33366V10.0003Z" fill="#A78227"/>
</svg>
