<svg width="193" height="180" viewBox="0 0 193 180" fill="none" xmlns="http://www.w3.org/2000/svg">
<path fill-rule="evenodd" clip-rule="evenodd" d="M42.2613 45.2304C49.3377 47.6692 51.3365 57.0133 57.9506 60.5172C66.5523 65.074 79.9674 60.0225 85.4133 68.0907C90.5701 75.7308 85.3852 86.585 81.0285 94.7079C77.1468 101.945 69.7704 106.048 62.7604 110.326C56.3379 114.246 49.7797 118.072 42.2613 118.368C34.5362 118.673 27.3645 115.648 20.553 111.991C12.718 107.784 1.96276 104.496 0.191323 95.781C-1.60482 86.9448 9.76705 81.0345 12.5149 72.4465C15.2845 63.7906 9.38538 52.2254 16.0905 46.0907C22.6917 40.051 33.8023 42.3151 42.2613 45.2304Z" fill="#EE3B34" fill-opacity="0.1"/>
<path fill-rule="evenodd" clip-rule="evenodd" d="M82.1265 106.841C89.203 109.28 91.2017 118.624 97.8158 122.128C106.418 126.684 119.833 121.633 125.279 129.701C130.435 137.341 125.25 148.195 120.894 156.318C117.012 163.555 109.636 167.658 102.626 171.937C96.2031 175.856 89.6449 179.682 82.1265 179.979C74.4014 180.283 67.2297 177.258 60.4183 173.601C52.5832 169.394 41.828 166.106 40.0566 157.391C38.2604 148.555 49.6323 142.645 52.3802 134.057C55.1497 125.401 49.2506 113.836 55.9558 107.701C62.557 101.661 73.6675 103.925 82.1265 106.841Z" fill="black" fill-opacity="0.04"/>
<path fill-rule="evenodd" clip-rule="evenodd" d="M126.872 27.7503C138.099 32.0369 151.421 30.2452 160.47 38.1539C171.267 47.5893 181.652 60.5574 180.787 74.8696C179.921 89.2151 165.974 98.4593 156.194 108.99C146.89 119.007 138.923 132.604 125.386 134.518C112.045 136.405 99.3732 127.478 89.3821 118.439C81.4145 111.231 82.8669 98.2854 76.1068 89.934C67.5402 79.3509 45.5492 77.9402 45.5785 64.3245C45.6069 51.1218 66.8752 50.1106 76.2127 40.7766C84.3673 32.6251 85.1097 16.5168 96.2766 13.6454C107.426 10.7786 116.117 23.6443 126.872 27.7503Z" fill="black" fill-opacity="0.04"/>
<path d="M138.826 41.5772H136.007V38.7584C136.007 38.5715 135.933 38.3923 135.801 38.2601C135.669 38.128 135.489 38.0537 135.302 38.0537C135.116 38.0537 134.936 38.128 134.804 38.2601C134.672 38.3923 134.598 38.5715 134.598 38.7584V41.5772H131.779C131.592 41.5772 131.413 41.6514 131.281 41.7836C131.148 41.9158 131.074 42.095 131.074 42.2819C131.074 42.4688 131.148 42.648 131.281 42.7802C131.413 42.9124 131.592 42.9866 131.779 42.9866H134.598V45.8054C134.598 45.9923 134.672 46.1715 134.804 46.3037C134.936 46.4358 135.116 46.5101 135.302 46.5101C135.489 46.5101 135.669 46.4358 135.801 46.3037C135.933 46.1715 136.007 45.9923 136.007 45.8054V42.9866H138.826C139.013 42.9866 139.192 42.9124 139.324 42.7802C139.456 42.648 139.531 42.4688 139.531 42.2819C139.531 42.095 139.456 41.9158 139.324 41.7836C139.192 41.6514 139.013 41.5772 138.826 41.5772Z" fill="#EE3B34"/>
<path d="M102.584 157.551H99.7649V154.732C99.7649 154.545 99.6907 154.366 99.5585 154.234C99.4264 154.102 99.2471 154.027 99.0602 154.027C98.8733 154.027 98.6941 154.102 98.5619 154.234C98.4298 154.366 98.3555 154.545 98.3555 154.732V157.551H95.5367C95.3498 157.551 95.1706 157.625 95.0384 157.757C94.9063 157.889 94.832 158.069 94.832 158.256C94.832 158.442 94.9063 158.622 95.0384 158.754C95.1706 158.886 95.3498 158.96 95.5367 158.96H98.3555V161.779C98.3555 161.966 98.4298 162.145 98.5619 162.277C98.6941 162.409 98.8733 162.484 99.0602 162.484C99.2471 162.484 99.4264 162.409 99.5585 162.277C99.6907 162.145 99.7649 161.966 99.7649 161.779V158.96H102.584C102.771 158.96 102.95 158.886 103.082 158.754C103.214 158.622 103.288 158.442 103.288 158.256C103.288 158.069 103.214 157.889 103.082 157.757C102.95 157.625 102.771 157.551 102.584 157.551Z" fill="#EE3B34"/>
<path d="M62.0347 152.495L60.611 153.919L59.1873 152.495C59.0929 152.401 58.9648 152.348 58.8313 152.348C58.6978 152.348 58.5698 152.401 58.4754 152.495C58.381 152.59 58.328 152.718 58.328 152.851C58.328 152.985 58.381 153.113 58.4754 153.207L59.8991 154.631L58.4754 156.055C58.381 156.149 58.328 156.277 58.328 156.41C58.328 156.544 58.381 156.672 58.4754 156.766C58.5698 156.861 58.6978 156.914 58.8313 156.914C58.9648 156.914 59.0929 156.861 59.1873 156.766L60.611 155.343L62.0347 156.766C62.1291 156.861 62.2571 156.914 62.3906 156.914C62.5241 156.914 62.6521 156.861 62.7465 156.766C62.8409 156.672 62.8939 156.544 62.8939 156.41C62.8939 156.277 62.8409 156.149 62.7465 156.055L61.3228 154.631L62.7465 153.207C62.8409 153.113 62.8939 152.985 62.8939 152.851C62.8939 152.718 62.8409 152.59 62.7465 152.495C62.6521 152.401 62.5241 152.348 62.3906 152.348C62.2571 152.348 62.1291 152.401 62.0347 152.495Z" fill="#EE3B34"/>
<path d="M148.061 89.927L146.877 88.2986L148.505 87.1144C148.613 87.0359 148.685 86.9177 148.706 86.7858C148.727 86.654 148.695 86.5192 148.616 86.4113C148.538 86.3033 148.419 86.2309 148.288 86.2101C148.156 86.1893 148.021 86.2217 147.913 86.3002L146.285 87.4845L145.1 85.8561C145.022 85.7482 144.904 85.6758 144.772 85.655C144.64 85.6342 144.505 85.6666 144.397 85.7451C144.289 85.8236 144.217 85.9418 144.196 86.0737C144.175 86.2055 144.208 86.3403 144.286 86.4482L145.471 88.0766L143.842 89.2608C143.734 89.3393 143.662 89.4575 143.641 89.5894C143.62 89.7212 143.653 89.856 143.731 89.9639C143.81 90.0719 143.928 90.1443 144.06 90.1651C144.192 90.1859 144.326 90.1535 144.434 90.075L146.063 88.8907L147.247 90.5191C147.325 90.627 147.444 90.6994 147.575 90.7202C147.707 90.741 147.842 90.7086 147.95 90.6301C148.058 90.5516 148.13 90.4334 148.151 90.3015C148.172 90.1697 148.14 90.0349 148.061 89.927Z" fill="#EE3B34"/>
<g filter="url(#filter0_d_609_8799)">
<circle cx="83.3566" cy="94.2277" r="56.7785" fill="#FFFDFD"/>
</g>
<g clip-path="url(#clip0_609_8799)">
<path d="M101.477 82.1479H95.4369C95.4369 78.944 94.1642 75.8712 91.8986 73.6057C89.6331 71.3401 86.5603 70.0674 83.3564 70.0674C80.1524 70.0674 77.0797 71.3401 74.8142 73.6057C72.5486 75.8712 71.2758 78.944 71.2758 82.1479H65.2356C63.6336 82.1479 62.0972 82.7843 60.9645 83.9171C59.8317 85.0498 59.1953 86.5862 59.1953 88.1882V108.322C59.1985 110.991 60.2602 113.55 62.1474 115.437C64.0347 117.325 66.5934 118.386 69.2624 118.39H97.4503C100.119 118.386 102.678 117.325 104.565 115.437C106.453 113.55 107.514 110.991 107.517 108.322V88.1882C107.517 86.5862 106.881 85.0498 105.748 83.9171C104.616 82.7843 103.079 82.1479 101.477 82.1479ZM83.3564 74.0942C85.4924 74.0942 87.5408 74.9427 89.0512 76.4531C90.5616 77.9635 91.4101 80.0119 91.4101 82.1479H75.3027C75.3027 80.0119 76.1512 77.9635 77.6616 76.4531C79.1719 74.9427 81.2204 74.0942 83.3564 74.0942V74.0942ZM103.491 108.322C103.491 109.924 102.854 111.461 101.721 112.594C100.589 113.726 99.0523 114.363 97.4503 114.363H69.2624C67.6604 114.363 66.1241 113.726 64.9913 112.594C63.8585 111.461 63.2222 109.924 63.2222 108.322V88.1882C63.2222 87.6542 63.4343 87.1421 63.8119 86.7645C64.1895 86.3869 64.7016 86.1748 65.2356 86.1748H71.2758V90.2016C71.2758 90.7356 71.488 91.2477 71.8656 91.6253C72.2432 92.0029 72.7553 92.215 73.2893 92.215C73.8233 92.215 74.3354 92.0029 74.713 91.6253C75.0906 91.2477 75.3027 90.7356 75.3027 90.2016V86.1748H91.4101V90.2016C91.4101 90.7356 91.6222 91.2477 91.9998 91.6253C92.3774 92.0029 92.8895 92.215 93.4235 92.215C93.9575 92.215 94.4696 92.0029 94.8472 91.6253C95.2248 91.2477 95.4369 90.7356 95.4369 90.2016V86.1748H101.477C102.011 86.1748 102.523 86.3869 102.901 86.7645C103.278 87.1421 103.491 87.6542 103.491 88.1882V108.322Z" fill="#EE3B34"/>
</g>
<circle cx="21.1412" cy="54.9664" r="2.52013" stroke="#EE3B34"/>
<circle cx="71.8795" cy="172.148" r="2.52013" stroke="#EE3B34"/>
<circle cx="156.442" cy="58.5904" r="2.52013" stroke="#EE3B34"/>
<path d="M17.7495 90.2602L19.0003 89.7246L18.4647 90.9754L18.3639 91.2108L18.6016 91.3059L19.8648 91.8117L18.6016 92.3174L18.3639 92.4126L18.4647 92.6479L19.0003 93.8987L17.7495 93.3631L17.5141 93.2624L17.419 93.5L16.9132 94.7632L16.4075 93.5L16.3123 93.2624L16.077 93.3631L14.8262 93.8987L15.3618 92.6479L15.4625 92.4126L15.2249 92.3174L13.9617 91.8117L15.2249 91.3059L15.4625 91.2108L15.3618 90.9754L14.8262 89.7246L16.077 90.2602L16.3123 90.361L16.4075 90.1233L16.9132 88.8601L17.419 90.1233L17.5141 90.361L17.7495 90.2602Z" stroke="#EE3B34" stroke-width="0.5"/>
<path d="M138.554 56.435L139.805 55.8994L139.269 57.1502L139.169 57.3856L139.406 57.4807L140.669 57.9865L139.406 58.4922L139.169 58.5874L139.269 58.8227L139.805 60.0735L138.554 59.5379L138.319 59.4372L138.224 59.6748L137.718 60.938L137.212 59.6748L137.117 59.4372L136.882 59.5379L135.631 60.0735L136.166 58.8227L136.267 58.5874L136.03 58.4922L134.766 57.9865L136.03 57.4807L136.267 57.3856L136.166 57.1502L135.631 55.8994L136.882 56.435L137.117 56.5358L137.212 56.2981L137.718 55.0349L138.224 56.2981L138.319 56.5358L138.554 56.435Z" stroke="#EE3B34" stroke-width="0.5"/>
<defs>
<filter id="filter0_d_609_8799" x="14.5781" y="25.4492" width="137.557" height="137.557" filterUnits="userSpaceOnUse" color-interpolation-filters="sRGB">
<feFlood flood-opacity="0" result="BackgroundImageFix"/>
<feColorMatrix in="SourceAlpha" type="matrix" values="0 0 0 0 0 0 0 0 0 0 0 0 0 0 0 0 0 0 127 0" result="hardAlpha"/>
<feOffset/>
<feGaussianBlur stdDeviation="6"/>
<feComposite in2="hardAlpha" operator="out"/>
<feColorMatrix type="matrix" values="0 0 0 0 0 0 0 0 0 0 0 0 0 0 0 0 0 0 0.12 0"/>
<feBlend mode="normal" in2="BackgroundImageFix" result="effect1_dropShadow_609_8799"/>
<feBlend mode="normal" in="SourceGraphic" in2="effect1_dropShadow_609_8799" result="shape"/>
</filter>
<clipPath id="clip0_609_8799">
<rect width="48.3221" height="48.3221" fill="white" transform="translate(59.1953 70.0674)"/>
</clipPath>
</defs>
</svg>
