<svg width="12" height="16" viewBox="0 0 12 16" fill="none" xmlns="http://www.w3.org/2000/svg">
<path d="M10.6667 2.01467C10.6667 2.00933 10.6667 2.00533 10.6667 2V0.666667C10.6667 0.489856 10.5964 0.320286 10.4714 0.195262C10.3464 0.0702379 10.1768 0 10 0C9.82319 0 9.65362 0.0702379 9.52859 0.195262C9.40357 0.320286 9.33333 0.489856 9.33333 0.666667V1.4C9.11391 1.35544 8.89056 1.33311 8.66667 1.33333H8V0.666667C8 0.489856 7.92976 0.320286 7.80474 0.195262C7.67971 0.0702379 7.51014 0 7.33333 0C7.15652 0 6.98695 0.0702379 6.86193 0.195262C6.73691 0.320286 6.66667 0.489856 6.66667 0.666667V1.33333H5.33333V0.666667C5.33333 0.489856 5.2631 0.320286 5.13807 0.195262C5.01305 0.0702379 4.84348 0 4.66667 0C4.48986 0 4.32029 0.0702379 4.19526 0.195262C4.07024 0.320286 4 0.489856 4 0.666667V1.33333H3.33333C3.10944 1.33311 2.88609 1.35544 2.66667 1.4V0.666667C2.66667 0.489856 2.59643 0.320286 2.4714 0.195262C2.34638 0.0702379 2.17681 0 2 0C1.82319 0 1.65362 0.0702379 1.5286 0.195262C1.40357 0.320286 1.33333 0.489856 1.33333 0.666667V2V2.01467C0.920523 2.32292 0.585132 2.72303 0.35371 3.18332C0.122288 3.64362 0.00118955 4.15147 0 4.66667V12.6667C0.00105857 13.5504 0.352588 14.3976 0.97748 15.0225C1.60237 15.6474 2.4496 15.9989 3.33333 16H8.66667C9.5504 15.9989 10.3976 15.6474 11.0225 15.0225C11.6474 14.3976 11.9989 13.5504 12 12.6667V4.66667C11.9988 4.15147 11.8777 3.64362 11.6463 3.18332C11.4149 2.72303 11.0795 2.32292 10.6667 2.01467ZM10.6667 12.6667C10.6667 13.1971 10.456 13.7058 10.0809 14.0809C9.70581 14.456 9.1971 14.6667 8.66667 14.6667H3.33333C2.8029 14.6667 2.29419 14.456 1.91912 14.0809C1.54405 13.7058 1.33333 13.1971 1.33333 12.6667V4.66667C1.33333 4.13623 1.54405 3.62753 1.91912 3.25245C2.29419 2.87738 2.8029 2.66667 3.33333 2.66667H8.66667C9.1971 2.66667 9.70581 2.87738 10.0809 3.25245C10.456 3.62753 10.6667 4.13623 10.6667 4.66667V12.6667ZM9.33333 5.33333C9.33333 5.51014 9.2631 5.67971 9.13807 5.80474C9.01305 5.92976 8.84348 6 8.66667 6H3.33333C3.15652 6 2.98695 5.92976 2.86193 5.80474C2.7369 5.67971 2.66667 5.51014 2.66667 5.33333C2.66667 5.15652 2.7369 4.98695 2.86193 4.86193C2.98695 4.7369 3.15652 4.66667 3.33333 4.66667H8.66667C8.84348 4.66667 9.01305 4.7369 9.13807 4.86193C9.2631 4.98695 9.33333 5.15652 9.33333 5.33333ZM9.33333 8C9.33333 8.17681 9.2631 8.34638 9.13807 8.47141C9.01305 8.59643 8.84348 8.66667 8.66667 8.66667H3.33333C3.15652 8.66667 2.98695 8.59643 2.86193 8.47141C2.7369 8.34638 2.66667 8.17681 2.66667 8C2.66667 7.82319 2.7369 7.65362 2.86193 7.5286C2.98695 7.40357 3.15652 7.33333 3.33333 7.33333H8.66667C8.84348 7.33333 9.01305 7.40357 9.13807 7.5286C9.2631 7.65362 9.33333 7.82319 9.33333 8ZM6.66667 10.6667C6.66667 10.8435 6.59643 11.013 6.4714 11.1381C6.34638 11.2631 6.17681 11.3333 6 11.3333H3.33333C3.15652 11.3333 2.98695 11.2631 2.86193 11.1381C2.7369 11.013 2.66667 10.8435 2.66667 10.6667C2.66667 10.4899 2.7369 10.3203 2.86193 10.1953C2.98695 10.0702 3.15652 10 3.33333 10H6C6.17681 10 6.34638 10.0702 6.4714 10.1953C6.59643 10.3203 6.66667 10.4899 6.66667 10.6667Z" fill="#A78227"/>
</svg>
