<svg width="24" height="24" viewBox="0 0 24 24" fill="none" xmlns="http://www.w3.org/2000/svg">
<path d="M17.0076 20.9951L7.00764 21.0046C4.80764 21.0066 3.00614 19.2086 3.00364 17.0086L2.99414 7.00862C2.99214 4.80862 4.79014 3.00712 6.99014 3.00462L16.9901 2.99512C19.1901 2.99312 20.9916 4.79112 20.9941 6.99112L21.0036 16.9911C21.0061 19.1916 19.2076 20.9931 17.0076 20.9951Z" fill="url(#paint0_radial_418_5881)"/>
<path d="M17.0076 20.9951L7.00764 21.0046C4.80764 21.0066 3.00614 19.2086 3.00364 17.0086L2.99414 7.00862C2.99214 4.80862 4.79014 3.00712 6.99014 3.00462L16.9901 2.99512C19.1901 2.99312 20.9916 4.79112 20.9941 6.99112L21.0036 16.9911C21.0061 19.1916 19.2076 20.9931 17.0076 20.9951Z" fill="url(#paint1_radial_418_5881)"/>
<path d="M12 15.5C10.0705 15.5 8.5 13.93 8.5 12C8.5 10.07 10.0705 8.5 12 8.5C13.9295 8.5 15.5 10.07 15.5 12C15.5 13.93 13.9295 15.5 12 15.5ZM12 9.5C10.6215 9.5 9.5 10.6215 9.5 12C9.5 13.3785 10.6215 14.5 12 14.5C13.3785 14.5 14.5 13.3785 14.5 12C14.5 10.6215 13.3785 9.5 12 9.5Z" fill="white"/>
<path d="M15.75 9C16.1642 9 16.5 8.66421 16.5 8.25C16.5 7.83579 16.1642 7.5 15.75 7.5C15.3358 7.5 15 7.83579 15 8.25C15 8.66421 15.3358 9 15.75 9Z" fill="white"/>
<path d="M15 18.5H9C7.0705 18.5 5.5 16.93 5.5 15V9C5.5 7.07 7.0705 5.5 9 5.5H15C16.9295 5.5 18.5 7.07 18.5 9V15C18.5 16.93 16.9295 18.5 15 18.5ZM9 6.5C7.6215 6.5 6.5 7.6215 6.5 9V15C6.5 16.3785 7.6215 17.5 9 17.5H15C16.3785 17.5 17.5 16.3785 17.5 15V9C17.5 7.6215 16.3785 6.5 15 6.5H9Z" fill="white"/>
<defs>
<radialGradient id="paint0_radial_418_5881" cx="0" cy="0" r="1" gradientUnits="userSpaceOnUse" gradientTransform="translate(9.68914 21.0176) scale(22.4495)">
<stop stop-color="#FFDD55"/>
<stop offset="0.328" stop-color="#FF543F"/>
<stop offset="0.348" stop-color="#FC5245"/>
<stop offset="0.504" stop-color="#E64771"/>
<stop offset="0.643" stop-color="#D53E91"/>
<stop offset="0.761" stop-color="#CC39A4"/>
<stop offset="0.841" stop-color="#C837AB"/>
</radialGradient>
<radialGradient id="paint1_radial_418_5881" cx="0" cy="0" r="1" gradientUnits="userSpaceOnUse" gradientTransform="translate(5.89214 2.77027) scale(14.9065 9.9322)">
<stop stop-color="#4168C9"/>
<stop offset="0.999" stop-color="#4168C9" stop-opacity="0"/>
</radialGradient>
</defs>
</svg>
