<svg width="24" height="24" viewBox="0 0 24 24" fill="none" xmlns="http://www.w3.org/2000/svg">
<path d="M22 12C22 17.5225 17.5225 22 12 22C6.4775 22 2 17.5225 2 12C2 6.4775 6.4775 2 12 2C17.5225 2 22 6.4775 22 12Z" fill="url(#paint0_linear_418_5865)"/>
<path opacity="0.05" d="M5.05909 11.7329C9.13659 9.88544 13.9256 7.88094 14.6631 7.59094C16.2891 6.95144 16.9981 7.60494 16.8871 8.64744C16.7506 9.92494 16.1036 13.6424 15.7056 16.3059C15.4726 17.8644 14.6286 18.3419 13.6761 17.7374C12.9536 17.2789 10.4696 15.6524 9.81609 15.0964C9.37059 14.7174 9.06009 14.2924 9.37609 13.8594C9.46859 13.7329 9.70509 13.4779 9.83659 13.3509C10.4961 12.7119 10.4071 12.5744 9.60959 13.1449C9.51459 13.2129 8.96359 13.6124 8.73709 13.7634C8.18209 14.1334 7.67159 14.1534 6.80609 13.8594C6.09809 13.6189 5.41809 13.4334 4.98909 13.2479C4.39659 12.9914 4.16959 12.1359 5.05909 11.7329Z" fill="black"/>
<path opacity="0.07" d="M5.4175 11.7953C9.2035 10.1028 13.8595 8.16332 14.5405 7.88882C16.1725 7.22982 16.773 7.62082 16.5975 8.89432C16.4345 10.0733 15.856 13.7213 15.4505 16.1668C15.2115 17.6063 14.5135 17.9233 13.6045 17.3353C13.035 16.9683 10.743 15.4583 10.187 15.0188C9.757 14.6793 9.3115 14.2873 9.832 13.7198C10.006 13.5303 10.967 12.6028 11.6855 11.9128C12.102 11.5123 11.9535 11.3148 11.451 11.6588C10.5295 12.2903 9.022 13.2898 8.753 13.4713C8.2405 13.8163 7.759 13.8993 6.921 13.6358C6.2605 13.4278 5.6225 13.2263 5.29 13.0968C4.547 12.8088 4.537 12.1888 5.4175 11.7953Z" fill="black"/>
<path d="M5.77699 11.8583C9.27199 10.3208 13.7945 8.44627 14.419 8.18677C16.0565 7.50777 16.559 7.63777 16.3085 9.14177C16.1285 10.2228 15.6095 13.8013 15.1955 16.0288C14.95 17.3498 14.399 17.5063 13.533 16.9348C13.1165 16.6598 11.014 15.2693 10.5575 14.9428C10.141 14.6453 9.56649 14.2873 10.287 13.5823C10.5435 13.3313 12.224 11.7263 13.5335 10.4773C13.705 10.3133 13.4895 10.0438 13.2915 10.1753C11.5265 11.3458 9.07949 12.9703 8.76799 13.1818C8.29749 13.5013 7.84549 13.6478 7.03449 13.4148C6.42149 13.2388 5.82299 13.0288 5.58999 12.9488C4.69249 12.6408 4.90549 12.2418 5.77699 11.8583Z" fill="white"/>
<defs>
<linearGradient id="paint0_linear_418_5865" x1="4.929" y1="4.929" x2="19.071" y2="19.071" gradientUnits="userSpaceOnUse">
<stop stop-color="#33BEF0"/>
<stop offset="1" stop-color="#0A85D9"/>
</linearGradient>
</defs>
</svg>
